<svg width="287" height="96" viewBox="0 0 287 96" fill="none" xmlns="http://www.w3.org/2000/svg">
<path d="M20.088 27.9294C15.6732 34.3386 13.5552 42.0522 14.0779 49.8172C14.6006 57.5821 17.7334 64.9422 22.9673 70.7019C28.2011 76.4616 35.2287 80.2825 42.9083 81.5438C50.5879 82.8052 58.4684 81.433 65.2697 77.6501C72.071 73.8671 77.3934 67.8958 80.3724 60.706C83.3514 53.5162 83.812 45.5304 81.6793 38.0458C79.5466 30.5612 74.946 24.0175 68.6247 19.4778C62.3035 14.938 54.633 12.6689 46.8592 13.039L47.0233 16.4851C54.0197 16.152 60.9231 18.1942 66.6123 22.28C72.3014 26.3658 76.442 32.2551 78.3614 38.9912C80.2808 45.7273 79.8663 52.9146 77.1852 59.3854C74.5041 65.8562 69.7139 71.2304 63.5927 74.6351C57.4716 78.0397 50.3791 79.2747 43.4675 78.1395C36.5558 77.0042 30.231 73.5654 25.5205 68.3817C20.81 63.198 17.9905 56.5739 17.5201 49.5854C17.0497 42.597 18.9559 35.6548 22.9292 29.8865L20.088 27.9294Z" fill="url(#paint0_linear_0_1053)"/>
<path d="M48.5 13C42.8022 13 37.1932 14.4112 32.1738 17.1075C27.1544 19.8038 22.8809 23.7013 19.7351 28.4519L22.6116 30.3567C25.4428 26.0812 29.2889 22.5734 33.8064 20.1467C38.3239 17.7201 43.372 16.45 48.5 16.45V13Z" fill="#F0F0F0"/>
<line x1="105" y1="47" x2="286" y2="47" stroke="#B4B4B4" stroke-width="2" stroke-linecap="round" stroke-dasharray="4 4"/>
<path d="M47.4208 57.192C46.2368 57.192 45.0848 57.008 43.9648 56.64C42.8608 56.272 41.9568 55.776 41.2528 55.152L42.3568 53.256C42.9168 53.784 43.6448 54.216 44.5408 54.552C45.4368 54.888 46.3968 55.056 47.4208 55.056C48.6688 55.056 49.6368 54.792 50.3248 54.264C51.0288 53.72 51.3808 52.992 51.3808 52.08C51.3808 51.2 51.0448 50.496 50.3728 49.968C49.7168 49.424 48.6688 49.152 47.2288 49.152H45.8848V47.472L50.8768 41.328L51.2128 42.288H42.0208V40.2H53.1088V41.832L48.1408 47.952L46.8928 47.208H47.6848C49.7168 47.208 51.2368 47.664 52.2448 48.576C53.2688 49.488 53.7808 50.648 53.7808 52.056C53.7808 53 53.5488 53.864 53.0848 54.648C52.6208 55.432 51.9168 56.056 50.9728 56.52C50.0448 56.968 48.8608 57.192 47.4208 57.192Z" fill="#FD2CE1"/>
<defs>
<linearGradient id="paint0_linear_0_1053" x1="48.5" y1="13" x2="48.5" y2="82" gradientUnits="userSpaceOnUse">
<stop stop-color="#FF18E1"/>
<stop offset="0.462908" stop-color="#F668E0"/>
<stop offset="1" stop-color="#35BCDB"/>
</linearGradient>
</defs>
</svg>
