<svg width="287" height="96" viewBox="0 0 287 96" fill="none" xmlns="http://www.w3.org/2000/svg">
<path d="M14 47.5C14 54.3235 16.0234 60.9937 19.8143 66.6672C23.6052 72.3407 28.9934 76.7626 35.2974 79.3738C41.6015 81.9851 48.5383 82.6683 55.2306 81.3371C61.923 80.0059 68.0703 76.7201 72.8952 71.8952C77.7201 67.0703 81.0059 60.923 82.3371 54.2306C83.6683 47.5383 82.9851 40.6015 80.3738 34.2974C77.7626 27.9934 73.3407 22.6052 67.6672 18.8143C61.9937 15.0234 55.3235 13 48.5 13V16.45C54.6411 16.45 60.6443 18.2711 65.7505 21.6829C70.8566 25.0947 74.8364 29.944 77.1865 35.6177C79.5366 41.2913 80.1515 47.5344 78.9534 53.5576C77.7553 59.5807 74.7981 65.1132 70.4557 69.4557C66.1132 73.7981 60.5807 76.7553 54.5576 77.9534C48.5344 79.1515 42.2913 78.5366 36.6177 76.1865C30.944 73.8364 26.0947 69.8566 22.6829 64.7505C19.2711 59.6443 17.45 53.6411 17.45 47.5H14Z" fill="url(#paint0_linear_0_1052)"/>
<path d="M48.5 13C43.9694 13 39.4832 13.8924 35.2974 15.6262C31.1117 17.3599 27.3084 19.9012 24.1048 23.1048C20.9012 26.3084 18.3599 30.1117 16.6262 34.2974C14.8924 38.4832 14 42.9694 14 47.5H17.45C17.45 43.4225 18.2531 39.3848 19.8135 35.6177C21.3739 31.8505 23.6611 28.4276 26.5443 25.5443C29.4276 22.6611 32.8505 20.374 36.6177 18.8135C40.3848 17.2531 44.4225 16.45 48.5 16.45V13Z" fill="#F0F0F0"/>
<line x1="105" y1="47" x2="286" y2="47" stroke="#B4B4B4" stroke-width="2" stroke-linecap="round" stroke-dasharray="4 4"/>
<path d="M41.9974 57V55.368L48.8374 48.768C49.4454 48.192 49.8934 47.688 50.1814 47.256C50.4854 46.808 50.6854 46.4 50.7814 46.032C50.8934 45.648 50.9494 45.28 50.9494 44.928C50.9494 44.064 50.6454 43.384 50.0374 42.888C49.4294 42.392 48.5414 42.144 47.3734 42.144C46.4774 42.144 45.6694 42.296 44.9494 42.6C44.2294 42.888 43.6054 43.344 43.0774 43.968L41.4454 42.552C42.0854 41.736 42.9414 41.112 44.0134 40.68C45.1014 40.232 46.2934 40.008 47.5894 40.008C48.7574 40.008 49.7734 40.2 50.6374 40.584C51.5014 40.952 52.1654 41.488 52.6294 42.192C53.1094 42.896 53.3494 43.728 53.3494 44.688C53.3494 45.232 53.2774 45.768 53.1334 46.296C52.9894 46.824 52.7174 47.384 52.3174 47.976C51.9174 48.568 51.3414 49.232 50.5894 49.968L44.4934 55.848L43.9174 54.912H54.0694V57H41.9974Z" fill="#FD2CE1"/>
<defs>
<linearGradient id="paint0_linear_0_1052" x1="48.5" y1="13" x2="48.5" y2="82" gradientUnits="userSpaceOnUse">
<stop stop-color="#FF18E1"/>
<stop offset="0.462908" stop-color="#F668E0"/>
<stop offset="1" stop-color="#35BCDB"/>
</linearGradient>
</defs>
</svg>
