<svg width="163" height="17" viewBox="0 0 163 17" fill="none" xmlns="http://www.w3.org/2000/svg">
<g clip-path="url(#clip0_0_1063)">
<path d="M8.45755 0C3.84434 0 0 3.86364 0 8.5C0 13.1364 3.84434 17 8.45755 17C13.0708 17 16.9151 13.1364 16.9151 8.5C16.9151 3.86364 13.0708 0 8.45755 0ZM8.45755 15.4545C4.61321 15.4545 1.53774 12.3636 1.53774 8.5C1.53774 4.63636 4.61321 1.54545 8.45755 1.54545C12.3019 1.54545 15.3774 4.63636 15.3774 8.5C15.3774 12.3636 12.3019 15.4545 8.45755 15.4545Z" fill="#E5E5E5"/>
<path d="M44.593 0C39.9798 0 36.9043 3.86364 36.9043 8.5C36.9043 13.1364 40.7486 17 45.3618 17C49.9751 17 53.8194 13.1364 53.8194 8.5C53.8194 3.86364 49.9751 0 44.593 0ZM44.593 15.4545C41.5175 15.4545 38.442 12.3636 38.442 8.5C38.442 4.63636 41.5175 1.54545 45.3618 1.54545C49.2062 1.54545 52.2817 4.63636 52.2817 8.5C52.2817 12.3636 48.4373 15.4545 44.593 15.4545Z" fill="#E5E5E5"/>
<path d="M81.5005 0C76.8873 0 73.043 3.86364 73.043 8.5C73.043 13.1364 76.8873 17 81.5005 17C86.1137 17 89.958 13.1364 89.958 8.5C89.958 3.86364 86.1137 0 81.5005 0ZM81.5005 15.4545C77.6562 15.4545 74.5807 12.3636 74.5807 8.5C74.5807 4.63636 77.6562 1.54545 81.5005 1.54545C85.3448 1.54545 88.4203 4.63636 88.4203 8.5C88.4203 12.3636 85.3448 15.4545 81.5005 15.4545Z" fill="#E5E5E5"/>
<path d="M118.405 0C113.792 0 109.947 3.86364 109.947 8.5C109.947 13.1364 113.792 17 118.405 17C123.018 17 126.862 13.1364 126.862 8.5C126.862 3.86364 123.018 0 118.405 0ZM118.405 15.4545C114.56 15.4545 111.485 12.3636 111.485 8.5C111.485 4.63636 114.56 1.54545 118.405 1.54545C122.249 1.54545 125.325 4.63636 125.325 8.5C125.325 12.3636 121.48 15.4545 118.405 15.4545Z" fill="#E5E5E5"/>
<path d="M154.543 0C149.93 0 146.086 3.86364 146.086 8.5C146.086 13.1364 149.93 17 154.543 17C159.157 17 163.001 13.1364 163.001 8.5C163.001 3.86364 159.157 0 154.543 0ZM154.543 15.4545C150.699 15.4545 147.624 12.3636 147.624 8.5C147.624 4.63636 150.699 1.54545 154.543 1.54545C158.388 1.54545 161.463 4.63636 161.463 8.5C161.463 12.3636 158.388 15.4545 154.543 15.4545Z" fill="#E5E5E5"/>
</g>
<defs>
<clipPath id="clip0_0_1063">
<rect width="163" height="17" fill="white"/>
</clipPath>
</defs>
</svg>
