<svg width="78" height="78" viewBox="0 0 78 78" fill="none" xmlns="http://www.w3.org/2000/svg">
<g clip-path="url(#clip0_0_4874)" filter="url(#filter0_f_0_4874)">
<path d="M67.4167 36.4167H63.3376C62.7408 30.8339 60.2616 25.6206 56.3078 21.6344C52.3539 17.6482 47.161 15.1265 41.5833 14.4842V10.5833C41.5833 9.89819 41.3112 9.24111 40.8267 8.75664C40.3422 8.27217 39.6851 8 39 8C38.3149 8 37.6578 8.27217 37.1733 8.75664C36.6888 9.24111 36.4167 9.89819 36.4167 10.5833V14.4351C30.7559 14.989 25.4592 17.4779 21.4197 21.4821C17.3802 25.4863 14.8449 30.7609 14.2413 36.4167H10.5833C9.89819 36.4167 9.24111 36.6888 8.75664 37.1733C8.27217 37.6578 8 38.3149 8 39C8 39.6851 8.27217 40.3422 8.75664 40.8267C9.24111 41.3112 9.89819 41.5833 10.5833 41.5833H14.2413C14.8449 47.2391 17.3802 52.5137 21.4197 56.5179C25.4592 60.5221 30.7559 63.011 36.4167 63.5649V67.4167C36.4167 68.1018 36.6888 68.7589 37.1733 69.2434C37.6578 69.7278 38.3149 70 39 70C39.6851 70 40.3422 69.7278 40.8267 69.2434C41.3112 68.7589 41.5833 68.1018 41.5833 67.4167V63.5158C47.161 62.8735 52.3539 60.3518 56.3078 56.3656C60.2616 52.3794 62.7408 47.166 63.3376 41.5833H67.4167C68.1018 41.5833 68.7589 41.3112 69.2434 40.8267C69.7278 40.3422 70 39.6851 70 39C70 38.3149 69.7278 37.6578 69.2434 37.1733C68.7589 36.6888 68.1018 36.4167 67.4167 36.4167ZM41.5833 58.2949V54.5C41.5833 53.8149 41.3112 53.1578 40.8267 52.6733C40.3422 52.1888 39.6851 51.9167 39 51.9167C38.3149 51.9167 37.6578 52.1888 37.1733 52.6733C36.6888 53.1578 36.4167 53.8149 36.4167 54.5V58.3595C32.1348 57.8277 28.1495 55.8936 25.0825 52.8588C22.0154 49.824 20.0392 45.8593 19.4622 41.5833H23.5C24.1851 41.5833 24.8422 41.3112 25.3267 40.8267C25.8112 40.3422 26.0833 39.6851 26.0833 39C26.0833 38.3149 25.8112 37.6578 25.3267 37.1733C24.8422 36.6888 24.1851 36.4167 23.5 36.4167H19.4622C20.0392 32.1407 22.0154 28.176 25.0825 25.1412C28.1495 22.1064 32.1348 20.1723 36.4167 19.6405V23.5C36.4167 24.1851 36.6888 24.8422 37.1733 25.3267C37.6578 25.8112 38.3149 26.0833 39 26.0833C39.6851 26.0833 40.3422 25.8112 40.8267 25.3267C41.3112 24.8422 41.5833 24.1851 41.5833 23.5V19.7051C45.7797 20.3185 49.6624 22.2808 52.6451 25.2956C55.6277 28.3105 57.5483 32.214 58.1167 36.4167H54.5C53.8149 36.4167 53.1578 36.6888 52.6733 37.1733C52.1888 37.6578 51.9167 38.3149 51.9167 39C51.9167 39.6851 52.1888 40.3422 52.6733 40.8267C53.1578 41.3112 53.8149 41.5833 54.5 41.5833H58.1167C57.5483 45.786 55.6277 49.6895 52.6451 52.7044C49.6624 55.7192 45.7797 57.6815 41.5833 58.2949Z" fill="#5EB6F8"/>
<path d="M39 31.25C37.4672 31.25 35.9688 31.7045 34.6943 32.5561C33.4199 33.4077 32.4265 34.6181 31.8399 36.0342C31.2534 37.4503 31.0999 39.0086 31.3989 40.5119C31.698 42.0153 32.4361 43.3962 33.5199 44.4801C34.6038 45.5639 35.9847 46.3021 37.4881 46.6011C38.9914 46.9001 40.5497 46.7466 41.9658 46.1601C43.3819 45.5735 44.5923 44.5802 45.4439 43.3057C46.2955 42.0312 46.75 40.5328 46.75 39C46.75 36.9446 45.9335 34.9733 44.4801 33.5199C43.0267 32.0665 41.0554 31.25 39 31.25ZM39 41.5833C38.4891 41.5833 37.9896 41.4318 37.5648 41.148C37.14 40.8641 36.8088 40.4606 36.6133 39.9886C36.4178 39.5166 36.3666 38.9971 36.4663 38.496C36.566 37.9949 36.812 37.5346 37.1733 37.1733C37.5346 36.812 37.9949 36.566 38.496 36.4663C38.9971 36.3666 39.5166 36.4178 39.9886 36.6133C40.4606 36.8088 40.8641 37.1399 41.148 37.5648C41.4318 37.9896 41.5833 38.4891 41.5833 39C41.5833 39.6851 41.3112 40.3422 40.8267 40.8267C40.3422 41.3112 39.6851 41.5833 39 41.5833Z" fill="#5EB6F8"/>
</g>
<g clip-path="url(#clip1_0_4874)" filter="url(#filter1_f_0_4874)">
<path d="M67.4167 36.4167H63.3376C62.7408 30.8339 60.2616 25.6206 56.3078 21.6344C52.3539 17.6482 47.161 15.1265 41.5833 14.4842V10.5833C41.5833 9.89819 41.3112 9.24111 40.8267 8.75664C40.3422 8.27217 39.6851 8 39 8C38.3149 8 37.6578 8.27217 37.1733 8.75664C36.6888 9.24111 36.4167 9.89819 36.4167 10.5833V14.4351C30.7559 14.989 25.4592 17.4779 21.4197 21.4821C17.3802 25.4863 14.8449 30.7609 14.2413 36.4167H10.5833C9.89819 36.4167 9.24111 36.6888 8.75664 37.1733C8.27217 37.6578 8 38.3149 8 39C8 39.6851 8.27217 40.3422 8.75664 40.8267C9.24111 41.3112 9.89819 41.5833 10.5833 41.5833H14.2413C14.8449 47.2391 17.3802 52.5137 21.4197 56.5179C25.4592 60.5221 30.7559 63.011 36.4167 63.5649V67.4167C36.4167 68.1018 36.6888 68.7589 37.1733 69.2434C37.6578 69.7278 38.3149 70 39 70C39.6851 70 40.3422 69.7278 40.8267 69.2434C41.3112 68.7589 41.5833 68.1018 41.5833 67.4167V63.5158C47.161 62.8735 52.3539 60.3518 56.3078 56.3656C60.2616 52.3794 62.7408 47.166 63.3376 41.5833H67.4167C68.1018 41.5833 68.7589 41.3112 69.2434 40.8267C69.7278 40.3422 70 39.6851 70 39C70 38.3149 69.7278 37.6578 69.2434 37.1733C68.7589 36.6888 68.1018 36.4167 67.4167 36.4167ZM41.5833 58.2949V54.5C41.5833 53.8149 41.3112 53.1578 40.8267 52.6733C40.3422 52.1888 39.6851 51.9167 39 51.9167C38.3149 51.9167 37.6578 52.1888 37.1733 52.6733C36.6888 53.1578 36.4167 53.8149 36.4167 54.5V58.3595C32.1348 57.8277 28.1495 55.8936 25.0825 52.8588C22.0154 49.824 20.0392 45.8593 19.4622 41.5833H23.5C24.1851 41.5833 24.8422 41.3112 25.3267 40.8267C25.8112 40.3422 26.0833 39.6851 26.0833 39C26.0833 38.3149 25.8112 37.6578 25.3267 37.1733C24.8422 36.6888 24.1851 36.4167 23.5 36.4167H19.4622C20.0392 32.1407 22.0154 28.176 25.0825 25.1412C28.1495 22.1064 32.1348 20.1723 36.4167 19.6405V23.5C36.4167 24.1851 36.6888 24.8422 37.1733 25.3267C37.6578 25.8112 38.3149 26.0833 39 26.0833C39.6851 26.0833 40.3422 25.8112 40.8267 25.3267C41.3112 24.8422 41.5833 24.1851 41.5833 23.5V19.7051C45.7797 20.3185 49.6624 22.2808 52.6451 25.2956C55.6277 28.3105 57.5483 32.214 58.1167 36.4167H54.5C53.8149 36.4167 53.1578 36.6888 52.6733 37.1733C52.1888 37.6578 51.9167 38.3149 51.9167 39C51.9167 39.6851 52.1888 40.3422 52.6733 40.8267C53.1578 41.3112 53.8149 41.5833 54.5 41.5833H58.1167C57.5483 45.786 55.6277 49.6895 52.6451 52.7044C49.6624 55.7192 45.7797 57.6815 41.5833 58.2949Z" fill="#5EB6F8"/>
<path d="M39 31.25C37.4672 31.25 35.9688 31.7045 34.6943 32.5561C33.4199 33.4077 32.4265 34.6181 31.8399 36.0342C31.2534 37.4503 31.0999 39.0086 31.3989 40.5119C31.698 42.0153 32.4361 43.3962 33.5199 44.4801C34.6038 45.5639 35.9847 46.3021 37.4881 46.6011C38.9914 46.9001 40.5497 46.7466 41.9658 46.1601C43.3819 45.5735 44.5923 44.5802 45.4439 43.3057C46.2955 42.0312 46.75 40.5328 46.75 39C46.75 36.9446 45.9335 34.9733 44.4801 33.5199C43.0267 32.0665 41.0554 31.25 39 31.25ZM39 41.5833C38.4891 41.5833 37.9896 41.4318 37.5648 41.148C37.14 40.8641 36.8088 40.4606 36.6133 39.9886C36.4178 39.5166 36.3666 38.9971 36.4663 38.496C36.566 37.9949 36.812 37.5346 37.1733 37.1733C37.5346 36.812 37.9949 36.566 38.496 36.4663C38.9971 36.3666 39.5166 36.4178 39.9886 36.6133C40.4606 36.8088 40.8641 37.1399 41.148 37.5648C41.4318 37.9896 41.5833 38.4891 41.5833 39C41.5833 39.6851 41.3112 40.3422 40.8267 40.8267C40.3422 41.3112 39.6851 41.5833 39 41.5833Z" fill="#5EB6F8"/>
</g>
<g clip-path="url(#clip2_0_4874)">
<path d="M67.4167 36.4167H63.3376C62.7408 30.8339 60.2616 25.6206 56.3078 21.6344C52.3539 17.6482 47.161 15.1265 41.5833 14.4842V10.5833C41.5833 9.89819 41.3112 9.24111 40.8267 8.75664C40.3422 8.27217 39.6851 8 39 8C38.3149 8 37.6578 8.27217 37.1733 8.75664C36.6888 9.24111 36.4167 9.89819 36.4167 10.5833V14.4351C30.7559 14.989 25.4592 17.4779 21.4197 21.4821C17.3802 25.4863 14.8449 30.7609 14.2413 36.4167H10.5833C9.89819 36.4167 9.24111 36.6888 8.75664 37.1733C8.27217 37.6578 8 38.3149 8 39C8 39.6851 8.27217 40.3422 8.75664 40.8267C9.24111 41.3112 9.89819 41.5833 10.5833 41.5833H14.2413C14.8449 47.2391 17.3802 52.5137 21.4197 56.5179C25.4592 60.5221 30.7559 63.011 36.4167 63.5649V67.4167C36.4167 68.1018 36.6888 68.7589 37.1733 69.2434C37.6578 69.7278 38.3149 70 39 70C39.6851 70 40.3422 69.7278 40.8267 69.2434C41.3112 68.7589 41.5833 68.1018 41.5833 67.4167V63.5158C47.161 62.8735 52.3539 60.3518 56.3078 56.3656C60.2616 52.3794 62.7408 47.166 63.3376 41.5833H67.4167C68.1018 41.5833 68.7589 41.3112 69.2434 40.8267C69.7278 40.3422 70 39.6851 70 39C70 38.3149 69.7278 37.6578 69.2434 37.1733C68.7589 36.6888 68.1018 36.4167 67.4167 36.4167ZM41.5833 58.2949V54.5C41.5833 53.8149 41.3112 53.1578 40.8267 52.6733C40.3422 52.1888 39.6851 51.9167 39 51.9167C38.3149 51.9167 37.6578 52.1888 37.1733 52.6733C36.6888 53.1578 36.4167 53.8149 36.4167 54.5V58.3595C32.1348 57.8277 28.1495 55.8936 25.0825 52.8588C22.0154 49.824 20.0392 45.8593 19.4622 41.5833H23.5C24.1851 41.5833 24.8422 41.3112 25.3267 40.8267C25.8112 40.3422 26.0833 39.6851 26.0833 39C26.0833 38.3149 25.8112 37.6578 25.3267 37.1733C24.8422 36.6888 24.1851 36.4167 23.5 36.4167H19.4622C20.0392 32.1407 22.0154 28.176 25.0825 25.1412C28.1495 22.1064 32.1348 20.1723 36.4167 19.6405V23.5C36.4167 24.1851 36.6888 24.8422 37.1733 25.3267C37.6578 25.8112 38.3149 26.0833 39 26.0833C39.6851 26.0833 40.3422 25.8112 40.8267 25.3267C41.3112 24.8422 41.5833 24.1851 41.5833 23.5V19.7051C45.7797 20.3185 49.6624 22.2808 52.6451 25.2956C55.6277 28.3105 57.5483 32.214 58.1167 36.4167H54.5C53.8149 36.4167 53.1578 36.6888 52.6733 37.1733C52.1888 37.6578 51.9167 38.3149 51.9167 39C51.9167 39.6851 52.1888 40.3422 52.6733 40.8267C53.1578 41.3112 53.8149 41.5833 54.5 41.5833H58.1167C57.5483 45.786 55.6277 49.6895 52.6451 52.7044C49.6624 55.7192 45.7797 57.6815 41.5833 58.2949Z" fill="#D1EAFF"/>
<path d="M39 31.25C37.4672 31.25 35.9688 31.7045 34.6943 32.5561C33.4199 33.4077 32.4265 34.6181 31.8399 36.0342C31.2534 37.4503 31.0999 39.0086 31.3989 40.5119C31.698 42.0153 32.4361 43.3962 33.5199 44.4801C34.6038 45.5639 35.9847 46.3021 37.4881 46.6011C38.9914 46.9001 40.5497 46.7466 41.9658 46.1601C43.3819 45.5735 44.5923 44.5802 45.4439 43.3057C46.2955 42.0312 46.75 40.5328 46.75 39C46.75 36.9446 45.9335 34.9733 44.4801 33.5199C43.0267 32.0665 41.0554 31.25 39 31.25ZM39 41.5833C38.4891 41.5833 37.9896 41.4318 37.5648 41.148C37.14 40.8641 36.8088 40.4606 36.6133 39.9886C36.4178 39.5166 36.3666 38.9971 36.4663 38.496C36.566 37.9949 36.812 37.5346 37.1733 37.1733C37.5346 36.812 37.9949 36.566 38.496 36.4663C38.9971 36.3666 39.5166 36.4178 39.9886 36.6133C40.4606 36.8088 40.8641 37.1399 41.148 37.5648C41.4318 37.9896 41.5833 38.4891 41.5833 39C41.5833 39.6851 41.3112 40.3422 40.8267 40.8267C40.3422 41.3112 39.6851 41.5833 39 41.5833Z" fill="#D1EAFF"/>
</g>
<g clip-path="url(#clip3_0_4874)">
<path d="M68.375 35.875H64.2301C63.6237 30.2022 61.1045 24.9048 57.0869 20.8543C53.0693 16.8038 47.7926 14.2414 42.125 13.5887V9.625C42.125 8.92881 41.8484 8.26113 41.3562 7.76884C40.8639 7.27656 40.1962 7 39.5 7C38.8038 7 38.1361 7.27656 37.6438 7.76884C37.1516 8.26113 36.875 8.92881 36.875 9.625V13.5389C31.1229 14.1017 25.7408 16.6307 21.6361 20.6995C17.5314 24.7684 14.9553 30.1281 14.342 35.875H10.625C9.92881 35.875 9.26113 36.1516 8.76884 36.6438C8.27656 37.1361 8 37.8038 8 38.5C8 39.1962 8.27656 39.8639 8.76884 40.3562C9.26113 40.8484 9.92881 41.125 10.625 41.125H14.342C14.9553 46.8719 17.5314 52.2316 21.6361 56.3005C25.7408 60.3693 31.1229 62.8983 36.875 63.4611V67.375C36.875 68.0712 37.1516 68.7389 37.6438 69.2312C38.1361 69.7234 38.8038 70 39.5 70C40.1962 70 40.8639 69.7234 41.3562 69.2312C41.8484 68.7389 42.125 68.0712 42.125 67.375V63.4113C47.7926 62.7586 53.0693 60.1962 57.0869 56.1457C61.1045 52.0952 63.6237 46.7978 64.2301 41.125H68.375C69.0712 41.125 69.7389 40.8484 70.2312 40.3562C70.7234 39.8639 71 39.1962 71 38.5C71 37.8038 70.7234 37.1361 70.2312 36.6438C69.7389 36.1516 69.0712 35.875 68.375 35.875ZM42.125 58.1061V54.25C42.125 53.5538 41.8484 52.8861 41.3562 52.3938C40.8639 51.9016 40.1962 51.625 39.5 51.625C38.8038 51.625 38.1361 51.9016 37.6438 52.3938C37.1516 52.8861 36.875 53.5538 36.875 54.25V58.1717C32.5241 57.6314 28.4745 55.666 25.358 52.5823C22.2415 49.4986 20.2334 45.4699 19.6471 41.125H23.75C24.4462 41.125 25.1139 40.8484 25.6062 40.3562C26.0984 39.8639 26.375 39.1962 26.375 38.5C26.375 37.8038 26.0984 37.1361 25.6062 36.6438C25.1139 36.1516 24.4462 35.875 23.75 35.875H19.6471C20.2334 31.5301 22.2415 27.5014 25.358 24.4177C28.4745 21.3339 32.5241 19.3686 36.875 18.8282V22.75C36.875 23.4462 37.1516 24.1139 37.6438 24.6062C38.1361 25.0984 38.8038 25.375 39.5 25.375C40.1962 25.375 40.8639 25.0984 41.3562 24.6062C41.8484 24.1139 42.125 23.4462 42.125 22.75V18.8939C46.389 19.5172 50.3344 21.5112 53.3651 24.5746C56.3959 27.638 58.3475 31.6046 58.925 35.875H55.25C54.5538 35.875 53.8861 36.1516 53.3938 36.6438C52.9016 37.1361 52.625 37.8038 52.625 38.5C52.625 39.1962 52.9016 39.8639 53.3938 40.3562C53.8861 40.8484 54.5538 41.125 55.25 41.125H58.925C58.3475 45.3954 56.3959 49.362 53.3651 52.4254C50.3344 55.4888 46.389 57.4828 42.125 58.1061Z" fill="#5EB6F8"/>
<path d="M39.5 30.625C37.9425 30.625 36.4199 31.0869 35.1249 31.9522C33.8299 32.8175 32.8205 34.0474 32.2245 35.4864C31.6284 36.9253 31.4725 38.5087 31.7763 40.0363C32.0802 41.5639 32.8302 42.9671 33.9315 44.0685C35.0329 45.1698 36.4361 45.9198 37.9637 46.2237C39.4913 46.5275 41.0747 46.3716 42.5136 45.7756C43.9526 45.1795 45.1825 44.1702 46.0478 42.8751C46.9131 41.5801 47.375 40.0575 47.375 38.5C47.375 36.4114 46.5453 34.4084 45.0685 32.9315C43.5916 31.4547 41.5886 30.625 39.5 30.625ZM39.5 41.125C38.9808 41.125 38.4733 40.971 38.0416 40.6826C37.61 40.3942 37.2735 39.9842 37.0748 39.5045C36.8761 39.0249 36.8242 38.4971 36.9254 37.9879C37.0267 37.4787 37.2767 37.011 37.6438 36.6438C38.011 36.2767 38.4787 36.0267 38.9879 35.9254C39.4971 35.8242 40.0249 35.8761 40.5045 36.0748C40.9842 36.2735 41.3942 36.6099 41.6826 37.0416C41.9711 37.4733 42.125 37.9808 42.125 38.5C42.125 39.1962 41.8484 39.8639 41.3562 40.3562C40.8639 40.8484 40.1962 41.125 39.5 41.125Z" fill="#5EB6F8"/>
</g>
<defs>
<filter id="filter0_f_0_4874" x="1" y="1" width="76" height="76" filterUnits="userSpaceOnUse" color-interpolation-filters="sRGB">
<feFlood flood-opacity="0" result="BackgroundImageFix"/>
<feBlend mode="normal" in="SourceGraphic" in2="BackgroundImageFix" result="shape"/>
<feGaussianBlur stdDeviation="3.5" result="effect1_foregroundBlur_0_4874"/>
</filter>
<filter id="filter1_f_0_4874" x="0" y="0" width="78" height="78" filterUnits="userSpaceOnUse" color-interpolation-filters="sRGB">
<feFlood flood-opacity="0" result="BackgroundImageFix"/>
<feBlend mode="normal" in="SourceGraphic" in2="BackgroundImageFix" result="shape"/>
<feGaussianBlur stdDeviation="4" result="effect1_foregroundBlur_0_4874"/>
</filter>
<clipPath id="clip0_0_4874">
<rect width="62" height="62" fill="white" transform="translate(8 8)"/>
</clipPath>
<clipPath id="clip1_0_4874">
<rect width="62" height="62" fill="white" transform="translate(8 8)"/>
</clipPath>
<clipPath id="clip2_0_4874">
<rect width="62" height="62" fill="white" transform="translate(8 8)"/>
</clipPath>
<clipPath id="clip3_0_4874">
<rect width="63" height="63" fill="white" transform="translate(8 7)"/>
</clipPath>
</defs>
</svg>
