<svg width="74" height="74" viewBox="0 0 74 74" fill="none" xmlns="http://www.w3.org/2000/svg">
<g clip-path="url(#clip0_0_4893)" filter="url(#filter0_f_0_4893)">
<path d="M60.9167 18.3334H53.3333C52.0453 18.3334 51 19.3787 51 20.6667C51 21.9547 52.0453 23 53.3333 23H60.3333V51H13.6667V23H20.6667C21.9547 23 23 21.9547 23 20.6667C23 19.3787 21.9547 18.3334 20.6667 18.3334H13.0833C10.8293 18.3334 9 20.1627 9 22.4167V51.5834C9 53.8374 10.8293 55.6667 13.0833 55.6667H32.3333V60.3334H27.6667C26.3787 60.3334 25.3333 61.3787 25.3333 62.6667C25.3333 63.9547 26.3787 65 27.6667 65H46.3333C47.6237 65 48.6667 63.9547 48.6667 62.6667C48.6667 61.3787 47.6237 60.3334 46.3333 60.3334H41.6667V55.6667H60.9167C63.1707 55.6667 65 53.8374 65 51.5834V22.4167C65 20.1627 63.1707 18.3334 60.9167 18.3334Z" fill="#5EB6F8"/>
<path d="M45.6404 21.761C45.6848 21.3993 45.7501 21.0423 45.7501 20.6667C45.7501 20.291 45.6848 19.934 45.6404 19.5723L47.7428 17.981C48.2118 17.6263 48.3424 16.9777 48.0484 16.4667L46.1608 13.2C45.8668 12.6913 45.2391 12.479 44.6978 12.7077L42.2781 13.7273C41.6878 13.277 41.0601 12.8803 40.3671 12.591L40.0451 10.022C39.9704 9.43867 39.4758 9 38.8878 9H35.1148C34.5268 9 34.0298 9.43867 33.9574 10.022L33.6354 12.591C32.9401 12.8803 32.3124 13.2793 31.7221 13.7273L29.3048 12.7077C28.7611 12.479 28.1334 12.689 27.8394 13.2L25.9541 16.4667C25.6601 16.9753 25.7908 17.624 26.2598 17.981L28.3621 19.5723C28.3154 19.934 28.2501 20.291 28.2501 20.6667C28.2501 21.0423 28.3154 21.3993 28.3598 21.761L26.2598 23.3523C25.7908 23.707 25.6578 24.3557 25.9541 24.8667L27.8394 28.1333C28.1334 28.6443 28.7611 28.8543 29.3048 28.6257L31.7244 27.6037C32.3148 28.054 32.9424 28.4507 33.6354 28.74L33.9574 31.309C34.0298 31.8947 34.5244 32.3333 35.1124 32.3333H38.8854C39.4734 32.3333 39.9704 31.8947 40.0428 31.3113L40.3648 28.7423C41.0578 28.453 41.6878 28.054 42.2758 27.606L44.6954 28.6257C45.2391 28.8543 45.8668 28.6443 46.1608 28.1333L48.0461 24.8667C48.3401 24.358 48.2094 23.7093 47.7404 23.3523L45.6404 21.761ZM37.0001 25.3333C34.4218 25.3333 32.3334 23.245 32.3334 20.6667C32.3334 18.0883 34.4218 16 37.0001 16C39.5784 16 41.6668 18.0883 41.6668 20.6667C41.6668 23.245 39.5784 25.3333 37.0001 25.3333Z" fill="#5EB6F8"/>
</g>
<g clip-path="url(#clip1_0_4893)" filter="url(#filter1_f_0_4893)">
<path d="M60.9167 18.3334H53.3333C52.0453 18.3334 51 19.3787 51 20.6667C51 21.9547 52.0453 23 53.3333 23H60.3333V51H13.6667V23H20.6667C21.9547 23 23 21.9547 23 20.6667C23 19.3787 21.9547 18.3334 20.6667 18.3334H13.0833C10.8293 18.3334 9 20.1627 9 22.4167V51.5834C9 53.8374 10.8293 55.6667 13.0833 55.6667H32.3333V60.3334H27.6667C26.3787 60.3334 25.3333 61.3787 25.3333 62.6667C25.3333 63.9547 26.3787 65 27.6667 65H46.3333C47.6237 65 48.6667 63.9547 48.6667 62.6667C48.6667 61.3787 47.6237 60.3334 46.3333 60.3334H41.6667V55.6667H60.9167C63.1707 55.6667 65 53.8374 65 51.5834V22.4167C65 20.1627 63.1707 18.3334 60.9167 18.3334Z" fill="#5EB6F8"/>
<path d="M45.6404 21.761C45.6848 21.3993 45.7501 21.0423 45.7501 20.6667C45.7501 20.291 45.6848 19.934 45.6404 19.5723L47.7428 17.981C48.2118 17.6263 48.3424 16.9777 48.0484 16.4667L46.1608 13.2C45.8668 12.6913 45.2391 12.479 44.6978 12.7077L42.2781 13.7273C41.6878 13.277 41.0601 12.8803 40.3671 12.591L40.0451 10.022C39.9704 9.43867 39.4758 9 38.8878 9H35.1148C34.5268 9 34.0298 9.43867 33.9574 10.022L33.6354 12.591C32.9401 12.8803 32.3124 13.2793 31.7221 13.7273L29.3048 12.7077C28.7611 12.479 28.1334 12.689 27.8394 13.2L25.9541 16.4667C25.6601 16.9753 25.7908 17.624 26.2598 17.981L28.3621 19.5723C28.3154 19.934 28.2501 20.291 28.2501 20.6667C28.2501 21.0423 28.3154 21.3993 28.3598 21.761L26.2598 23.3523C25.7908 23.707 25.6578 24.3557 25.9541 24.8667L27.8394 28.1333C28.1334 28.6443 28.7611 28.8543 29.3048 28.6257L31.7244 27.6037C32.3148 28.054 32.9424 28.4507 33.6354 28.74L33.9574 31.309C34.0298 31.8947 34.5244 32.3333 35.1124 32.3333H38.8854C39.4734 32.3333 39.9704 31.8947 40.0428 31.3113L40.3648 28.7423C41.0578 28.453 41.6878 28.054 42.2758 27.606L44.6954 28.6257C45.2391 28.8543 45.8668 28.6443 46.1608 28.1333L48.0461 24.8667C48.3401 24.358 48.2094 23.7093 47.7404 23.3523L45.6404 21.761ZM37.0001 25.3333C34.4218 25.3333 32.3334 23.245 32.3334 20.6667C32.3334 18.0883 34.4218 16 37.0001 16C39.5784 16 41.6668 18.0883 41.6668 20.6667C41.6668 23.245 39.5784 25.3333 37.0001 25.3333Z" fill="#5EB6F8"/>
</g>
<g clip-path="url(#clip2_0_4893)">
<path d="M60.9167 18.3334H53.3333C52.0453 18.3334 51 19.3787 51 20.6667C51 21.9547 52.0453 23 53.3333 23H60.3333V51H13.6667V23H20.6667C21.9547 23 23 21.9547 23 20.6667C23 19.3787 21.9547 18.3334 20.6667 18.3334H13.0833C10.8293 18.3334 9 20.1627 9 22.4167V51.5834C9 53.8374 10.8293 55.6667 13.0833 55.6667H32.3333V60.3334H27.6667C26.3787 60.3334 25.3333 61.3787 25.3333 62.6667C25.3333 63.9547 26.3787 65 27.6667 65H46.3333C47.6237 65 48.6667 63.9547 48.6667 62.6667C48.6667 61.3787 47.6237 60.3334 46.3333 60.3334H41.6667V55.6667H60.9167C63.1707 55.6667 65 53.8374 65 51.5834V22.4167C65 20.1627 63.1707 18.3334 60.9167 18.3334Z" fill="#D1EAFF"/>
<path d="M45.6404 21.761C45.6848 21.3993 45.7501 21.0423 45.7501 20.6667C45.7501 20.291 45.6848 19.934 45.6404 19.5723L47.7428 17.981C48.2118 17.6263 48.3424 16.9777 48.0484 16.4667L46.1608 13.2C45.8668 12.6913 45.2391 12.479 44.6978 12.7077L42.2781 13.7273C41.6878 13.277 41.0601 12.8803 40.3671 12.591L40.0451 10.022C39.9704 9.43867 39.4758 9 38.8878 9H35.1148C34.5268 9 34.0298 9.43867 33.9574 10.022L33.6354 12.591C32.9401 12.8803 32.3124 13.2793 31.7221 13.7273L29.3048 12.7077C28.7611 12.479 28.1334 12.689 27.8394 13.2L25.9541 16.4667C25.6601 16.9753 25.7908 17.624 26.2598 17.981L28.3621 19.5723C28.3154 19.934 28.2501 20.291 28.2501 20.6667C28.2501 21.0423 28.3154 21.3993 28.3598 21.761L26.2598 23.3523C25.7908 23.707 25.6578 24.3557 25.9541 24.8667L27.8394 28.1333C28.1334 28.6443 28.7611 28.8543 29.3048 28.6257L31.7244 27.6037C32.3148 28.054 32.9424 28.4507 33.6354 28.74L33.9574 31.309C34.0298 31.8947 34.5244 32.3333 35.1124 32.3333H38.8854C39.4734 32.3333 39.9704 31.8947 40.0428 31.3113L40.3648 28.7423C41.0578 28.453 41.6878 28.054 42.2758 27.606L44.6954 28.6257C45.2391 28.8543 45.8668 28.6443 46.1608 28.1333L48.0461 24.8667C48.3401 24.358 48.2094 23.7093 47.7404 23.3523L45.6404 21.761ZM37.0001 25.3333C34.4218 25.3333 32.3334 23.245 32.3334 20.6667C32.3334 18.0883 34.4218 16 37.0001 16C39.5784 16 41.6668 18.0883 41.6668 20.6667C41.6668 23.245 39.5784 25.3333 37.0001 25.3333Z" fill="#D1EAFF"/>
</g>
<g clip-path="url(#clip3_0_4893)">
<path d="M59.9896 18.1666H52.5417C51.2767 18.1666 50.25 19.1933 50.25 20.4583C50.25 21.7233 51.2767 22.75 52.5417 22.75H59.4167V50.25H13.5833V22.75H20.4583C21.7233 22.75 22.75 21.7233 22.75 20.4583C22.75 19.1933 21.7233 18.1666 20.4583 18.1666H13.0104C10.7967 18.1666 9 19.9633 9 22.177V50.8229C9 53.0366 10.7967 54.8333 13.0104 54.8333H31.9167V59.4166H27.3333C26.0683 59.4166 25.0417 60.4433 25.0417 61.7083C25.0417 62.9733 26.0683 64 27.3333 64H45.6667C46.934 64 47.9583 62.9733 47.9583 61.7083C47.9583 60.4433 46.934 59.4166 45.6667 59.4166H41.0833V54.8333H59.9896C62.2033 54.8333 64 53.0366 64 50.8229V22.177C64 19.9633 62.2033 18.1666 59.9896 18.1666Z" fill="#5EB6F8"/>
<path d="M44.986 21.5331C45.0296 21.1779 45.0937 20.8273 45.0937 20.4583C45.0937 20.0894 45.0296 19.7388 44.986 19.3835L47.0508 17.8206C47.5114 17.4723 47.6398 16.8352 47.351 16.3333L45.4971 13.125C45.2083 12.6254 44.5919 12.4169 44.0602 12.6415L41.6837 13.6429C41.1039 13.2006 40.4875 12.811 39.8069 12.5269L39.4906 10.0037C39.4173 9.43083 38.9314 9 38.3539 9H34.6483C34.0708 9 33.5827 9.43083 33.5117 10.0037L33.1954 12.5269C32.5125 12.811 31.896 13.2029 31.3162 13.6429L28.9421 12.6415C28.4081 12.4169 27.7917 12.6231 27.5029 13.125L25.6512 16.3333C25.3625 16.8329 25.4908 17.47 25.9514 17.8206L28.0162 19.3835C27.9704 19.7388 27.9062 20.0894 27.9062 20.4583C27.9062 20.8273 27.9704 21.1779 28.0139 21.5331L25.9514 23.096C25.4908 23.4444 25.3602 24.0815 25.6512 24.5833L27.5029 27.7917C27.7917 28.2935 28.4081 28.4998 28.9421 28.2752L31.3185 27.2715C31.8983 27.7138 32.5148 28.1033 33.1954 28.3875L33.5117 30.9106C33.5827 31.4858 34.0685 31.9167 34.646 31.9167H38.3516C38.9291 31.9167 39.4173 31.4858 39.4883 30.9129L39.8046 28.3898C40.4852 28.1056 41.1039 27.7138 41.6814 27.2738L44.0579 28.2752C44.5919 28.4998 45.2083 28.2935 45.4971 27.7917L47.3487 24.5833C47.6375 24.0838 47.5091 23.4467 47.0485 23.096L44.986 21.5331ZM36.5 25.0417C33.9677 25.0417 31.9167 22.9906 31.9167 20.4583C31.9167 17.926 33.9677 15.875 36.5 15.875C39.0323 15.875 41.0833 17.926 41.0833 20.4583C41.0833 22.9906 39.0323 25.0417 36.5 25.0417Z" fill="#5EB6F8"/>
</g>
<defs>
<filter id="filter0_f_0_4893" x="0" y="0" width="74" height="74" filterUnits="userSpaceOnUse" color-interpolation-filters="sRGB">
<feFlood flood-opacity="0" result="BackgroundImageFix"/>
<feBlend mode="normal" in="SourceGraphic" in2="BackgroundImageFix" result="shape"/>
<feGaussianBlur stdDeviation="4.5" result="effect1_foregroundBlur_0_4893"/>
</filter>
<filter id="filter1_f_0_4893" x="1" y="1" width="72" height="72" filterUnits="userSpaceOnUse" color-interpolation-filters="sRGB">
<feFlood flood-opacity="0" result="BackgroundImageFix"/>
<feBlend mode="normal" in="SourceGraphic" in2="BackgroundImageFix" result="shape"/>
<feGaussianBlur stdDeviation="4" result="effect1_foregroundBlur_0_4893"/>
</filter>
<clipPath id="clip0_0_4893">
<rect width="56" height="56" fill="white" transform="translate(9 9)"/>
</clipPath>
<clipPath id="clip1_0_4893">
<rect width="56" height="56" fill="white" transform="translate(9 9)"/>
</clipPath>
<clipPath id="clip2_0_4893">
<rect width="56" height="56" fill="white" transform="translate(9 9)"/>
</clipPath>
<clipPath id="clip3_0_4893">
<rect width="55" height="55" fill="white" transform="translate(9 9)"/>
</clipPath>
</defs>
</svg>
