<svg width="83" height="83" viewBox="0 0 83 83" fill="none" xmlns="http://www.w3.org/2000/svg">
<g filter="url(#filter0_f_0_4848)">
<path d="M27.25 68.2188H16.5625C16.0901 68.2188 15.637 68.0311 15.303 67.697C14.9689 67.363 14.7812 66.9099 14.7812 66.4375V36.1562C14.7812 35.6838 14.9689 35.2308 15.303 34.8967C15.637 34.5627 16.0901 34.375 16.5625 34.375H27.25C27.7224 34.375 28.1755 34.5627 28.5095 34.8967C28.8436 35.2308 29.0312 35.6838 29.0312 36.1562V66.4375C29.0312 66.9099 28.8436 67.363 28.5095 67.697C28.1755 68.0311 27.7224 68.2188 27.25 68.2188ZM18.3438 64.6562H25.4688V37.9375H18.3438V64.6562Z" fill="#5EB6F8"/>
<path d="M58.3595 66.4375H27.25C26.7776 66.4375 26.3245 66.2498 25.9905 65.9158C25.6564 65.5817 25.4688 65.1287 25.4688 64.6562V37.9375C25.4687 37.5569 25.5907 37.1862 25.8167 36.8799C26.0427 36.5736 26.3608 36.3478 26.7245 36.2355C29.6458 35.3324 37.3577 32.0718 37.9562 27.8886C38.1307 26.5161 38.2348 25.1356 38.2679 23.7525C38.4291 19.7554 38.6295 14.7812 45.0625 14.7812C51.4029 14.7812 53.0781 21.7727 53.0781 25.4688C53.1082 29.056 52.7728 32.637 52.0771 36.1562H62.688C63.5074 36.1559 64.3159 36.3439 65.0511 36.7059C65.7862 37.0679 66.4282 37.594 66.9276 38.2438C67.4269 38.8935 67.7701 39.6493 67.9307 40.4529C68.0912 41.2564 68.0649 42.0861 67.8536 42.8778L62.6265 62.4715C62.3086 63.6596 61.5631 66.4375 58.3595 66.4375ZM29.0312 62.875H58.3595C58.673 62.875 58.8307 62.875 59.186 61.5498L64.414 41.956C64.4839 41.692 64.4922 41.4154 64.4382 41.1477C64.3841 40.8799 64.2693 40.6282 64.1024 40.4119C63.9356 40.1957 63.7212 40.0207 63.476 39.9005C63.2307 39.7803 62.9611 39.7181 62.688 39.7188H49.5156C49.1933 39.7187 48.877 39.6312 48.6005 39.4655C48.324 39.2998 48.0976 39.0622 47.9455 38.778C47.7934 38.4938 47.7212 38.1737 47.7368 37.8517C47.7523 37.5298 47.8549 37.218 48.0336 36.9498C49.0534 35.4179 49.5156 29.3136 49.5156 25.4688C49.5156 25.1811 49.4346 18.3438 45.0625 18.3438C42.274 18.3438 42.0175 19.1827 41.8277 23.8959C41.7903 25.3998 41.6747 26.9008 41.4813 28.3927C40.6201 34.4293 32.3568 38.0088 29.0312 39.2147V62.875Z" fill="#5EB6F8"/>
</g>
<g filter="url(#filter1_f_0_4848)">
<path d="M27.25 68.2188H16.5625C16.0901 68.2188 15.637 68.0311 15.303 67.697C14.9689 67.363 14.7812 66.9099 14.7812 66.4375V36.1562C14.7812 35.6838 14.9689 35.2308 15.303 34.8967C15.637 34.5627 16.0901 34.375 16.5625 34.375H27.25C27.7224 34.375 28.1755 34.5627 28.5095 34.8967C28.8436 35.2308 29.0312 35.6838 29.0312 36.1562V66.4375C29.0312 66.9099 28.8436 67.363 28.5095 67.697C28.1755 68.0311 27.7224 68.2188 27.25 68.2188ZM18.3438 64.6562H25.4688V37.9375H18.3438V64.6562Z" fill="#5EB6F8"/>
<path d="M58.3595 66.4375H27.25C26.7776 66.4375 26.3245 66.2498 25.9905 65.9158C25.6564 65.5817 25.4688 65.1287 25.4688 64.6562V37.9375C25.4687 37.5569 25.5907 37.1862 25.8167 36.8799C26.0427 36.5736 26.3608 36.3478 26.7245 36.2355C29.6458 35.3324 37.3577 32.0718 37.9562 27.8886C38.1307 26.5161 38.2348 25.1356 38.2679 23.7525C38.4291 19.7554 38.6295 14.7812 45.0625 14.7812C51.4029 14.7812 53.0781 21.7727 53.0781 25.4688C53.1082 29.056 52.7728 32.637 52.0771 36.1562H62.688C63.5074 36.1559 64.3159 36.3439 65.0511 36.7059C65.7862 37.0679 66.4282 37.594 66.9276 38.2438C67.4269 38.8935 67.7701 39.6493 67.9307 40.4529C68.0912 41.2564 68.0649 42.0861 67.8536 42.8778L62.6265 62.4715C62.3086 63.6596 61.5631 66.4375 58.3595 66.4375ZM29.0312 62.875H58.3595C58.673 62.875 58.8307 62.875 59.186 61.5498L64.414 41.956C64.4839 41.692 64.4922 41.4154 64.4382 41.1477C64.3841 40.8799 64.2693 40.6282 64.1024 40.4119C63.9356 40.1957 63.7212 40.0207 63.476 39.9005C63.2307 39.7803 62.9611 39.7181 62.688 39.7188H49.5156C49.1933 39.7187 48.877 39.6312 48.6005 39.4655C48.324 39.2998 48.0976 39.0622 47.9455 38.778C47.7934 38.4938 47.7212 38.1737 47.7368 37.8517C47.7523 37.5298 47.8549 37.218 48.0336 36.9498C49.0534 35.4179 49.5156 29.3136 49.5156 25.4688C49.5156 25.1811 49.4346 18.3438 45.0625 18.3438C42.274 18.3438 42.0175 19.1827 41.8277 23.8959C41.7903 25.3998 41.6747 26.9008 41.4813 28.3927C40.6201 34.4293 32.3568 38.0088 29.0312 39.2147V62.875Z" fill="#5EB6F8"/>
</g>
<path d="M26.75 67.2812H16.4375C15.9817 67.2812 15.5445 67.1002 15.2222 66.7778C14.8998 66.4555 14.7188 66.0183 14.7188 65.5625V36.3438C14.7188 35.8879 14.8998 35.4507 15.2222 35.1284C15.5445 34.8061 15.9817 34.625 16.4375 34.625H26.75C27.2058 34.625 27.643 34.8061 27.9653 35.1284C28.2877 35.4507 28.4688 35.8879 28.4688 36.3438V65.5625C28.4688 66.0183 28.2877 66.4555 27.9653 66.7778C27.643 67.1002 27.2058 67.2812 26.75 67.2812ZM18.1562 63.8438H25.0312V38.0625H18.1562V63.8438Z" fill="#D1EAFF"/>
<path d="M56.768 65.5625H26.75C26.2942 65.5625 25.857 65.3814 25.5347 65.0591C25.2123 64.7368 25.0313 64.2996 25.0313 63.8438V38.0625C25.0312 37.6952 25.1489 37.3376 25.367 37.042C25.585 36.7465 25.892 36.5286 26.243 36.4202C29.0617 35.5488 36.503 32.4027 37.0805 28.3662C37.2489 27.0419 37.3493 25.7098 37.3813 24.3752C37.5369 20.5184 37.7302 15.7188 43.9375 15.7188C50.0554 15.7188 51.6719 22.4648 51.6719 26.0312C51.7009 29.4926 51.3773 32.948 50.7059 36.3438H60.9445C61.7352 36.3434 62.5154 36.5248 63.2247 36.8741C63.9341 37.2234 64.5536 37.7311 65.0354 38.358C65.5172 38.9849 65.8483 39.7143 66.0033 40.4896C66.1582 41.2649 66.1328 42.0655 65.9289 42.8295L60.8852 61.7357C60.5784 62.8821 59.8591 65.5625 56.768 65.5625ZM28.4688 62.125H56.768C57.0705 62.125 57.2226 62.125 57.5655 60.8463L62.61 41.94C62.6775 41.6852 62.6854 41.4184 62.6333 41.16C62.5812 40.9017 62.4703 40.6588 62.3094 40.4501C62.1484 40.2415 61.9416 40.0726 61.7049 39.9566C61.4682 39.8406 61.2081 39.7806 60.9445 39.7812H48.2344C47.9233 39.7812 47.6182 39.6967 47.3513 39.5369C47.0845 39.377 46.8661 39.1478 46.7193 38.8735C46.5726 38.5993 46.503 38.2904 46.5179 37.9797C46.5329 37.6691 46.6319 37.3683 46.8044 37.1095C47.7884 35.6313 48.2344 29.7412 48.2344 26.0312C48.2344 25.7537 48.1562 19.1562 43.9375 19.1562C41.2468 19.1562 40.9993 19.9658 40.8162 24.5136C40.7801 25.9647 40.6685 27.413 40.482 28.8526C39.6509 34.6774 31.6777 38.1313 28.4688 39.2948V62.125Z" fill="#D1EAFF"/>
<path d="M26.25 68.2188H15.5625C15.0901 68.2188 14.637 68.0311 14.303 67.697C13.9689 67.363 13.7812 66.9099 13.7812 66.4375V36.1562C13.7812 35.6838 13.9689 35.2308 14.303 34.8967C14.637 34.5627 15.0901 34.375 15.5625 34.375H26.25C26.7224 34.375 27.1755 34.5627 27.5095 34.8967C27.8436 35.2308 28.0312 35.6838 28.0312 36.1562V66.4375C28.0312 66.9099 27.8436 67.363 27.5095 67.697C27.1755 68.0311 26.7224 68.2188 26.25 68.2188ZM17.3438 64.6562H24.4688V37.9375H17.3438V64.6562Z" fill="#5EB6F8"/>
<path d="M57.3595 66.4375H26.25C25.7776 66.4375 25.3245 66.2498 24.9905 65.9158C24.6564 65.5817 24.4688 65.1287 24.4688 64.6562V37.9375C24.4687 37.5569 24.5907 37.1862 24.8167 36.8799C25.0427 36.5736 25.3608 36.3478 25.7245 36.2355C28.6458 35.3324 36.3577 32.0718 36.9562 27.8886C37.1307 26.5161 37.2348 25.1356 37.2679 23.7525C37.4291 19.7554 37.6295 14.7812 44.0625 14.7812C50.4029 14.7812 52.0781 21.7727 52.0781 25.4688C52.1082 29.056 51.7728 32.637 51.0771 36.1562H61.688C62.5074 36.1559 63.3159 36.3439 64.0511 36.7059C64.7862 37.0679 65.4282 37.594 65.9276 38.2438C66.4269 38.8935 66.7701 39.6493 66.9307 40.4529C67.0912 41.2564 67.0649 42.0861 66.8536 42.8778L61.6265 62.4715C61.3086 63.6596 60.5631 66.4375 57.3595 66.4375ZM28.0312 62.875H57.3595C57.673 62.875 57.8307 62.875 58.186 61.5498L63.414 41.956C63.4839 41.692 63.4922 41.4154 63.4382 41.1477C63.3841 40.8799 63.2693 40.6282 63.1024 40.4119C62.9356 40.1957 62.7212 40.0207 62.476 39.9005C62.2307 39.7803 61.9611 39.7181 61.688 39.7188H48.5156C48.1933 39.7187 47.877 39.6312 47.6005 39.4655C47.324 39.2998 47.0976 39.0622 46.9455 38.778C46.7934 38.4938 46.7212 38.1737 46.7368 37.8517C46.7523 37.5298 46.8549 37.218 47.0336 36.9498C48.0534 35.4179 48.5156 29.3136 48.5156 25.4688C48.5156 25.1811 48.4346 18.3438 44.0625 18.3438C41.274 18.3438 41.0175 19.1827 40.8277 23.8959C40.7903 25.3998 40.6747 26.9008 40.4813 28.3927C39.6201 34.4293 31.3568 38.0088 28.0312 39.2147V62.875Z" fill="#5EB6F8"/>
<defs>
<filter id="filter0_f_0_4848" x="-1" y="-1" width="85" height="85" filterUnits="userSpaceOnUse" color-interpolation-filters="sRGB">
<feFlood flood-opacity="0" result="BackgroundImageFix"/>
<feBlend mode="normal" in="SourceGraphic" in2="BackgroundImageFix" result="shape"/>
<feGaussianBlur stdDeviation="7" result="effect1_foregroundBlur_0_4848"/>
</filter>
<filter id="filter1_f_0_4848" x="5" y="5" width="73" height="73" filterUnits="userSpaceOnUse" color-interpolation-filters="sRGB">
<feFlood flood-opacity="0" result="BackgroundImageFix"/>
<feBlend mode="normal" in="SourceGraphic" in2="BackgroundImageFix" result="shape"/>
<feGaussianBlur stdDeviation="4" result="effect1_foregroundBlur_0_4848"/>
</filter>
</defs>
</svg>
