<svg width="92" height="97" viewBox="0 0 92 97" fill="none" xmlns="http://www.w3.org/2000/svg">
<g filter="url(#filter0_f_0_4863)">
<path d="M43.7141 14.0623V23.7797H48.2855V14.0623H43.7141ZM24.9865 22.3094L21.7455 25.7334L28.2231 32.6145L31.4463 29.1714L24.9865 22.3094ZM66.9996 22.3094L60.5354 29.1714L63.7764 32.6145L70.2407 25.7334L66.9996 22.3094ZM27.7097 48.0603C27.71 54.9909 31.289 61.2308 36.8525 64.6919V72.3408C36.8527 73.6818 37.8759 74.7689 39.1382 74.7689H52.8524C54.1147 74.7689 55.138 73.6818 55.1381 72.3408V64.6919C60.7016 61.2308 64.2806 54.9909 64.2809 48.0603C64.2809 37.3611 56.0668 28.636 45.8725 28.636C35.773 28.7782 27.7088 37.4608 27.7097 48.0603ZM59.7095 48.0603C59.7092 53.6927 56.6652 58.8063 51.8747 61.2203C51.0758 61.6222 50.5664 62.4768 50.5667 63.4159V69.9127H41.4239V63.4159C41.4242 62.4768 40.9148 61.6219 40.1159 61.2203C35.3254 58.8063 32.2814 53.6927 32.2811 48.0603C32.2804 40.0624 38.2842 33.5987 45.9038 33.4916C53.5963 33.4916 59.7095 39.9857 59.7095 48.0603ZM14 45.6277V50.4834H23.1473V45.6277H14ZM68.8568 45.6277V50.4834H77.9995V45.6277H68.8568ZM28.2231 63.5156L21.7455 70.3827L24.9865 73.8207L31.4463 66.9396L28.2231 63.5156ZM63.7764 63.5156L60.5354 66.9396L66.9996 73.8207L70.2407 70.3827L63.7764 63.5156ZM36.8481 77.1926V82.0488H55.1381V77.1926H36.8481Z" fill="#5EB6F8"/>
</g>
<g filter="url(#filter1_f_0_4863)">
<path d="M43.7141 14.0623V23.7797H48.2855V14.0623H43.7141ZM24.9865 22.3094L21.7455 25.7334L28.2231 32.6145L31.4463 29.1714L24.9865 22.3094ZM66.9996 22.3094L60.5354 29.1714L63.7764 32.6145L70.2407 25.7334L66.9996 22.3094ZM27.7097 48.0603C27.71 54.9909 31.289 61.2308 36.8525 64.6919V72.3408C36.8527 73.6818 37.8759 74.7689 39.1382 74.7689H52.8524C54.1147 74.7689 55.138 73.6818 55.1381 72.3408V64.6919C60.7016 61.2308 64.2806 54.9909 64.2809 48.0603C64.2809 37.3611 56.0668 28.636 45.8725 28.636C35.773 28.7782 27.7088 37.4608 27.7097 48.0603ZM59.7095 48.0603C59.7092 53.6927 56.6652 58.8063 51.8747 61.2203C51.0758 61.6222 50.5664 62.4768 50.5667 63.4159V69.9127H41.4239V63.4159C41.4242 62.4768 40.9148 61.6219 40.1159 61.2203C35.3254 58.8063 32.2814 53.6927 32.2811 48.0603C32.2804 40.0624 38.2842 33.5987 45.9038 33.4916C53.5963 33.4916 59.7095 39.9857 59.7095 48.0603ZM14 45.6277V50.4834H23.1473V45.6277H14ZM68.8568 45.6277V50.4834H77.9995V45.6277H68.8568ZM28.2231 63.5156L21.7455 70.3827L24.9865 73.8207L31.4463 66.9396L28.2231 63.5156ZM63.7764 63.5156L60.5354 66.9396L66.9996 73.8207L70.2407 70.3827L63.7764 63.5156ZM36.8481 77.1926V82.0488H55.1381V77.1926H36.8481Z" fill="#5EB6F8"/>
</g>
<path d="M43.7141 14.0623V23.7797H48.2855V14.0623H43.7141ZM24.9865 22.3094L21.7455 25.7334L28.2231 32.6145L31.4463 29.1714L24.9865 22.3094ZM66.9996 22.3094L60.5354 29.1714L63.7764 32.6145L70.2407 25.7334L66.9996 22.3094ZM27.7097 48.0603C27.71 54.9909 31.289 61.2308 36.8525 64.6919V72.3408C36.8527 73.6818 37.8759 74.7689 39.1382 74.7689H52.8524C54.1147 74.7689 55.138 73.6818 55.1381 72.3408V64.6919C60.7016 61.2308 64.2806 54.9909 64.2809 48.0603C64.2809 37.3611 56.0668 28.636 45.8725 28.636C35.773 28.7782 27.7088 37.4608 27.7097 48.0603ZM59.7095 48.0603C59.7092 53.6927 56.6652 58.8063 51.8747 61.2203C51.0758 61.6222 50.5664 62.4768 50.5667 63.4159V69.9127H41.4239V63.4159C41.4242 62.4768 40.9148 61.6219 40.1159 61.2203C35.3254 58.8063 32.2814 53.6927 32.2811 48.0603C32.2804 40.0624 38.2842 33.5987 45.9038 33.4916C53.5963 33.4916 59.7095 39.9857 59.7095 48.0603ZM14 45.6277V50.4834H23.1473V45.6277H14ZM68.8568 45.6277V50.4834H77.9995V45.6277H68.8568ZM28.2231 63.5156L21.7455 70.3827L24.9865 73.8207L31.4463 66.9396L28.2231 63.5156ZM63.7764 63.5156L60.5354 66.9396L66.9996 73.8207L70.2407 70.3827L63.7764 63.5156ZM36.8481 77.1926V82.0488H55.1381V77.1926H36.8481Z" fill="#D1EAFF"/>
<path d="M43.6426 13V23.0212H48.3569V13H43.6426ZM24.3299 21.5049L20.9875 25.0359L27.6676 32.132L30.9915 28.5813L24.3299 21.5049ZM67.6559 21.5049L60.9896 28.5813L64.332 32.132L70.9982 25.0359L67.6559 21.5049ZM27.1382 48.0605C27.1385 55.2077 30.8293 61.6425 36.5667 65.2118V73.0998C36.5668 74.4826 37.6221 75.6037 38.9238 75.6038H53.0665C54.3683 75.6037 55.4235 74.4826 55.4237 73.0998V65.2118C61.161 61.6425 64.8519 55.2077 64.8522 48.0605C64.8522 37.027 56.3814 28.0291 45.8686 28.0291C35.4534 28.1758 27.1372 37.1297 27.1382 48.0605ZM60.1379 48.0605C60.1377 53.8689 56.9985 59.1423 52.0583 61.6317C51.2344 62.0462 50.7091 62.9275 50.7094 63.896V70.5958H41.2809V63.896C41.2812 62.9275 40.7559 62.0459 39.932 61.6317C34.9919 59.1423 31.8527 53.8689 31.8524 48.0605C31.8517 39.8126 38.0431 33.147 45.9008 33.0365C53.8337 33.0365 60.1379 39.7335 60.1379 48.0605ZM13 45.5519V50.5593H22.4331V45.5519H13ZM69.571 45.5519V50.5593H78.9995V45.5519H69.571ZM27.6676 63.9988L20.9875 71.0804L24.3299 74.6259L30.9915 67.5298L27.6676 63.9988ZM64.332 63.9988L60.9896 67.5298L67.6559 74.6259L70.9982 71.0804L64.332 63.9988ZM36.5621 78.1031V83.1111H55.4237V78.1031H36.5621Z" fill="#5EB6F8"/>
<defs>
<filter id="filter0_f_0_4863" x="0" y="0.0622559" width="91.9995" height="95.9866" filterUnits="userSpaceOnUse" color-interpolation-filters="sRGB">
<feFlood flood-opacity="0" result="BackgroundImageFix"/>
<feBlend mode="normal" in="SourceGraphic" in2="BackgroundImageFix" result="shape"/>
<feGaussianBlur stdDeviation="7" result="effect1_foregroundBlur_0_4863"/>
</filter>
<filter id="filter1_f_0_4863" x="6" y="6.06226" width="79.9995" height="83.9866" filterUnits="userSpaceOnUse" color-interpolation-filters="sRGB">
<feFlood flood-opacity="0" result="BackgroundImageFix"/>
<feBlend mode="normal" in="SourceGraphic" in2="BackgroundImageFix" result="shape"/>
<feGaussianBlur stdDeviation="4" result="effect1_foregroundBlur_0_4863"/>
</filter>
</defs>
</svg>
