<svg width="252" height="47" viewBox="0 0 252 47" fill="none" xmlns="http://www.w3.org/2000/svg">
<path d="M127.617 34.665C127.089 34.9395 126.511 35.1096 125.897 35.1706C125.765 35.1837 125.644 35.25 125.563 35.354C125.482 35.4579 125.447 35.5904 125.467 35.7206C125.495 35.9019 125.508 36.0514 125.508 36.1909C125.508 38.1899 123.596 39.816 121.246 39.816C119.533 39.816 117.993 38.9489 117.321 37.6069C117.245 37.4543 117.127 37.331 116.983 37.2462V31.1797C117.02 31.1784 117.057 31.1771 117.094 31.1759C118.039 31.1426 119.214 31.1007 119.868 31.728C120.205 32.0509 120.402 32.5547 120.455 33.2276C119.9 33.4299 119.502 33.9598 119.502 34.58C119.502 35.3741 120.154 36.0202 120.954 36.0202C121.754 36.0202 122.405 35.3741 122.405 34.58C122.405 33.9491 121.994 33.412 121.424 33.2178C121.36 32.2713 121.063 31.5388 120.54 31.0369C119.59 30.1264 118.127 30.1784 117.06 30.2162C117.034 30.2171 117.009 30.218 116.983 30.2189V27.2006C121.914 27.2105 124.403 27.4113 124.619 30.05C124.064 30.2524 123.666 30.7822 123.666 31.4025C123.666 32.1966 124.318 32.8427 125.118 32.8427C125.918 32.8427 126.569 32.1966 126.569 31.4025C126.569 30.7712 126.158 30.234 125.587 30.04C125.468 28.3381 124.572 27.2519 122.856 26.7266C121.368 26.2709 119.336 26.2419 116.983 26.2401V23.2404C119.336 23.2385 121.368 23.2096 122.856 22.7539C124.572 22.2286 125.468 21.1424 125.587 19.4405C126.158 19.2465 126.569 18.7092 126.569 18.078C126.569 17.2839 125.918 16.6378 125.118 16.6378C124.318 16.6378 123.666 17.2839 123.666 18.078C123.666 18.6982 124.064 19.2281 124.619 19.4305C124.403 22.0692 121.914 22.27 116.983 22.2799V19.3569C117.009 19.3578 117.034 19.3586 117.06 19.3596C117.286 19.3676 117.53 19.3763 117.783 19.3763C118.724 19.3763 119.791 19.2565 120.54 18.5389C121.063 18.0371 121.36 17.3045 121.424 16.3581C121.994 16.1638 122.405 15.6267 122.405 14.9958C122.405 14.2017 121.754 13.5557 120.954 13.5557C120.154 13.5557 119.502 14.2017 119.502 14.9958C119.502 15.616 119.9 16.146 120.455 16.3483C120.402 17.0212 120.205 17.525 119.868 17.8478C119.214 18.4751 118.038 18.4332 117.094 18.4C117.057 18.3986 117.02 18.3973 116.983 18.3961V16.316C116.983 16.0508 116.767 15.8359 116.5 15.8359C116.233 15.8359 116.016 16.0508 116.016 16.316V37.2463C115.873 37.3312 115.755 37.4545 115.678 37.6072C115.007 38.9489 113.466 39.816 111.754 39.816C109.404 39.816 107.492 38.1899 107.492 36.1909C107.492 36.0514 107.505 35.9019 107.533 35.7206C107.534 35.7126 107.651 34.9169 108.202 34.3891C108.394 34.205 108.4 33.9011 108.214 33.7103C108.029 33.5195 107.723 33.5139 107.531 33.6981C107.056 34.1528 106.811 34.717 106.688 35.1099C105.563 34.898 104.561 34.2955 103.956 33.4482C103.801 33.2322 103.499 33.1812 103.282 33.3347C103.064 33.4882 103.013 33.7879 103.167 34.0041C103.932 35.0736 105.139 35.8065 106.528 36.0591C106.526 36.1036 106.525 36.1475 106.525 36.1911C106.525 38.7194 108.871 40.7764 111.754 40.7764C113.794 40.7764 115.645 39.737 116.5 38.1205C117.354 39.7369 119.205 40.7762 121.246 40.7762C124.129 40.7762 126.475 38.7193 126.475 36.1909C126.475 36.1473 126.474 36.1036 126.472 36.0589C127.033 35.9566 127.568 35.7747 128.066 35.5155C128.302 35.3925 128.394 35.1023 128.27 34.8674C128.146 34.6325 127.854 34.5419 127.617 34.665ZM120.954 34.1002C121.221 34.1002 121.439 34.3154 121.439 34.5801C121.439 34.8448 121.221 35.0601 120.954 35.0601C120.687 35.0601 120.469 34.8448 120.469 34.5801C120.469 34.3154 120.687 34.1002 120.954 34.1002ZM125.118 30.9225C125.385 30.9225 125.602 31.1378 125.602 31.4025C125.602 31.6672 125.385 31.8824 125.118 31.8824C124.851 31.8824 124.633 31.6672 124.633 31.4025C124.633 31.1379 124.851 30.9225 125.118 30.9225ZM125.118 17.5981C125.385 17.5981 125.602 17.8133 125.602 18.078C125.602 18.3427 125.385 18.558 125.118 18.558C124.851 18.558 124.633 18.3427 124.633 18.078C124.633 17.8133 124.851 17.5981 125.118 17.5981ZM120.954 14.5158C121.221 14.5158 121.439 14.731 121.439 14.9957C121.439 15.2604 121.221 15.4757 120.954 15.4757C120.687 15.4757 120.469 15.2604 120.469 14.9957C120.469 14.7311 120.687 14.5158 120.954 14.5158Z" fill="white"/>
<path d="M103.34 31.5721C103.34 30.7038 103.707 29.8387 104.348 29.1987C104.471 29.0752 104.518 28.8949 104.47 28.7275C104.421 28.5602 104.285 28.432 104.114 28.3926C102.261 27.965 100.967 26.5293 100.967 24.9012C100.967 23.8885 101.442 22.9261 102.304 22.1912C102.407 22.1033 102.468 21.9763 102.473 21.8413C102.477 21.7064 102.423 21.5759 102.326 21.482C101.832 21.0069 101.56 20.3988 101.56 19.7697C101.56 18.3593 102.869 17.2197 104.539 17.1756C104.547 17.1756 105.284 17.1877 105.802 17.6429C105.894 17.7237 106.008 17.7633 106.122 17.7633C106.256 17.7633 106.389 17.7086 106.484 17.6013C106.661 17.4027 106.642 17.0993 106.442 16.9236C105.885 16.4343 105.194 16.2833 104.812 16.2365C104.625 15.8957 104.526 15.5248 104.526 15.1514C104.526 14.3581 104.949 13.6178 105.685 13.1203C105.906 12.9712 105.963 12.6726 105.813 12.4533C105.663 12.2341 105.362 12.1772 105.141 12.3264C104.136 13.0055 103.559 14.0353 103.559 15.1515C103.559 15.5409 103.633 15.927 103.775 16.294C101.941 16.6385 100.593 18.0579 100.593 19.7698C100.593 20.5009 100.846 21.2061 101.314 21.7988C100.463 22.6705 100 23.7561 100 24.9012C100 26.7509 101.27 28.3969 103.168 29.1089C102.657 29.8357 102.373 30.7014 102.373 31.5721C102.373 31.8373 102.589 32.0522 102.856 32.0522C103.123 32.0522 103.34 31.8373 103.34 31.5721Z" fill="white"/>
<path d="M133.001 24.9006C133.001 23.7555 132.537 22.6698 131.686 21.7982C132.154 21.2054 132.407 20.5002 132.407 19.7692C132.407 18.0573 131.059 16.6379 129.226 16.2934C129.368 15.9264 129.441 15.5404 129.441 15.151C129.441 13.1886 127.628 11.592 125.399 11.592C125.354 11.592 125.306 11.593 125.257 11.5948C125.133 10.6893 124.657 9.84423 123.889 9.18105C123.024 8.43408 121.898 8.01472 120.719 8.00045C120.697 8.00013 120.676 8 120.654 8C118.897 8 117.282 8.87897 116.501 10.2583C115.719 8.87891 114.105 8 112.347 8C112.325 8 112.304 8.00013 112.282 8.00045C111.103 8.01479 109.977 8.43408 109.112 9.18105C108.344 9.8441 107.868 10.6891 107.745 11.5948C107.695 11.593 107.647 11.592 107.603 11.592C107.336 11.592 107.119 11.8069 107.119 12.0721C107.119 12.3373 107.336 12.5522 107.603 12.5522C107.75 12.5522 107.956 12.5671 108.14 12.5911C108.285 12.6101 108.43 12.5631 108.535 12.4634C108.641 12.3637 108.696 12.2219 108.685 12.0775L108.682 12.0447C108.681 12.0361 108.68 12.0275 108.68 12.0234C108.709 10.3867 110.364 8.98402 112.294 8.96046C113.752 8.94574 115.085 9.65955 115.69 10.7868C115.766 10.9291 115.88 11.0447 116.017 11.1257V14.0985C116.017 14.3637 116.234 14.5786 116.501 14.5786C116.768 14.5786 116.984 14.3637 116.984 14.0985V11.1258C117.121 11.0448 117.235 10.9291 117.311 10.7868C117.909 9.67331 119.217 8.9602 120.654 8.9602C120.672 8.9602 120.689 8.96033 120.707 8.96052C122.637 8.98402 124.292 10.3867 124.322 12.0188C124.314 12.0133 124.308 12.9813 123.788 13.5982C123.617 13.8015 123.644 14.1043 123.849 14.2744C123.939 14.3496 124.049 14.3863 124.159 14.3863C124.297 14.3863 124.434 14.3278 124.53 14.2142C124.98 13.6799 125.163 13.0153 125.237 12.5569C125.295 12.5539 125.35 12.5521 125.399 12.5521C127.095 12.5521 128.475 13.7179 128.475 15.1509C128.475 15.5956 128.336 16.0374 128.073 16.4284C127.975 16.5738 127.964 16.7605 128.045 16.9157C128.126 17.071 128.286 17.1704 128.462 17.175C130.132 17.2192 131.441 18.3587 131.441 19.7691C131.441 20.3982 131.169 21.0063 130.675 21.4814C130.67 21.4864 130.153 21.9975 129.479 22.0507C129.213 22.0717 129.014 22.303 129.035 22.5674C129.055 22.8188 129.267 23.0094 129.516 23.0094C129.529 23.0094 129.542 23.0089 129.555 23.0079C130.168 22.9596 130.671 22.6874 130.989 22.4641C131.665 23.1567 132.034 24.009 132.034 24.9006C132.034 26.5288 130.739 27.9644 128.886 28.3919C128.715 28.4313 128.579 28.5595 128.531 28.7268C128.483 28.8942 128.529 29.0745 128.653 29.198C129.293 29.838 129.661 30.7031 129.661 31.5714C129.661 32.1788 129.48 32.7797 129.139 33.309C128.995 33.5322 129.06 33.8292 129.285 33.9723C129.365 34.0238 129.456 34.0483 129.545 34.0483C129.704 34.0483 129.86 33.9703 129.953 33.8273C130.394 33.1431 130.628 32.3629 130.628 31.5715C130.628 30.7008 130.344 29.8352 129.832 29.1083C131.73 28.3964 133.001 26.7504 133.001 24.9006Z" fill="white"/>
<path d="M105.46 24.4264C105.445 24.6912 105.649 24.918 105.915 24.9328C105.925 24.9333 105.934 24.9336 105.943 24.9336C106.197 24.9336 106.411 24.7359 106.425 24.4803C106.426 24.4562 106.589 22.0626 109.028 21.4734C109.287 21.4107 109.446 21.151 109.383 20.8933C109.32 20.6356 109.059 20.4773 108.799 20.5401C107.165 20.935 106.343 21.9709 105.94 22.7703C105.509 23.6259 105.462 24.3941 105.46 24.4264Z" fill="white"/>
<path d="M112.946 13.3224C112.682 13.2978 112.445 13.4913 112.42 13.7554C112.277 15.2623 110.705 15.8395 110.637 15.864C110.386 15.9523 110.254 16.2256 110.342 16.4754C110.412 16.6732 110.598 16.7969 110.798 16.7969C110.851 16.7969 110.905 16.7881 110.958 16.7697C111.048 16.7382 113.18 15.9725 113.382 13.8455C113.407 13.5815 113.212 13.3473 112.946 13.3224Z" fill="white"/>
<path d="M112.557 34.717C112.624 34.7487 112.695 34.7637 112.765 34.7637C112.945 34.7637 113.119 34.6626 113.201 34.4897C113.316 34.2502 113.214 33.9636 112.973 33.8497C111.112 32.9703 111.271 30.8796 111.279 30.7891C111.303 30.5257 111.108 30.2923 110.843 30.2676C110.578 30.2438 110.341 30.4369 110.317 30.7011C110.306 30.8166 110.078 33.5452 112.557 34.717Z" fill="white"/>
<path d="M111.411 25.805C111.17 25.9189 111.067 26.2054 111.182 26.4448C111.265 26.6177 111.438 26.7188 111.619 26.7188C111.688 26.7188 111.759 26.7038 111.826 26.6721C113.391 25.9326 113.248 24.2146 113.241 24.1418C113.216 23.8778 112.979 23.6847 112.714 23.7085C112.449 23.7333 112.253 23.9673 112.278 24.2313C112.279 24.2425 112.372 25.3506 111.411 25.805Z" fill="white"/>
<path d="M122.902 24.7871C122.902 25.0525 123.119 25.2676 123.386 25.2676C123.653 25.2676 123.869 25.0525 123.869 24.7871C123.869 24.5218 123.653 24.3066 123.386 24.3066C123.119 24.3066 122.902 24.5218 122.902 24.7871Z" fill="white"/>
<path d="M126.673 25.2676C126.94 25.2676 127.156 25.0525 127.156 24.7871C127.156 24.5218 126.94 24.3066 126.673 24.3066C126.406 24.3066 126.189 24.5218 126.189 24.7871C126.189 25.0525 126.406 25.2676 126.673 25.2676Z" fill="white"/>
<path d="M120.471 38.0061C120.471 38.2713 120.687 38.4863 120.954 38.4863C121.221 38.4863 121.438 38.2713 121.438 38.0061C121.438 37.7409 121.221 37.5259 120.954 37.5259C120.687 37.5259 120.471 37.7409 120.471 38.0061Z" fill="white"/>
<path d="M121.438 11.5679C121.438 11.3025 121.221 11.0874 120.954 11.0874C120.687 11.0874 120.471 11.3025 120.471 11.5679C120.471 11.8332 120.687 12.0483 120.954 12.0483C121.221 12.0483 121.438 11.8332 121.438 11.5679Z" fill="white"/>
<path d="M24.92 30.68C24.92 32.0933 24.56 33.36 23.84 34.48C23.12 35.5733 22.1467 36.44 20.92 37.08C19.72 37.6933 18.4 38 16.96 38H3.56V9.6H17.24C18.5733 9.6 19.72 9.96 20.68 10.68C21.6667 11.3733 22.4133 12.28 22.92 13.4C23.4533 14.4933 23.72 15.64 23.72 16.84C23.72 18.2533 23.36 19.56 22.64 20.76C21.92 21.96 20.92 22.8533 19.64 23.44C21.2667 23.92 22.5467 24.8133 23.48 26.12C24.44 27.4267 24.92 28.9467 24.92 30.68ZM22.12 30.2C22.12 29.24 21.9067 28.36 21.48 27.56C21.0533 26.7333 20.4667 26.0667 19.72 25.56C19 25.0533 18.1733 24.8 17.24 24.8H6.36V35.56H16.96C17.92 35.56 18.7867 35.3067 19.56 34.8C20.3333 34.2933 20.9467 33.64 21.4 32.84C21.88 32.0133 22.12 31.1333 22.12 30.2ZM6.36 12.04V22.52H16.12C17.0533 22.52 17.88 22.28 18.6 21.8C19.32 21.2933 19.8933 20.64 20.32 19.84C20.7467 19.04 20.96 18.1867 20.96 17.28C20.96 16.32 20.76 15.4533 20.36 14.68C19.96 13.88 19.4133 13.24 18.72 12.76C18.0267 12.28 17.24 12.04 16.36 12.04H6.36ZM40.0406 19.56C38.2273 19.6133 36.6273 20.12 35.2406 21.08C33.8806 22.04 32.9206 23.36 32.3606 25.04V38H29.6406V17.16H32.2006V22.16C32.9206 20.6933 33.8673 19.5067 35.0406 18.6C36.2406 17.6933 37.5073 17.1867 38.8406 17.08C39.1073 17.0533 39.334 17.04 39.5206 17.04C39.734 17.04 39.9073 17.0533 40.0406 17.08V19.56ZM41.9059 32C41.9059 30.6933 42.2793 29.5733 43.0259 28.64C43.7726 27.68 44.7993 26.9467 46.1059 26.44C47.4393 25.9067 48.9726 25.64 50.7059 25.64C51.7193 25.64 52.7726 25.72 53.8659 25.88C54.9593 26.04 55.9326 26.28 56.7859 26.6V24.84C56.7859 23.08 56.2659 21.68 55.2259 20.64C54.1859 19.6 52.7459 19.08 50.9059 19.08C49.7859 19.08 48.6793 19.2933 47.5859 19.72C46.5193 20.12 45.3993 20.72 44.2259 21.52L43.1859 19.6C44.5459 18.6667 45.8793 17.9733 47.1859 17.52C48.4926 17.04 49.8259 16.8 51.1859 16.8C53.7459 16.8 55.7726 17.5333 57.2659 19C58.7593 20.4667 59.5059 22.4933 59.5059 25.08V34.72C59.5059 35.0933 59.5859 35.3733 59.7459 35.56C59.9059 35.72 60.1593 35.8133 60.5059 35.84V38C60.2126 38.0267 59.9593 38.0533 59.7459 38.08C59.5326 38.1067 59.3726 38.1067 59.2659 38.08C58.5993 38.0533 58.0926 37.84 57.7459 37.44C57.3993 37.04 57.2126 36.6133 57.1859 36.16L57.1459 34.64C56.2126 35.84 54.9993 36.7733 53.5059 37.44C52.0126 38.08 50.4926 38.4 48.9459 38.4C47.6126 38.4 46.3993 38.12 45.3059 37.56C44.2393 36.9733 43.3993 36.2 42.7859 35.24C42.1993 34.2533 41.9059 33.1733 41.9059 32ZM55.8659 33.6C56.1593 33.2267 56.3859 32.8667 56.5459 32.52C56.7059 32.1733 56.7859 31.8667 56.7859 31.6V28.56C55.8793 28.2133 54.9326 27.9467 53.9459 27.76C52.9859 27.5733 52.0126 27.48 51.0259 27.48C49.0793 27.48 47.5059 27.8667 46.3059 28.64C45.1059 29.4133 44.5059 30.4667 44.5059 31.8C44.5059 32.5733 44.7059 33.3067 45.1059 34C45.5059 34.6667 46.0926 35.2267 46.8659 35.68C47.6393 36.1067 48.5459 36.32 49.5859 36.32C50.8926 36.32 52.1059 36.0667 53.2259 35.56C54.3726 35.0533 55.2526 34.4 55.8659 33.6ZM65.3828 38V17.16H68.1028V38H65.3828ZM65.3828 12.8V8.8H68.1028V12.8H65.3828ZM91.6138 38H88.8938V26.36C88.8938 23.9067 88.5338 22.12 87.8138 21C87.0938 19.8533 85.9604 19.28 84.4138 19.28C83.3471 19.28 82.2938 19.5467 81.2538 20.08C80.2138 20.5867 79.2938 21.2933 78.4938 22.2C77.7204 23.08 77.1604 24.0933 76.8138 25.24V38H74.0938V17.16H76.5738V21.88C77.1338 20.8667 77.8671 19.9867 78.7738 19.24C79.6804 18.4667 80.7071 17.8667 81.8538 17.44C83.0004 17.0133 84.1871 16.8 85.4138 16.8C86.5604 16.8 87.5338 17.0133 88.3338 17.44C89.1338 17.8667 89.7738 18.48 90.2538 19.28C90.7338 20.0533 91.0804 21 91.2937 22.12C91.5071 23.2133 91.6138 24.44 91.6138 25.8V38Z" fill="white"/>
<path d="M160.16 14.92C159.76 14.4667 159.293 14.0667 158.76 13.72C158.227 13.3467 157.627 13.0267 156.96 12.76C156.293 12.4933 155.573 12.28 154.8 12.12C154.053 11.96 153.253 11.88 152.4 11.88C149.92 11.88 148.093 12.36 146.92 13.32C145.773 14.2533 145.2 15.5333 145.2 17.16C145.2 18.28 145.467 19.16 146 19.8C146.56 20.44 147.427 20.96 148.6 21.36C149.773 21.76 151.267 22.1733 153.08 22.6C155.107 23.0267 156.853 23.5333 158.32 24.12C159.787 24.7067 160.92 25.5067 161.72 26.52C162.52 27.5067 162.92 28.8533 162.92 30.56C162.92 31.8667 162.667 33 162.16 33.96C161.653 34.92 160.947 35.72 160.04 36.36C159.133 37 158.053 37.48 156.8 37.8C155.547 38.0933 154.173 38.24 152.68 38.24C151.213 38.24 149.8 38.0933 148.44 37.8C147.107 37.48 145.84 37.0267 144.64 36.44C143.44 35.8267 142.32 35.0533 141.28 34.12L142.68 31.84C143.187 32.3733 143.787 32.88 144.48 33.36C145.2 33.8133 145.987 34.2267 146.84 34.6C147.72 34.9733 148.653 35.2667 149.64 35.48C150.653 35.6667 151.693 35.76 152.76 35.76C155.027 35.76 156.787 35.3467 158.04 34.52C159.32 33.6933 159.96 32.4667 159.96 30.84C159.96 29.6667 159.64 28.7333 159 28.04C158.36 27.32 157.4 26.7333 156.12 26.28C154.84 25.8267 153.267 25.3867 151.4 24.96C149.427 24.5067 147.76 24 146.4 23.44C145.04 22.88 144.013 22.1467 143.32 21.24C142.653 20.3067 142.32 19.08 142.32 17.56C142.32 15.8 142.747 14.32 143.6 13.12C144.48 11.8933 145.68 10.9733 147.2 10.36C148.72 9.72 150.467 9.4 152.44 9.4C153.693 9.4 154.853 9.53333 155.92 9.8C157.013 10.04 158.013 10.4 158.92 10.88C159.853 11.36 160.72 11.96 161.52 12.68L160.16 14.92ZM176.945 37C176.732 37.08 176.399 37.2267 175.945 37.44C175.492 37.6533 174.945 37.84 174.305 38C173.665 38.16 172.972 38.24 172.225 38.24C171.452 38.24 170.719 38.0933 170.025 37.8C169.359 37.5067 168.825 37.0667 168.425 36.48C168.025 35.8667 167.825 35.12 167.825 34.24V19.32H164.945V17.16H167.825V10.12H170.545V17.16H175.345V19.32H170.545V33.48C170.599 34.2267 170.865 34.7867 171.345 35.16C171.852 35.5333 172.425 35.72 173.065 35.72C173.812 35.72 174.492 35.6 175.105 35.36C175.719 35.0933 176.092 34.9067 176.225 34.8L176.945 37ZM188.872 38.4C187.379 38.4 185.992 38.12 184.712 37.56C183.459 36.9733 182.366 36.1867 181.432 35.2C180.526 34.1867 179.819 33.04 179.312 31.76C178.806 30.4533 178.552 29.08 178.552 27.64C178.552 26.1467 178.806 24.76 179.312 23.48C179.819 22.1733 180.539 21.0267 181.472 20.04C182.406 19.0267 183.499 18.24 184.752 17.68C186.032 17.0933 187.419 16.8 188.912 16.8C190.406 16.8 191.779 17.0933 193.032 17.68C194.286 18.24 195.379 19.0267 196.312 20.04C197.246 21.0267 197.966 22.1733 198.472 23.48C198.979 24.76 199.232 26.1467 199.232 27.64C199.232 29.08 198.979 30.4533 198.472 31.76C197.966 33.04 197.246 34.1867 196.312 35.2C195.406 36.1867 194.312 36.9733 193.032 37.56C191.779 38.12 190.392 38.4 188.872 38.4ZM181.312 27.68C181.312 29.2267 181.646 30.64 182.312 31.92C183.006 33.1733 183.926 34.1733 185.072 34.92C186.219 35.64 187.486 36 188.872 36C190.259 36 191.526 35.6267 192.672 34.88C193.819 34.1333 194.739 33.12 195.432 31.84C196.126 30.5333 196.472 29.12 196.472 27.6C196.472 26.0533 196.126 24.64 195.432 23.36C194.739 22.08 193.819 21.0667 192.672 20.32C191.526 19.5733 190.259 19.2 188.872 19.2C187.486 19.2 186.219 19.5867 185.072 20.36C183.952 21.1333 183.046 22.16 182.352 23.44C181.659 24.6933 181.312 26.1067 181.312 27.68ZM214.181 19.56C212.368 19.6133 210.768 20.12 209.381 21.08C208.021 22.04 207.061 23.36 206.501 25.04V38H203.781V17.16H206.341V22.16C207.061 20.6933 208.008 19.5067 209.181 18.6C210.381 17.6933 211.648 17.1867 212.981 17.08C213.248 17.0533 213.475 17.04 213.661 17.04C213.875 17.04 214.048 17.0533 214.181 17.08V19.56ZM248.805 38H246.085V26.36C246.085 23.9333 245.698 22.1467 244.925 21C244.151 19.8533 243.005 19.28 241.485 19.28C239.911 19.28 238.498 19.84 237.245 20.96C236.018 22.08 235.151 23.52 234.645 25.28V38H231.925V26.36C231.925 23.9067 231.551 22.12 230.805 21C230.058 19.8533 228.911 19.28 227.365 19.28C225.818 19.28 224.418 19.8267 223.165 20.92C221.911 22.0133 221.031 23.4533 220.525 25.24V38H217.805V17.16H220.285V21.88C221.165 20.2533 222.285 19 223.645 18.12C225.031 17.24 226.565 16.8 228.245 16.8C229.978 16.8 231.378 17.2933 232.445 18.28C233.511 19.2667 234.165 20.56 234.405 22.16C235.365 20.4 236.511 19.0667 237.845 18.16C239.205 17.2533 240.738 16.8 242.445 16.8C243.618 16.8 244.605 17.0133 245.405 17.44C246.231 17.8667 246.885 18.48 247.365 19.28C247.871 20.0533 248.231 21 248.445 22.12C248.685 23.2133 248.805 24.44 248.805 25.8V38Z" fill="white"/>
</svg>
