<svg width="132" height="24" viewBox="0 0 132 24" fill="none" xmlns="http://www.w3.org/2000/svg">
<path d="M67.9 16.4573C67.5962 16.6165 67.2629 16.7151 66.9095 16.7505C66.8336 16.7581 66.7641 16.7965 66.7173 16.8567C66.6706 16.917 66.6506 16.9938 66.6621 17.0693C66.6781 17.1744 66.6855 17.261 66.6855 17.3419C66.6855 18.5007 65.5847 19.4434 64.2315 19.4434C63.2458 19.4434 62.3589 18.9408 61.9721 18.1628C61.9281 18.0743 61.8602 18.0029 61.7775 17.9537V14.4369C61.7986 14.4362 61.8197 14.4354 61.8413 14.4347C62.3852 14.4154 63.0617 14.3911 63.4385 14.7548C63.6326 14.9419 63.7456 15.234 63.7764 15.6241C63.4567 15.7413 63.2279 16.0485 63.2279 16.4081C63.2279 16.8684 63.6028 17.243 64.0636 17.243C64.5244 17.243 64.8993 16.8684 64.8993 16.4081C64.8993 16.0423 64.6626 15.731 64.3342 15.6184C64.2973 15.0697 64.1266 14.6451 63.8251 14.3542C63.2781 13.8263 62.4362 13.8564 61.8215 13.8784C61.8066 13.8789 61.7922 13.8794 61.7775 13.8799V12.1302C64.6166 12.136 66.0496 12.2524 66.1737 13.782C65.854 13.8993 65.6253 14.2065 65.6253 14.566C65.6253 15.0264 66.0002 15.4009 66.461 15.4009C66.9218 15.4009 67.2967 15.0264 67.2967 14.566C67.2967 14.2001 67.0598 13.8887 66.7312 13.7762C66.6625 12.7896 66.1465 12.16 65.1588 11.8554C64.3019 11.5913 63.1321 11.5745 61.7775 11.5734V9.83446C63.1321 9.83338 64.3019 9.81661 65.1588 9.55246C66.1465 9.24794 66.6625 8.61827 66.7312 7.63168C67.0598 7.5192 67.2967 7.20774 67.2967 6.84181C67.2967 6.38146 66.9218 6.00696 66.461 6.00696C66.0002 6.00696 65.6253 6.38146 65.6253 6.84181C65.6253 7.20136 65.854 7.50855 66.1737 7.62585C66.0496 9.15554 64.6166 9.27191 61.7775 9.27767V7.58322C61.7922 7.58373 61.8066 7.58422 61.8215 7.58477C61.9518 7.58941 62.0922 7.59446 62.2378 7.59446C62.7797 7.59446 63.394 7.52499 63.8251 7.10899C64.1266 6.81809 64.2973 6.39341 64.3342 5.84479C64.6626 5.73216 64.8993 5.42081 64.8993 5.05506C64.8993 4.59472 64.5244 4.22021 64.0636 4.22021C63.6028 4.22021 63.2279 4.59472 63.2279 5.05506C63.2279 5.41462 63.4566 5.72185 63.7764 5.83911C63.7456 6.22917 63.6326 6.52126 63.4385 6.7084C63.0617 7.07203 62.385 7.04773 61.8414 7.02847C61.8198 7.02769 61.7986 7.02695 61.7775 7.02624V5.82041C61.7775 5.66666 61.6529 5.54209 61.4991 5.54209C61.3454 5.54209 61.2208 5.66666 61.2208 5.82041V17.9537C61.1381 18.0029 61.0701 18.0744 61.0261 18.163C60.6394 18.9408 59.7525 19.4434 58.7668 19.4434C57.4136 19.4434 56.3128 18.5007 56.3128 17.3419C56.3128 17.261 56.3202 17.1744 56.3362 17.0693C56.3369 17.0647 56.4045 16.6034 56.7217 16.2974C56.8323 16.1907 56.8355 16.0145 56.7287 15.9039C56.622 15.7933 56.4458 15.79 56.3352 15.8968C56.0619 16.1605 55.9204 16.4875 55.8499 16.7153C55.2019 16.5924 54.6254 16.2431 54.2768 15.752C54.1878 15.6267 54.0141 15.5972 53.8887 15.6862C53.7634 15.7751 53.7339 15.9489 53.8229 16.0742C54.263 16.6942 54.9578 17.1191 55.7577 17.2655C55.7567 17.2913 55.7562 17.3167 55.7562 17.342C55.7562 18.8077 57.1068 20.0001 58.7668 20.0001C59.9414 20.0001 61.0072 19.3976 61.4992 18.4605C61.9912 19.3975 63.0569 20.0001 64.2315 20.0001C65.8916 20.0001 67.2421 18.8076 67.2421 17.3419C67.2421 17.3167 67.2416 17.2913 67.2406 17.2654C67.5639 17.2061 67.8716 17.1006 68.1583 16.9504C68.2945 16.8791 68.347 16.7109 68.2757 16.5747C68.2044 16.4385 68.0363 16.386 67.9 16.4573ZM64.0636 16.1299C64.2174 16.1299 64.3426 16.2547 64.3426 16.4081C64.3426 16.5616 64.2175 16.6864 64.0636 16.6864C63.9097 16.6864 63.7845 16.5616 63.7845 16.4081C63.7846 16.2547 63.9097 16.1299 64.0636 16.1299ZM66.461 14.2878C66.6149 14.2878 66.7401 14.4126 66.7401 14.566C66.7401 14.7195 66.6149 14.8443 66.461 14.8443C66.3071 14.8443 66.1819 14.7195 66.1819 14.566C66.1819 14.4127 66.3071 14.2878 66.461 14.2878ZM66.461 6.5636C66.6149 6.5636 66.7401 6.6884 66.7401 6.84181C66.7401 6.99525 66.6149 7.12005 66.461 7.12005C66.3071 7.12005 66.1819 6.99525 66.1819 6.84181C66.1819 6.6884 66.3071 6.5636 66.461 6.5636ZM64.0636 4.77678C64.2174 4.77678 64.3426 4.90158 64.3426 5.05499C64.3426 5.20844 64.2175 5.33324 64.0636 5.33324C63.9097 5.33324 63.7845 5.20844 63.7845 5.05499C63.7846 4.90162 63.9097 4.77678 64.0636 4.77678Z" fill="white"/>
<path d="M53.9228 14.6647C53.9228 14.1614 54.1344 13.6599 54.5033 13.2889C54.5745 13.2173 54.6013 13.1128 54.5734 13.0157C54.5455 12.9187 54.4673 12.8444 54.3689 12.8216C53.3019 12.5737 52.5566 11.7414 52.5566 10.7976C52.5566 10.2105 52.8301 9.65261 53.3266 9.22663C53.3861 9.17568 53.4213 9.10205 53.4236 9.02379C53.426 8.94556 53.3953 8.86993 53.3391 8.81549C53.0548 8.54007 52.8982 8.18756 52.8982 7.82285C52.8982 7.00522 53.6516 6.34464 54.6134 6.31903C54.6177 6.31907 55.0422 6.32608 55.3405 6.58993C55.3935 6.63676 55.4593 6.65977 55.5248 6.65977C55.6018 6.65977 55.6784 6.62804 55.7334 6.56585C55.8352 6.4507 55.8244 6.2748 55.7093 6.17297C55.3886 5.88934 54.9907 5.80177 54.7707 5.77468C54.663 5.57707 54.6059 5.36209 54.6059 5.14563C54.6059 4.68578 54.8491 4.25661 55.2732 3.96819C55.4003 3.88176 55.4332 3.70865 55.3468 3.58155C55.2604 3.45445 55.0872 3.42146 54.9601 3.50796C54.3812 3.90165 54.0493 4.4986 54.0493 5.14567C54.0493 5.37145 54.0915 5.59522 54.1732 5.80796C53.1177 6.00769 52.3416 6.83051 52.3416 7.82293C52.3416 8.24672 52.4873 8.65555 52.7568 8.99915C52.2667 9.50443 52 10.1338 52 10.7976C52 11.8699 52.7314 12.8241 53.8241 13.2368C53.5296 13.6582 53.3662 14.16 53.3662 14.6647C53.3662 14.8185 53.4908 14.9431 53.6445 14.9431C53.7982 14.9431 53.9228 14.8185 53.9228 14.6647Z" fill="white"/>
<path d="M70.9991 10.7975C70.9991 10.1336 70.7324 9.50424 70.2423 8.99896C70.5118 8.65533 70.6575 8.2465 70.6575 7.82274C70.6575 6.83033 69.8813 6.0075 68.8258 5.80778C68.9076 5.59503 68.9498 5.37122 68.9498 5.14549C68.9498 4.00786 67.9057 3.08232 66.6222 3.08232C66.5966 3.08232 66.5691 3.08291 66.5404 3.08395C66.4692 2.55904 66.1952 2.06912 65.7531 1.68467C65.2552 1.25164 64.6069 1.00854 63.9278 1.00026C63.9154 1.00007 63.9031 1 63.8907 1C62.8788 1 61.949 1.50955 61.4991 2.30914C61.0493 1.50951 60.1195 1 59.1075 1C59.0952 1 59.0828 1.00007 59.0705 1.00026C58.3912 1.00857 57.743 1.25164 57.245 1.68467C56.803 2.06905 56.5291 2.55893 56.4578 3.08395C56.4291 3.08291 56.4016 3.08232 56.376 3.08232C56.2222 3.08232 56.0977 3.20689 56.0977 3.36064C56.0977 3.51438 56.2222 3.63896 56.376 3.63896C56.461 3.63896 56.5795 3.64761 56.6852 3.66152C56.7689 3.67254 56.8523 3.64527 56.9131 3.58749C56.9741 3.52967 57.0056 3.44747 56.999 3.36376L56.9973 3.34476C56.9969 3.33975 56.9963 3.33477 56.9961 3.33244C57.013 2.38359 57.9661 1.57045 59.0773 1.55679C59.9167 1.54825 60.6839 1.96206 61.0323 2.61552C61.0763 2.69801 61.142 2.76503 61.2208 2.81201V4.53537C61.2208 4.68912 61.3454 4.81369 61.4991 4.81369C61.6529 4.81369 61.7775 4.68912 61.7775 4.53537V2.81205C61.8563 2.76511 61.922 2.69805 61.9659 2.61556C62.3101 1.97004 63.0632 1.55664 63.8904 1.55664C63.9006 1.55664 63.9108 1.55671 63.9209 1.55683C65.0321 1.57045 65.9852 2.38359 66.0021 3.32976C65.9976 3.32657 65.9942 3.8877 65.695 4.24533C65.5964 4.36322 65.612 4.53871 65.7298 4.63735C65.7819 4.68095 65.8452 4.70222 65.9083 4.70222C65.9879 4.70222 66.0668 4.6683 66.1219 4.60247C66.3811 4.29272 66.4864 3.90745 66.5293 3.64167C66.5628 3.63992 66.5944 3.63892 66.6223 3.63892C67.5987 3.63892 68.3932 4.31476 68.3932 5.14545C68.3932 5.40325 68.3132 5.65934 68.1618 5.88604C68.1054 5.97032 68.0994 6.07857 68.146 6.16856C68.1926 6.25858 68.2844 6.31618 68.3858 6.31885C69.3475 6.34445 70.1009 7.00504 70.1009 7.82267C70.1009 8.18738 69.9443 8.53988 69.6601 8.81531C69.6572 8.8182 69.3595 9.11448 68.9713 9.14536C68.8181 9.15753 68.7037 9.29161 68.7159 9.44487C68.7275 9.5906 68.8494 9.70111 68.9931 9.70111C69.0005 9.70111 69.0079 9.70081 69.0155 9.70026C69.3681 9.67224 69.6579 9.51445 69.8409 9.38501C70.2304 9.78654 70.4425 10.2806 70.4425 10.7975C70.4425 11.7413 69.6972 12.5736 68.6302 12.8214C68.5319 12.8442 68.4536 12.9186 68.4257 13.0156C68.3978 13.1126 68.4246 13.2171 68.4958 13.2887C68.8647 13.6598 69.0763 14.1612 69.0763 14.6646C69.0763 15.0167 68.9723 15.365 68.7756 15.6719C68.6926 15.8013 68.7302 15.9735 68.8596 16.0564C68.9061 16.0863 68.9582 16.1005 69.0096 16.1005C69.1013 16.1005 69.191 16.0553 69.2441 15.9724C69.4985 15.5757 69.633 15.1235 69.633 14.6646C69.633 14.1599 69.4695 13.6581 69.175 13.2367C70.2678 12.824 70.9991 11.8698 70.9991 10.7975Z" fill="white"/>
<path d="M55.143 10.5217C55.1344 10.6752 55.2519 10.8066 55.4053 10.8152C55.4106 10.8155 55.4159 10.8156 55.4212 10.8156C55.5677 10.8156 55.6905 10.7011 55.6988 10.5529C55.6996 10.539 55.7935 9.15181 57.1973 8.81033C57.3467 8.774 57.4383 8.62348 57.402 8.47412C57.3657 8.32475 57.2152 8.23302 57.0658 8.26946C56.1249 8.49831 55.6513 9.09863 55.4196 9.56194C55.1716 10.0578 55.1441 10.503 55.143 10.5217Z" fill="white"/>
<path d="M59.4528 4.08472C59.3006 4.07044 59.1641 4.18262 59.1496 4.33569C59.0672 5.20917 58.1626 5.54375 58.123 5.55796C57.9785 5.60914 57.9025 5.7676 57.9532 5.9124C57.9934 6.02703 58.1009 6.09872 58.2159 6.09872C58.2464 6.09872 58.2775 6.09364 58.3079 6.08299C58.3601 6.06469 59.5875 5.62086 59.7038 4.38794C59.7182 4.2349 59.6059 4.09916 59.4528 4.08472Z" fill="white"/>
<path d="M59.2294 16.4872C59.268 16.5055 59.3087 16.5142 59.3488 16.5142C59.4528 16.5142 59.5526 16.4556 59.6003 16.3554C59.6663 16.2166 59.6073 16.0505 59.4685 15.9845C58.3975 15.4749 58.4891 14.2633 58.4936 14.2108C58.5074 14.0582 58.3952 13.9229 58.2424 13.9086C58.0896 13.8948 57.9536 14.0067 57.9393 14.1598C57.9331 14.2268 57.8021 15.8081 59.2294 16.4872Z" fill="white"/>
<path d="M58.5709 11.3212C58.4321 11.3872 58.3731 11.5533 58.4392 11.6921C58.4868 11.7923 58.5866 11.8509 58.6907 11.8509C58.7307 11.8509 58.7714 11.8422 58.81 11.8239C59.7111 11.3952 59.6287 10.3992 59.6247 10.3571C59.6103 10.204 59.4742 10.0921 59.3216 10.1059C59.1686 10.1202 59.0561 10.2559 59.0704 10.409C59.0711 10.4154 59.1246 11.0578 58.5709 11.3212Z" fill="white"/>
<path d="M65.1855 10.7316C65.1855 10.8853 65.3102 11.0099 65.4639 11.0099C65.6176 11.0099 65.7423 10.8853 65.7423 10.7316C65.7423 10.5779 65.6176 10.4532 65.4639 10.4532C65.3102 10.4532 65.1855 10.5779 65.1855 10.7316Z" fill="white"/>
<path d="M67.3565 11.0099C67.5102 11.0099 67.6348 10.8853 67.6348 10.7316C67.6348 10.5779 67.5102 10.4532 67.3565 10.4532C67.2027 10.4532 67.0781 10.5779 67.0781 10.7316C67.0781 10.8853 67.2028 11.0099 67.3565 11.0099Z" fill="white"/>
<path d="M63.7871 18.3947C63.7871 18.5484 63.9117 18.673 64.0655 18.673C64.2192 18.673 64.3438 18.5484 64.3438 18.3947C64.3438 18.2409 64.2192 18.1163 64.0655 18.1163C63.9117 18.1163 63.7871 18.2409 63.7871 18.3947Z" fill="white"/>
<path d="M64.3438 3.06836C64.3438 2.91465 64.2192 2.79004 64.0655 2.79004C63.9117 2.79004 63.7871 2.91465 63.7871 3.06836C63.7871 3.22207 63.9117 3.34668 64.0655 3.34668C64.2192 3.34668 64.3438 3.22207 64.3438 3.06836Z" fill="white"/>
<path d="M12.6 15.34C12.6 16.0733 12.4133 16.7133 12.04 17.26C11.6667 17.8067 11.16 18.2333 10.52 18.54C9.89333 18.8467 9.2 19 8.44 19H1.7V4.8H8.76C9.42667 4.8 10 4.98 10.48 5.34C10.9733 5.68667 11.3467 6.14 11.6 6.7C11.8667 7.24667 12 7.82 12 8.42C12 9.11333 11.82 9.76667 11.46 10.38C11.1133 10.98 10.6133 11.4267 9.96 11.72C10.7733 11.96 11.4133 12.4067 11.88 13.06C12.36 13.7 12.6 14.46 12.6 15.34ZM3.5 6.36V11.1H8.02C8.64667 11.1 9.16667 10.8733 9.58 10.42C10.0067 9.95333 10.22 9.39333 10.22 8.74C10.22 8.07333 10.02 7.51333 9.62 7.06C9.23333 6.59333 8.74 6.36 8.14 6.36H3.5ZM10.78 15.02C10.78 14.58 10.68 14.1733 10.48 13.8C10.2933 13.4267 10.0333 13.1267 9.7 12.9C9.38 12.6733 9.00667 12.56 8.58 12.56H3.5V17.44H8.44C8.88 17.44 9.27333 17.3267 9.62 17.1C9.98 16.8733 10.26 16.58 10.46 16.22C10.6733 15.8467 10.78 15.4467 10.78 15.02ZM20.358 10.1C19.478 10.1133 18.698 10.34 18.018 10.78C17.3513 11.2067 16.878 11.8 16.598 12.56V19H14.838V8.56H16.478V10.98C16.838 10.26 17.3113 9.68 17.898 9.24C18.498 8.78667 19.1246 8.53333 19.778 8.48C19.9113 8.48 20.0246 8.48 20.118 8.48C20.2113 8.48 20.2913 8.48667 20.358 8.5V10.1ZM21.2836 15.98C21.2836 15.3133 21.4703 14.74 21.8436 14.26C22.2303 13.7667 22.7569 13.3867 23.4236 13.12C24.0903 12.8533 24.8636 12.72 25.7436 12.72C26.2103 12.72 26.7036 12.76 27.2236 12.84C27.7436 12.9067 28.2036 13.0133 28.6036 13.16V12.4C28.6036 11.6 28.3636 10.9733 27.8836 10.52C27.4036 10.0533 26.7236 9.82 25.8436 9.82C25.2703 9.82 24.7169 9.92667 24.1836 10.14C23.6636 10.34 23.1103 10.6333 22.5236 11.02L21.8836 9.78C22.5636 9.31333 23.2436 8.96667 23.9236 8.74C24.6036 8.5 25.3103 8.38 26.0436 8.38C27.3769 8.38 28.4303 8.75333 29.2036 9.5C29.9769 10.2333 30.3636 11.26 30.3636 12.58V17C30.3636 17.4133 30.5503 17.6267 30.9236 17.64V19C30.7503 19.0267 30.5969 19.0467 30.4636 19.06C30.3436 19.0733 30.2436 19.08 30.1636 19.08C29.7503 19.08 29.4369 18.9667 29.2236 18.74C29.0236 18.5133 28.9103 18.2733 28.8836 18.02L28.8436 17.36C28.3903 17.9467 27.7969 18.4 27.0636 18.72C26.3303 19.04 25.6036 19.2 24.8836 19.2C24.1903 19.2 23.5703 19.06 23.0236 18.78C22.4769 18.4867 22.0503 18.1 21.7436 17.62C21.4369 17.1267 21.2836 16.58 21.2836 15.98ZM28.0836 16.72C28.2436 16.5333 28.3703 16.3467 28.4636 16.16C28.5569 15.96 28.6036 15.7933 28.6036 15.66V14.36C27.7503 14.0267 26.8703 13.86 25.9636 13.86C25.0703 13.86 24.3436 14.04 23.7836 14.4C23.2369 14.7467 22.9636 15.2267 22.9636 15.84C22.9636 16.1733 23.0503 16.5 23.2236 16.82C23.4103 17.1267 23.6769 17.38 24.0236 17.58C24.3836 17.78 24.8236 17.88 25.3436 17.88C25.8903 17.88 26.4103 17.7733 26.9036 17.56C27.3969 17.3333 27.7903 17.0533 28.0836 16.72ZM33.1778 6.6V4.4H34.9378V6.6H33.1778ZM33.1778 19V8.56H34.9378V19H33.1778ZM46.8472 19H45.0872V13.16C45.0872 12.0533 44.9139 11.2467 44.5672 10.74C44.2339 10.22 43.7205 9.96 43.0272 9.96C42.5472 9.96 42.0672 10.08 41.5872 10.32C41.1205 10.56 40.7005 10.8867 40.3272 11.3C39.9672 11.7 39.7072 12.1667 39.5472 12.7V19H37.7872V8.56H39.3872V10.8C39.8005 10.0667 40.3939 9.48 41.1672 9.04C41.9539 8.6 42.8072 8.38 43.7272 8.38C44.5405 8.38 45.1672 8.57333 45.6072 8.96C46.0605 9.33333 46.3805 9.85333 46.5672 10.52C46.7539 11.1733 46.8472 11.92 46.8472 12.76V19Z" fill="white"/>
<path d="M85.04 8.78C84.7067 8.40667 84.1933 8.06667 83.5 7.76C82.8067 7.45333 82.0333 7.3 81.18 7.3C80.0867 7.3 79.28 7.50667 78.76 7.92C78.24 8.33333 77.98 8.9 77.98 9.62C77.98 10.1267 78.1133 10.5267 78.38 10.82C78.6467 11.1133 79.0533 11.3533 79.6 11.54C80.16 11.7267 80.8667 11.92 81.72 12.12C82.7067 12.3333 83.56 12.5933 84.28 12.9C85 13.2067 85.5533 13.62 85.94 14.14C86.3267 14.6467 86.52 15.3267 86.52 16.18C86.52 17.0867 86.2933 17.8333 85.84 18.42C85.3867 19.0067 84.7667 19.44 83.98 19.72C83.2067 20 82.3333 20.14 81.36 20.14C79.1467 20.14 77.22 19.4733 75.58 18.14L76.44 16.62C76.7333 16.9133 77.1267 17.2067 77.62 17.5C78.1267 17.7933 78.7 18.04 79.34 18.24C79.9933 18.4267 80.68 18.52 81.4 18.52C82.4133 18.52 83.2 18.34 83.76 17.98C84.32 17.6067 84.6 17.0667 84.6 16.36C84.6 15.8267 84.44 15.4 84.12 15.08C83.8133 14.76 83.3533 14.4933 82.74 14.28C82.1267 14.0667 81.38 13.8533 80.5 13.64C79.54 13.4 78.7333 13.14 78.08 12.86C77.4267 12.5667 76.9333 12.1867 76.6 11.72C76.28 11.2533 76.12 10.6467 76.12 9.9C76.12 8.99333 76.34 8.22667 76.78 7.6C77.22 6.97333 77.8267 6.5 78.6 6.18C79.3733 5.86 80.2467 5.7 81.22 5.7C82.1667 5.7 83.0267 5.84667 83.8 6.14C84.5867 6.43333 85.28 6.82667 85.88 7.32L85.04 8.78ZM93.8122 19.48C93.5989 19.5733 93.2589 19.7067 92.7922 19.88C92.3389 20.0533 91.8322 20.14 91.2722 20.14C90.6322 20.14 90.0789 19.9667 89.6122 19.62C89.1455 19.26 88.9122 18.7067 88.9122 17.96V10.94H87.4922V9.56H88.9122V6.08H90.6722V9.56H93.0122V10.94H90.6722V17.42C90.6989 17.7933 90.8255 18.0733 91.0522 18.26C91.2789 18.4333 91.5455 18.52 91.8522 18.52C92.1989 18.52 92.5189 18.46 92.8122 18.34C93.1055 18.22 93.2989 18.1333 93.3922 18.08L93.8122 19.48ZM99.8667 20.2C98.8267 20.2 97.9067 19.9533 97.1067 19.46C96.3201 18.9533 95.7067 18.2933 95.2667 17.48C94.8267 16.6533 94.6067 15.76 94.6067 14.8C94.6067 13.8267 94.8267 12.9333 95.2667 12.12C95.7201 11.2933 96.3401 10.6333 97.1267 10.14C97.9267 9.63333 98.8401 9.38 99.8667 9.38C100.907 9.38 101.82 9.63333 102.607 10.14C103.407 10.6333 104.027 11.2933 104.467 12.12C104.92 12.9333 105.147 13.8267 105.147 14.8C105.147 15.76 104.92 16.6533 104.467 17.48C104.027 18.2933 103.413 18.9533 102.627 19.46C101.84 19.9533 100.92 20.2 99.8667 20.2ZM96.4067 14.82C96.4067 15.54 96.5601 16.1933 96.8667 16.78C97.1867 17.3667 97.6067 17.8333 98.1267 18.18C98.6467 18.5133 99.2267 18.68 99.8667 18.68C100.507 18.68 101.087 18.5067 101.607 18.16C102.14 17.8133 102.56 17.3467 102.867 16.76C103.187 16.16 103.347 15.5 103.347 14.78C103.347 14.06 103.187 13.4067 102.867 12.82C102.56 12.2333 102.14 11.7667 101.607 11.42C101.087 11.0733 100.507 10.9 99.8667 10.9C99.2267 10.9 98.6467 11.08 98.1267 11.44C97.6067 11.7867 97.1867 12.2533 96.8667 12.84C96.5601 13.4267 96.4067 14.0867 96.4067 14.82ZM112.799 11.1C111.919 11.1133 111.139 11.34 110.459 11.78C109.793 12.2067 109.319 12.8 109.039 13.56V20H107.279V9.56H108.919V11.98C109.279 11.26 109.753 10.68 110.339 10.24C110.939 9.78667 111.566 9.53333 112.219 9.48C112.353 9.48 112.466 9.48 112.559 9.48C112.653 9.48 112.733 9.48667 112.799 9.5V11.1ZM130.285 20H128.525V14.16C128.525 13.0667 128.345 12.26 127.985 11.74C127.638 11.22 127.118 10.96 126.425 10.96C125.718 10.96 125.078 11.22 124.505 11.74C123.932 12.2467 123.525 12.9067 123.285 13.72V20H121.525V14.16C121.525 13.0533 121.352 12.2467 121.005 11.74C120.658 11.22 120.138 10.96 119.445 10.96C118.752 10.96 118.112 11.2133 117.525 11.72C116.952 12.2133 116.545 12.8733 116.305 13.7V20H114.545V9.56H116.145V11.8C116.572 11.0267 117.125 10.4333 117.805 10.02C118.485 9.59333 119.252 9.38 120.105 9.38C120.972 9.38 121.665 9.62 122.185 10.1C122.705 10.5667 123.025 11.1733 123.145 11.92C124.078 10.2267 125.405 9.38 127.125 9.38C127.925 9.38 128.552 9.57333 129.005 9.96C129.472 10.3333 129.798 10.8533 129.985 11.52C130.185 12.1733 130.285 12.92 130.285 13.76V20Z" fill="white"/>
</svg>
