<svg width="375" height="816" viewBox="0 0 375 816" fill="none" xmlns="http://www.w3.org/2000/svg">
<g clip-path="url(#clip0_0_1710)">
<path d="M1187.84 -82H-448.155V816H1187.84V-82Z" fill="url(#paint0_linear_0_1710)"/>
<path d="M1165.12 -123.158H-278.614C-301.686 -19.639 -337.692 79.2034 -426.833 155.284C-439.767 166.197 -452.002 177.11 -463.538 188.024V855.911C-285.955 931.056 -20.9792 899.876 219.177 688.16C433.815 499.206 336.284 350.162 532.394 204.237C710.676 71.72 1013.76 357.646 1179.45 54.2589C1213.71 -7.47857 1195.53 -66.7216 1165.12 -123.158Z" fill="#6DA5F6"/>
<path d="M-462.487 -120.976V612.391C-436.269 610.52 -411.799 613.638 -389.077 623.304C-161.505 722.77 -68.1694 901.123 141.924 775.153C438.012 597.424 317.06 186.153 595.669 -15.2737C644.26 -50.1959 686.208 -85.7418 721.865 -121.288H-462.487V-120.976Z" fill="#181818"/>
<path d="M338.381 380.719C339.925 380.719 341.177 379.602 341.177 378.225C341.177 376.847 339.925 375.73 338.381 375.73C336.836 375.73 335.584 376.847 335.584 378.225C335.584 379.602 336.836 380.719 338.381 380.719Z" fill="white" fill-opacity="0.2"/>
<path d="M369.144 408.47C370.689 408.47 371.941 407.353 371.941 405.975C371.941 404.598 370.689 403.481 369.144 403.481C367.6 403.481 366.348 404.598 366.348 405.975C366.348 407.353 367.6 408.47 369.144 408.47Z" fill="white" fill-opacity="0.2"/>
<path d="M276.509 380.719C278.053 380.719 279.305 379.602 279.305 378.225C279.305 376.847 278.053 375.73 276.509 375.73C274.964 375.73 273.712 376.847 273.712 378.225C273.712 379.602 274.964 380.719 276.509 380.719Z" fill="white" fill-opacity="0.2"/>
<path d="M307.267 408.47C308.812 408.47 310.064 407.353 310.064 405.975C310.064 404.598 308.812 403.481 307.267 403.481C305.723 403.481 304.471 404.598 304.471 405.975C304.471 407.353 305.723 408.47 307.267 408.47Z" fill="white" fill-opacity="0.2"/>
<path d="M338.381 436.22C339.925 436.22 341.177 435.104 341.177 433.726C341.177 432.348 339.925 431.232 338.381 431.232C336.836 431.232 335.584 432.348 335.584 433.726C335.584 435.104 336.836 436.22 338.381 436.22Z" fill="white" fill-opacity="0.2"/>
<path d="M367.395 463.036C368.444 463.971 370.191 463.971 371.24 463.036C372.289 462.101 372.289 460.542 371.24 459.606C370.191 458.671 368.444 458.671 367.395 459.606C366.346 460.542 366.346 462.101 367.395 463.036Z" fill="white" fill-opacity="0.2"/>
<path d="M245.395 408.47C246.94 408.47 248.192 407.353 248.192 405.975C248.192 404.598 246.94 403.481 245.395 403.481C243.851 403.481 242.599 404.598 242.599 405.975C242.599 407.353 243.851 408.47 245.395 408.47Z" fill="white" fill-opacity="0.2"/>
<path d="M276.509 436.22C278.053 436.22 279.305 435.104 279.305 433.726C279.305 432.348 278.053 431.232 276.509 431.232C274.964 431.232 273.712 432.348 273.712 433.726C273.712 435.104 274.964 436.22 276.509 436.22Z" fill="white" fill-opacity="0.2"/>
<path d="M305.523 463.036C306.572 463.971 308.319 463.971 309.368 463.036C310.417 462.101 310.417 460.542 309.368 459.606C308.319 458.671 306.572 458.671 305.523 459.606C304.474 460.542 304.474 462.101 305.523 463.036Z" fill="white" fill-opacity="0.2"/>
<path d="M336.283 490.475C337.331 491.41 339.079 491.41 340.128 490.475C341.177 489.539 341.177 487.98 340.128 487.045C339.079 486.109 337.331 486.109 336.283 487.045C335.234 487.98 335.234 489.539 336.283 490.475Z" fill="white" fill-opacity="0.2"/>
<path d="M367.395 518.225C368.444 519.161 370.191 519.161 371.24 518.225C372.289 517.29 372.289 515.731 371.24 514.796C370.191 513.86 368.444 513.86 367.395 514.796C366.346 515.731 366.346 517.29 367.395 518.225Z" fill="white" fill-opacity="0.2"/>
<path d="M214.283 436.22C215.827 436.22 217.08 435.104 217.08 433.726C217.08 432.348 215.827 431.232 214.283 431.232C212.738 431.232 211.486 432.348 211.486 433.726C211.486 435.104 212.738 436.22 214.283 436.22Z" fill="white" fill-opacity="0.2"/>
<path d="M243.645 463.036C244.694 463.971 246.442 463.971 247.49 463.036C248.539 462.101 248.539 460.542 247.49 459.606C246.442 458.671 244.694 458.671 243.645 459.606C242.596 460.542 242.596 462.101 243.645 463.036Z" fill="white" fill-opacity="0.2"/>
<path d="M274.41 490.475C275.458 491.41 277.206 491.41 278.255 490.475C279.303 489.539 279.303 487.98 278.255 487.045C277.206 486.109 275.458 486.109 274.41 487.045C273.361 487.98 273.361 489.539 274.41 490.475Z" fill="white" fill-opacity="0.2"/>
<path d="M305.523 518.225C306.572 519.161 308.319 519.161 309.368 518.225C310.417 517.29 310.417 515.731 309.368 514.796C308.319 513.86 306.572 513.86 305.523 514.796C304.474 515.731 304.474 517.29 305.523 518.225Z" fill="white" fill-opacity="0.2"/>
<path d="M336.283 545.976C337.331 546.912 339.079 546.912 340.128 545.976C341.177 545.041 341.177 543.482 340.128 542.546C339.079 541.611 337.331 541.611 336.283 542.546C335.234 543.482 335.234 545.041 336.283 545.976Z" fill="white" fill-opacity="0.2"/>
<path d="M369.144 574.351C370.689 574.351 371.941 573.234 371.941 571.856C371.941 570.478 370.689 569.362 369.144 569.362C367.6 569.362 366.348 570.478 366.348 571.856C366.348 573.234 367.6 574.351 369.144 574.351Z" fill="white" fill-opacity="0.2"/>
<path d="M181.424 463.036C182.473 463.971 184.221 463.971 185.269 463.036C186.318 462.101 186.318 460.542 185.269 459.606C184.221 458.671 182.473 458.671 181.424 459.606C180.376 460.542 180.376 462.101 181.424 463.036Z" fill="white" fill-opacity="0.2"/>
<path d="M212.538 490.475C213.586 491.41 215.334 491.41 216.383 490.475C217.432 489.539 217.432 487.98 216.383 487.045C215.334 486.109 213.586 486.109 212.538 487.045C211.489 487.98 211.489 489.539 212.538 490.475Z" fill="white" fill-opacity="0.2"/>
<path d="M243.645 518.225C244.694 519.161 246.442 519.161 247.49 518.225C248.539 517.29 248.539 515.731 247.49 514.796C246.442 513.86 244.694 513.86 243.645 514.796C242.596 515.731 242.596 517.29 243.645 518.225Z" fill="white" fill-opacity="0.2"/>
<path d="M274.41 545.976C275.458 546.912 277.206 546.912 278.255 545.976C279.303 545.041 279.303 543.482 278.255 542.546C277.206 541.611 275.458 541.611 274.41 542.546C273.361 543.482 273.361 545.041 274.41 545.976Z" fill="white" fill-opacity="0.2"/>
<path d="M307.267 574.351C308.812 574.351 310.064 573.234 310.064 571.856C310.064 570.478 308.812 569.362 307.267 569.362C305.723 569.362 304.471 570.478 304.471 571.856C304.471 573.234 305.723 574.351 307.267 574.351Z" fill="white" fill-opacity="0.2"/>
<path d="M338.381 601.789C339.925 601.789 341.177 600.672 341.177 599.295C341.177 597.917 339.925 596.8 338.381 596.8C336.836 596.8 335.584 597.917 335.584 599.295C335.584 600.672 336.836 601.789 338.381 601.789Z" fill="white" fill-opacity="0.2"/>
<path d="M369.144 629.54C370.689 629.54 371.941 628.423 371.941 627.046C371.941 625.668 370.689 624.551 369.144 624.551C367.6 624.551 366.348 625.668 366.348 627.046C366.348 628.423 367.6 629.54 369.144 629.54Z" fill="white" fill-opacity="0.2"/>
<path d="M150.661 490.475C151.709 491.41 153.457 491.41 154.506 490.475C155.554 489.539 155.554 487.98 154.506 487.045C153.457 486.109 151.709 486.109 150.661 487.045C149.612 487.98 149.612 489.539 150.661 490.475Z" fill="white" fill-opacity="0.2"/>
<path d="M181.424 518.225C182.473 519.161 184.221 519.161 185.269 518.225C186.318 517.29 186.318 515.731 185.269 514.796C184.221 513.86 182.473 513.86 181.424 514.796C180.376 515.731 180.376 517.29 181.424 518.225Z" fill="white" fill-opacity="0.2"/>
<path d="M212.538 545.976C213.586 546.912 215.334 546.912 216.383 545.976C217.432 545.041 217.432 543.482 216.383 542.546C215.334 541.611 213.586 541.611 212.538 542.546C211.489 543.482 211.489 545.041 212.538 545.976Z" fill="white" fill-opacity="0.2"/>
<path d="M245.395 574.351C246.94 574.351 248.192 573.234 248.192 571.856C248.192 570.478 246.94 569.362 245.395 569.362C243.851 569.362 242.599 570.478 242.599 571.856C242.599 573.234 243.851 574.351 245.395 574.351Z" fill="white" fill-opacity="0.2"/>
<path d="M276.509 601.789C278.053 601.789 279.305 600.672 279.305 599.295C279.305 597.917 278.053 596.8 276.509 596.8C274.964 596.8 273.712 597.917 273.712 599.295C273.712 600.672 274.964 601.789 276.509 601.789Z" fill="white" fill-opacity="0.2"/>
<path d="M307.267 629.54C308.812 629.54 310.064 628.423 310.064 627.046C310.064 625.668 308.812 624.551 307.267 624.551C305.723 624.551 304.471 625.668 304.471 627.046C304.471 628.423 305.723 629.54 307.267 629.54Z" fill="white" fill-opacity="0.2"/>
<path d="M338.381 656.979C339.925 656.979 341.177 655.862 341.177 654.484C341.177 653.107 339.925 651.99 338.381 651.99C336.836 651.99 335.584 653.107 335.584 654.484C335.584 655.862 336.836 656.979 338.381 656.979Z" fill="white" fill-opacity="0.2"/>
<path d="M367.395 684.106C368.444 685.041 370.191 685.041 371.24 684.106C372.289 683.171 372.289 681.612 371.24 680.676C370.191 679.741 368.444 679.741 367.395 680.676C366.346 681.612 366.346 683.171 367.395 684.106Z" fill="white" fill-opacity="0.2"/>
<path d="M119.547 518.225C120.596 519.161 122.344 519.161 123.393 518.225C124.441 517.29 124.441 515.731 123.393 514.796C122.344 513.86 120.596 513.86 119.547 514.796C118.499 515.731 118.499 517.29 119.547 518.225Z" fill="white" fill-opacity="0.2"/>
<path d="M150.661 545.976C151.709 546.912 153.457 546.912 154.506 545.976C155.554 545.041 155.554 543.482 154.506 542.546C153.457 541.611 151.709 541.611 150.661 542.546C149.612 543.482 149.612 545.041 150.661 545.976Z" fill="white" fill-opacity="0.2"/>
<path d="M183.523 574.351C185.068 574.351 186.32 573.234 186.32 571.856C186.32 570.478 185.068 569.362 183.523 569.362C181.979 569.362 180.727 570.478 180.727 571.856C180.727 573.234 181.979 574.351 183.523 574.351Z" fill="white" fill-opacity="0.2"/>
<path d="M214.283 601.789C215.827 601.789 217.08 600.672 217.08 599.295C217.08 597.917 215.827 596.8 214.283 596.8C212.738 596.8 211.486 597.917 211.486 599.295C211.486 600.672 212.738 601.789 214.283 601.789Z" fill="white" fill-opacity="0.2"/>
<path d="M245.395 629.54C246.94 629.54 248.192 628.423 248.192 627.046C248.192 625.668 246.94 624.551 245.395 624.551C243.851 624.551 242.599 625.668 242.599 627.046C242.599 628.423 243.851 629.54 245.395 629.54Z" fill="white" fill-opacity="0.2"/>
<path d="M276.509 656.979C278.053 656.979 279.305 655.862 279.305 654.484C279.305 653.107 278.053 651.99 276.509 651.99C274.964 651.99 273.712 653.107 273.712 654.484C273.712 655.862 274.964 656.979 276.509 656.979Z" fill="white" fill-opacity="0.2"/>
<path d="M305.523 684.106C306.572 685.041 308.319 685.041 309.368 684.106C310.417 683.171 310.417 681.612 309.368 680.676C308.319 679.741 306.572 679.741 305.523 680.676C304.474 681.612 304.474 683.171 305.523 684.106Z" fill="white" fill-opacity="0.2"/>
<path d="M336.283 711.545C337.331 712.48 339.079 712.48 340.128 711.545C341.177 710.61 341.177 709.051 340.128 708.115C339.079 707.18 337.331 707.18 336.283 708.115C335.234 709.051 335.234 710.61 336.283 711.545Z" fill="white" fill-opacity="0.2"/>
<path d="M367.395 739.296C368.444 740.231 370.191 740.231 371.24 739.296C372.289 738.36 372.289 736.801 371.24 735.866C370.191 734.93 368.444 734.93 367.395 735.866C366.346 736.801 366.346 738.36 367.395 739.296Z" fill="white" fill-opacity="0.2"/>
<path d="M88.7875 545.976C89.8363 546.912 91.5841 546.912 92.6328 545.976C93.6816 545.041 93.6816 543.482 92.6328 542.546C91.5841 541.611 89.8363 541.611 88.7875 542.546C87.7388 543.482 87.7388 545.041 88.7875 545.976Z" fill="white" fill-opacity="0.2"/>
<path d="M121.645 574.351C123.19 574.351 124.442 573.234 124.442 571.856C124.442 570.478 123.19 569.362 121.645 569.362C120.101 569.362 118.849 570.478 118.849 571.856C118.849 573.234 120.101 574.351 121.645 574.351Z" fill="white" fill-opacity="0.2"/>
<path d="M152.41 601.789C153.954 601.789 155.206 600.672 155.206 599.295C155.206 597.917 153.954 596.8 152.41 596.8C150.865 596.8 149.613 597.917 149.613 599.295C149.613 600.672 150.865 601.789 152.41 601.789Z" fill="white" fill-opacity="0.2"/>
<path d="M183.523 629.54C185.068 629.54 186.32 628.423 186.32 627.046C186.32 625.668 185.068 624.551 183.523 624.551C181.979 624.551 180.727 625.668 180.727 627.046C180.727 628.423 181.979 629.54 183.523 629.54Z" fill="white" fill-opacity="0.2"/>
<path d="M214.283 656.979C215.827 656.979 217.08 655.862 217.08 654.484C217.08 653.107 215.827 651.99 214.283 651.99C212.738 651.99 211.486 653.107 211.486 654.484C211.486 655.862 212.738 656.979 214.283 656.979Z" fill="white" fill-opacity="0.2"/>
<path d="M243.645 684.106C244.694 685.041 246.442 685.041 247.49 684.106C248.539 683.171 248.539 681.612 247.49 680.676C246.442 679.741 244.694 679.741 243.645 680.676C242.596 681.612 242.596 683.171 243.645 684.106Z" fill="white" fill-opacity="0.2"/>
<path d="M274.41 711.545C275.458 712.48 277.206 712.48 278.255 711.545C279.303 710.61 279.303 709.051 278.255 708.115C277.206 707.18 275.458 707.18 274.41 708.115C273.361 709.051 273.361 710.61 274.41 711.545Z" fill="white" fill-opacity="0.2"/>
<path d="M305.523 739.296C306.572 740.231 308.319 740.231 309.368 739.296C310.417 738.36 310.417 736.801 309.368 735.866C308.319 734.93 306.572 734.93 305.523 735.866C304.474 736.801 304.474 738.36 305.523 739.296Z" fill="white" fill-opacity="0.2"/>
<path d="M336.283 766.734C337.331 767.67 339.079 767.67 340.128 766.734C341.177 765.799 341.177 764.24 340.128 763.305C339.079 762.369 337.331 762.369 336.283 763.305C335.234 764.24 335.234 765.799 336.283 766.734Z" fill="white" fill-opacity="0.2"/>
<path d="M59.4245 574.351C60.9691 574.351 62.2212 573.234 62.2212 571.856C62.2212 570.478 60.9691 569.362 59.4245 569.362C57.88 569.362 56.6279 570.478 56.6279 571.856C56.6279 573.234 57.88 574.351 59.4245 574.351Z" fill="white" fill-opacity="0.2"/>
<path d="M90.5329 601.789C92.0774 601.789 93.3295 600.672 93.3295 599.295C93.3295 597.917 92.0774 596.8 90.5329 596.8C88.9884 596.8 87.7363 597.917 87.7363 599.295C87.7363 600.672 88.9884 601.789 90.5329 601.789Z" fill="white" fill-opacity="0.2"/>
<path d="M121.645 629.54C123.19 629.54 124.442 628.423 124.442 627.046C124.442 625.668 123.19 624.551 121.645 624.551C120.101 624.551 118.849 625.668 118.849 627.046C118.849 628.423 120.101 629.54 121.645 629.54Z" fill="white" fill-opacity="0.2"/>
<path d="M152.41 656.979C153.954 656.979 155.206 655.862 155.206 654.484C155.206 653.107 153.954 651.99 152.41 651.99C150.865 651.99 149.613 653.107 149.613 654.484C149.613 655.862 150.865 656.979 152.41 656.979Z" fill="white" fill-opacity="0.2"/>
<path d="M181.424 684.106C182.473 685.041 184.221 685.041 185.269 684.106C186.318 683.171 186.318 681.612 185.269 680.676C184.221 679.741 182.473 679.741 181.424 680.676C180.376 681.612 180.376 683.171 181.424 684.106Z" fill="white" fill-opacity="0.2"/>
<path d="M212.538 711.545C213.586 712.48 215.334 712.48 216.383 711.545C217.432 710.61 217.432 709.051 216.383 708.115C215.334 707.18 213.586 707.18 212.538 708.115C211.489 709.051 211.489 710.61 212.538 711.545Z" fill="white" fill-opacity="0.2"/>
<path d="M243.645 739.296C244.694 740.231 246.442 740.231 247.49 739.296C248.539 738.36 248.539 736.801 247.49 735.866C246.442 734.93 244.694 734.93 243.645 735.866C242.596 736.801 242.596 738.36 243.645 739.296Z" fill="white" fill-opacity="0.2"/>
<path d="M274.41 766.734C275.458 767.67 277.206 767.67 278.255 766.734C279.303 765.799 279.303 764.24 278.255 763.305C277.206 762.369 275.458 762.369 274.41 763.305C273.361 764.24 273.361 765.799 274.41 766.734Z" fill="white" fill-opacity="0.2"/>
<path d="M307.267 795.109C308.812 795.109 310.064 793.992 310.064 792.614C310.064 791.237 308.812 790.12 307.267 790.12C305.723 790.12 304.471 791.237 304.471 792.614C304.471 793.992 305.723 795.109 307.267 795.109Z" fill="white" fill-opacity="0.2"/>
<path d="M28.6598 601.789C30.2043 601.789 31.4563 600.672 31.4563 599.295C31.4563 597.917 30.2043 596.8 28.6598 596.8C27.1153 596.8 25.8633 597.917 25.8633 599.295C25.8633 600.672 27.1153 601.789 28.6598 601.789Z" fill="white" fill-opacity="0.2"/>
<path d="M59.4245 629.54C60.9691 629.54 62.2212 628.423 62.2212 627.046C62.2212 625.668 60.9691 624.551 59.4245 624.551C57.88 624.551 56.6279 625.668 56.6279 627.046C56.6279 628.423 57.88 629.54 59.4245 629.54Z" fill="white" fill-opacity="0.2"/>
<path d="M90.5329 656.979C92.0774 656.979 93.3295 655.862 93.3295 654.484C93.3295 653.107 92.0774 651.99 90.5329 651.99C88.9884 651.99 87.7363 653.107 87.7363 654.484C87.7363 655.862 88.9884 656.979 90.5329 656.979Z" fill="white" fill-opacity="0.2"/>
<path d="M119.547 684.106C120.596 685.041 122.344 685.041 123.393 684.106C124.441 683.171 124.441 681.612 123.393 680.676C122.344 679.741 120.596 679.741 119.547 680.676C118.499 681.612 118.499 683.171 119.547 684.106Z" fill="white" fill-opacity="0.2"/>
<path d="M150.661 711.545C151.709 712.48 153.457 712.48 154.506 711.545C155.554 710.61 155.554 709.051 154.506 708.115C153.457 707.18 151.709 707.18 150.661 708.115C149.612 709.051 149.612 710.61 150.661 711.545Z" fill="white" fill-opacity="0.2"/>
<path d="M181.424 739.296C182.473 740.231 184.221 740.231 185.269 739.296C186.318 738.36 186.318 736.801 185.269 735.866C184.221 734.93 182.473 734.93 181.424 735.866C180.376 736.801 180.376 738.36 181.424 739.296Z" fill="white" fill-opacity="0.2"/>
<path d="M212.538 766.734C213.586 767.67 215.334 767.67 216.383 766.734C217.432 765.799 217.432 764.24 216.383 763.305C215.334 762.369 213.586 762.369 212.538 763.305C211.489 764.24 211.489 765.799 212.538 766.734Z" fill="white" fill-opacity="0.2"/>
<path d="M245.395 795.109C246.94 795.109 248.192 793.992 248.192 792.614C248.192 791.237 246.94 790.12 245.395 790.12C243.851 790.12 242.599 791.237 242.599 792.614C242.599 793.992 243.851 795.109 245.395 795.109Z" fill="white" fill-opacity="0.2"/>
<path d="M-2.45244 629.54C-0.907933 629.54 0.344147 628.423 0.344147 627.046C0.344147 625.668 -0.907933 624.551 -2.45244 624.551C-3.99694 624.551 -5.24902 625.668 -5.24902 627.046C-5.24902 628.423 -3.99694 629.54 -2.45244 629.54Z" fill="white" fill-opacity="0.2"/>
<path d="M28.6598 656.979C30.2043 656.979 31.4563 655.862 31.4563 654.484C31.4563 653.107 30.2043 651.99 28.6598 651.99C27.1153 651.99 25.8633 653.107 25.8633 654.484C25.8633 655.862 27.1153 656.979 28.6598 656.979Z" fill="white" fill-opacity="0.2"/>
<path d="M57.6752 684.106C58.7239 685.041 60.4718 685.041 61.5205 684.106C62.5692 683.171 62.5692 681.612 61.5205 680.676C60.4718 679.741 58.7239 679.741 57.6752 680.676C56.6265 681.612 56.6265 683.171 57.6752 684.106Z" fill="white" fill-opacity="0.2"/>
<path d="M88.7875 711.545C89.8363 712.48 91.5841 712.48 92.6328 711.545C93.6816 710.61 93.6816 709.051 92.6328 708.115C91.5841 707.18 89.8363 707.18 88.7875 708.115C87.7388 709.051 87.7388 710.61 88.7875 711.545Z" fill="white" fill-opacity="0.2"/>
<path d="M119.547 739.296C120.596 740.231 122.344 740.231 123.393 739.296C124.441 738.36 124.441 736.801 123.393 735.866C122.344 734.93 120.596 734.93 119.547 735.866C118.499 736.801 118.499 738.36 119.547 739.296Z" fill="white" fill-opacity="0.2"/>
<path d="M150.661 766.734C151.709 767.67 153.457 767.67 154.506 766.734C155.554 765.799 155.554 764.24 154.506 763.305C153.457 762.369 151.709 762.369 150.661 763.305C149.612 764.24 149.612 765.799 150.661 766.734Z" fill="white" fill-opacity="0.2"/>
<path d="M183.523 795.109C185.068 795.109 186.32 793.992 186.32 792.614C186.32 791.237 185.068 790.12 183.523 790.12C181.979 790.12 180.727 791.237 180.727 792.614C180.727 793.992 181.979 795.109 183.523 795.109Z" fill="white" fill-opacity="0.2"/>
<path d="M-4.19782 684.106C-3.14909 685.041 -1.40117 685.041 -0.352439 684.106C0.696296 683.171 0.696296 681.612 -0.352439 680.676C-1.40117 679.741 -3.14909 679.741 -4.19782 680.676C-5.24656 681.612 -5.24656 683.171 -4.19782 684.106Z" fill="white" fill-opacity="0.2"/>
<path d="M26.5619 711.545C27.6107 712.48 29.3585 712.48 30.4072 711.545C31.456 710.61 31.456 709.051 30.4072 708.115C29.3585 707.18 27.6107 707.18 26.5619 708.115C25.5132 709.051 25.5132 710.61 26.5619 711.545Z" fill="white" fill-opacity="0.2"/>
<path d="M57.6752 739.296C58.7239 740.231 60.4718 740.231 61.5205 739.296C62.5692 738.36 62.5692 736.801 61.5205 735.866C60.4718 734.93 58.7239 734.93 57.6752 735.866C56.6265 736.801 56.6265 738.36 57.6752 739.296Z" fill="white" fill-opacity="0.2"/>
<path d="M88.7875 766.734C89.8363 767.67 91.5841 767.67 92.6328 766.734C93.6816 765.799 93.6816 764.24 92.6328 763.305C91.5841 762.369 89.8363 762.369 88.7875 763.305C87.7388 764.24 87.7388 765.799 88.7875 766.734Z" fill="white" fill-opacity="0.2"/>
<path d="M121.645 795.109C123.19 795.109 124.442 793.992 124.442 792.614C124.442 791.237 123.19 790.12 121.645 790.12C120.101 790.12 118.849 791.237 118.849 792.614C118.849 793.992 120.101 795.109 121.645 795.109Z" fill="white" fill-opacity="0.2"/>
<path d="M-4.19782 739.296C-3.14909 740.231 -1.40117 740.231 -0.352439 739.296C0.696296 738.36 0.696296 736.801 -0.352439 735.866C-1.40117 734.93 -3.14909 734.93 -4.19782 735.866C-5.24656 736.801 -5.24656 738.36 -4.19782 739.296Z" fill="white" fill-opacity="0.2"/>
<path d="M26.5619 766.734C27.6107 767.67 29.3585 767.67 30.4072 766.734C31.456 765.799 31.456 764.24 30.4072 763.305C29.3585 762.369 27.6107 762.369 26.5619 763.305C25.5132 764.24 25.5132 765.799 26.5619 766.734Z" fill="white" fill-opacity="0.2"/>
<path d="M59.4245 795.109C60.9691 795.109 62.2212 793.992 62.2212 792.614C62.2212 791.237 60.9691 790.12 59.4245 790.12C57.88 790.12 56.6279 791.237 56.6279 792.614C56.6279 793.992 57.88 795.109 59.4245 795.109Z" fill="white" fill-opacity="0.2"/>
<path d="M-2.45244 795.109C-0.907933 795.109 0.344147 793.992 0.344147 792.614C0.344147 791.237 -0.907933 790.12 -2.45244 790.12C-3.99694 790.12 -5.24902 791.237 -5.24902 792.614C-5.24902 793.992 -3.99694 795.109 -2.45244 795.109Z" fill="white" fill-opacity="0.2"/>
<path d="M-131.444 118.491C-131.794 118.491 -132.143 118.491 -132.493 118.179C-132.842 117.867 -132.842 116.932 -132.493 116.62L142.621 -128.771C142.97 -129.083 144.019 -129.083 144.369 -128.771C144.718 -128.459 144.718 -127.524 144.369 -127.212L-130.395 118.179C-130.745 118.491 -131.094 118.491 -131.444 118.491Z" fill="white"/>
</g>
<defs>
<linearGradient id="paint0_linear_0_1710" x1="544.32" y1="958.374" x2="396.355" y2="328.008" gradientUnits="userSpaceOnUse">
<stop stop-color="#8CD8F7"/>
<stop offset="0.196582" stop-color="#B7C7FE"/>
<stop offset="1" stop-color="#EC7AFF"/>
</linearGradient>
<clipPath id="clip0_0_1710">
<rect width="1636" height="898" fill="white" transform="translate(-448 -82)"/>
</clipPath>
</defs>
</svg>
