<svg width="374" height="768" viewBox="0 0 374 768" fill="none" xmlns="http://www.w3.org/2000/svg">
<rect x="-1" width="375" height="768" fill="#181818"/>
<path d="M343.88 267.452C344.825 267.452 345.591 266.455 345.591 265.226C345.591 263.997 344.825 263 343.88 263C342.934 263 342.168 263.997 342.168 265.226C342.168 266.455 342.934 267.452 343.88 267.452Z" fill="white" fill-opacity="0.2"/>
<path d="M362.922 292.215C363.867 292.215 364.633 291.219 364.633 289.989C364.633 288.76 363.867 287.763 362.922 287.763C361.976 287.763 361.21 288.76 361.21 289.989C361.21 291.219 361.976 292.215 362.922 292.215Z" fill="white" fill-opacity="0.2"/>
<path d="M325.048 292.215C325.993 292.215 326.759 291.219 326.759 289.989C326.759 288.76 325.993 287.763 325.048 287.763C324.102 287.763 323.336 288.76 323.336 289.989C323.336 291.219 324.102 292.215 325.048 292.215Z" fill="white" fill-opacity="0.2"/>
<path d="M343.88 316.7C344.825 316.7 345.591 315.704 345.591 314.474C345.591 313.245 344.825 312.249 343.88 312.249C342.934 312.249 342.168 313.245 342.168 314.474C342.168 315.704 342.934 316.7 343.88 316.7Z" fill="white" fill-opacity="0.2"/>
<path d="M362.922 341.464C363.867 341.464 364.633 340.467 364.633 339.238C364.633 338.008 363.867 337.012 362.922 337.012C361.976 337.012 361.21 338.008 361.21 339.238C361.21 340.467 361.976 341.464 362.922 341.464Z" fill="white" fill-opacity="0.2"/>
<path d="M306.006 316.7C306.951 316.7 307.717 315.704 307.717 314.474C307.717 313.245 306.951 312.249 306.006 312.249C305.06 312.249 304.294 313.245 304.294 314.474C304.294 315.704 305.06 316.7 306.006 316.7Z" fill="white" fill-opacity="0.2"/>
<path d="M325.048 341.464C325.993 341.464 326.759 340.467 326.759 339.238C326.759 338.008 325.993 337.012 325.048 337.012C324.102 337.012 323.336 338.008 323.336 339.238C323.336 340.467 324.102 341.464 325.048 341.464Z" fill="white" fill-opacity="0.2"/>
<path d="M343.88 365.948C344.825 365.948 345.591 364.952 345.591 363.722C345.591 362.493 344.825 361.497 343.88 361.497C342.934 361.497 342.168 362.493 342.168 363.722C342.168 364.952 342.934 365.948 343.88 365.948Z" fill="white" fill-opacity="0.2"/>
<path d="M362.922 390.712C363.867 390.712 364.633 389.715 364.633 388.486C364.633 387.257 363.867 386.26 362.922 386.26C361.976 386.26 361.21 387.257 361.21 388.486C361.21 389.715 361.976 390.712 362.922 390.712Z" fill="white" fill-opacity="0.2"/>
<path d="M287.178 341.464C288.123 341.464 288.889 340.467 288.889 339.238C288.889 338.008 288.123 337.012 287.178 337.012C286.232 337.012 285.466 338.008 285.466 339.238C285.466 340.467 286.232 341.464 287.178 341.464Z" fill="white" fill-opacity="0.2"/>
<path d="M306.006 365.948C306.951 365.948 307.717 364.952 307.717 363.722C307.717 362.493 306.951 361.497 306.006 361.497C305.06 361.497 304.294 362.493 304.294 363.722C304.294 364.952 305.06 365.948 306.006 365.948Z" fill="white" fill-opacity="0.2"/>
<path d="M325.048 390.712C325.993 390.712 326.759 389.715 326.759 388.486C326.759 387.257 325.993 386.26 325.048 386.26C324.102 386.26 323.336 387.257 323.336 388.486C323.336 389.715 324.102 390.712 325.048 390.712Z" fill="white" fill-opacity="0.2"/>
<path d="M343.88 415.475C344.825 415.475 345.591 414.478 345.591 413.249C345.591 412.02 344.825 411.023 343.88 411.023C342.934 411.023 342.168 412.02 342.168 413.249C342.168 414.478 342.934 415.475 343.88 415.475Z" fill="white" fill-opacity="0.2"/>
<path d="M362.922 439.96C363.867 439.96 364.633 438.964 364.633 437.734C364.633 436.505 363.867 435.508 362.922 435.508C361.976 435.508 361.21 436.505 361.21 437.734C361.21 438.964 361.976 439.96 362.922 439.96Z" fill="white" fill-opacity="0.2"/>
<path d="M268.131 365.948C269.076 365.948 269.842 364.952 269.842 363.722C269.842 362.493 269.076 361.497 268.131 361.497C267.185 361.497 266.419 362.493 266.419 363.722C266.419 364.952 267.185 365.948 268.131 365.948Z" fill="white" fill-opacity="0.2"/>
<path d="M287.178 390.712C288.123 390.712 288.889 389.715 288.889 388.486C288.889 387.257 288.123 386.26 287.178 386.26C286.232 386.26 285.466 387.257 285.466 388.486C285.466 389.715 286.232 390.712 287.178 390.712Z" fill="white" fill-opacity="0.2"/>
<path d="M306.006 415.475C306.951 415.475 307.717 414.478 307.717 413.249C307.717 412.02 306.951 411.023 306.006 411.023C305.06 411.023 304.294 412.02 304.294 413.249C304.294 414.478 305.06 415.475 306.006 415.475Z" fill="white" fill-opacity="0.2"/>
<path d="M325.048 439.96C325.993 439.96 326.759 438.964 326.759 437.734C326.759 436.505 325.993 435.508 325.048 435.508C324.102 435.508 323.336 436.505 323.336 437.734C323.336 438.964 324.102 439.96 325.048 439.96Z" fill="white" fill-opacity="0.2"/>
<path d="M342.812 463.889C343.453 464.723 344.523 464.723 345.165 463.889C345.807 463.054 345.807 461.663 345.165 460.828C344.523 459.993 343.453 459.993 342.812 460.828C342.17 461.663 342.17 463.054 342.812 463.889Z" fill="white" fill-opacity="0.2"/>
<path d="M361.852 488.652C362.494 489.486 363.564 489.486 364.206 488.652C364.847 487.817 364.847 486.426 364.206 485.591C363.564 484.756 362.494 484.756 361.852 485.591C360.996 486.426 360.996 487.817 361.852 488.652Z" fill="white" fill-opacity="0.2"/>
<path d="M249.09 390.712C250.035 390.712 250.801 389.715 250.801 388.486C250.801 387.257 250.035 386.26 249.09 386.26C248.144 386.26 247.378 387.257 247.378 388.486C247.378 389.715 248.144 390.712 249.09 390.712Z" fill="white" fill-opacity="0.2"/>
<path d="M268.131 415.475C269.076 415.475 269.842 414.478 269.842 413.249C269.842 412.02 269.076 411.023 268.131 411.023C267.185 411.023 266.419 412.02 266.419 413.249C266.419 414.478 267.185 415.475 268.131 415.475Z" fill="white" fill-opacity="0.2"/>
<path d="M287.178 439.96C288.123 439.96 288.889 438.964 288.889 437.734C288.889 436.505 288.123 435.508 287.178 435.508C286.232 435.508 285.466 436.505 285.466 437.734C285.466 438.964 286.232 439.96 287.178 439.96Z" fill="white" fill-opacity="0.2"/>
<path d="M304.932 463.889C305.574 464.723 306.643 464.723 307.285 463.889C307.927 463.054 307.927 461.663 307.285 460.828C306.643 459.993 305.574 459.993 304.932 460.828C304.29 461.663 304.29 463.054 304.932 463.889Z" fill="white" fill-opacity="0.2"/>
<path d="M323.765 488.652C324.407 489.486 325.476 489.486 326.118 488.652C326.76 487.817 326.76 486.426 326.118 485.591C325.476 484.756 324.407 484.756 323.765 485.591C323.123 486.426 323.123 487.817 323.765 488.652Z" fill="white" fill-opacity="0.2"/>
<path d="M342.812 513.415C343.453 514.25 344.523 514.25 345.165 513.415C345.807 512.581 345.807 511.19 345.165 510.355C344.523 509.52 343.453 509.52 342.812 510.355C342.17 511.19 342.17 512.581 342.812 513.415Z" fill="white" fill-opacity="0.2"/>
<path d="M361.852 537.9C362.494 538.735 363.564 538.735 364.206 537.9C364.847 537.065 364.847 535.674 364.206 534.839C363.564 534.005 362.494 534.005 361.852 534.839C360.996 535.674 360.996 537.065 361.852 537.9Z" fill="white" fill-opacity="0.2"/>
<path d="M230.257 415.475C231.202 415.475 231.968 414.478 231.968 413.249C231.968 412.02 231.202 411.023 230.257 411.023C229.311 411.023 228.545 412.02 228.545 413.249C228.545 414.478 229.311 415.475 230.257 415.475Z" fill="white" fill-opacity="0.2"/>
<path d="M249.09 439.96C250.035 439.96 250.801 438.964 250.801 437.734C250.801 436.505 250.035 435.508 249.09 435.508C248.144 435.508 247.378 436.505 247.378 437.734C247.378 438.964 248.144 439.96 249.09 439.96Z" fill="white" fill-opacity="0.2"/>
<path d="M267.061 463.889C267.703 464.723 268.773 464.723 269.414 463.889C270.056 463.054 270.056 461.663 269.414 460.828C268.773 459.993 267.703 459.993 267.061 460.828C266.205 461.663 266.205 463.054 267.061 463.889Z" fill="white" fill-opacity="0.2"/>
<path d="M285.891 488.652C286.533 489.486 287.602 489.486 288.244 488.652C288.886 487.817 288.886 486.426 288.244 485.591C287.602 484.756 286.533 484.756 285.891 485.591C285.249 486.426 285.249 487.817 285.891 488.652Z" fill="white" fill-opacity="0.2"/>
<path d="M304.932 513.415C305.574 514.25 306.643 514.25 307.285 513.415C307.927 512.581 307.927 511.19 307.285 510.355C306.643 509.52 305.574 509.52 304.932 510.355C304.29 511.19 304.29 512.581 304.932 513.415Z" fill="white" fill-opacity="0.2"/>
<path d="M323.765 537.9C324.407 538.735 325.476 538.735 326.118 537.9C326.76 537.065 326.76 535.674 326.118 534.839C325.476 534.005 324.407 534.005 323.765 534.839C323.123 535.674 323.123 537.065 323.765 537.9Z" fill="white" fill-opacity="0.2"/>
<path d="M342.812 562.663C343.453 563.498 344.523 563.498 345.165 562.663C345.807 561.828 345.807 560.437 345.165 559.603C344.523 558.768 343.453 558.768 342.812 559.603C342.17 560.437 342.17 561.828 342.812 562.663Z" fill="white" fill-opacity="0.2"/>
<path d="M362.922 587.983C363.867 587.983 364.633 586.987 364.633 585.757C364.633 584.528 363.867 583.531 362.922 583.531C361.976 583.531 361.21 584.528 361.21 585.757C361.21 586.987 361.976 587.983 362.922 587.983Z" fill="white" fill-opacity="0.2"/>
<path d="M211.215 439.96C212.16 439.96 212.926 438.964 212.926 437.734C212.926 436.505 212.16 435.508 211.215 435.508C210.269 435.508 209.503 436.505 209.503 437.734C209.503 438.964 210.269 439.96 211.215 439.96Z" fill="white" fill-opacity="0.2"/>
<path d="M228.974 463.889C229.616 464.723 230.685 464.723 231.327 463.889C231.969 463.054 231.969 461.663 231.327 460.828C230.685 459.993 229.616 459.993 228.974 460.828C228.332 461.663 228.332 463.054 228.974 463.889Z" fill="white" fill-opacity="0.2"/>
<path d="M248.02 488.652C248.662 489.486 249.732 489.486 250.374 488.652C251.016 487.817 251.016 486.426 250.374 485.591C249.732 484.756 248.662 484.756 248.02 485.591C247.379 486.426 247.379 487.817 248.02 488.652Z" fill="white" fill-opacity="0.2"/>
<path d="M267.061 513.415C267.703 514.25 268.773 514.25 269.414 513.415C270.056 512.581 270.056 511.19 269.414 510.355C268.773 509.52 267.703 509.52 267.061 510.355C266.205 511.19 266.205 512.581 267.061 513.415Z" fill="white" fill-opacity="0.2"/>
<path d="M285.891 537.9C286.533 538.735 287.602 538.735 288.244 537.9C288.886 537.065 288.886 535.674 288.244 534.839C287.602 534.005 286.533 534.005 285.891 534.839C285.249 535.674 285.249 537.065 285.891 537.9Z" fill="white" fill-opacity="0.2"/>
<path d="M304.932 562.663C305.574 563.498 306.643 563.498 307.285 562.663C307.927 561.828 307.927 560.437 307.285 559.603C306.643 558.768 305.574 558.768 304.932 559.603C304.29 560.437 304.29 561.828 304.932 562.663Z" fill="white" fill-opacity="0.2"/>
<path d="M325.048 587.983C325.993 587.983 326.759 586.987 326.759 585.757C326.759 584.528 325.993 583.531 325.048 583.531C324.102 583.531 323.336 584.528 323.336 585.757C323.336 586.987 324.102 587.983 325.048 587.983Z" fill="white" fill-opacity="0.2"/>
<path d="M343.88 612.469C344.825 612.469 345.591 611.472 345.591 610.243C345.591 609.013 344.825 608.017 343.88 608.017C342.934 608.017 342.168 609.013 342.168 610.243C342.168 611.472 342.934 612.469 343.88 612.469Z" fill="white" fill-opacity="0.2"/>
<path d="M362.922 637.232C363.867 637.232 364.633 636.235 364.633 635.006C364.633 633.776 363.867 632.78 362.922 632.78C361.976 632.78 361.21 633.776 361.21 635.006C361.21 636.235 361.976 637.232 362.922 637.232Z" fill="white" fill-opacity="0.2"/>
<path d="M191.104 463.889C191.746 464.723 192.816 464.723 193.458 463.889C194.1 463.054 194.1 461.663 193.458 460.828C192.816 459.993 191.746 459.993 191.104 460.828C190.463 461.663 190.463 463.054 191.104 463.889Z" fill="white" fill-opacity="0.2"/>
<path d="M210.146 488.652C210.788 489.486 211.858 489.486 212.5 488.652C213.142 487.817 213.142 486.426 212.5 485.591C211.858 484.756 210.788 484.756 210.146 485.591C209.505 486.426 209.505 487.817 210.146 488.652Z" fill="white" fill-opacity="0.2"/>
<path d="M228.974 513.415C229.616 514.25 230.685 514.25 231.327 513.415C231.969 512.581 231.969 511.19 231.327 510.355C230.685 509.52 229.616 509.52 228.974 510.355C228.332 511.19 228.332 512.581 228.974 513.415Z" fill="white" fill-opacity="0.2"/>
<path d="M248.02 537.9C248.662 538.735 249.732 538.735 250.374 537.9C251.016 537.065 251.016 535.674 250.374 534.839C249.732 534.005 248.662 534.005 248.02 534.839C247.379 535.674 247.379 537.065 248.02 537.9Z" fill="white" fill-opacity="0.2"/>
<path d="M267.061 562.663C267.703 563.498 268.773 563.498 269.414 562.663C270.056 561.828 270.056 560.437 269.414 559.603C268.773 558.768 267.703 558.768 267.061 559.603C266.205 560.437 266.205 561.828 267.061 562.663Z" fill="white" fill-opacity="0.2"/>
<path d="M287.178 587.983C288.123 587.983 288.889 586.987 288.889 585.757C288.889 584.528 288.123 583.531 287.178 583.531C286.232 583.531 285.466 584.528 285.466 585.757C285.466 586.987 286.232 587.983 287.178 587.983Z" fill="white" fill-opacity="0.2"/>
<path d="M306.006 612.469C306.951 612.469 307.717 611.472 307.717 610.243C307.717 609.013 306.951 608.017 306.006 608.017C305.06 608.017 304.294 609.013 304.294 610.243C304.294 611.472 305.06 612.469 306.006 612.469Z" fill="white" fill-opacity="0.2"/>
<path d="M325.048 637.232C325.993 637.232 326.759 636.235 326.759 635.006C326.759 633.776 325.993 632.78 325.048 632.78C324.102 632.78 323.336 633.776 323.336 635.006C323.336 636.235 324.102 637.232 325.048 637.232Z" fill="white" fill-opacity="0.2"/>
<path d="M342.812 661.16C343.453 661.995 344.523 661.995 345.165 661.16C345.807 660.325 345.807 658.934 345.165 658.099C344.523 657.265 343.453 657.265 342.812 658.099C342.17 658.934 342.17 660.325 342.812 661.16Z" fill="white" fill-opacity="0.2"/>
<path d="M172.058 488.652C172.699 489.486 173.769 489.486 174.411 488.652C175.053 487.817 175.053 486.426 174.411 485.591C173.769 484.756 172.699 484.756 172.058 485.591C171.416 486.426 171.416 487.817 172.058 488.652Z" fill="white" fill-opacity="0.2"/>
<path d="M191.104 513.415C191.746 514.25 192.816 514.25 193.458 513.415C194.1 512.581 194.1 511.19 193.458 510.355C192.816 509.52 191.746 509.52 191.104 510.355C190.463 511.19 190.463 512.581 191.104 513.415Z" fill="white" fill-opacity="0.2"/>
<path d="M210.146 537.9C210.788 538.735 211.858 538.735 212.5 537.9C213.142 537.065 213.142 535.674 212.5 534.839C211.858 534.005 210.788 534.005 210.146 534.839C209.505 535.674 209.505 537.065 210.146 537.9Z" fill="white" fill-opacity="0.2"/>
<path d="M228.974 562.663C229.616 563.498 230.685 563.498 231.327 562.663C231.969 561.828 231.969 560.437 231.327 559.603C230.685 558.768 229.616 558.768 228.974 559.603C228.332 560.437 228.332 561.828 228.974 562.663Z" fill="white" fill-opacity="0.2"/>
<path d="M249.09 587.983C250.035 587.983 250.801 586.987 250.801 585.757C250.801 584.528 250.035 583.531 249.09 583.531C248.144 583.531 247.378 584.528 247.378 585.757C247.378 586.987 248.144 587.983 249.09 587.983Z" fill="white" fill-opacity="0.2"/>
<path d="M268.131 612.469C269.076 612.469 269.842 611.472 269.842 610.243C269.842 609.013 269.076 608.017 268.131 608.017C267.185 608.017 266.419 609.013 266.419 610.243C266.419 611.472 267.185 612.469 268.131 612.469Z" fill="white" fill-opacity="0.2"/>
<path d="M287.178 637.232C288.123 637.232 288.889 636.235 288.889 635.006C288.889 633.776 288.123 632.78 287.178 632.78C286.232 632.78 285.466 633.776 285.466 635.006C285.466 636.235 286.232 637.232 287.178 637.232Z" fill="white" fill-opacity="0.2"/>
<path d="M304.932 661.16C305.574 661.995 306.643 661.995 307.285 661.16C307.927 660.325 307.927 658.934 307.285 658.099C306.643 657.265 305.574 657.265 304.932 658.099C304.29 658.934 304.29 660.325 304.932 661.16Z" fill="white" fill-opacity="0.2"/>
<path d="M323.765 685.923C324.407 686.758 325.476 686.758 326.118 685.923C326.76 685.089 326.76 683.697 326.118 682.863C325.476 682.028 324.407 682.028 323.765 682.863C323.123 683.697 323.123 685.089 323.765 685.923Z" fill="white" fill-opacity="0.2"/>
<path d="M153.23 513.415C153.872 514.25 154.942 514.25 155.584 513.415C156.226 512.581 156.226 511.19 155.584 510.355C154.942 509.52 153.872 509.52 153.23 510.355C152.589 511.19 152.589 512.581 153.23 513.415Z" fill="white" fill-opacity="0.2"/>
<path d="M172.058 537.9C172.699 538.735 173.769 538.735 174.411 537.9C175.053 537.065 175.053 535.674 174.411 534.839C173.769 534.005 172.699 534.005 172.058 534.839C171.416 535.674 171.416 537.065 172.058 537.9Z" fill="white" fill-opacity="0.2"/>
<path d="M191.104 562.663C191.746 563.498 192.816 563.498 193.458 562.663C194.1 561.828 194.1 560.437 193.458 559.603C192.816 558.768 191.746 558.768 191.104 559.603C190.463 560.437 190.463 561.828 191.104 562.663Z" fill="white" fill-opacity="0.2"/>
<path d="M211.215 587.983C212.16 587.983 212.926 586.987 212.926 585.757C212.926 584.528 212.16 583.531 211.215 583.531C210.269 583.531 209.503 584.528 209.503 585.757C209.503 586.987 210.269 587.983 211.215 587.983Z" fill="white" fill-opacity="0.2"/>
<path d="M230.257 612.469C231.202 612.469 231.968 611.472 231.968 610.243C231.968 609.013 231.202 608.017 230.257 608.017C229.311 608.017 228.545 609.013 228.545 610.243C228.545 611.472 229.311 612.469 230.257 612.469Z" fill="white" fill-opacity="0.2"/>
<path d="M249.09 637.232C250.035 637.232 250.801 636.235 250.801 635.006C250.801 633.776 250.035 632.78 249.09 632.78C248.144 632.78 247.378 633.776 247.378 635.006C247.378 636.235 248.144 637.232 249.09 637.232Z" fill="white" fill-opacity="0.2"/>
<path d="M267.061 661.16C267.703 661.995 268.773 661.995 269.414 661.16C270.056 660.325 270.056 658.934 269.414 658.099C268.773 657.265 267.703 657.265 267.061 658.099C266.205 658.934 266.205 660.325 267.061 661.16Z" fill="white" fill-opacity="0.2"/>
<path d="M285.891 685.923C286.533 686.758 287.602 686.758 288.244 685.923C288.886 685.089 288.886 683.697 288.244 682.863C287.602 682.028 286.533 682.028 285.891 682.863C285.249 683.697 285.249 685.089 285.891 685.923Z" fill="white" fill-opacity="0.2"/>
<path d="M304.932 710.409C305.574 711.243 306.643 711.243 307.285 710.409C307.927 709.574 307.927 708.183 307.285 707.348C306.643 706.513 305.574 706.513 304.932 707.348C304.29 708.183 304.29 709.574 304.932 710.409Z" fill="white" fill-opacity="0.2"/>
<path d="M134.188 537.9C134.83 538.735 135.9 538.735 136.542 537.9C137.184 537.065 137.184 535.674 136.542 534.839C135.9 534.005 134.83 534.005 134.188 534.839C133.547 535.674 133.547 537.065 134.188 537.9Z" fill="white" fill-opacity="0.2"/>
<path d="M153.23 562.663C153.872 563.498 154.942 563.498 155.584 562.663C156.226 561.828 156.226 560.437 155.584 559.603C154.942 558.768 153.872 558.768 153.23 559.603C152.589 560.437 152.589 561.828 153.23 562.663Z" fill="white" fill-opacity="0.2"/>
<path d="M173.346 587.983C174.291 587.983 175.057 586.987 175.057 585.757C175.057 584.528 174.291 583.531 173.346 583.531C172.4 583.531 171.634 584.528 171.634 585.757C171.634 586.987 172.4 587.983 173.346 587.983Z" fill="white" fill-opacity="0.2"/>
<path d="M192.387 612.469C193.332 612.469 194.098 611.472 194.098 610.243C194.098 609.013 193.332 608.017 192.387 608.017C191.441 608.017 190.675 609.013 190.675 610.243C190.675 611.472 191.441 612.469 192.387 612.469Z" fill="white" fill-opacity="0.2"/>
<path d="M211.215 637.232C212.16 637.232 212.926 636.235 212.926 635.006C212.926 633.776 212.16 632.78 211.215 632.78C210.269 632.78 209.503 633.776 209.503 635.006C209.503 636.235 210.269 637.232 211.215 637.232Z" fill="white" fill-opacity="0.2"/>
<path d="M228.974 661.16C229.616 661.995 230.685 661.995 231.327 661.16C231.969 660.325 231.969 658.934 231.327 658.099C230.685 657.265 229.616 657.265 228.974 658.099C228.332 658.934 228.332 660.325 228.974 661.16Z" fill="white" fill-opacity="0.2"/>
<path d="M248.02 685.923C248.662 686.758 249.732 686.758 250.374 685.923C251.016 685.089 251.016 683.697 250.374 682.863C249.732 682.028 248.662 682.028 248.02 682.863C247.379 683.697 247.379 685.089 248.02 685.923Z" fill="white" fill-opacity="0.2"/>
<path d="M267.061 710.409C267.703 711.243 268.773 711.243 269.414 710.409C270.056 709.574 270.056 708.183 269.414 707.348C268.773 706.513 267.703 706.513 267.061 707.348C266.205 708.183 266.205 709.574 267.061 710.409Z" fill="white" fill-opacity="0.2"/>
<path d="M285.891 735.172C286.533 736.006 287.602 736.006 288.244 735.172C288.886 734.337 288.886 732.946 288.244 732.111C287.602 731.276 286.533 731.276 285.891 732.111C285.249 732.946 285.249 734.337 285.891 735.172Z" fill="white" fill-opacity="0.2"/>
<path d="M115.355 562.663C115.997 563.498 117.067 563.498 117.709 562.663C118.351 561.828 118.351 560.437 117.709 559.603C117.067 558.768 115.997 558.768 115.355 559.603C114.714 560.437 114.714 561.828 115.355 562.663Z" fill="white" fill-opacity="0.2"/>
<path d="M135.471 587.983C136.416 587.983 137.182 586.987 137.182 585.757C137.182 584.528 136.416 583.531 135.471 583.531C134.525 583.531 133.759 584.528 133.759 585.757C133.759 586.987 134.525 587.983 135.471 587.983Z" fill="white" fill-opacity="0.2"/>
<path d="M154.299 612.469C155.244 612.469 156.01 611.472 156.01 610.243C156.01 609.013 155.244 608.017 154.299 608.017C153.353 608.017 152.587 609.013 152.587 610.243C152.587 611.472 153.353 612.469 154.299 612.469Z" fill="white" fill-opacity="0.2"/>
<path d="M173.346 637.232C174.291 637.232 175.057 636.235 175.057 635.006C175.057 633.776 174.291 632.78 173.346 632.78C172.4 632.78 171.634 633.776 171.634 635.006C171.634 636.235 172.4 637.232 173.346 637.232Z" fill="white" fill-opacity="0.2"/>
<path d="M191.104 661.16C191.746 661.995 192.816 661.995 193.458 661.16C194.1 660.325 194.1 658.934 193.458 658.099C192.816 657.265 191.746 657.265 191.104 658.099C190.463 658.934 190.463 660.325 191.104 661.16Z" fill="white" fill-opacity="0.2"/>
<path d="M210.146 685.923C210.788 686.758 211.858 686.758 212.5 685.923C213.142 685.089 213.142 683.697 212.5 682.863C211.858 682.028 210.788 682.028 210.146 682.863C209.505 683.697 209.505 685.089 210.146 685.923Z" fill="white" fill-opacity="0.2"/>
<path d="M228.974 710.409C229.616 711.243 230.685 711.243 231.327 710.409C231.969 709.574 231.969 708.183 231.327 707.348C230.685 706.513 229.616 706.513 228.974 707.348C228.332 708.183 228.332 709.574 228.974 710.409Z" fill="white" fill-opacity="0.2"/>
<path d="M248.02 735.172C248.662 736.006 249.732 736.006 250.374 735.172C251.016 734.337 251.016 732.946 250.374 732.111C249.732 731.276 248.662 731.276 248.02 732.111C247.379 732.946 247.379 734.337 248.02 735.172Z" fill="white" fill-opacity="0.2"/>
<path d="M267.061 759.935C267.703 760.77 268.773 760.77 269.414 759.935C270.056 759.1 270.056 757.709 269.414 756.875C268.773 756.04 267.703 756.04 267.061 756.875C266.205 757.709 266.205 759.1 267.061 759.935Z" fill="white" fill-opacity="0.2"/>
<path d="M97.5965 587.983C98.5419 587.983 99.3083 586.987 99.3083 585.757C99.3083 584.528 98.5419 583.531 97.5965 583.531C96.6512 583.531 95.8848 584.528 95.8848 585.757C95.8848 586.987 96.6512 587.983 97.5965 587.983Z" fill="white" fill-opacity="0.2"/>
<path d="M116.429 612.469C117.374 612.469 118.14 611.472 118.14 610.243C118.14 609.013 117.374 608.017 116.429 608.017C115.483 608.017 114.717 609.013 114.717 610.243C114.717 611.472 115.483 612.469 116.429 612.469Z" fill="white" fill-opacity="0.2"/>
<path d="M135.471 637.232C136.416 637.232 137.182 636.235 137.182 635.006C137.182 633.776 136.416 632.78 135.471 632.78C134.525 632.78 133.759 633.776 133.759 635.006C133.759 636.235 134.525 637.232 135.471 637.232Z" fill="white" fill-opacity="0.2"/>
<path d="M153.23 661.16C153.872 661.995 154.942 661.995 155.584 661.16C156.226 660.325 156.226 658.934 155.584 658.099C154.942 657.265 153.872 657.265 153.23 658.099C152.589 658.934 152.589 660.325 153.23 661.16Z" fill="white" fill-opacity="0.2"/>
<path d="M172.058 685.923C172.699 686.758 173.769 686.758 174.411 685.923C175.053 685.089 175.053 683.697 174.411 682.863C173.769 682.028 172.699 682.028 172.058 682.863C171.416 683.697 171.416 685.089 172.058 685.923Z" fill="white" fill-opacity="0.2"/>
<path d="M191.104 710.409C191.746 711.243 192.816 711.243 193.458 710.409C194.1 709.574 194.1 708.183 193.458 707.348C192.816 706.513 191.746 706.513 191.104 707.348C190.463 708.183 190.463 709.574 191.104 710.409Z" fill="white" fill-opacity="0.2"/>
<path d="M210.146 735.172C210.788 736.006 211.858 736.006 212.5 735.172C213.142 734.337 213.142 732.946 212.5 732.111C211.858 731.276 210.788 731.276 210.146 732.111C209.505 732.946 209.505 734.337 210.146 735.172Z" fill="white" fill-opacity="0.2"/>
<path d="M228.974 759.935C229.616 760.77 230.685 760.77 231.327 759.935C231.969 759.1 231.969 757.709 231.327 756.875C230.685 756.04 229.616 756.04 228.974 756.875C228.332 757.709 228.332 759.1 228.974 759.935Z" fill="white" fill-opacity="0.2"/>
<path d="M77.2724 611.912C77.9144 612.746 78.9842 612.746 79.6261 611.912C80.268 611.077 80.268 609.686 79.6261 608.851C78.9842 608.016 77.9144 608.016 77.2724 608.851C76.6305 609.686 76.6305 611.077 77.2724 611.912Z" fill="white" fill-opacity="0.4"/>
<path d="M97.5965 637.232C98.5419 637.232 99.3083 636.235 99.3083 635.006C99.3083 633.776 98.5419 632.78 97.5965 632.78C96.6512 632.78 95.8848 633.776 95.8848 635.006C95.8848 636.235 96.6512 637.232 97.5965 637.232Z" fill="white" fill-opacity="0.2"/>
<path d="M115.355 661.16C115.997 661.995 117.067 661.995 117.709 661.16C118.351 660.325 118.351 658.934 117.709 658.099C117.067 657.265 115.997 657.265 115.355 658.099C114.714 658.934 114.714 660.325 115.355 661.16Z" fill="white" fill-opacity="0.2"/>
<path d="M134.188 685.923C134.83 686.758 135.9 686.758 136.542 685.923C137.184 685.089 137.184 683.697 136.542 682.863C135.9 682.028 134.83 682.028 134.188 682.863C133.547 683.697 133.547 685.089 134.188 685.923Z" fill="white" fill-opacity="0.2"/>
<path d="M153.23 710.409C153.872 711.243 154.942 711.243 155.584 710.409C156.226 709.574 156.226 708.183 155.584 707.348C154.942 706.513 153.872 706.513 153.23 707.348C152.589 708.183 152.589 709.574 153.23 710.409Z" fill="white" fill-opacity="0.2"/>
<path d="M172.058 735.172C172.699 736.006 173.769 736.006 174.411 735.172C175.053 734.337 175.053 732.946 174.411 732.111C173.769 731.276 172.699 731.276 172.058 732.111C171.416 732.946 171.416 734.337 172.058 735.172Z" fill="white" fill-opacity="0.2"/>
<path d="M191.104 759.935C191.746 760.77 192.816 760.77 193.458 759.935C194.1 759.1 194.1 757.709 193.458 756.875C192.816 756.04 191.746 756.04 191.104 756.875C190.463 757.709 190.463 759.1 191.104 759.935Z" fill="white" fill-opacity="0.2"/>
<path d="M58.4394 636.675C59.0813 637.51 60.1512 637.51 60.7931 636.675C61.435 635.841 61.435 634.45 60.7931 633.615C60.1512 632.78 59.0813 632.78 58.4394 633.615C57.7975 634.45 57.7975 635.841 58.4394 636.675Z" fill="white" fill-opacity="0.2"/>
<path d="M77.2724 661.16C77.9144 661.995 78.9842 661.995 79.6261 661.16C80.268 660.325 80.268 658.934 79.6261 658.099C78.9842 657.265 77.9144 657.265 77.2724 658.099C76.6305 658.934 76.6305 660.325 77.2724 661.16Z" fill="white" fill-opacity="0.2"/>
<path d="M96.3086 685.923C96.9505 686.758 98.0204 686.758 98.6623 685.923C99.3042 685.089 99.3042 683.697 98.6623 682.863C98.0204 682.028 96.9505 682.028 96.3086 682.863C95.6667 683.697 95.6667 685.089 96.3086 685.923Z" fill="white" fill-opacity="0.2"/>
<path d="M115.355 710.409C115.997 711.243 117.067 711.243 117.709 710.409C118.351 709.574 118.351 708.183 117.709 707.348C117.067 706.513 115.997 706.513 115.355 707.348C114.714 708.183 114.714 709.574 115.355 710.409Z" fill="white" fill-opacity="0.2"/>
<path d="M134.188 735.172C134.83 736.006 135.9 736.006 136.542 735.172C137.184 734.337 137.184 732.946 136.542 732.111C135.9 731.276 134.83 731.276 134.188 732.111C133.547 732.946 133.547 734.337 134.188 735.172Z" fill="white" fill-opacity="0.2"/>
<path d="M153.23 759.935C153.872 760.77 154.942 760.77 155.584 759.935C156.226 759.1 156.226 757.709 155.584 756.875C154.942 756.04 153.872 756.04 153.23 756.875C152.589 757.709 152.589 759.1 153.23 759.935Z" fill="white" fill-opacity="0.2"/>
<path d="M39.3974 661.16C40.0394 661.995 41.1092 661.995 41.7511 661.16C42.393 660.325 42.393 658.934 41.7511 658.099C41.1092 657.265 40.0394 657.265 39.3974 658.099C38.7555 658.934 38.7555 660.325 39.3974 661.16Z" fill="white" fill-opacity="0.2"/>
<path d="M58.4394 685.923C59.0813 686.758 60.1512 686.758 60.7931 685.923C61.435 685.089 61.435 683.697 60.7931 682.863C60.1512 682.028 59.0813 682.028 58.4394 682.863C57.7975 683.697 57.7975 685.089 58.4394 685.923Z" fill="white" fill-opacity="0.2"/>
<path d="M77.2724 710.409C77.9144 711.243 78.9842 711.243 79.6261 710.409C80.268 709.574 80.268 708.183 79.6261 707.348C78.9842 706.513 77.9144 706.513 77.2724 707.348C76.6305 708.183 76.6305 709.574 77.2724 710.409Z" fill="white" fill-opacity="0.2"/>
<path d="M96.3086 735.172C96.9505 736.006 98.0204 736.006 98.6623 735.172C99.3042 734.337 99.3042 732.946 98.6623 732.111C98.0204 731.276 96.9505 731.276 96.3086 732.111C95.6667 732.946 95.6667 734.337 96.3086 735.172Z" fill="white" fill-opacity="0.2"/>
<path d="M115.355 759.935C115.997 760.77 117.067 760.77 117.709 759.935C118.351 759.1 118.351 757.709 117.709 756.875C117.067 756.04 115.997 756.04 115.355 756.875C114.714 757.709 114.714 759.1 115.355 759.935Z" fill="white" fill-opacity="0.2"/>
<path d="M20.5693 685.923C21.2112 686.758 22.2811 686.758 22.923 685.923C23.5649 685.089 23.5649 683.697 22.923 682.863C22.2811 682.028 21.2112 682.028 20.5693 682.863C19.9274 683.697 19.9274 685.089 20.5693 685.923Z" fill="white" fill-opacity="0.2"/>
<path d="M39.3974 710.409C40.0394 711.243 41.1092 711.243 41.7511 710.409C42.393 709.574 42.393 708.183 41.7511 707.348C41.1092 706.513 40.0394 706.513 39.3974 707.348C38.7555 708.183 38.7555 709.574 39.3974 710.409Z" fill="white" fill-opacity="0.2"/>
<path d="M58.4394 735.172C59.0813 736.006 60.1512 736.006 60.7931 735.172C61.435 734.337 61.435 732.946 60.7931 732.111C60.1512 731.276 59.0813 731.276 58.4394 732.111C57.7975 732.946 57.7975 734.337 58.4394 735.172Z" fill="white" fill-opacity="0.2"/>
<path d="M77.2724 759.935C77.9144 760.77 78.9842 760.77 79.6261 759.935C80.268 759.1 80.268 757.709 79.6261 756.875C78.9842 756.04 77.9144 756.04 77.2724 756.875C76.6305 757.709 76.6305 759.1 77.2724 759.935Z" fill="white" fill-opacity="0.2"/>
<path d="M1.52343 710.409C2.16534 711.243 3.23518 711.243 3.8771 710.409C4.51902 709.574 4.51902 708.183 3.8771 707.348C3.23518 706.513 2.16534 706.513 1.52343 707.348C0.881513 708.183 0.881513 709.574 1.52343 710.409Z" fill="white" fill-opacity="0.2"/>
<path d="M20.5693 735.172C21.2112 736.006 22.2811 736.006 22.923 735.172C23.5649 734.337 23.5649 732.946 22.923 732.111C22.2811 731.276 21.2112 731.276 20.5693 732.111C19.9274 732.946 19.9274 734.337 20.5693 735.172Z" fill="white" fill-opacity="0.2"/>
<path d="M39.3974 759.935C40.0394 760.77 41.1092 760.77 41.7511 759.935C42.393 759.1 42.393 757.709 41.7511 756.875C41.1092 756.04 40.0394 756.04 39.3974 756.875C38.7555 757.709 38.7555 759.1 39.3974 759.935Z" fill="white" fill-opacity="0.2"/>
<path d="M1.52343 759.935C2.16534 760.77 3.23518 760.77 3.8771 759.935C4.51902 759.1 4.51902 757.709 3.8771 756.875C3.23518 756.04 2.16534 756.04 1.52343 756.875C0.881513 757.709 0.881513 759.1 1.52343 759.935Z" fill="white" fill-opacity="0.2"/>
</svg>
