<svg width="375" height="671" viewBox="0 0 375 671" fill="none" xmlns="http://www.w3.org/2000/svg">
<g clip-path="url(#clip0_0_3871)">
<rect width="375" height="3610" transform="translate(0 -1646)" fill="white"/>
<rect y="2" width="374" height="669" fill="#181818"/>
<g clip-path="url(#clip1_0_3871)">
<path d="M266.596 60.3629C266.141 60.3629 265.743 60.758 265.743 61.2097C265.743 61.6613 266.141 62.0564 266.596 62.0564C267.05 62.0564 267.448 61.6613 267.448 61.2097C267.448 60.7016 267.05 60.3629 266.596 60.3629Z" fill="white"/>
<path d="M351.66 60.3629C351.205 60.3629 350.808 60.758 350.808 61.2097C350.808 61.6613 351.205 62.0564 351.66 62.0564C352.115 62.0564 352.512 61.6613 352.512 61.2097C352.512 60.7016 352.115 60.3629 351.66 60.3629Z" fill="white"/>
<path d="M218.013 60.3629C217.558 60.3629 217.16 60.758 217.16 61.2097C217.16 61.6613 217.558 62.0564 218.013 62.0564C218.467 62.0564 218.865 61.6613 218.865 61.2097C218.865 60.7016 218.467 60.3629 218.013 60.3629Z" fill="white"/>
<path d="M230.173 60.3629C229.718 60.3629 229.32 60.758 229.32 61.2097C229.32 61.6613 229.718 62.0564 230.173 62.0564C230.627 62.0564 231.025 61.6613 231.025 61.2097C231.025 60.7016 230.627 60.3629 230.173 60.3629Z" fill="white"/>
<path d="M290.916 60.3629C290.461 60.3629 290.063 60.758 290.063 61.2097C290.063 61.6613 290.461 62.0564 290.916 62.0564C291.37 62.0564 291.768 61.6613 291.768 61.2097C291.768 60.7016 291.37 60.3629 290.916 60.3629Z" fill="white"/>
<path d="M242.276 60.3629C241.822 60.3629 241.424 60.758 241.424 61.2097C241.424 61.6613 241.822 62.0564 242.276 62.0564C242.731 62.0564 243.129 61.6613 243.129 61.2097C243.129 60.7016 242.788 60.3629 242.276 60.3629Z" fill="white"/>
<path d="M327.34 60.3629C326.885 60.3629 326.487 60.758 326.487 61.2097C326.487 61.6613 326.885 62.0564 327.34 62.0564C327.794 62.0564 328.192 61.6613 328.192 61.2097C328.192 60.7016 327.794 60.3629 327.34 60.3629Z" fill="white"/>
<path d="M339.5 60.3629C339.045 60.3629 338.647 60.758 338.647 61.2097C338.647 61.6613 339.045 62.0564 339.5 62.0564C339.954 62.0564 340.352 61.6613 340.352 61.2097C340.352 60.7016 339.954 60.3629 339.5 60.3629Z" fill="white"/>
<path d="M254.436 60.3629C253.982 60.3629 253.584 60.758 253.584 61.2097C253.584 61.6613 253.982 62.0564 254.436 62.0564C254.891 62.0564 255.289 61.6613 255.289 61.2097C255.289 60.7016 254.891 60.3629 254.436 60.3629Z" fill="white"/>
<path d="M303.019 60.3629C302.565 60.3629 302.167 60.758 302.167 61.2097C302.167 61.6613 302.565 62.0564 303.019 62.0564C303.474 62.0564 303.872 61.6613 303.872 61.2097C303.872 60.7016 303.531 60.3629 303.019 60.3629Z" fill="white"/>
<path d="M363.82 60.3629C363.366 60.3629 362.968 60.758 362.968 61.2097C362.968 61.6613 363.366 62.0564 363.82 62.0564C364.275 62.0564 364.672 61.6613 364.672 61.2097C364.616 60.7016 364.275 60.3629 363.82 60.3629Z" fill="white"/>
<path d="M278.757 60.3629C278.302 60.3629 277.904 60.758 277.904 61.2097C277.904 61.6613 278.302 62.0564 278.757 62.0564C279.211 62.0564 279.609 61.6613 279.609 61.2097C279.609 60.7016 279.211 60.3629 278.757 60.3629Z" fill="white"/>
<path d="M315.179 60.3629C314.725 60.3629 314.327 60.758 314.327 61.2097C314.327 61.6613 314.725 62.0564 315.179 62.0564C315.634 62.0564 316.032 61.6613 316.032 61.2097C316.032 60.7016 315.691 60.3629 315.179 60.3629Z" fill="white"/>
<path d="M205.852 60.3629C205.625 60.3629 205.398 60.4758 205.227 60.5887C205.114 60.758 205 60.9838 205 61.1532C205 61.379 205.114 61.6048 205.227 61.7742C205.398 61.9435 205.625 62 205.852 62C206.08 62 206.307 61.8871 206.477 61.7742C206.591 61.6048 206.705 61.379 206.705 61.1532C206.705 60.9274 206.591 60.7016 206.477 60.5322C206.307 60.4193 206.08 60.3629 205.852 60.3629Z" fill="white"/>
<path d="M254.436 49.4677C253.982 49.4677 253.584 49.8629 253.584 50.3145C253.584 50.7661 253.982 51.1613 254.436 51.1613C254.891 51.1613 255.289 50.7661 255.289 50.3145C255.289 49.8629 254.891 49.4677 254.436 49.4677Z" fill="white"/>
<path d="M363.82 49.4677C363.366 49.4677 362.968 49.8629 362.968 50.3145C362.968 50.7661 363.366 51.1613 363.82 51.1613C364.275 51.1613 364.672 50.7661 364.672 50.3145C364.616 49.8629 364.275 49.4677 363.82 49.4677Z" fill="white"/>
<path d="M230.173 49.4677C229.718 49.4677 229.32 49.8629 229.32 50.3145C229.32 50.7661 229.718 51.1613 230.173 51.1613C230.627 51.1613 231.025 50.7661 231.025 50.3145C231.025 49.8629 230.627 49.4677 230.173 49.4677Z" fill="white"/>
<path d="M242.276 49.4677C241.822 49.4677 241.424 49.8629 241.424 50.3145C241.424 50.7661 241.822 51.1613 242.276 51.1613C242.731 51.1613 243.129 50.7661 243.129 50.3145C243.129 49.8629 242.788 49.4677 242.276 49.4677Z" fill="white"/>
<path d="M351.66 49.4677C351.205 49.4677 350.808 49.8629 350.808 50.3145C350.808 50.7661 351.205 51.1613 351.66 51.1613C352.115 51.1613 352.512 50.7661 352.512 50.3145C352.512 49.8629 352.115 49.4677 351.66 49.4677Z" fill="white"/>
<path d="M278.757 49.4677C278.302 49.4677 277.904 49.8629 277.904 50.3145C277.904 50.7661 278.302 51.1613 278.757 51.1613C279.211 51.1613 279.609 50.7661 279.609 50.3145C279.609 49.8629 279.211 49.4677 278.757 49.4677Z" fill="white"/>
<path d="M266.596 49.4677C266.141 49.4677 265.743 49.8629 265.743 50.3145C265.743 50.7661 266.141 51.1613 266.596 51.1613C267.05 51.1613 267.448 50.7661 267.448 50.3145C267.448 49.8629 267.05 49.4677 266.596 49.4677Z" fill="white"/>
<path d="M315.179 49.4677C314.725 49.4677 314.327 49.8629 314.327 50.3145C314.327 50.7661 314.725 51.1613 315.179 51.1613C315.634 51.1613 316.032 50.7661 316.032 50.3145C316.032 49.8629 315.691 49.4677 315.179 49.4677Z" fill="white"/>
<path d="M218.013 49.4677C217.558 49.4677 217.16 49.8629 217.16 50.3145C217.16 50.7661 217.558 51.1613 218.013 51.1613C218.467 51.1613 218.865 50.7661 218.865 50.3145C218.865 49.8629 218.467 49.4677 218.013 49.4677Z" fill="white"/>
<path d="M290.916 49.4677C290.461 49.4677 290.063 49.8629 290.063 50.3145C290.063 50.7661 290.461 51.1613 290.916 51.1613C291.37 51.1613 291.768 50.7661 291.768 50.3145C291.768 49.8629 291.37 49.4677 290.916 49.4677Z" fill="white"/>
<path d="M303.019 49.4677C302.565 49.4677 302.167 49.8629 302.167 50.3145C302.167 50.7661 302.565 51.1613 303.019 51.1613C303.474 51.1613 303.872 50.7661 303.872 50.3145C303.872 49.8629 303.531 49.4677 303.019 49.4677Z" fill="white"/>
<path d="M327.34 49.4677C326.885 49.4677 326.487 49.8629 326.487 50.3145C326.487 50.7661 326.885 51.1613 327.34 51.1613C327.794 51.1613 328.192 50.7661 328.192 50.3145C328.192 49.8629 327.794 49.4677 327.34 49.4677Z" fill="white"/>
<path d="M339.5 49.4677C339.045 49.4677 338.647 49.8629 338.647 50.3145C338.647 50.7661 339.045 51.1613 339.5 51.1613C339.954 51.1613 340.352 50.7661 340.352 50.3145C340.352 49.8629 339.954 49.4677 339.5 49.4677Z" fill="white"/>
<path d="M205.852 49.4677C205.625 49.4677 205.398 49.5806 205.227 49.6935C205.114 49.8629 205 50.0887 205 50.3145C205 50.5403 205.114 50.7661 205.227 50.9355C205.398 51.0484 205.625 51.1613 205.852 51.1613C206.08 51.1613 206.307 51.0484 206.477 50.9355C206.591 50.7661 206.705 50.5403 206.705 50.3145C206.705 50.0887 206.591 49.8629 206.477 49.6935C206.307 49.5806 206.08 49.4677 205.852 49.4677Z" fill="white"/>
<path d="M339.5 38.629C339.045 38.629 338.647 39.0242 338.647 39.4758C338.647 39.9274 339.045 40.3226 339.5 40.3226C339.954 40.3226 340.352 39.9274 340.352 39.4758C340.352 38.9677 339.954 38.629 339.5 38.629Z" fill="white"/>
<path d="M254.436 38.629C253.982 38.629 253.584 39.0242 253.584 39.4758C253.584 39.9274 253.982 40.3226 254.436 40.3226C254.891 40.3226 255.289 39.9274 255.289 39.4758C255.289 38.9677 254.891 38.629 254.436 38.629Z" fill="white"/>
<path d="M266.596 38.629C266.141 38.629 265.743 39.0242 265.743 39.4758C265.743 39.9274 266.141 40.3226 266.596 40.3226C267.05 40.3226 267.448 39.9274 267.448 39.4758C267.448 38.9677 267.05 38.629 266.596 38.629Z" fill="white"/>
<path d="M351.66 38.629C351.205 38.629 350.808 39.0242 350.808 39.4758C350.808 39.9274 351.205 40.3226 351.66 40.3226C352.115 40.3226 352.512 39.9274 352.512 39.4758C352.512 38.9677 352.115 38.629 351.66 38.629Z" fill="white"/>
<path d="M315.179 38.629C314.725 38.629 314.327 39.0242 314.327 39.4758C314.327 39.9274 314.725 40.3226 315.179 40.3226C315.634 40.3226 316.032 39.9274 316.032 39.4758C316.032 38.9677 315.691 38.629 315.179 38.629Z" fill="white"/>
<path d="M303.019 38.629C302.565 38.629 302.167 39.0242 302.167 39.4758C302.167 39.9274 302.565 40.3226 303.019 40.3226C303.474 40.3226 303.872 39.9274 303.872 39.4758C303.872 38.9677 303.531 38.629 303.019 38.629Z" fill="white"/>
<path d="M327.34 38.629C326.885 38.629 326.487 39.0242 326.487 39.4758C326.487 39.9274 326.885 40.3226 327.34 40.3226C327.794 40.3226 328.192 39.9274 328.192 39.4758C328.192 38.9677 327.794 38.629 327.34 38.629Z" fill="white"/>
<path d="M363.82 38.629C363.366 38.629 362.968 39.0242 362.968 39.4758C362.968 39.9274 363.366 40.3226 363.82 40.3226C364.275 40.3226 364.672 39.9274 364.672 39.4758C364.616 38.9677 364.275 38.629 363.82 38.629Z" fill="white"/>
<path d="M218.013 38.629C217.558 38.629 217.16 39.0242 217.16 39.4758C217.16 39.9274 217.558 40.3226 218.013 40.3226C218.467 40.3226 218.865 39.9274 218.865 39.4758C218.865 38.9677 218.467 38.629 218.013 38.629Z" fill="white"/>
<path d="M230.173 38.629C229.718 38.629 229.32 39.0242 229.32 39.4758C229.32 39.9274 229.718 40.3226 230.173 40.3226C230.627 40.3226 231.025 39.9274 231.025 39.4758C231.025 38.9677 230.627 38.629 230.173 38.629Z" fill="white"/>
<path d="M278.757 38.629C278.302 38.629 277.904 39.0242 277.904 39.4758C277.904 39.9274 278.302 40.3226 278.757 40.3226C279.211 40.3226 279.609 39.9274 279.609 39.4758C279.609 38.9677 279.211 38.629 278.757 38.629Z" fill="white"/>
<path d="M290.916 38.629C290.461 38.629 290.063 39.0242 290.063 39.4758C290.063 39.9274 290.461 40.3226 290.916 40.3226C291.37 40.3226 291.768 39.9274 291.768 39.4758C291.768 38.9677 291.37 38.629 290.916 38.629Z" fill="white"/>
<path d="M242.276 38.629C241.822 38.629 241.424 39.0242 241.424 39.4758C241.424 39.9274 241.822 40.3226 242.276 40.3226C242.731 40.3226 243.129 39.9274 243.129 39.4758C243.129 38.9677 242.788 38.629 242.276 38.629Z" fill="white"/>
<path d="M205.852 38.629C205.625 38.629 205.398 38.7419 205.227 38.8548C205.114 39.0242 205 39.25 205 39.4193C205 39.6451 205.114 39.8709 205.227 40.0403C205.398 40.2097 205.625 40.2661 205.852 40.2661C206.08 40.2661 206.307 40.1532 206.477 40.0403C206.591 39.8709 206.705 39.6451 206.705 39.4193C206.705 39.1935 206.591 38.9677 206.477 38.7984C206.307 38.6855 206.08 38.629 205.852 38.629Z" fill="white"/>
<path d="M266.596 27.7339C266.141 27.7339 265.743 28.129 265.743 28.5806C265.743 29.0323 266.141 29.4274 266.596 29.4274C267.05 29.4274 267.448 29.0323 267.448 28.5806C267.448 28.129 267.05 27.7339 266.596 27.7339Z" fill="white"/>
<path d="M290.916 27.7339C290.461 27.7339 290.063 28.129 290.063 28.5806C290.063 29.0323 290.461 29.4274 290.916 29.4274C291.37 29.4274 291.768 29.0323 291.768 28.5806C291.768 28.129 291.37 27.7339 290.916 27.7339Z" fill="white"/>
<path d="M315.179 27.7339C314.725 27.7339 314.327 28.129 314.327 28.5806C314.327 29.0323 314.725 29.4274 315.179 29.4274C315.634 29.4274 316.032 29.0323 316.032 28.5806C316.032 28.129 315.691 27.7339 315.179 27.7339Z" fill="white"/>
<path d="M230.173 27.7339C229.718 27.7339 229.32 28.129 229.32 28.5806C229.32 29.0323 229.718 29.4274 230.173 29.4274C230.627 29.4274 231.025 29.0323 231.025 28.5806C231.025 28.129 230.627 27.7339 230.173 27.7339Z" fill="white"/>
<path d="M363.82 27.7339C363.366 27.7339 362.968 28.129 362.968 28.5806C362.968 29.0323 363.366 29.4274 363.82 29.4274C364.275 29.4274 364.672 29.0323 364.672 28.5806C364.616 28.129 364.275 27.7339 363.82 27.7339Z" fill="white"/>
<path d="M303.019 27.7339C302.565 27.7339 302.167 28.129 302.167 28.5806C302.167 29.0323 302.565 29.4274 303.019 29.4274C303.474 29.4274 303.872 29.0323 303.872 28.5806C303.872 28.129 303.531 27.7339 303.019 27.7339Z" fill="white"/>
<path d="M242.276 27.7339C241.822 27.7339 241.424 28.129 241.424 28.5806C241.424 29.0323 241.822 29.4274 242.276 29.4274C242.731 29.4274 243.129 29.0323 243.129 28.5806C243.129 28.129 242.788 27.7339 242.276 27.7339Z" fill="white"/>
<path d="M278.757 27.7339C278.302 27.7339 277.904 28.129 277.904 28.5806C277.904 29.0323 278.302 29.4274 278.757 29.4274C279.211 29.4274 279.609 29.0323 279.609 28.5806C279.609 28.129 279.211 27.7339 278.757 27.7339Z" fill="white"/>
<path d="M254.436 27.7339C253.982 27.7339 253.584 28.129 253.584 28.5806C253.584 29.0323 253.982 29.4274 254.436 29.4274C254.891 29.4274 255.289 29.0323 255.289 28.5806C255.289 28.129 254.891 27.7339 254.436 27.7339Z" fill="white"/>
<path d="M339.5 27.7339C339.045 27.7339 338.647 28.129 338.647 28.5806C338.647 29.0323 339.045 29.4274 339.5 29.4274C339.954 29.4274 340.352 29.0323 340.352 28.5806C340.352 28.129 339.954 27.7339 339.5 27.7339Z" fill="white"/>
<path d="M218.013 27.7339C217.558 27.7339 217.16 28.129 217.16 28.5806C217.16 29.0323 217.558 29.4274 218.013 29.4274C218.467 29.4274 218.865 29.0323 218.865 28.5806C218.865 28.129 218.467 27.7339 218.013 27.7339Z" fill="white"/>
<path d="M351.66 27.7339C351.205 27.7339 350.808 28.129 350.808 28.5806C350.808 29.0323 351.205 29.4274 351.66 29.4274C352.115 29.4274 352.512 29.0323 352.512 28.5806C352.512 28.129 352.115 27.7339 351.66 27.7339Z" fill="white"/>
<path d="M327.34 27.7339C326.885 27.7339 326.487 28.129 326.487 28.5806C326.487 29.0323 326.885 29.4274 327.34 29.4274C327.794 29.4274 328.192 29.0323 328.192 28.5806C328.192 28.129 327.794 27.7339 327.34 27.7339Z" fill="white"/>
<path d="M205.852 27.7339C205.625 27.7339 205.398 27.8468 205.227 27.9597C205.114 28.129 205 28.3548 205 28.5806C205 28.8065 205.114 29.0323 205.227 29.2016C205.398 29.371 205.625 29.4274 205.852 29.4274C206.08 29.4274 206.307 29.3145 206.477 29.2016C206.591 29.0323 206.705 28.8065 206.705 28.5806C206.705 28.3548 206.591 28.129 206.477 27.9597C206.307 27.8468 206.08 27.7339 205.852 27.7339Z" fill="white"/>
<path d="M218.013 16.8951C217.558 16.8951 217.16 17.2903 217.16 17.7419C217.16 18.1935 217.558 18.5887 218.013 18.5887C218.467 18.5887 218.865 18.1935 218.865 17.7419C218.865 17.2339 218.467 16.8951 218.013 16.8951Z" fill="white"/>
<path d="M230.173 16.8951C229.718 16.8951 229.32 17.2903 229.32 17.7419C229.32 18.1935 229.718 18.5887 230.173 18.5887C230.627 18.5887 231.025 18.1935 231.025 17.7419C231.025 17.2339 230.627 16.8951 230.173 16.8951Z" fill="white"/>
<path d="M242.276 16.8951C241.822 16.8951 241.424 17.2903 241.424 17.7419C241.424 18.1935 241.822 18.5887 242.276 18.5887C242.731 18.5887 243.129 18.1935 243.129 17.7419C243.129 17.2339 242.788 16.8951 242.276 16.8951Z" fill="white"/>
<path d="M254.436 16.8951C253.982 16.8951 253.584 17.2903 253.584 17.7419C253.584 18.1935 253.982 18.5887 254.436 18.5887C254.891 18.5887 255.289 18.1935 255.289 17.7419C255.289 17.2339 254.891 16.8951 254.436 16.8951Z" fill="white"/>
<path d="M266.596 16.8951C266.141 16.8951 265.743 17.2903 265.743 17.7419C265.743 18.1935 266.141 18.5887 266.596 18.5887C267.05 18.5887 267.448 18.1935 267.448 17.7419C267.448 17.2339 267.05 16.8951 266.596 16.8951Z" fill="white"/>
<path d="M290.916 16.8951C290.461 16.8951 290.063 17.2903 290.063 17.7419C290.063 18.1935 290.461 18.5887 290.916 18.5887C291.37 18.5887 291.768 18.1935 291.768 17.7419C291.768 17.2339 291.37 16.8951 290.916 16.8951Z" fill="white"/>
<path d="M351.66 16.8951C351.205 16.8951 350.808 17.2903 350.808 17.7419C350.808 18.1935 351.205 18.5887 351.66 18.5887C352.115 18.5887 352.512 18.1935 352.512 17.7419C352.512 17.2339 352.115 16.8951 351.66 16.8951Z" fill="white"/>
<path d="M339.5 16.8951C339.045 16.8951 338.647 17.2903 338.647 17.7419C338.647 18.1935 339.045 18.5887 339.5 18.5887C339.954 18.5887 340.352 18.1935 340.352 17.7419C340.352 17.2339 339.954 16.8951 339.5 16.8951Z" fill="white"/>
<path d="M363.82 16.8951C363.366 16.8951 362.968 17.2903 362.968 17.7419C362.968 18.1935 363.366 18.5887 363.82 18.5887C364.275 18.5887 364.672 18.1935 364.672 17.7419C364.616 17.2339 364.275 16.8951 363.82 16.8951Z" fill="white"/>
<path d="M278.757 16.8951C278.302 16.8951 277.904 17.2903 277.904 17.7419C277.904 18.1935 278.302 18.5887 278.757 18.5887C279.211 18.5887 279.609 18.1935 279.609 17.7419C279.609 17.2339 279.211 16.8951 278.757 16.8951Z" fill="white"/>
<path d="M315.179 16.8951C314.725 16.8951 314.327 17.2903 314.327 17.7419C314.327 18.1935 314.725 18.5887 315.179 18.5887C315.634 18.5887 316.032 18.1935 316.032 17.7419C316.032 17.2339 315.691 16.8951 315.179 16.8951Z" fill="white"/>
<path d="M303.019 16.8951C302.565 16.8951 302.167 17.2903 302.167 17.7419C302.167 18.1935 302.565 18.5887 303.019 18.5887C303.474 18.5887 303.872 18.1935 303.872 17.7419C303.872 17.2339 303.531 16.8951 303.019 16.8951Z" fill="white"/>
<path d="M327.34 16.8951C326.885 16.8951 326.487 17.2903 326.487 17.7419C326.487 18.1935 326.885 18.5887 327.34 18.5887C327.794 18.5887 328.192 18.1935 328.192 17.7419C328.192 17.2339 327.794 16.8951 327.34 16.8951Z" fill="white"/>
<path d="M205.852 16.8951C205.625 16.8951 205.398 17.008 205.227 17.1209C205.114 17.2903 205 17.5161 205 17.6855C205 17.9113 205.114 18.1371 205.227 18.3064C205.398 18.4758 205.625 18.5322 205.852 18.5322C206.08 18.5322 206.307 18.4193 206.477 18.3064C206.591 18.1371 206.705 17.9113 206.705 17.6855C206.705 17.4597 206.591 17.2339 206.477 17.0645C206.307 16.9516 206.08 16.8951 205.852 16.8951Z" fill="white"/>
<path d="M218.013 6C217.558 6 217.16 6.39516 217.16 6.84677C217.16 7.29839 217.558 7.69355 218.013 7.69355C218.467 7.69355 218.865 7.29839 218.865 6.84677C218.865 6.39516 218.467 6 218.013 6Z" fill="white"/>
<path d="M327.34 6C326.885 6 326.487 6.39516 326.487 6.84677C326.487 7.29839 326.885 7.69355 327.34 7.69355C327.794 7.69355 328.192 7.29839 328.192 6.84677C328.192 6.39516 327.794 6 327.34 6Z" fill="white"/>
<path d="M303.019 6C302.565 6 302.167 6.39516 302.167 6.84677C302.167 7.29839 302.565 7.69355 303.019 7.69355C303.474 7.69355 303.872 7.29839 303.872 6.84677C303.872 6.39516 303.531 6 303.019 6Z" fill="white"/>
<path d="M254.436 6C253.982 6 253.584 6.39516 253.584 6.84677C253.584 7.29839 253.982 7.69355 254.436 7.69355C254.891 7.69355 255.289 7.29839 255.289 6.84677C255.289 6.39516 254.891 6 254.436 6Z" fill="white"/>
<path d="M315.179 6C314.725 6 314.327 6.39516 314.327 6.84677C314.327 7.29839 314.725 7.69355 315.179 7.69355C315.634 7.69355 316.032 7.29839 316.032 6.84677C316.032 6.39516 315.691 6 315.179 6Z" fill="white"/>
<path d="M278.757 6C278.302 6 277.904 6.39516 277.904 6.84677C277.904 7.29839 278.302 7.69355 278.757 7.69355C279.211 7.69355 279.609 7.29839 279.609 6.84677C279.609 6.39516 279.211 6 278.757 6Z" fill="white"/>
<path d="M290.916 6C290.461 6 290.063 6.39516 290.063 6.84677C290.063 7.29839 290.461 7.69355 290.916 7.69355C291.37 7.69355 291.768 7.29839 291.768 6.84677C291.768 6.39516 291.37 6 290.916 6Z" fill="white"/>
<path d="M266.596 6C266.141 6 265.743 6.39516 265.743 6.84677C265.743 7.29839 266.141 7.69355 266.596 7.69355C267.05 7.69355 267.448 7.29839 267.448 6.84677C267.448 6.39516 267.05 6 266.596 6Z" fill="white"/>
<path d="M339.5 6C339.045 6 338.647 6.39516 338.647 6.84677C338.647 7.29839 339.045 7.69355 339.5 7.69355C339.954 7.69355 340.352 7.29839 340.352 6.84677C340.352 6.39516 339.954 6 339.5 6Z" fill="white"/>
<path d="M363.82 6C363.366 6 362.968 6.39516 362.968 6.84677C362.968 7.29839 363.366 7.69355 363.82 7.69355C364.275 7.69355 364.672 7.29839 364.672 6.84677C364.672 6.39516 364.275 6 363.82 6Z" fill="white"/>
<path d="M230.173 6C229.718 6 229.32 6.39516 229.32 6.84677C229.32 7.29839 229.661 7.69355 230.173 7.69355C230.627 7.69355 231.025 7.29839 231.025 6.84677C231.025 6.39516 230.627 6 230.173 6Z" fill="white"/>
<path d="M351.66 6C351.205 6 350.808 6.39516 350.808 6.84677C350.808 7.29839 351.205 7.69355 351.66 7.69355C352.115 7.69355 352.512 7.29839 352.512 6.84677C352.512 6.39516 352.115 6 351.66 6Z" fill="white"/>
<path d="M242.276 6C241.822 6 241.424 6.39516 241.424 6.84677C241.424 7.29839 241.822 7.69355 242.276 7.69355C242.731 7.69355 243.129 7.29839 243.129 6.84677C243.129 6.39516 242.788 6 242.276 6Z" fill="white"/>
<path d="M205.852 6C205.625 6 205.398 6.1129 205.227 6.22581C205.114 6.39516 205 6.62097 205 6.84677C205 7.07258 205.114 7.29839 205.227 7.46774C205.398 7.58065 205.625 7.69355 205.852 7.69355C206.08 7.69355 206.307 7.58065 206.477 7.46774C206.591 7.29839 206.705 7.07258 206.705 6.84677C206.705 6.62097 206.591 6.39516 206.477 6.22581C206.307 6.1129 206.08 6 205.852 6Z" fill="white"/>
</g>
<g clip-path="url(#clip2_0_3871)">
<path d="M150.147 662.363C149.92 662.363 149.693 662.476 149.522 662.589C149.352 662.758 149.295 662.984 149.295 663.21C149.295 663.435 149.409 663.661 149.522 663.831C149.693 664 149.92 664.056 150.147 664.056C150.375 664.056 150.602 663.944 150.772 663.831C150.943 663.661 151 663.435 151 663.21C151 662.984 150.886 662.758 150.772 662.589C150.602 662.419 150.375 662.363 150.147 662.363Z" fill="white"/>
<path d="M113.667 662.363C113.212 662.363 112.814 662.758 112.814 663.21C112.814 663.661 113.212 664.056 113.667 664.056C114.121 664.056 114.519 663.661 114.519 663.21C114.519 662.702 114.178 662.363 113.667 662.363Z" fill="white"/>
<path d="M28.66 662.363C28.2054 662.363 27.8076 662.758 27.8076 663.21C27.8076 663.661 28.2054 664.056 28.66 664.056C29.1145 664.056 29.5123 663.661 29.5123 663.21C29.5123 662.702 29.1145 662.363 28.66 662.363Z" fill="white"/>
<path d="M65.0838 662.363C64.6292 662.363 64.2314 662.758 64.2314 663.21C64.2314 663.661 64.6292 664.056 65.0838 664.056C65.5384 664.056 65.9361 663.661 65.9361 663.21C65.9361 662.702 65.5384 662.363 65.0838 662.363Z" fill="white"/>
<path d="M125.828 662.363C125.373 662.363 124.976 662.758 124.976 663.21C124.976 663.661 125.373 664.056 125.828 664.056C126.283 664.056 126.68 663.661 126.68 663.21C126.68 662.702 126.283 662.363 125.828 662.363Z" fill="white"/>
<path d="M4.33965 662.363C3.88507 662.363 3.4873 662.758 3.4873 663.21C3.4873 663.661 3.88507 664.056 4.33965 664.056C4.79423 664.056 5.19199 663.661 5.19199 663.21C5.19199 662.702 4.79423 662.363 4.33965 662.363Z" fill="white"/>
<path d="M16.4998 662.363C16.0452 662.363 15.6475 662.758 15.6475 663.21C15.6475 663.661 16.0452 664.056 16.4998 664.056C16.9544 664.056 17.3522 663.661 17.3522 663.21C17.3522 662.702 16.9544 662.363 16.4998 662.363Z" fill="white"/>
<path d="M77.2439 662.363C76.7894 662.363 76.3916 662.758 76.3916 663.21C76.3916 663.661 76.7894 664.056 77.2439 664.056C77.6985 664.056 78.0963 663.661 78.0963 663.21C78.0963 662.702 77.6985 662.363 77.2439 662.363Z" fill="white"/>
<path d="M101.564 662.363C101.11 662.363 100.712 662.758 100.712 663.21C100.712 663.661 101.11 664.056 101.564 664.056C102.019 664.056 102.417 663.661 102.417 663.21C102.417 662.702 102.019 662.363 101.564 662.363Z" fill="white"/>
<path d="M40.8201 662.363C40.3655 662.363 39.9678 662.758 39.9678 663.21C39.9678 663.661 40.3655 664.056 40.8201 664.056C41.2747 664.056 41.6725 663.661 41.6725 663.21C41.6156 662.702 41.2747 662.363 40.8201 662.363Z" fill="white"/>
<path d="M137.987 662.363C137.533 662.363 137.135 662.758 137.135 663.21C137.135 663.661 137.533 664.056 137.987 664.056C138.442 664.056 138.839 663.661 138.839 663.21C138.839 662.702 138.442 662.363 137.987 662.363Z" fill="white"/>
<path d="M52.9236 662.363C52.469 662.363 52.0713 662.758 52.0713 663.21C52.0713 663.661 52.469 664.056 52.9236 664.056C53.3782 664.056 53.776 663.661 53.776 663.21C53.776 662.702 53.435 662.363 52.9236 662.363Z" fill="white"/>
<path d="M89.4041 662.363C88.9495 662.363 88.5518 662.758 88.5518 663.21C88.5518 663.661 88.9495 664.056 89.4041 664.056C89.8587 664.056 90.2564 663.661 90.2564 663.21C90.2564 662.702 89.8587 662.363 89.4041 662.363Z" fill="white"/>
<path d="M150.147 651.468C149.92 651.468 149.693 651.581 149.522 651.694C149.352 651.863 149.295 652.089 149.295 652.315C149.295 652.54 149.409 652.766 149.522 652.935C149.693 653.105 149.92 653.161 150.147 653.161C150.375 653.161 150.602 653.048 150.772 652.935C150.943 652.766 151 652.54 151 652.315C151 652.089 150.886 651.863 150.772 651.694C150.602 651.581 150.375 651.468 150.147 651.468Z" fill="white"/>
<path d="M40.8201 651.468C40.3655 651.468 39.9678 651.863 39.9678 652.315C39.9678 652.766 40.3655 653.161 40.8201 653.161C41.2747 653.161 41.6725 652.766 41.6725 652.315C41.6156 651.863 41.2747 651.468 40.8201 651.468Z" fill="white"/>
<path d="M65.0838 651.468C64.6292 651.468 64.2314 651.863 64.2314 652.315C64.2314 652.766 64.6292 653.161 65.0838 653.161C65.5384 653.161 65.9361 652.766 65.9361 652.315C65.9361 651.863 65.5384 651.468 65.0838 651.468Z" fill="white"/>
<path d="M77.2439 651.468C76.7894 651.468 76.3916 651.863 76.3916 652.315C76.3916 652.766 76.7894 653.161 77.2439 653.161C77.6985 653.161 78.0963 652.766 78.0963 652.315C78.0963 651.863 77.6985 651.468 77.2439 651.468Z" fill="white"/>
<path d="M28.66 651.468C28.2054 651.468 27.8076 651.863 27.8076 652.315C27.8076 652.766 28.2054 653.161 28.66 653.161C29.1145 653.161 29.5123 652.766 29.5123 652.315C29.5123 651.863 29.1145 651.468 28.66 651.468Z" fill="white"/>
<path d="M52.9236 651.468C52.469 651.468 52.0713 651.863 52.0713 652.315C52.0713 652.766 52.469 653.161 52.9236 653.161C53.3782 653.161 53.776 652.766 53.776 652.315C53.776 651.863 53.435 651.468 52.9236 651.468Z" fill="white"/>
<path d="M125.828 651.468C125.373 651.468 124.976 651.863 124.976 652.315C124.976 652.766 125.373 653.161 125.828 653.161C126.283 653.161 126.68 652.766 126.68 652.315C126.68 651.863 126.283 651.468 125.828 651.468Z" fill="white"/>
<path d="M113.667 651.468C113.212 651.468 112.814 651.863 112.814 652.315C112.814 652.766 113.212 653.161 113.667 653.161C114.121 653.161 114.519 652.766 114.519 652.315C114.519 651.863 114.178 651.468 113.667 651.468Z" fill="white"/>
<path d="M137.987 651.468C137.533 651.468 137.135 651.863 137.135 652.315C137.135 652.766 137.533 653.161 137.987 653.161C138.442 653.161 138.839 652.766 138.839 652.315C138.839 651.863 138.442 651.468 137.987 651.468Z" fill="white"/>
<path d="M89.4041 651.468C88.9495 651.468 88.5518 651.863 88.5518 652.315C88.5518 652.766 88.9495 653.161 89.4041 653.161C89.8587 653.161 90.2564 652.766 90.2564 652.315C90.2564 651.863 89.8587 651.468 89.4041 651.468Z" fill="white"/>
<path d="M4.33965 651.468C3.88507 651.468 3.4873 651.863 3.4873 652.315C3.4873 652.766 3.88507 653.161 4.33965 653.161C4.79423 653.161 5.19199 652.766 5.19199 652.315C5.19199 651.863 4.79423 651.468 4.33965 651.468Z" fill="white"/>
<path d="M101.564 651.468C101.11 651.468 100.712 651.863 100.712 652.315C100.712 652.766 101.11 653.161 101.564 653.161C102.019 653.161 102.417 652.766 102.417 652.315C102.417 651.863 102.019 651.468 101.564 651.468Z" fill="white"/>
<path d="M16.4998 651.468C16.0452 651.468 15.6475 651.863 15.6475 652.315C15.6475 652.766 16.0452 653.161 16.4998 653.161C16.9544 653.161 17.3522 652.766 17.3522 652.315C17.3522 651.863 16.9544 651.468 16.4998 651.468Z" fill="white"/>
<path d="M150.147 640.629C149.92 640.629 149.693 640.742 149.522 640.855C149.352 641.024 149.295 641.25 149.295 641.476C149.295 641.702 149.409 641.927 149.522 642.097C149.693 642.266 149.92 642.323 150.147 642.323C150.375 642.323 150.602 642.21 150.772 642.097C150.943 641.927 151 641.702 151 641.476C151 641.25 150.886 641.024 150.772 640.855C150.602 640.685 150.375 640.629 150.147 640.629Z" fill="white"/>
<path d="M16.4998 640.629C16.0452 640.629 15.6475 641.024 15.6475 641.476C15.6475 641.927 16.0452 642.323 16.4998 642.323C16.9544 642.323 17.3522 641.927 17.3522 641.476C17.3522 640.968 16.9544 640.629 16.4998 640.629Z" fill="white"/>
<path d="M28.66 640.629C28.2054 640.629 27.8076 641.024 27.8076 641.476C27.8076 641.927 28.2054 642.323 28.66 642.323C29.1145 642.323 29.5123 641.927 29.5123 641.476C29.5123 640.968 29.1145 640.629 28.66 640.629Z" fill="white"/>
<path d="M4.33965 640.629C3.88507 640.629 3.4873 641.024 3.4873 641.476C3.4873 641.927 3.88507 642.323 4.33965 642.323C4.79423 642.323 5.19199 641.927 5.19199 641.476C5.19199 640.968 4.79423 640.629 4.33965 640.629Z" fill="white"/>
<path d="M40.8201 640.629C40.3655 640.629 39.9678 641.024 39.9678 641.476C39.9678 641.927 40.3655 642.323 40.8201 642.323C41.2747 642.323 41.6725 641.927 41.6725 641.476C41.6156 640.968 41.2747 640.629 40.8201 640.629Z" fill="white"/>
<path d="M65.0838 640.629C64.6292 640.629 64.2314 641.024 64.2314 641.476C64.2314 641.927 64.6292 642.323 65.0838 642.323C65.5384 642.323 65.9361 641.927 65.9361 641.476C65.9361 640.968 65.5384 640.629 65.0838 640.629Z" fill="white"/>
<path d="M101.564 640.629C101.11 640.629 100.712 641.024 100.712 641.476C100.712 641.927 101.11 642.323 101.564 642.323C102.019 642.323 102.417 641.927 102.417 641.476C102.417 640.968 102.019 640.629 101.564 640.629Z" fill="white"/>
<path d="M89.4041 640.629C88.9495 640.629 88.5518 641.024 88.5518 641.476C88.5518 641.927 88.9495 642.323 89.4041 642.323C89.8587 642.323 90.2564 641.927 90.2564 641.476C90.2564 640.968 89.8587 640.629 89.4041 640.629Z" fill="white"/>
<path d="M77.2439 640.629C76.7894 640.629 76.3916 641.024 76.3916 641.476C76.3916 641.927 76.7894 642.323 77.2439 642.323C77.6985 642.323 78.0963 641.927 78.0963 641.476C78.0963 640.968 77.6985 640.629 77.2439 640.629Z" fill="white"/>
<path d="M113.667 640.629C113.212 640.629 112.814 641.024 112.814 641.476C112.814 641.927 113.212 642.323 113.667 642.323C114.121 642.323 114.519 641.927 114.519 641.476C114.519 640.968 114.178 640.629 113.667 640.629Z" fill="white"/>
<path d="M125.828 640.629C125.373 640.629 124.976 641.024 124.976 641.476C124.976 641.927 125.373 642.323 125.828 642.323C126.283 642.323 126.68 641.927 126.68 641.476C126.68 640.968 126.283 640.629 125.828 640.629Z" fill="white"/>
<path d="M137.987 640.629C137.533 640.629 137.135 641.024 137.135 641.476C137.135 641.927 137.533 642.323 137.987 642.323C138.442 642.323 138.839 641.927 138.839 641.476C138.839 640.968 138.442 640.629 137.987 640.629Z" fill="white"/>
<path d="M52.9236 640.629C52.469 640.629 52.0713 641.024 52.0713 641.476C52.0713 641.927 52.469 642.323 52.9236 642.323C53.3782 642.323 53.776 641.927 53.776 641.476C53.776 640.968 53.435 640.629 52.9236 640.629Z" fill="white"/>
<path d="M150.147 629.734C149.92 629.734 149.693 629.847 149.522 629.96C149.352 630.129 149.295 630.355 149.295 630.581C149.295 630.806 149.409 631.032 149.522 631.202C149.693 631.371 149.92 631.427 150.147 631.427C150.375 631.427 150.602 631.315 150.772 631.202C150.943 631.032 151 630.806 151 630.581C151 630.355 150.886 630.129 150.772 629.96C150.602 629.847 150.375 629.734 150.147 629.734Z" fill="white"/>
<path d="M125.828 629.734C125.373 629.734 124.976 630.129 124.976 630.581C124.976 631.032 125.373 631.427 125.828 631.427C126.283 631.427 126.68 631.032 126.68 630.581C126.68 630.129 126.283 629.734 125.828 629.734Z" fill="white"/>
<path d="M113.667 629.734C113.212 629.734 112.814 630.129 112.814 630.581C112.814 631.032 113.212 631.427 113.667 631.427C114.121 631.427 114.519 631.032 114.519 630.581C114.519 630.129 114.178 629.734 113.667 629.734Z" fill="white"/>
<path d="M137.987 629.734C137.533 629.734 137.135 630.129 137.135 630.581C137.135 631.032 137.533 631.427 137.987 631.427C138.442 631.427 138.839 631.032 138.839 630.581C138.839 630.129 138.442 629.734 137.987 629.734Z" fill="white"/>
<path d="M40.8201 629.734C40.3655 629.734 39.9678 630.129 39.9678 630.581C39.9678 631.032 40.3655 631.427 40.8201 631.427C41.2747 631.427 41.6725 631.032 41.6725 630.581C41.6156 630.129 41.2747 629.734 40.8201 629.734Z" fill="white"/>
<path d="M65.0838 629.734C64.6292 629.734 64.2314 630.129 64.2314 630.581C64.2314 631.032 64.6292 631.427 65.0838 631.427C65.5384 631.427 65.9361 631.032 65.9361 630.581C65.9361 630.129 65.5384 629.734 65.0838 629.734Z" fill="white"/>
<path d="M89.4041 629.734C88.9495 629.734 88.5518 630.129 88.5518 630.581C88.5518 631.032 88.9495 631.427 89.4041 631.427C89.8587 631.427 90.2564 631.032 90.2564 630.581C90.2564 630.129 89.8587 629.734 89.4041 629.734Z" fill="white"/>
<path d="M16.4998 629.734C16.0452 629.734 15.6475 630.129 15.6475 630.581C15.6475 631.032 16.0452 631.427 16.4998 631.427C16.9544 631.427 17.3522 631.032 17.3522 630.581C17.3522 630.129 16.9544 629.734 16.4998 629.734Z" fill="white"/>
<path d="M77.2439 629.734C76.7894 629.734 76.3916 630.129 76.3916 630.581C76.3916 631.032 76.7894 631.427 77.2439 631.427C77.6985 631.427 78.0963 631.032 78.0963 630.581C78.0963 630.129 77.6985 629.734 77.2439 629.734Z" fill="white"/>
<path d="M52.9236 629.734C52.469 629.734 52.0713 630.129 52.0713 630.581C52.0713 631.032 52.469 631.427 52.9236 631.427C53.3782 631.427 53.776 631.032 53.776 630.581C53.776 630.129 53.435 629.734 52.9236 629.734Z" fill="white"/>
<path d="M101.564 629.734C101.11 629.734 100.712 630.129 100.712 630.581C100.712 631.032 101.11 631.427 101.564 631.427C102.019 631.427 102.417 631.032 102.417 630.581C102.417 630.129 102.019 629.734 101.564 629.734Z" fill="white"/>
<path d="M28.66 629.734C28.2054 629.734 27.8076 630.129 27.8076 630.581C27.8076 631.032 28.2054 631.427 28.66 631.427C29.1145 631.427 29.5123 631.032 29.5123 630.581C29.5123 630.129 29.1145 629.734 28.66 629.734Z" fill="white"/>
<path d="M4.33965 629.734C3.88507 629.734 3.4873 630.129 3.4873 630.581C3.4873 631.032 3.88507 631.427 4.33965 631.427C4.79423 631.427 5.19199 631.032 5.19199 630.581C5.19199 630.129 4.79423 629.734 4.33965 629.734Z" fill="white"/>
<path d="M150.147 618.895C149.92 618.895 149.693 619.008 149.522 619.121C149.352 619.29 149.295 619.516 149.295 619.742C149.295 619.968 149.409 620.194 149.522 620.363C149.693 620.532 149.92 620.589 150.147 620.589C150.375 620.589 150.602 620.476 150.772 620.363C150.943 620.194 151 619.968 151 619.742C151 619.516 150.886 619.29 150.772 619.121C150.602 618.952 150.375 618.895 150.147 618.895Z" fill="white"/>
<path d="M101.564 618.895C101.11 618.895 100.712 619.29 100.712 619.742C100.712 620.194 101.11 620.589 101.564 620.589C102.019 620.589 102.417 620.194 102.417 619.742C102.417 619.234 102.019 618.895 101.564 618.895Z" fill="white"/>
<path d="M28.66 618.895C28.2054 618.895 27.8076 619.29 27.8076 619.742C27.8076 620.194 28.2054 620.589 28.66 620.589C29.1145 620.589 29.5123 620.194 29.5123 619.742C29.5123 619.234 29.1145 618.895 28.66 618.895Z" fill="white"/>
<path d="M16.4998 618.895C16.0452 618.895 15.6475 619.29 15.6475 619.742C15.6475 620.194 16.0452 620.589 16.4998 620.589C16.9544 620.589 17.3522 620.194 17.3522 619.742C17.3522 619.234 16.9544 618.895 16.4998 618.895Z" fill="white"/>
<path d="M113.667 618.895C113.212 618.895 112.814 619.29 112.814 619.742C112.814 620.194 113.212 620.589 113.667 620.589C114.121 620.589 114.519 620.194 114.519 619.742C114.519 619.234 114.178 618.895 113.667 618.895Z" fill="white"/>
<path d="M40.8201 618.895C40.3655 618.895 39.9678 619.29 39.9678 619.742C39.9678 620.194 40.3655 620.589 40.8201 620.589C41.2747 620.589 41.6725 620.194 41.6725 619.742C41.6156 619.234 41.2747 618.895 40.8201 618.895Z" fill="white"/>
<path d="M65.0838 618.895C64.6292 618.895 64.2314 619.29 64.2314 619.742C64.2314 620.194 64.6292 620.589 65.0838 620.589C65.5384 620.589 65.9361 620.194 65.9361 619.742C65.9361 619.234 65.5384 618.895 65.0838 618.895Z" fill="white"/>
<path d="M89.4041 618.895C88.9495 618.895 88.5518 619.29 88.5518 619.742C88.5518 620.194 88.9495 620.589 89.4041 620.589C89.8587 620.589 90.2564 620.194 90.2564 619.742C90.2564 619.234 89.8587 618.895 89.4041 618.895Z" fill="white"/>
<path d="M52.9236 618.895C52.469 618.895 52.0713 619.29 52.0713 619.742C52.0713 620.194 52.469 620.589 52.9236 620.589C53.3782 620.589 53.776 620.194 53.776 619.742C53.776 619.234 53.435 618.895 52.9236 618.895Z" fill="white"/>
<path d="M77.2439 618.895C76.7894 618.895 76.3916 619.29 76.3916 619.742C76.3916 620.194 76.7894 620.589 77.2439 620.589C77.6985 620.589 78.0963 620.194 78.0963 619.742C78.0963 619.234 77.6985 618.895 77.2439 618.895Z" fill="white"/>
<path d="M125.828 618.895C125.373 618.895 124.976 619.29 124.976 619.742C124.976 620.194 125.373 620.589 125.828 620.589C126.283 620.589 126.68 620.194 126.68 619.742C126.68 619.234 126.283 618.895 125.828 618.895Z" fill="white"/>
<path d="M137.987 618.895C137.533 618.895 137.135 619.29 137.135 619.742C137.135 620.194 137.533 620.589 137.987 620.589C138.442 620.589 138.839 620.194 138.839 619.742C138.839 619.234 138.442 618.895 137.987 618.895Z" fill="white"/>
<path d="M4.33965 618.895C3.88507 618.895 3.4873 619.29 3.4873 619.742C3.4873 620.194 3.88507 620.589 4.33965 620.589C4.79423 620.589 5.19199 620.194 5.19199 619.742C5.19199 619.234 4.79423 618.895 4.33965 618.895Z" fill="white"/>
<path d="M150.147 609.694C150.375 609.694 150.602 609.581 150.772 609.468C150.943 609.298 151 609.073 151 608.847C151 608.621 150.886 608.395 150.772 608.226C150.602 608.056 150.375 608 150.147 608C149.92 608 149.693 608.113 149.522 608.226C149.352 608.395 149.295 608.621 149.295 608.847C149.295 609.073 149.409 609.298 149.522 609.468C149.693 609.581 149.92 609.694 150.147 609.694Z" fill="white"/>
<path d="M77.2439 608C76.7894 608 76.3916 608.395 76.3916 608.847C76.3916 609.298 76.7894 609.694 77.2439 609.694C77.6985 609.694 78.0963 609.298 78.0963 608.847C78.0963 608.395 77.6985 608 77.2439 608Z" fill="white"/>
<path d="M137.987 608C137.533 608 137.135 608.395 137.135 608.847C137.135 609.298 137.533 609.694 137.987 609.694C138.442 609.694 138.839 609.298 138.839 608.847C138.839 608.395 138.442 608 137.987 608Z" fill="white"/>
<path d="M89.4041 608C88.9495 608 88.5518 608.395 88.5518 608.847C88.5518 609.298 88.9495 609.694 89.4041 609.694C89.8587 609.694 90.2564 609.298 90.2564 608.847C90.2564 608.395 89.8587 608 89.4041 608Z" fill="white"/>
<path d="M113.667 608C113.212 608 112.814 608.395 112.814 608.847C112.814 609.298 113.212 609.694 113.667 609.694C114.121 609.694 114.519 609.298 114.519 608.847C114.519 608.395 114.178 608 113.667 608Z" fill="white"/>
<path d="M101.564 608C101.11 608 100.712 608.395 100.712 608.847C100.712 609.298 101.11 609.694 101.564 609.694C102.019 609.694 102.417 609.298 102.417 608.847C102.417 608.395 102.019 608 101.564 608Z" fill="white"/>
<path d="M125.828 608C125.373 608 124.976 608.395 124.976 608.847C124.976 609.298 125.373 609.694 125.828 609.694C126.283 609.694 126.68 609.298 126.68 608.847C126.68 608.395 126.283 608 125.828 608Z" fill="white"/>
<path d="M4.33965 608C3.88507 608 3.4873 608.395 3.4873 608.847C3.4873 609.298 3.88507 609.694 4.33965 609.694C4.79423 609.694 5.19199 609.298 5.19199 608.847C5.19199 608.395 4.79423 608 4.33965 608Z" fill="white"/>
<path d="M16.4998 608C16.0452 608 15.6475 608.395 15.6475 608.847C15.6475 609.298 16.0452 609.694 16.4998 609.694C16.9544 609.694 17.3522 609.298 17.3522 608.847C17.3522 608.395 16.9544 608 16.4998 608Z" fill="white"/>
<path d="M52.9236 608C52.469 608 52.0713 608.395 52.0713 608.847C52.0713 609.298 52.469 609.694 52.9236 609.694C53.3782 609.694 53.776 609.298 53.776 608.847C53.776 608.395 53.435 608 52.9236 608Z" fill="white"/>
<path d="M40.8201 608C40.3655 608 39.9678 608.395 39.9678 608.847C39.9678 609.298 40.3655 609.694 40.8201 609.694C41.2747 609.694 41.6725 609.298 41.6725 608.847C41.6725 608.395 41.2747 608 40.8201 608Z" fill="white"/>
<path d="M65.0838 608C64.6292 608 64.2314 608.395 64.2314 608.847C64.2314 609.298 64.6292 609.694 65.0838 609.694C65.5384 609.694 65.9361 609.298 65.9361 608.847C65.9361 608.395 65.5384 608 65.0838 608Z" fill="white"/>
<path d="M28.66 608C28.2054 608 27.8076 608.395 27.8076 608.847C27.8076 609.298 28.2054 609.694 28.66 609.694C29.1145 609.694 29.5123 609.298 29.5123 608.847C29.5123 608.395 29.1145 608 28.66 608Z" fill="white"/>
</g>
</g>
<defs>
<clipPath id="clip0_0_3871">
<rect width="375" height="3610" fill="white" transform="translate(0 -1646)"/>
</clipPath>
<clipPath id="clip1_0_3871">
<rect width="269" height="56" fill="white" transform="translate(205 6)"/>
</clipPath>
<clipPath id="clip2_0_3871">
<rect width="269" height="56" fill="white" transform="translate(-118 608)"/>
</clipPath>
</defs>
</svg>
