<svg width="1440" height="962" viewBox="0 0 1440 962" fill="none" xmlns="http://www.w3.org/2000/svg">
<rect y="4" width="1440" height="958" fill="#181818"/>
<circle cx="1196.5" cy="595.5" r="188" stroke="white" stroke-opacity="0.4"/>
<g clip-path="url(#clip0_191_1029)">
<path d="M1295.23 864C1300.01 864 1304 868.091 1304 873C1304 877.909 1300.01 882 1295.23 882C1290.45 882 1286.46 877.909 1286.46 873C1286.46 868.091 1290.45 864 1295.23 864ZM1295.23 880.364C1299.22 880.364 1302.41 877.091 1302.41 873C1302.41 868.909 1299.22 865.636 1295.23 865.636C1291.25 865.636 1288.06 868.909 1288.06 873C1288.06 877.091 1291.25 880.364 1295.23 880.364Z" fill="#5B5B5B"/>
<path d="M1257.77 864C1262.55 864 1265.74 868.091 1265.74 873C1265.74 877.909 1261.75 882 1256.97 882C1252.19 882 1248.2 877.909 1248.2 873C1248.2 868.091 1252.19 864 1257.77 864ZM1257.77 880.364C1260.95 880.364 1264.14 877.091 1264.14 873C1264.14 868.909 1260.95 865.636 1256.97 865.636C1252.98 865.636 1249.79 868.909 1249.79 873C1249.79 877.091 1253.78 880.364 1257.77 880.364Z" fill="#5B5B5B"/>
<path d="M1219.5 864C1224.28 864 1228.27 868.091 1228.27 873C1228.27 877.909 1224.28 882 1219.5 882C1214.72 882 1210.73 877.909 1210.73 873C1210.73 868.091 1214.72 864 1219.5 864ZM1219.5 880.364C1223.49 880.364 1226.67 877.091 1226.67 873C1226.67 868.909 1223.49 865.636 1219.5 865.636C1215.51 865.636 1212.33 868.909 1212.33 873C1212.33 877.091 1215.51 880.364 1219.5 880.364Z" fill="#5B5B5B"/>
<path d="M1181.24 864C1186.02 864 1190.01 868.091 1190.01 873C1190.01 877.909 1186.02 882 1181.24 882C1176.45 882 1172.47 877.909 1172.47 873C1172.47 868.091 1176.45 864 1181.24 864ZM1181.24 880.364C1185.22 880.364 1188.41 877.091 1188.41 873C1188.41 868.909 1185.22 865.636 1181.24 865.636C1177.25 865.636 1174.06 868.909 1174.06 873C1174.06 877.091 1178.05 880.364 1181.24 880.364Z" fill="#5B5B5B"/>
<path d="M1143.77 864C1148.55 864 1152.54 868.091 1152.54 873C1152.54 877.909 1148.55 882 1143.77 882C1138.99 882 1135 877.909 1135 873C1135 868.091 1138.99 864 1143.77 864ZM1143.77 880.364C1147.75 880.364 1150.94 877.091 1150.94 873C1150.94 868.909 1147.75 865.636 1143.77 865.636C1139.78 865.636 1136.59 868.909 1136.59 873C1136.59 877.091 1139.78 880.364 1143.77 880.364Z" fill="#5B5B5B"/>
</g>
<g clip-path="url(#clip1_191_1029)">
<path d="M1110.98 212.423C1110.41 212.989 1110.47 214.038 1111.11 214.673C1111.74 215.307 1112.79 215.367 1113.36 214.801C1113.92 214.235 1113.86 213.185 1113.23 212.551C1112.52 211.838 1111.55 211.857 1110.98 212.423Z" fill="white"/>
<path d="M1322.62 0.785836C1322.05 1.35152 1322.11 2.40133 1322.74 3.03542C1323.38 3.66952 1324.43 3.72938 1324.99 3.16369C1325.56 2.598 1325.5 1.5482 1324.87 0.914103C1324.15 0.200747 1323.25 0.14944 1322.62 0.785836Z" fill="white"/>
<path d="M1216.83 106.569C1216.27 107.135 1216.33 108.185 1216.96 108.819C1217.6 109.453 1218.65 109.513 1219.21 108.947C1219.78 108.381 1219.72 107.331 1219.08 106.697C1218.37 105.984 1217.4 106.003 1216.83 106.569Z" fill="white"/>
<path d="M1262.16 61.2435C1261.59 61.8092 1261.65 62.859 1262.29 63.4931C1262.92 64.1272 1263.97 64.1871 1264.54 63.6214C1265.1 63.0557 1265.04 62.0059 1264.41 61.3718C1263.7 60.6584 1262.72 60.6779 1262.16 61.2435Z" fill="white"/>
<path d="M1050.52 272.881C1049.96 273.446 1050.02 274.496 1050.65 275.13C1051.28 275.764 1052.33 275.824 1052.9 275.258C1053.47 274.693 1053.41 273.643 1052.77 273.009C1052.06 272.296 1051.09 272.315 1050.52 272.881Z" fill="white"/>
<path d="M1065.65 257.749C1065.09 258.314 1065.15 259.364 1065.78 259.998C1066.42 260.632 1067.47 260.692 1068.03 260.126C1068.6 259.561 1068.54 258.511 1067.9 257.877C1067.19 257.164 1066.22 257.183 1065.65 257.749Z" fill="white"/>
<path d="M1141.24 182.159C1140.68 182.725 1140.74 183.774 1141.37 184.408C1142.01 185.043 1143.06 185.102 1143.62 184.537C1144.19 183.971 1144.13 182.921 1143.49 182.287C1142.78 181.574 1141.81 181.593 1141.24 182.159Z" fill="white"/>
<path d="M1080.72 242.687C1080.15 243.253 1080.21 244.303 1080.84 244.937C1081.48 245.571 1082.53 245.631 1083.09 245.065C1083.66 244.499 1083.6 243.45 1082.96 242.815C1082.25 242.102 1081.35 242.051 1080.72 242.687Z" fill="white"/>
<path d="M1186.57 136.833C1186 137.399 1186.06 138.449 1186.7 139.083C1187.33 139.717 1188.38 139.777 1188.95 139.211C1189.51 138.645 1189.45 137.596 1188.82 136.962C1188.11 136.248 1187.13 136.268 1186.57 136.833Z" fill="white"/>
<path d="M1201.7 121.701C1201.14 122.267 1201.2 123.317 1201.83 123.951C1202.46 124.585 1203.51 124.645 1204.08 124.079C1204.64 123.513 1204.58 122.464 1203.95 121.829C1203.24 121.116 1202.27 121.135 1201.7 121.701Z" fill="white"/>
<path d="M1277.29 46.1115C1276.73 46.6771 1276.79 47.727 1277.42 48.361C1278.05 48.9951 1279.1 49.055 1279.67 48.4893C1280.23 47.9236 1280.17 46.8738 1279.54 46.2397C1278.83 45.5264 1277.86 45.5458 1277.29 46.1115Z" fill="white"/>
<path d="M1307.56 15.8473C1306.99 16.413 1307.05 17.4628 1307.68 18.0969C1308.32 18.731 1309.37 18.7908 1309.93 18.2252C1310.5 17.6595 1310.44 16.6097 1309.8 15.9756C1309.09 15.2622 1308.12 15.2816 1307.56 15.8473Z" fill="white"/>
<path d="M1095.85 227.555C1095.28 228.121 1095.34 229.171 1095.98 229.805C1096.61 230.439 1097.66 230.499 1098.23 229.933C1098.79 229.367 1098.73 228.317 1098.1 227.683C1097.38 226.97 1096.41 226.989 1095.85 227.555Z" fill="white"/>
<path d="M1156.3 167.097C1155.74 167.663 1155.8 168.713 1156.43 169.347C1157.07 169.981 1158.12 170.041 1158.68 169.475C1159.25 168.91 1159.19 167.86 1158.55 167.226C1157.84 166.512 1156.94 166.461 1156.3 167.097Z" fill="white"/>
<path d="M1231.97 91.437C1231.4 92.0027 1231.46 93.0525 1232.09 93.6866C1232.73 94.3207 1233.78 94.3806 1234.34 93.8149C1234.91 93.2492 1234.85 92.1994 1234.21 91.5653C1233.43 90.9226 1232.53 90.8713 1231.97 91.437Z" fill="white"/>
<path d="M1126.11 197.291C1125.55 197.857 1125.61 198.906 1126.24 199.54C1126.87 200.175 1127.92 200.234 1128.49 199.669C1129.05 199.103 1129 198.053 1128.36 197.419C1127.65 196.706 1126.68 196.725 1126.11 197.291Z" fill="white"/>
<path d="M1247.03 76.3756C1246.46 76.9412 1246.52 77.991 1247.15 78.6251C1247.79 79.2592 1248.84 79.3191 1249.4 78.7534C1249.97 78.1877 1249.91 77.1379 1249.28 76.5038C1248.56 75.7905 1247.66 75.7392 1247.03 76.3756Z" fill="white"/>
<path d="M1171.44 151.965C1170.87 152.531 1170.93 153.581 1171.57 154.215C1172.2 154.849 1173.25 154.909 1173.81 154.343C1174.38 153.778 1174.32 152.728 1173.69 152.094C1172.97 151.38 1172.07 151.329 1171.44 151.965Z" fill="white"/>
<path d="M1292.42 30.9793C1291.86 31.545 1291.92 32.5948 1292.55 33.2289C1293.19 33.863 1294.24 33.9229 1294.8 33.3572C1295.37 32.7915 1295.31 31.7417 1294.67 31.1076C1293.96 30.3942 1292.99 30.4136 1292.42 30.9793Z" fill="white"/>
<path d="M1035.39 288.013C1035.11 288.295 1034.98 288.737 1034.93 289.108C1035.03 289.487 1035.2 289.945 1035.44 290.183C1035.76 290.5 1036.21 290.676 1036.59 290.772C1037.04 290.798 1037.41 290.594 1037.69 290.311C1037.97 290.028 1038.1 289.587 1038.15 289.216C1038.05 288.837 1037.88 288.379 1037.56 288.062C1037.24 287.745 1036.78 287.569 1036.41 287.473C1036.03 287.526 1035.67 287.73 1035.39 288.013Z" fill="white"/>
<path d="M1080.55 212.258C1079.98 212.823 1080.04 213.873 1080.68 214.507C1081.31 215.141 1082.36 215.201 1082.93 214.635C1083.49 214.07 1083.43 213.02 1082.8 212.386C1082.17 211.752 1081.12 211.692 1080.55 212.258Z" fill="white"/>
<path d="M1216.67 76.1395C1216.1 76.7052 1216.16 77.755 1216.8 78.3891C1217.43 79.0232 1218.48 79.0831 1219.05 78.5174C1219.61 77.9517 1219.55 76.9019 1218.92 76.2678C1218.21 75.7044 1217.23 75.5738 1216.67 76.1395Z" fill="white"/>
<path d="M1050.36 242.451C1049.79 243.017 1049.85 244.066 1050.48 244.701C1051.12 245.335 1052.17 245.395 1052.73 244.829C1053.3 244.263 1053.24 243.213 1052.61 242.579C1051.97 241.945 1050.92 241.885 1050.36 242.451Z" fill="white"/>
<path d="M1246.86 45.9461C1246.3 46.5117 1246.36 47.5615 1246.99 48.1956C1247.62 48.8297 1248.67 48.8896 1249.24 48.3239C1249.8 47.7582 1249.74 46.7084 1249.11 46.0743C1248.48 45.4402 1247.43 45.3804 1246.86 45.9461Z" fill="white"/>
<path d="M1065.42 227.39C1064.85 227.955 1064.91 229.005 1065.55 229.639C1066.18 230.273 1067.23 230.333 1067.8 229.768C1068.36 229.202 1068.3 228.152 1067.67 227.518C1067.03 226.884 1066.05 226.753 1065.42 227.39Z" fill="white"/>
<path d="M1261.99 30.8139C1261.43 31.3796 1261.49 32.4294 1262.12 33.0635C1262.76 33.6976 1263.81 33.7574 1264.37 33.1918C1264.94 32.6261 1264.88 31.5763 1264.24 30.9422C1263.61 30.3081 1262.56 30.2482 1261.99 30.8139Z" fill="white"/>
<path d="M1201.54 91.2716C1200.97 91.8372 1201.03 92.887 1201.66 93.5211C1202.3 94.1552 1203.35 94.2151 1203.91 93.6494C1204.48 93.0837 1204.42 92.0339 1203.79 91.3998C1203.15 90.7657 1202.1 90.7059 1201.54 91.2716Z" fill="white"/>
<path d="M1110.81 181.993C1110.25 182.559 1110.31 183.609 1110.94 184.243C1111.58 184.877 1112.63 184.937 1113.19 184.371C1113.76 183.806 1113.7 182.756 1113.06 182.122C1112.43 181.488 1111.38 181.428 1110.81 181.993Z" fill="white"/>
<path d="M1231.73 61.0781C1231.16 61.6438 1231.22 62.6936 1231.86 63.3277C1232.49 63.9618 1233.54 64.0217 1234.11 63.456C1234.67 62.8903 1234.61 61.8405 1233.98 61.2064C1233.34 60.5723 1232.37 60.4417 1231.73 61.0781Z" fill="white"/>
<path d="M1095.68 197.125C1095.12 197.691 1095.18 198.741 1095.81 199.375C1096.44 200.009 1097.49 200.069 1098.06 199.503C1098.63 198.938 1098.57 197.888 1097.93 197.254C1097.3 196.62 1096.25 196.56 1095.68 197.125Z" fill="white"/>
<path d="M1156.14 136.668C1155.57 137.233 1155.63 138.283 1156.27 138.917C1156.9 139.551 1157.95 139.611 1158.52 139.046C1159.08 138.48 1159.02 137.43 1158.39 136.796C1157.75 136.162 1156.78 136.031 1156.14 136.668Z" fill="white"/>
<path d="M1035.22 257.583C1034.66 258.149 1034.72 259.199 1035.35 259.833C1035.99 260.467 1037.04 260.527 1037.6 259.961C1038.17 259.395 1038.11 258.345 1037.47 257.711C1036.84 257.077 1035.79 257.017 1035.22 257.583Z" fill="white"/>
<path d="M1125.95 166.861C1125.38 167.427 1125.44 168.477 1126.07 169.111C1126.71 169.745 1127.76 169.805 1128.32 169.239C1128.89 168.673 1128.83 167.624 1128.2 166.99C1127.56 166.355 1126.51 166.296 1125.95 166.861Z" fill="white"/>
<path d="M1277.13 15.6819C1276.56 16.2476 1276.62 17.2974 1277.25 17.9315C1277.89 18.5656 1278.94 18.6254 1279.5 18.0597C1280.07 17.4941 1280.01 16.4443 1279.38 15.8102C1278.74 15.1761 1277.69 15.1162 1277.13 15.6819Z" fill="white"/>
<path d="M1141.01 151.8C1140.44 152.366 1140.5 153.415 1141.14 154.05C1141.77 154.684 1142.82 154.744 1143.39 154.178C1143.95 153.612 1143.89 152.562 1143.26 151.928C1142.62 151.294 1141.64 151.164 1141.01 151.8Z" fill="white"/>
<path d="M1171.27 121.536C1170.71 122.101 1170.77 123.151 1171.4 123.785C1172.03 124.419 1173.08 124.479 1173.65 123.914C1174.22 123.348 1174.16 122.298 1173.52 121.664C1172.89 121.03 1171.84 120.97 1171.27 121.536Z" fill="white"/>
<path d="M1292.26 0.549813C1291.69 1.1155 1291.75 2.1653 1292.39 2.7994C1293.02 3.43349 1294.07 3.49335 1294.64 2.92766C1295.2 2.36198 1295.14 1.31217 1294.51 0.678077C1293.87 0.0439844 1292.82 -0.015872 1292.26 0.549813Z" fill="white"/>
<path d="M1186.4 106.404C1185.84 106.969 1185.9 108.019 1186.53 108.653C1187.17 109.287 1188.22 109.347 1188.78 108.781C1189.35 108.216 1189.29 107.166 1188.65 106.532C1188.02 105.898 1186.97 105.838 1186.4 106.404Z" fill="white"/>
<path d="M1020.09 272.715C1019.81 272.998 1019.68 273.439 1019.63 273.81C1019.73 274.189 1019.9 274.648 1020.22 274.965C1020.54 275.282 1021 275.457 1021.38 275.554C1021.75 275.5 1022.19 275.376 1022.47 275.093C1022.75 274.81 1022.88 274.369 1022.93 273.998C1022.83 273.619 1022.66 273.161 1022.34 272.843C1022.02 272.526 1021.57 272.351 1021.19 272.254C1020.82 272.308 1020.37 272.432 1020.09 272.715Z" fill="white"/>
<path d="M1171.19 91.1854C1170.62 91.7511 1170.68 92.8009 1171.31 93.435C1171.95 94.069 1173 94.1289 1173.56 93.5632C1174.13 92.9975 1174.07 91.9477 1173.44 91.3136C1172.72 90.6003 1171.75 90.6197 1171.19 91.1854Z" fill="white"/>
<path d="M1065.33 197.039C1064.77 197.605 1064.83 198.655 1065.46 199.289C1066.09 199.923 1067.14 199.983 1067.71 199.417C1068.28 198.851 1068.22 197.802 1067.58 197.168C1066.87 196.454 1065.9 196.474 1065.33 197.039Z" fill="white"/>
<path d="M1080.46 181.907C1079.9 182.473 1079.96 183.523 1080.59 184.157C1081.23 184.791 1082.28 184.851 1082.84 184.285C1083.41 183.719 1083.35 182.67 1082.71 182.036C1082 181.322 1081.03 181.342 1080.46 181.907Z" fill="white"/>
<path d="M1186.32 76.0534C1185.75 76.619 1185.81 77.6688 1186.45 78.3029C1187.08 78.937 1188.13 78.9969 1188.7 78.4312C1189.26 77.8655 1189.2 76.8157 1188.57 76.1816C1187.85 75.4683 1186.88 75.4877 1186.32 76.0534Z" fill="white"/>
<path d="M1140.92 121.45C1140.36 122.015 1140.42 123.065 1141.05 123.699C1141.68 124.333 1142.73 124.393 1143.3 123.827C1143.86 123.262 1143.8 122.212 1143.17 121.578C1142.46 120.865 1141.56 120.813 1140.92 121.45Z" fill="white"/>
<path d="M1125.79 136.582C1125.22 137.147 1125.28 138.197 1125.92 138.831C1126.55 139.465 1127.6 139.525 1128.17 138.959C1128.73 138.394 1128.67 137.344 1128.04 136.71C1127.33 135.997 1126.43 135.945 1125.79 136.582Z" fill="white"/>
<path d="M1156.05 106.318C1155.49 106.883 1155.55 107.933 1156.18 108.567C1156.82 109.201 1157.87 109.261 1158.43 108.695C1159 108.13 1158.94 107.08 1158.3 106.446C1157.59 105.732 1156.62 105.752 1156.05 106.318Z" fill="white"/>
<path d="M1201.45 60.9213C1200.88 61.487 1200.94 62.5368 1201.58 63.1709C1202.21 63.805 1203.26 63.8649 1203.83 63.2992C1204.39 62.7335 1204.33 61.6837 1203.7 61.0496C1202.92 60.407 1202.02 60.3556 1201.45 60.9213Z" fill="white"/>
<path d="M1231.64 30.7279C1231.08 31.2935 1231.14 32.3433 1231.77 32.9774C1232.41 33.6115 1233.46 33.6714 1234.02 33.1057C1234.59 32.54 1234.53 31.4902 1233.89 30.8561C1233.18 30.1428 1232.21 30.1622 1231.64 30.7279Z" fill="white"/>
<path d="M1261.91 0.463632C1261.34 1.02932 1261.4 2.07912 1262.04 2.71322C1262.67 3.34731 1263.72 3.40717 1264.29 2.84149C1264.85 2.2758 1264.79 1.22599 1264.16 0.591898C1263.44 -0.121458 1262.47 -0.102054 1261.91 0.463632Z" fill="white"/>
<path d="M1020.01 242.365C1019.44 242.931 1019.5 243.98 1020.13 244.614C1020.77 245.248 1021.82 245.308 1022.38 244.743C1022.95 244.177 1022.89 243.127 1022.26 242.493C1021.54 241.78 1020.57 241.799 1020.01 242.365Z" fill="white"/>
<path d="M1035.14 227.233C1034.57 227.798 1034.63 228.848 1035.27 229.482C1035.9 230.116 1036.95 230.176 1037.52 229.611C1038.08 229.045 1038.02 227.995 1037.39 227.361C1036.67 226.648 1035.7 226.667 1035.14 227.233Z" fill="white"/>
<path d="M1095.6 166.775C1095.03 167.341 1095.09 168.391 1095.72 169.025C1096.36 169.659 1097.41 169.719 1097.97 169.153C1098.54 168.587 1098.48 167.537 1097.85 166.903C1097.13 166.19 1096.16 166.209 1095.6 166.775Z" fill="white"/>
<path d="M1246.78 15.5957C1246.21 16.1613 1246.27 17.2111 1246.9 17.8452C1247.54 18.4793 1248.59 18.5392 1249.15 17.9735C1249.72 17.4078 1249.66 16.358 1249.02 15.7239C1248.31 15.0106 1247.34 15.03 1246.78 15.5957Z" fill="white"/>
<path d="M1110.73 151.643C1110.16 152.209 1110.22 153.259 1110.86 153.893C1111.49 154.527 1112.54 154.587 1113.11 154.021C1113.67 153.455 1113.61 152.405 1112.98 151.771C1112.26 151.058 1111.29 151.077 1110.73 151.643Z" fill="white"/>
<path d="M1050.2 212.171C1049.63 212.737 1049.69 213.787 1050.33 214.421C1050.96 215.055 1052.01 215.115 1052.58 214.549C1053.14 213.984 1053.08 212.934 1052.45 212.3C1051.74 211.586 1050.84 211.535 1050.2 212.171Z" fill="white"/>
<path d="M1216.51 45.8599C1215.95 46.4256 1216.01 47.4754 1216.64 48.1095C1217.27 48.7435 1218.32 48.8034 1218.89 48.2377C1219.45 47.672 1219.39 46.6222 1218.76 45.9881C1218.05 45.2748 1217.15 45.2235 1216.51 45.8599Z" fill="white"/>
<path d="M1004.87 257.497C1004.59 257.78 1004.47 258.221 1004.41 258.592C1004.51 258.971 1004.69 259.429 1004.92 259.667C1005.24 259.984 1005.7 260.16 1006.08 260.256C1006.53 260.282 1006.89 260.078 1007.17 259.796C1007.46 259.513 1007.58 259.071 1007.63 258.701C1007.54 258.321 1007.36 257.863 1007.04 257.546C1006.73 257.229 1006.27 257.053 1005.89 256.957C1005.52 257.011 1005.16 257.214 1004.87 257.497Z" fill="white"/>
<path d="M1065.17 166.61C1064.6 167.175 1064.66 168.225 1065.29 168.859C1065.93 169.493 1066.98 169.553 1067.54 168.988C1068.11 168.422 1068.05 167.372 1067.42 166.738C1066.78 166.104 1065.73 166.044 1065.17 166.61Z" fill="white"/>
<path d="M1095.43 136.346C1094.86 136.911 1094.92 137.961 1095.56 138.595C1096.19 139.229 1097.24 139.289 1097.81 138.723C1098.37 138.158 1098.31 137.108 1097.68 136.474C1097.05 135.84 1096 135.78 1095.43 136.346Z" fill="white"/>
<path d="M1125.62 106.152C1125.06 106.718 1125.12 107.768 1125.75 108.402C1126.39 109.036 1127.44 109.096 1128 108.53C1128.57 107.964 1128.51 106.915 1127.87 106.28C1127.24 105.646 1126.26 105.516 1125.62 106.152Z" fill="white"/>
<path d="M1019.84 211.935C1019.27 212.501 1019.33 213.551 1019.97 214.185C1020.6 214.819 1021.65 214.879 1022.22 214.313C1022.78 213.747 1022.72 212.698 1022.09 212.064C1021.46 211.429 1020.41 211.37 1019.84 211.935Z" fill="white"/>
<path d="M1186.15 45.6237C1185.59 46.1894 1185.65 47.2392 1186.28 47.8733C1186.91 48.5074 1187.96 48.5673 1188.53 48.0016C1189.1 47.4359 1189.04 46.3861 1188.4 45.752C1187.7 45.1886 1186.72 45.058 1186.15 45.6237Z" fill="white"/>
<path d="M1110.49 121.284C1109.93 121.85 1109.99 122.9 1110.62 123.534C1111.25 124.168 1112.3 124.228 1112.87 123.662C1113.44 123.096 1113.38 122.047 1112.74 121.412C1112.11 120.778 1111.13 120.648 1110.49 121.284Z" fill="white"/>
<path d="M1034.9 196.874C1034.34 197.44 1034.4 198.489 1035.03 199.123C1035.66 199.758 1036.71 199.817 1037.28 199.252C1037.85 198.686 1037.79 197.636 1037.15 197.002C1036.52 196.368 1035.54 196.238 1034.9 196.874Z" fill="white"/>
<path d="M1080.3 151.478C1079.73 152.043 1079.79 153.093 1080.43 153.727C1081.06 154.361 1082.11 154.421 1082.68 153.856C1083.24 153.29 1083.18 152.24 1082.55 151.606C1081.91 150.972 1080.86 150.912 1080.3 151.478Z" fill="white"/>
<path d="M1216.35 15.4302C1215.78 15.9959 1215.84 17.0457 1216.47 17.6798C1217.11 18.3139 1218.16 18.3738 1218.72 17.8081C1219.29 17.2424 1219.23 16.1926 1218.6 15.5585C1217.96 14.9244 1216.91 14.8646 1216.35 15.4302Z" fill="white"/>
<path d="M1050.03 181.742C1049.47 182.308 1049.53 183.357 1050.16 183.991C1050.8 184.626 1051.85 184.685 1052.41 184.12C1052.98 183.554 1052.92 182.504 1052.28 181.87C1051.65 181.236 1050.6 181.176 1050.03 181.742Z" fill="white"/>
<path d="M1155.89 75.8879C1155.32 76.4536 1155.38 77.5034 1156.02 78.1375C1156.65 78.7716 1157.7 78.8315 1158.27 78.2658C1158.83 77.7001 1158.77 76.6503 1158.14 76.0162C1157.5 75.3821 1156.45 75.3223 1155.89 75.8879Z" fill="white"/>
<path d="M1231.48 0.298226C1230.91 0.863912 1230.97 1.91372 1231.61 2.54781C1232.24 3.1819 1233.29 3.24176 1233.86 2.67607C1234.42 2.11039 1234.36 1.06058 1233.73 0.42649C1233.09 -0.207603 1232.04 -0.267459 1231.48 0.298226Z" fill="white"/>
<path d="M1004.71 227.067C1004.14 227.633 1004.2 228.683 1004.84 229.317C1005.47 229.951 1006.52 230.011 1007.09 229.445C1007.65 228.88 1007.59 227.83 1006.96 227.196C1006.32 226.562 1005.27 226.502 1004.71 227.067Z" fill="white"/>
<path d="M1201.21 30.5624C1200.65 31.1281 1200.71 32.1779 1201.34 32.812C1201.98 33.4461 1203.03 33.506 1203.59 32.9403C1204.16 32.3746 1204.1 31.3248 1203.46 30.6907C1202.83 30.0566 1201.85 29.9261 1201.21 30.5624Z" fill="white"/>
<path d="M1171.02 60.7559C1170.45 61.3216 1170.51 62.3714 1171.15 63.0055C1171.78 63.6395 1172.83 63.6994 1173.4 63.1337C1173.96 62.568 1173.9 61.5182 1173.27 60.8841C1172.64 60.25 1171.59 60.1902 1171.02 60.7559Z" fill="white"/>
<path d="M1140.76 91.02C1140.19 91.5857 1140.25 92.6355 1140.88 93.2696C1141.52 93.9036 1142.57 93.9635 1143.13 93.3978C1143.7 92.8321 1143.64 91.7823 1143.01 91.1482C1142.37 90.5141 1141.32 90.4543 1140.76 91.02Z" fill="white"/>
<path d="M989.576 242.199C989.293 242.482 989.169 242.924 989.116 243.294C989.212 243.673 989.388 244.132 989.705 244.449C990.022 244.766 990.48 244.942 990.859 245.038C991.309 245.064 991.671 244.86 991.954 244.577C992.237 244.294 992.361 243.853 992.415 243.482C992.319 243.103 992.143 242.645 991.826 242.328C991.509 242.011 991.05 241.835 990.671 241.739C990.3 241.792 989.859 241.917 989.576 242.199Z" fill="white"/>
<path d="M989.49 211.849C988.925 212.415 988.984 213.465 989.618 214.099C990.253 214.733 991.302 214.793 991.868 214.227C992.434 213.661 992.374 212.611 991.74 211.977C991.026 211.264 990.056 211.283 989.49 211.849Z" fill="white"/>
<path d="M1004.62 196.717C1004.06 197.283 1004.12 198.333 1004.75 198.967C1005.38 199.601 1006.43 199.661 1007 199.095C1007.57 198.529 1007.51 197.479 1006.87 196.845C1006.16 196.132 1005.19 196.151 1004.62 196.717Z" fill="white"/>
<path d="M1019.68 181.656C1019.12 182.221 1019.18 183.271 1019.81 183.905C1020.45 184.539 1021.5 184.599 1022.06 184.033C1022.63 183.468 1022.57 182.418 1021.93 181.784C1021.22 181.071 1020.32 181.019 1019.68 181.656Z" fill="white"/>
<path d="M1034.82 166.524C1034.25 167.089 1034.31 168.139 1034.94 168.773C1035.58 169.407 1036.63 169.467 1037.19 168.901C1037.76 168.336 1037.7 167.286 1037.07 166.652C1036.35 165.939 1035.38 165.958 1034.82 166.524Z" fill="white"/>
<path d="M1049.95 151.391C1049.38 151.957 1049.44 153.007 1050.08 153.641C1050.71 154.275 1051.76 154.335 1052.33 153.769C1052.89 153.204 1052.83 152.154 1052.2 151.52C1051.48 150.806 1050.51 150.826 1049.95 151.391Z" fill="white"/>
<path d="M1080.21 121.127C1079.65 121.693 1079.71 122.743 1080.34 123.377C1080.97 124.011 1082.02 124.071 1082.59 123.505C1083.16 122.94 1083.1 121.89 1082.46 121.256C1081.75 120.542 1080.78 120.562 1080.21 121.127Z" fill="white"/>
<path d="M1155.8 45.5375C1155.24 46.1032 1155.3 47.153 1155.93 47.7871C1156.56 48.4212 1157.61 48.4811 1158.18 47.9154C1158.75 47.3497 1158.69 46.2999 1158.05 45.6658C1157.34 44.9525 1156.37 44.9719 1155.8 45.5375Z" fill="white"/>
<path d="M1140.67 60.6697C1140.1 61.2354 1140.16 62.2852 1140.8 62.9193C1141.43 63.5534 1142.48 63.6133 1143.05 63.0476C1143.61 62.4819 1143.55 61.4321 1142.92 60.798C1142.21 60.0847 1141.24 60.1041 1140.67 60.6697Z" fill="white"/>
<path d="M1170.93 30.4055C1170.37 30.9712 1170.43 32.021 1171.06 32.6551C1171.7 33.2892 1172.75 33.3491 1173.31 32.7834C1173.88 32.2177 1173.82 31.1679 1173.18 30.5338C1172.4 29.8911 1171.5 29.8398 1170.93 30.4055Z" fill="white"/>
<path d="M1201.13 0.212045C1200.56 0.77773 1200.62 1.82754 1201.26 2.46163C1201.89 3.09572 1202.94 3.15558 1203.51 2.58989C1204.07 2.02421 1204.01 0.974403 1203.38 0.340309C1202.66 -0.373045 1201.69 -0.353641 1201.13 0.212045Z" fill="white"/>
<path d="M1186 15.3442C1185.43 15.9099 1185.49 16.9597 1186.12 17.5938C1186.76 18.2279 1187.81 18.2877 1188.37 17.722C1188.94 17.1564 1188.88 16.1065 1188.24 15.4725C1187.53 14.7591 1186.63 14.7078 1186 15.3442Z" fill="white"/>
<path d="M1065.08 136.259C1064.51 136.825 1064.57 137.875 1065.21 138.509C1065.84 139.143 1066.89 139.203 1067.46 138.637C1068.02 138.072 1067.96 137.022 1067.33 136.388C1066.62 135.674 1065.65 135.694 1065.08 136.259Z" fill="white"/>
<path d="M1110.41 90.9339C1109.84 91.4996 1109.9 92.5494 1110.53 93.1835C1111.17 93.8176 1112.22 93.8774 1112.78 93.3118C1113.35 92.7461 1113.29 91.6963 1112.66 91.0622C1111.94 90.3488 1111.04 90.2975 1110.41 90.9339Z" fill="white"/>
<path d="M1095.27 106.066C1094.71 106.632 1094.77 107.681 1095.4 108.316C1096.04 108.95 1097.09 109.01 1097.65 108.444C1098.22 107.878 1098.16 106.828 1097.52 106.194C1096.81 105.481 1095.91 105.43 1095.27 106.066Z" fill="white"/>
<path d="M1125.54 75.8018C1124.97 76.3675 1125.03 77.4173 1125.67 78.0514C1126.3 78.6854 1127.35 78.7453 1127.92 78.1796C1128.48 77.6139 1128.42 76.5641 1127.79 75.93C1127.07 75.2167 1126.1 75.2361 1125.54 75.8018Z" fill="white"/>
<path d="M974.358 226.981C974.075 227.264 973.951 227.705 973.897 228.076C973.994 228.455 974.169 228.914 974.407 229.152C974.724 229.469 975.183 229.644 975.562 229.741C976.012 229.766 976.374 229.563 976.657 229.28C976.94 228.997 977.064 228.556 977.118 228.185C977.021 227.806 976.846 227.347 976.528 227.03C976.211 226.713 975.753 226.538 975.374 226.441C975.003 226.495 974.641 226.698 974.358 226.981Z" fill="white"/>
<path d="M974.193 196.552C973.627 197.117 973.687 198.167 974.321 198.801C974.955 199.435 976.005 199.495 976.571 198.929C977.136 198.364 977.076 197.314 976.442 196.68C975.808 196.046 974.758 195.986 974.193 196.552Z" fill="white"/>
<path d="M1110.24 60.5043C1109.67 61.07 1109.73 62.1198 1110.37 62.7539C1111 63.388 1112.05 63.4478 1112.62 62.8821C1113.18 62.3164 1113.12 61.2666 1112.49 60.6325C1111.86 59.9985 1110.81 59.9386 1110.24 60.5043Z" fill="white"/>
<path d="M1079.98 90.7684C1079.41 91.3341 1079.47 92.3839 1080.1 93.018C1080.74 93.6521 1081.79 93.712 1082.35 93.1463C1082.92 92.5806 1082.86 91.5308 1082.23 90.8967C1081.59 90.2626 1080.61 90.132 1079.98 90.7684Z" fill="white"/>
<path d="M1019.52 151.226C1018.95 151.792 1019.01 152.842 1019.65 153.476C1020.28 154.11 1021.33 154.17 1021.9 153.604C1022.46 153.038 1022.4 151.988 1021.77 151.354C1021.13 150.72 1020.08 150.66 1019.52 151.226Z" fill="white"/>
<path d="M1095.11 75.6364C1094.54 76.202 1094.6 77.2519 1095.24 77.8859C1095.87 78.52 1096.92 78.5799 1097.49 78.0142C1098.05 77.4485 1097.99 76.3987 1097.36 75.7646C1096.72 75.1305 1095.74 75 1095.11 75.6364Z" fill="white"/>
<path d="M1049.78 120.962C1049.22 121.528 1049.28 122.577 1049.91 123.212C1050.54 123.846 1051.59 123.905 1052.16 123.34C1052.73 122.774 1052.67 121.724 1052.03 121.09C1051.4 120.456 1050.35 120.396 1049.78 120.962Z" fill="white"/>
<path d="M1064.91 105.83C1064.35 106.396 1064.41 107.445 1065.04 108.079C1065.68 108.714 1066.73 108.773 1067.29 108.208C1067.86 107.642 1067.8 106.592 1067.16 105.958C1066.53 105.324 1065.48 105.264 1064.91 105.83Z" fill="white"/>
<path d="M1034.65 136.094C1034.08 136.66 1034.14 137.709 1034.78 138.344C1035.41 138.978 1036.46 139.038 1037.03 138.472C1037.59 137.906 1037.53 136.856 1036.9 136.222C1036.27 135.588 1035.22 135.528 1034.65 136.094Z" fill="white"/>
<path d="M1125.37 45.3722C1124.81 45.9379 1124.87 46.9877 1125.5 47.6218C1126.13 48.2559 1127.18 48.3157 1127.75 47.7501C1128.32 47.1844 1128.26 46.1346 1127.62 45.5005C1126.99 44.8664 1125.94 44.8065 1125.37 45.3722Z" fill="white"/>
<path d="M1170.7 0.0466396C1170.13 0.612325 1170.19 1.66213 1170.83 2.29622C1171.46 2.93032 1172.51 2.99017 1173.08 2.42449C1173.64 1.8588 1173.58 0.808997 1172.95 0.174904C1172.31 -0.459189 1171.33 -0.589757 1170.7 0.0466396Z" fill="white"/>
<path d="M1155.64 15.108C1155.07 15.6737 1155.13 16.7235 1155.76 17.3576C1156.4 17.9917 1157.45 18.0516 1158.01 17.4859C1158.58 16.9202 1158.52 15.8704 1157.89 15.2363C1157.25 14.6022 1156.2 14.5424 1155.64 15.108Z" fill="white"/>
<path d="M989.325 181.42C988.759 181.985 988.819 183.035 989.453 183.669C990.087 184.303 991.066 184.434 991.703 183.797C992.268 183.232 992.208 182.182 991.574 181.548C990.94 180.914 989.891 180.854 989.325 181.42Z" fill="white"/>
<path d="M1140.5 30.2401C1139.94 30.8058 1140 31.8556 1140.63 32.4897C1141.27 33.1238 1142.32 33.1837 1142.88 32.618C1143.45 32.0523 1143.39 31.0025 1142.75 30.3684C1142.12 29.7343 1141.07 29.6744 1140.5 30.2401Z" fill="white"/>
<path d="M1004.39 166.358C1003.82 166.924 1003.88 167.974 1004.51 168.608C1005.15 169.242 1006.2 169.302 1006.76 168.736C1007.33 168.17 1007.27 167.121 1006.64 166.486C1006 165.852 1005.02 165.722 1004.39 166.358Z" fill="white"/>
<path d="M959.061 211.684C958.778 211.967 958.653 212.408 958.6 212.779C958.696 213.158 958.872 213.616 959.189 213.933C959.506 214.25 959.964 214.426 960.344 214.522C960.714 214.469 961.156 214.344 961.439 214.062C961.721 213.779 961.846 213.337 961.899 212.967C961.803 212.588 961.627 212.129 961.31 211.812C960.993 211.495 960.535 211.319 960.156 211.223C959.785 211.277 959.344 211.401 959.061 211.684Z" fill="white"/>
</g>
<path d="M1207.5 555C1235.39 555 1258 532.167 1258 504C1258 475.834 1235.39 453 1207.5 453C1179.61 453 1157 475.834 1157 504C1157 532.167 1179.61 555 1207.5 555Z" fill="url(#paint0_radial_191_1029)"/>
<path d="M1207.5 555C1235.39 555 1258 532.167 1258 504C1258 475.834 1235.39 453 1207.5 453C1179.61 453 1157 475.834 1157 504C1157 532.167 1179.61 555 1207.5 555Z" fill="url(#paint1_radial_191_1029)"/>
<path d="M1207.5 555C1235.39 555 1258 532.167 1258 504C1258 475.834 1235.39 453 1207.5 453C1179.61 453 1157 475.834 1157 504C1157 532.167 1179.61 555 1207.5 555Z" fill="url(#paint2_radial_191_1029)"/>
<path d="M1207.5 555C1235.39 555 1258 532.167 1258 504C1258 475.834 1235.39 453 1207.5 453C1179.61 453 1157 475.834 1157 504C1157 532.167 1179.61 555 1207.5 555Z" fill="url(#paint3_radial_191_1029)"/>
<path d="M1207.5 555C1235.39 555 1258 532.167 1258 504C1258 475.834 1235.39 453 1207.5 453C1179.61 453 1157 475.834 1157 504C1157 532.167 1179.61 555 1207.5 555Z" fill="url(#paint4_radial_191_1029)"/>
<path d="M1207.5 555C1235.39 555 1258 532.167 1258 504C1258 475.834 1235.39 453 1207.5 453C1179.61 453 1157 475.834 1157 504C1157 532.167 1179.61 555 1207.5 555Z" fill="url(#paint5_radial_191_1029)"/>
<path d="M1207.5 555C1235.39 555 1258 532.167 1258 504C1258 475.834 1235.39 453 1207.5 453C1179.61 453 1157 475.834 1157 504C1157 532.167 1179.61 555 1207.5 555Z" fill="url(#paint6_radial_191_1029)"/>
<path d="M1207.5 555C1235.39 555 1258 532.167 1258 504C1258 475.834 1235.39 453 1207.5 453C1179.61 453 1157 475.834 1157 504C1157 532.167 1179.61 555 1207.5 555Z" fill="url(#paint7_radial_191_1029)"/>
<path d="M834.5 504C862.39 504 885 481.167 885 453C885 424.834 862.39 402 834.5 402C806.61 402 784 424.834 784 453C784 481.167 806.61 504 834.5 504Z" fill="url(#paint8_radial_191_1029)"/>
<path d="M834.5 504C862.39 504 885 481.167 885 453C885 424.834 862.39 402 834.5 402C806.61 402 784 424.834 784 453C784 481.167 806.61 504 834.5 504Z" fill="url(#paint9_radial_191_1029)"/>
<path d="M834.5 504C862.39 504 885 481.167 885 453C885 424.834 862.39 402 834.5 402C806.61 402 784 424.834 784 453C784 481.167 806.61 504 834.5 504Z" fill="url(#paint10_radial_191_1029)"/>
<path d="M834.5 504C862.39 504 885 481.167 885 453C885 424.834 862.39 402 834.5 402C806.61 402 784 424.834 784 453C784 481.167 806.61 504 834.5 504Z" fill="url(#paint11_radial_191_1029)"/>
<path d="M834.5 504C862.39 504 885 481.167 885 453C885 424.834 862.39 402 834.5 402C806.61 402 784 424.834 784 453C784 481.167 806.61 504 834.5 504Z" fill="url(#paint12_radial_191_1029)"/>
<path d="M834.5 504C862.39 504 885 481.167 885 453C885 424.834 862.39 402 834.5 402C806.61 402 784 424.834 784 453C784 481.167 806.61 504 834.5 504Z" fill="url(#paint13_radial_191_1029)"/>
<path d="M834.5 504C862.39 504 885 481.167 885 453C885 424.834 862.39 402 834.5 402C806.61 402 784 424.834 784 453C784 481.167 806.61 504 834.5 504Z" fill="url(#paint14_radial_191_1029)"/>
<path d="M834.5 504C862.39 504 885 481.167 885 453C885 424.834 862.39 402 834.5 402C806.61 402 784 424.834 784 453C784 481.167 806.61 504 834.5 504Z" fill="url(#paint15_radial_191_1029)"/>
<path d="M1161 483.337C1170.39 483.337 1178 475.65 1178 466.168C1178 456.687 1170.39 449 1161 449C1151.61 449 1144 456.687 1144 466.168C1144 475.65 1151.61 483.337 1161 483.337Z" fill="url(#paint16_radial_191_1029)"/>
<path d="M1161 483.337C1170.39 483.337 1178 475.65 1178 466.168C1178 456.687 1170.39 449 1161 449C1151.61 449 1144 456.687 1144 466.168C1144 475.65 1151.61 483.337 1161 483.337Z" fill="url(#paint17_radial_191_1029)"/>
<path d="M1161 483.337C1170.39 483.337 1178 475.65 1178 466.168C1178 456.687 1170.39 449 1161 449C1151.61 449 1144 456.687 1144 466.168C1144 475.65 1151.61 483.337 1161 483.337Z" fill="url(#paint18_radial_191_1029)"/>
<path d="M1161 483.337C1170.39 483.337 1178 475.65 1178 466.168C1178 456.687 1170.39 449 1161 449C1151.61 449 1144 456.687 1144 466.168C1144 475.65 1151.61 483.337 1161 483.337Z" fill="url(#paint19_radial_191_1029)"/>
<path d="M1161 483.337C1170.39 483.337 1178 475.65 1178 466.168C1178 456.687 1170.39 449 1161 449C1151.61 449 1144 456.687 1144 466.168C1144 475.65 1151.61 483.337 1161 483.337Z" fill="url(#paint20_radial_191_1029)"/>
<path d="M1161 483.337C1170.39 483.337 1178 475.65 1178 466.168C1178 456.687 1170.39 449 1161 449C1151.61 449 1144 456.687 1144 466.168C1144 475.65 1151.61 483.337 1161 483.337Z" fill="url(#paint21_radial_191_1029)"/>
<path d="M1161 483.337C1170.39 483.337 1178 475.65 1178 466.168C1178 456.687 1170.39 449 1161 449C1151.61 449 1144 456.687 1144 466.168C1144 475.65 1151.61 483.337 1161 483.337Z" fill="url(#paint22_radial_191_1029)"/>
<path d="M1161 483.337C1170.39 483.337 1178 475.65 1178 466.168C1178 456.687 1170.39 449 1161 449C1151.61 449 1144 456.687 1144 466.168C1144 475.65 1151.61 483.337 1161 483.337Z" fill="url(#paint23_radial_191_1029)"/>
<path d="M1133.74 536.887C1133.74 537.859 1133.74 538.832 1133.74 539.804C1133.74 539.804 1133.74 540.129 1133.74 540.453C1133.74 541.425 1133.42 542.398 1133.09 543.371V543.695C1132.77 544.667 1132.44 545.964 1132.12 546.937C1132.12 547.261 1132.12 547.585 1131.8 547.585C1131.47 548.882 1130.82 549.854 1130.5 551.151C1130.5 551.151 1130.5 551.475 1130.18 551.475C1129.85 552.448 1129.2 553.744 1128.55 555.041C1128.55 555.365 1128.23 555.365 1128.23 555.69C1127.58 556.986 1126.93 558.283 1125.96 559.58C1125.96 559.904 1125.64 560.228 1125.31 560.552C1124.34 561.849 1123.69 563.146 1122.72 564.767C1099.7 598.157 1045.56 638.68 983.645 671.747C967.436 680.176 950.903 688.28 934.045 695.736C923.671 700.275 913.298 704.489 902.924 708.38C896.116 710.973 889.308 713.242 882.824 715.512C880.231 716.484 877.313 717.132 874.72 718.105C874.071 718.429 873.423 718.429 872.451 718.753C870.181 719.402 867.912 720.05 865.643 720.699C865.318 720.699 864.994 721.023 864.346 721.023C862.077 721.671 859.807 722.319 857.538 722.968C857.214 722.968 857.214 722.968 856.89 722.968C856.241 723.292 855.593 723.292 854.945 723.616C853 724.264 851.054 724.589 849.109 725.237C848.461 725.237 848.137 725.561 847.488 725.561C845.219 726.21 842.95 726.534 840.681 727.182C840.356 727.182 839.708 727.506 839.384 727.506C837.439 727.831 835.818 728.155 833.873 728.803C833.224 728.803 832.9 729.127 832.252 729.127C831.279 729.451 830.631 729.451 829.658 729.451C828.362 729.776 827.065 729.776 825.768 730.1C825.444 730.1 825.12 730.1 824.796 730.1C822.851 730.424 821.23 730.748 819.285 730.748C818.636 730.748 818.312 730.748 817.664 731.072C815.719 731.396 813.773 731.396 811.828 731.721C809.883 732.045 807.938 732.045 806.317 732.045C805.993 732.045 805.345 732.045 805.021 732.045C803.4 732.045 802.103 732.045 800.482 732.369C800.158 732.369 799.834 732.369 799.509 732.369C797.888 732.369 796.268 732.369 794.647 732.369C794.322 732.369 793.998 732.369 793.35 732.369C792.053 732.369 790.756 732.369 789.784 732.045C789.46 732.045 789.136 732.045 788.811 732.045C787.191 732.045 785.894 731.721 784.597 731.721C784.273 731.721 783.949 731.721 783.624 731.721C782.652 731.396 781.355 731.396 780.383 731.072C780.058 731.072 779.734 731.072 779.41 730.748C778.113 730.424 776.817 730.1 775.844 729.776H775.52C774.547 729.451 773.575 729.127 772.602 728.803C772.278 728.803 771.954 728.479 771.63 728.479C770.657 728.155 769.685 727.506 768.712 727.182C767.74 726.534 767.091 726.21 766.119 725.561L765.47 725.237C764.822 724.913 764.173 724.264 763.525 723.616L763.201 723.292C762.553 722.644 761.904 721.995 761.256 721.347C761.256 721.347 760.932 721.023 760.932 720.699C760.608 720.05 759.959 719.402 759.635 719.078C759.635 718.753 759.311 718.753 759.311 718.429C754.772 710 757.366 697.682 768.064 681.797C783.3 659.752 812.153 634.466 847.813 610.152C864.346 599.13 882.5 588.108 901.303 577.734C912.001 571.899 923.023 566.063 934.369 560.876C950.254 553.42 966.463 546.288 982.348 540.129C990.777 536.887 999.206 533.645 1007.63 531.052C1009.26 530.403 1010.88 530.079 1012.5 529.431C1028.38 524.244 1042.97 520.678 1055.94 518.084C1098.41 509.656 1125.64 514.518 1131.47 530.403V530.727C1131.8 531.7 1132.12 532.348 1132.12 533.321C1132.12 534.293 1132.45 535.266 1132.45 536.239C1133.74 536.563 1133.74 536.563 1133.74 536.887Z" fill="url(#paint24_linear_191_1029)"/>
<path d="M1143.46 551.151L1131.79 528.458C1132.12 529.106 1132.44 529.755 1132.77 530.403C1132.77 530.403 1132.77 530.727 1133.09 531.052C1133.41 532.024 1133.74 532.673 1133.74 533.645C1133.74 534.618 1134.06 535.59 1134.06 536.563C1134.06 536.887 1134.06 536.887 1134.06 537.211C1134.06 538.184 1134.06 539.156 1134.06 540.129C1134.06 540.453 1134.06 540.453 1134.06 540.777C1134.06 541.75 1133.74 542.722 1133.41 543.695V544.019C1133.09 544.992 1132.77 546.288 1132.44 547.261C1132.44 547.585 1132.44 547.909 1132.12 547.909C1131.79 549.206 1131.15 550.178 1130.82 551.475C1130.82 551.475 1130.82 551.799 1130.5 551.799C1129.85 553.096 1129.52 554.069 1128.88 555.365C1128.88 555.69 1128.55 555.689 1128.55 556.014C1127.9 557.31 1127.26 558.607 1126.28 559.904C1125.96 560.228 1125.96 560.552 1125.63 560.876C1124.66 562.173 1124.01 563.47 1123.04 565.091C1088.35 615.988 980.725 683.418 883.146 715.836C880.552 716.808 877.634 717.457 875.041 718.429C874.393 718.753 873.744 718.753 872.772 719.078C870.502 719.726 868.233 720.374 865.964 721.023C865.64 721.023 865.316 721.347 864.667 721.347C862.074 721.995 859.804 722.644 857.211 723.292C856.563 723.616 855.914 723.616 855.266 723.94C853.321 724.589 851.376 724.913 849.431 725.561C848.782 725.561 848.458 725.885 847.81 725.885C845.54 726.534 843.271 726.858 841.002 727.506C840.353 727.506 840.029 727.83 839.705 727.83C837.76 728.155 836.139 728.479 834.194 728.803C833.546 728.803 833.221 729.127 832.573 729.127C830.304 729.451 828.359 729.776 826.089 730.1C825.765 730.1 825.441 730.1 825.117 730.1C823.172 730.424 821.551 730.748 819.606 730.748C818.957 730.748 818.633 730.748 817.985 731.072C816.04 731.396 814.095 731.397 812.15 731.721C810.204 732.045 808.259 732.045 806.638 732.045C806.314 732.045 805.666 732.045 805.342 732.045C803.721 732.045 802.424 732.045 800.803 732.369C800.479 732.369 800.155 732.369 799.831 732.369C798.21 732.369 796.589 732.369 794.968 732.369C794.644 732.369 794.32 732.369 793.671 732.369C792.374 732.369 791.078 732.369 789.781 732.045C789.457 732.045 789.133 732.045 788.808 732.045C787.188 732.045 785.891 731.721 784.594 731.721C784.27 731.721 783.946 731.721 783.622 731.721C782.649 731.397 781.352 731.396 780.38 731.072C780.055 731.072 779.731 731.072 779.407 730.748C778.11 730.424 776.814 730.1 775.841 729.776H775.517C774.544 729.451 773.572 729.127 772.599 728.803C772.275 728.803 771.951 728.479 771.627 728.479C770.654 728.155 769.682 727.506 768.709 727.182C767.737 726.858 767.088 726.21 766.116 725.561C765.791 725.561 765.791 725.237 765.467 725.237C764.819 724.913 764.171 724.265 763.522 723.616L763.198 723.292C762.55 722.644 761.901 721.995 761.253 721.347C761.253 721.023 760.929 721.023 760.929 720.699C760.605 720.05 759.956 719.402 759.632 719.078C759.632 718.753 759.308 718.753 759.308 718.429V718.105L770.978 740.798C780.704 759.925 826.089 760.249 893.844 737.88C991.423 705.462 1099.05 638.032 1133.74 587.135C1145.09 571.899 1147.68 559.58 1143.46 551.151Z" fill="url(#paint25_linear_191_1029)"/>
<path d="M813.775 697.357C848.138 680.176 873.1 660.076 869.21 652.296C865.32 644.84 834.522 652.62 799.835 669.802C765.471 686.984 740.509 707.083 744.4 714.863C748.29 722.319 779.411 714.539 813.775 697.357Z" fill="url(#paint26_radial_191_1029)"/>
<path d="M1050.18 505.396C1050.18 506.05 1050.18 506.704 1050.18 507.359C1050.18 507.359 1050.18 507.577 1050.18 507.795C1050.18 508.449 1049.96 509.103 1049.74 509.758V509.976C1049.53 510.63 1049.31 511.502 1049.09 512.156C1049.09 512.375 1049.09 512.593 1048.87 512.593C1048.65 513.465 1048.22 514.119 1048 514.991C1048 514.991 1048 515.21 1047.78 515.21C1047.56 515.864 1047.13 516.736 1046.69 517.608C1046.69 517.826 1046.47 517.827 1046.47 518.045C1046.04 518.917 1045.6 519.789 1044.95 520.661C1044.95 520.88 1044.73 521.098 1044.51 521.316C1043.86 522.188 1043.42 523.06 1042.77 524.151C1027.28 546.613 990.863 573.873 949.21 596.117C938.306 601.787 927.184 607.239 915.844 612.254C908.866 615.307 901.887 618.142 894.909 620.759C890.329 622.504 885.749 624.031 881.388 625.557C879.643 626.211 877.681 626.647 875.936 627.302C875.5 627.52 875.064 627.52 874.409 627.738C872.883 628.174 871.356 628.61 869.83 629.046C869.612 629.046 869.394 629.264 868.957 629.264C867.431 629.701 865.904 630.137 864.378 630.573C864.16 630.573 864.16 630.573 863.942 630.573C863.505 630.791 863.069 630.791 862.633 631.009C861.325 631.445 860.016 631.663 858.708 632.099C858.272 632.099 858.053 632.318 857.617 632.318C856.091 632.754 854.564 632.972 853.038 633.408C852.82 633.408 852.383 633.626 852.165 633.626C850.857 633.844 849.767 634.062 848.458 634.498C848.022 634.498 847.804 634.716 847.368 634.716C846.713 634.935 846.277 634.934 845.623 634.934C844.751 635.153 843.878 635.153 843.006 635.371C842.788 635.371 842.57 635.371 842.352 635.371C841.043 635.589 839.953 635.807 838.645 635.807C838.208 635.807 837.99 635.807 837.554 636.025C836.246 636.243 834.937 636.243 833.629 636.461C832.32 636.679 831.012 636.679 829.921 636.679C829.703 636.679 829.267 636.679 829.049 636.679C827.959 636.679 827.086 636.679 825.996 636.897C825.778 636.897 825.56 636.897 825.342 636.897C824.251 636.897 823.161 636.897 822.071 636.897C821.853 636.897 821.634 636.897 821.198 636.897C820.326 636.897 819.454 636.897 818.799 636.679C818.581 636.679 818.363 636.679 818.145 636.679C817.055 636.679 816.182 636.461 815.31 636.461C815.092 636.461 814.874 636.461 814.656 636.461C814.002 636.243 813.129 636.243 812.475 636.025C812.257 636.025 812.039 636.025 811.821 635.807C810.949 635.589 810.076 635.371 809.422 635.153H809.204C808.55 634.934 807.896 634.716 807.241 634.498C807.023 634.498 806.805 634.28 806.587 634.28C805.933 634.062 805.279 633.626 804.624 633.408C803.97 632.972 803.534 632.754 802.88 632.318L802.444 632.099C802.007 631.881 801.571 631.445 801.135 631.009L800.917 630.791C800.481 630.355 800.045 629.919 799.609 629.483C799.609 629.483 799.39 629.264 799.39 629.046C799.172 628.61 798.736 628.174 798.518 627.956C798.518 627.738 798.3 627.738 798.3 627.52C795.247 621.85 796.992 613.563 804.188 602.877C814.438 588.048 833.847 571.038 857.835 554.682C868.957 547.267 881.17 539.852 893.818 532.874C901.015 528.948 908.43 525.023 916.062 521.534C926.748 516.518 937.652 511.72 948.338 507.577C954.008 505.396 959.678 503.215 965.348 501.471C966.438 501.034 967.529 500.816 968.619 500.38C979.305 496.891 989.118 494.492 997.842 492.748C1026.41 487.077 1044.73 490.349 1048.65 501.034V501.253C1048.87 501.907 1049.09 502.343 1049.09 502.997C1049.09 503.651 1049.31 504.306 1049.31 504.96C1050.18 505.178 1050.18 505.178 1050.18 505.396Z" fill="url(#paint27_linear_191_1029)"/>
<path d="M1056.72 514.991L1048.87 499.726C1049.09 500.162 1049.31 500.598 1049.52 501.034C1049.52 501.034 1049.52 501.253 1049.74 501.471C1049.96 502.125 1050.18 502.561 1050.18 503.215C1050.18 503.869 1050.4 504.524 1050.4 505.178C1050.4 505.396 1050.4 505.396 1050.4 505.614C1050.4 506.268 1050.4 506.923 1050.4 507.577C1050.4 507.795 1050.4 507.795 1050.4 508.013C1050.4 508.667 1050.18 509.321 1049.96 509.976V510.194C1049.74 510.848 1049.52 511.72 1049.31 512.375C1049.31 512.593 1049.31 512.811 1049.09 512.811C1048.87 513.683 1048.43 514.337 1048.22 515.21C1048.22 515.21 1048.22 515.428 1048 515.428C1047.56 516.3 1047.34 516.954 1046.91 517.827C1046.91 518.045 1046.69 518.045 1046.69 518.263C1046.25 519.135 1045.82 520.007 1045.16 520.88C1044.94 521.098 1044.94 521.316 1044.73 521.534C1044.07 522.406 1043.64 523.278 1042.98 524.369C1019.65 558.607 947.246 603.967 881.604 625.775C879.859 626.429 877.897 626.866 876.152 627.52C875.716 627.738 875.28 627.738 874.626 627.956C873.099 628.392 871.572 628.828 870.046 629.265C869.828 629.265 869.61 629.483 869.174 629.483C867.429 629.919 865.902 630.355 864.158 630.791C863.722 631.009 863.285 631.009 862.849 631.227C861.541 631.663 860.232 631.881 858.924 632.318C858.488 632.318 858.27 632.536 857.833 632.536C856.307 632.972 854.78 633.19 853.254 633.626C852.818 633.626 852.6 633.844 852.382 633.844C851.073 634.062 849.983 634.28 848.674 634.498C848.238 634.498 848.02 634.716 847.584 634.716C846.057 634.935 844.749 635.153 843.222 635.371C843.004 635.371 842.786 635.371 842.568 635.371C841.26 635.589 840.169 635.807 838.861 635.807C838.425 635.807 838.206 635.807 837.77 636.025C836.462 636.243 835.153 636.243 833.845 636.461C832.536 636.679 831.228 636.679 830.138 636.679C829.92 636.679 829.483 636.679 829.265 636.679C828.175 636.679 827.303 636.679 826.212 636.897C825.994 636.897 825.776 636.897 825.558 636.897C824.468 636.897 823.377 636.897 822.287 636.897C822.069 636.897 821.851 636.897 821.414 636.897C820.542 636.897 819.67 636.897 818.797 636.679C818.579 636.679 818.361 636.679 818.143 636.679C817.053 636.679 816.181 636.461 815.308 636.461C815.09 636.461 814.872 636.461 814.654 636.461C814 636.243 813.127 636.243 812.473 636.025C812.255 636.025 812.037 636.025 811.819 635.807C810.947 635.589 810.074 635.371 809.42 635.153H809.202C808.548 634.934 807.894 634.716 807.239 634.498C807.021 634.498 806.803 634.28 806.585 634.28C805.931 634.062 805.277 633.626 804.622 633.408C803.968 633.19 803.532 632.754 802.878 632.318C802.66 632.318 802.66 632.1 802.442 632.1C802.005 631.881 801.569 631.445 801.133 631.009L800.915 630.791C800.479 630.355 800.043 629.919 799.607 629.483C799.607 629.264 799.389 629.264 799.389 629.046C799.17 628.61 798.734 628.174 798.516 627.956C798.516 627.738 798.298 627.738 798.298 627.52V627.302L806.149 642.567C812.691 655.434 843.222 655.652 888.801 640.605C954.442 618.797 1026.84 573.436 1050.18 539.198C1057.81 528.948 1059.56 520.661 1056.72 514.991Z" fill="url(#paint28_linear_191_1029)"/>
<path d="M834.938 613.345C858.054 601.787 874.846 588.266 872.229 583.032C869.612 578.016 848.895 583.25 825.56 594.808C802.444 606.366 785.652 619.887 788.269 625.121C790.886 630.137 811.821 624.903 834.938 613.345Z" fill="url(#paint29_radial_191_1029)"/>
<path d="M947.126 350.252C979.321 372.966 1010.73 384.027 1016.85 375.138C1023.17 366.25 1002.03 340.574 969.84 317.859C937.645 295.145 906.241 284.085 900.118 292.973C893.797 302.058 914.931 327.735 947.126 350.252Z" fill="url(#paint30_radial_191_1029)"/>
<path d="M1093.94 346.327C1093.94 345.932 1093.94 345.537 1093.94 345.142C1093.94 344.549 1093.94 343.759 1093.94 343.167C1093.94 342.772 1093.94 342.377 1093.74 341.784C1093.74 341.192 1093.54 340.599 1093.54 339.809C1093.54 339.414 1093.35 338.822 1093.35 338.427C1093.35 337.834 1093.15 337.241 1093.15 336.649C1093.15 336.254 1092.95 335.859 1092.95 335.266C1092.75 334.674 1092.75 334.081 1092.56 333.489C1092.56 333.094 1092.36 332.699 1092.36 332.106C1092.16 331.514 1092.16 330.921 1091.96 330.328C1091.77 329.933 1091.77 329.538 1091.57 329.143C1091.37 328.551 1091.17 327.958 1090.98 327.366C1090.78 326.971 1090.78 326.576 1090.58 326.378C1090.38 325.588 1090.19 324.996 1089.79 324.206C1089.79 324.008 1089.59 323.613 1089.59 323.415C1089.2 322.428 1088.8 321.638 1088.41 320.65C1088.41 320.453 1088.21 320.255 1088.21 320.058C1087.82 319.465 1087.62 318.675 1087.22 318.083C1087.03 317.688 1086.83 317.49 1086.63 317.095C1086.43 316.502 1086.04 315.91 1085.64 315.515C1085.45 315.12 1085.25 314.922 1085.05 314.527C1084.65 313.935 1084.46 313.54 1084.06 313.145C1083.86 312.75 1083.67 312.552 1083.47 312.157C1083.07 311.762 1082.88 311.17 1082.48 310.775C1082.28 310.38 1082.09 310.182 1081.69 309.787C1081.3 309.392 1081.1 308.997 1080.7 308.404C1080.51 308.009 1080.11 307.812 1079.91 307.417C1079.52 307.022 1079.12 306.627 1078.73 306.232C1078.53 306.034 1078.14 305.639 1077.94 305.442C1077.54 305.047 1077.15 304.652 1076.75 304.257C1076.56 304.059 1076.16 303.664 1075.96 303.467C1075.57 303.072 1074.98 302.677 1074.38 302.281C1074.19 302.084 1073.99 301.886 1073.79 301.689C1073 301.096 1072.21 300.504 1071.42 299.911L1071.22 299.714C1068.06 297.541 1064.51 295.764 1060.76 294.381C1058.39 293.591 1056.21 292.998 1053.65 292.406C1067.87 310.577 1070.04 340.204 1057 368.646C1040.41 404.989 1004.86 427.11 974.64 421.382C976.22 423.357 977.8 425.135 979.578 426.715C981.948 428.888 984.318 430.863 987.083 432.443C987.281 432.64 987.478 432.64 987.676 432.838C988.268 433.233 988.861 433.628 989.454 433.826C989.651 434.023 990.046 434.023 990.244 434.221C990.836 434.418 991.429 434.813 992.021 435.011C992.219 435.208 992.614 435.208 992.811 435.406C993.601 435.801 994.589 436.196 995.379 436.393C1026.78 447.651 1066.88 424.74 1084.66 385.632C1085.25 384.447 1085.64 383.262 1086.24 382.077C1086.43 381.682 1086.63 381.287 1086.63 380.892C1087.03 380.102 1087.22 379.312 1087.62 378.522C1087.82 378.127 1088.01 377.534 1088.01 377.139C1088.21 376.349 1088.61 375.757 1088.8 374.966C1089 374.571 1089.2 373.979 1089.2 373.584C1089.4 372.991 1089.59 372.201 1089.79 371.609C1089.99 371.016 1089.99 370.621 1090.19 370.029C1090.38 369.436 1090.58 368.646 1090.78 368.054C1090.98 367.461 1090.98 367.066 1091.17 366.473C1091.37 365.881 1091.37 365.091 1091.57 364.498C1091.57 364.103 1091.77 363.511 1091.77 363.116C1091.96 362.326 1091.96 361.733 1092.16 360.943C1092.16 360.548 1092.36 359.955 1092.36 359.56C1092.56 358.77 1092.56 357.98 1092.56 357.388C1092.56 356.993 1092.75 356.598 1092.75 356.203C1092.75 355.215 1092.95 354.425 1092.95 353.437C1092.95 353.24 1092.95 353.042 1092.95 352.845C1092.95 351.66 1093.15 350.672 1093.15 349.487C1093.15 349.092 1093.15 348.895 1093.15 348.5C1093.94 347.907 1093.94 347.117 1093.94 346.327Z" fill="url(#paint31_linear_191_1029)"/>
<path d="M1070.04 282.333C1070.43 282.53 1070.63 282.53 1071.02 282.728C1071.81 283.123 1072.41 283.32 1073.2 283.715C1073.59 283.913 1073.79 284.11 1074.18 284.11C1074.97 284.505 1075.57 284.9 1076.36 285.295C1076.55 285.493 1076.75 285.493 1076.95 285.69C1076.95 285.69 1077.15 285.69 1077.15 285.888L1049.3 268.704C1046.14 266.729 1042.78 265.149 1039.22 263.766L1067.07 280.95C1068.06 281.543 1069.05 281.938 1070.04 282.333Z" fill="#E6A2A1"/>
<path d="M1076.96 285.888C1076.76 285.69 1076.56 285.69 1076.36 285.493C1075.57 285.098 1074.98 284.703 1074.19 284.308C1073.8 284.11 1073.6 283.913 1073.2 283.913C1072.41 283.518 1071.82 283.32 1071.03 282.925C1070.64 282.728 1070.44 282.728 1070.04 282.53C1069.06 282.135 1068.07 281.74 1066.88 281.345C1029.75 268.112 982.149 295.171 960.818 341.587C960.225 342.969 959.633 344.352 959.04 345.734C958.843 346.129 958.645 346.722 958.448 347.117C958.052 348.105 957.657 348.895 957.46 349.882C957.262 350.475 957.065 351.067 956.867 351.462C956.472 352.252 956.275 353.24 956.077 354.03C955.88 354.623 955.682 355.215 955.485 355.808C955.287 356.598 954.892 357.388 954.695 358.178C954.497 358.77 954.3 359.363 954.3 359.955C954.102 360.745 953.905 361.535 953.707 362.326C953.51 362.918 953.51 363.511 953.312 364.103C953.115 364.893 952.917 365.683 952.72 366.473C952.522 367.066 952.522 367.658 952.325 368.251C952.127 369.041 952.127 369.831 951.93 370.621C951.93 371.214 951.732 371.806 951.732 372.201C951.535 372.991 951.535 373.979 951.337 374.769C951.337 375.164 951.139 375.756 951.139 376.151C950.942 377.337 950.942 378.324 950.942 379.509C950.942 379.707 950.942 379.904 950.942 380.299C950.942 381.682 950.745 382.867 950.745 384.25C950.745 384.645 950.745 385.04 950.745 385.435C950.745 386.422 950.745 387.212 950.745 388.2C950.745 388.792 950.745 389.187 950.745 389.582C950.745 390.372 950.745 391.162 950.942 391.953C950.942 392.545 950.942 392.94 951.139 393.533C951.139 394.323 951.337 395.113 951.337 395.705C951.337 396.298 951.535 396.693 951.535 397.285C951.535 398.076 951.732 398.668 951.93 399.458C951.93 400.051 952.127 400.446 952.127 401.038C952.325 401.828 952.325 402.421 952.522 403.211C952.72 403.803 952.72 404.198 952.917 404.791C953.115 405.581 953.312 406.174 953.51 406.964C953.707 407.359 953.707 407.951 953.905 408.346C954.102 409.136 954.3 409.729 954.497 410.519C954.695 410.914 954.695 411.309 954.892 411.704C955.09 412.494 955.485 413.284 955.682 414.272C955.88 414.469 955.88 414.864 956.077 415.062C956.472 416.247 956.867 417.234 957.46 418.419C957.657 418.617 957.657 418.814 957.855 419.209C958.25 420 958.645 420.79 959.04 421.58C959.238 421.975 959.435 422.37 959.633 422.765C960.028 423.357 960.225 424.147 960.62 424.74C960.818 425.135 961.015 425.53 961.41 425.925C961.805 426.517 962.2 427.11 962.398 427.703C962.595 428.098 962.99 428.493 963.188 428.888C963.583 429.48 963.978 430.073 964.373 430.468C964.57 430.863 964.965 431.258 965.163 431.653C965.558 432.245 965.953 432.64 966.348 433.233C966.743 433.628 966.941 434.023 967.336 434.418C967.731 435.011 968.126 435.406 968.718 435.801C969.113 436.196 969.311 436.393 969.706 436.788C970.101 437.183 970.693 437.776 971.286 438.171C971.681 438.368 971.878 438.763 972.273 438.961C972.866 439.553 973.459 439.948 974.051 440.541C974.249 440.738 974.644 440.936 974.841 441.133C975.631 441.924 976.619 442.516 977.606 443.109L977.804 443.306C981.557 445.874 985.704 448.046 990.247 449.627C1027.38 462.86 1074.98 435.998 1096.31 389.385C1115.08 347.512 1106.39 303.664 1076.96 285.888ZM995.975 436.591C994.988 436.196 994.197 435.998 993.407 435.603C993.21 435.406 992.815 435.406 992.617 435.208C992.025 435.011 991.432 434.615 990.84 434.418C990.642 434.22 990.247 434.22 990.05 434.023C989.457 433.628 988.865 433.43 988.272 433.035C988.074 432.838 987.877 432.838 987.679 432.64C984.914 431.06 982.347 429.085 980.174 426.912C978.396 425.332 976.816 423.357 975.236 421.58C961.015 403.408 958.645 373.781 971.681 345.339C988.272 308.997 1024.02 286.875 1054.04 292.603C1056.41 292.998 1058.78 293.591 1061.15 294.578C1064.91 295.961 1068.46 297.739 1071.62 299.911L1071.82 300.109C1072.61 300.701 1073.4 301.294 1074.19 301.886C1074.39 302.084 1074.59 302.281 1074.78 302.479C1075.38 302.874 1075.77 303.269 1076.36 303.664C1076.56 303.862 1076.96 304.257 1077.15 304.454C1077.55 304.849 1077.94 305.244 1078.34 305.639C1078.54 305.837 1078.93 306.232 1079.13 306.429C1079.52 306.824 1079.92 307.219 1080.31 307.614C1080.51 308.009 1080.91 308.207 1081.1 308.602C1081.5 308.997 1081.89 309.392 1082.09 309.984C1082.29 310.379 1082.68 310.577 1082.88 310.972C1083.28 311.367 1083.47 311.96 1083.87 312.355C1084.07 312.75 1084.26 312.947 1084.46 313.342C1084.86 313.737 1085.05 314.33 1085.45 314.725C1085.65 315.12 1085.84 315.317 1086.04 315.712C1086.44 316.305 1086.63 316.7 1087.03 317.292C1087.23 317.688 1087.42 317.885 1087.62 318.28C1088.02 318.873 1088.21 319.663 1088.61 320.255C1088.61 320.453 1088.81 320.65 1088.81 320.848C1089.2 321.835 1089.6 322.625 1089.99 323.613C1089.99 323.81 1090.19 324.205 1090.19 324.403C1090.39 324.996 1090.78 325.786 1090.98 326.576C1091.18 326.971 1091.18 327.366 1091.37 327.563C1091.57 328.156 1091.77 328.748 1091.97 329.341C1092.16 329.736 1092.16 330.131 1092.36 330.526C1092.56 331.118 1092.56 331.711 1092.76 332.304C1092.76 332.699 1092.95 333.094 1092.95 333.686C1093.15 334.279 1093.15 334.871 1093.35 335.464C1093.35 335.859 1093.55 336.254 1093.55 336.846C1093.55 337.439 1093.74 338.031 1093.74 338.624C1093.74 339.019 1093.94 339.612 1093.94 340.007C1093.94 340.599 1094.14 341.192 1094.14 341.982C1094.14 342.377 1094.14 342.772 1094.34 343.364C1094.34 343.957 1094.34 344.747 1094.34 345.339C1094.34 345.734 1094.34 346.129 1094.34 346.524C1094.34 347.314 1094.34 348.105 1094.34 348.895C1094.34 349.29 1094.34 349.487 1094.34 349.882C1094.34 351.067 1094.34 352.055 1094.14 353.24C1094.14 353.437 1094.14 353.635 1094.14 353.832C1094.14 354.82 1093.94 355.61 1093.94 356.598C1093.94 356.993 1093.94 357.388 1093.74 357.783C1093.74 358.573 1093.55 359.165 1093.55 359.955C1093.55 360.35 1093.35 360.943 1093.35 361.338C1093.15 362.128 1093.15 362.721 1092.95 363.511C1092.95 363.906 1092.76 364.498 1092.76 364.893C1092.56 365.486 1092.56 366.276 1092.36 366.868C1092.16 367.263 1092.16 367.856 1091.97 368.448C1091.77 369.041 1091.57 369.831 1091.37 370.424C1091.18 371.016 1091.18 371.411 1090.98 372.004C1090.78 372.596 1090.58 373.386 1090.39 373.979C1090.19 374.374 1089.99 374.966 1089.99 375.361C1089.79 376.151 1089.6 376.744 1089.2 377.534C1089 377.929 1088.81 378.522 1088.81 378.917C1088.61 379.707 1088.21 380.497 1087.82 381.287C1087.62 381.682 1087.42 382.077 1087.42 382.472C1087.03 383.657 1086.44 384.842 1085.84 386.027C1067.28 424.937 1027.38 447.849 995.975 436.591Z" fill="url(#paint32_linear_191_1029)"/>
<path d="M974.441 441.331C974.244 441.133 973.849 440.936 973.651 440.738C973.059 440.343 972.466 439.751 971.874 439.158C971.479 438.961 971.281 438.566 970.886 438.368C970.294 437.973 969.899 437.381 969.306 436.986C968.911 436.591 968.714 436.393 968.319 435.998C967.924 435.603 967.331 435.011 966.936 434.616C966.541 434.22 966.343 433.825 965.948 433.43C965.553 432.838 965.158 432.443 964.763 431.85C964.566 431.455 964.171 431.06 963.973 430.665C963.578 430.073 963.183 429.678 962.788 429.085C962.591 428.69 962.196 428.295 961.998 427.9C961.603 427.308 961.208 426.715 961.011 426.122C960.813 425.727 960.616 425.332 960.22 424.937C959.825 424.345 959.43 423.752 959.233 422.962C959.035 422.567 958.838 422.172 958.64 421.777C958.245 420.987 957.85 420.197 957.455 419.407C957.258 419.209 957.258 419.012 957.06 418.617C956.665 417.629 956.073 416.444 955.678 415.259C955.48 415.062 955.48 414.667 955.283 414.469C954.888 413.679 954.69 412.889 954.493 411.901C954.295 411.506 954.295 411.111 954.098 410.716C953.9 409.926 953.703 409.334 953.505 408.544C953.308 408.149 953.308 407.556 953.11 407.161C952.912 406.371 952.715 405.779 952.517 404.988C952.32 404.396 952.32 404.001 952.122 403.408C951.925 402.618 951.925 402.026 951.727 401.236C951.727 400.643 951.53 400.248 951.53 399.656C951.332 398.866 951.332 398.273 951.135 397.483C951.135 396.89 950.937 396.495 950.937 395.903C950.937 395.113 950.74 394.323 950.74 393.73C950.74 393.138 950.74 392.743 950.542 392.15C950.542 391.36 950.542 390.57 950.345 389.78C950.345 389.385 950.345 388.792 950.345 388.397C950.345 387.41 950.345 386.62 950.345 385.632C950.345 385.237 950.345 384.842 950.345 384.447C950.345 383.064 950.345 381.879 950.542 380.497C950.542 380.299 950.542 380.102 950.542 379.707C950.542 378.522 950.74 377.534 950.74 376.349C950.74 375.954 950.937 375.361 950.937 374.966C951.135 374.176 951.135 373.189 951.332 372.399C951.332 371.806 951.53 371.214 951.53 370.819C951.727 370.029 951.727 369.239 951.925 368.448C952.122 367.856 952.122 367.263 952.32 366.671C952.517 365.881 952.715 365.091 952.913 364.301C953.11 363.708 953.11 363.116 953.308 362.523C953.505 361.733 953.703 360.943 953.9 360.153C954.098 359.56 954.295 358.968 954.295 358.375C954.493 357.585 954.69 356.795 955.085 356.005C955.283 355.413 955.48 354.82 955.678 354.228C955.875 353.437 956.27 352.45 956.468 351.66C956.665 351.067 956.863 350.475 957.06 350.08C957.455 349.092 957.85 348.302 958.048 347.315C958.245 346.92 958.443 346.327 958.64 345.932C959.233 344.549 959.825 343.167 960.418 341.784C981.749 295.171 1029.15 268.309 1066.48 281.543L1038.63 264.359C1001.5 251.126 953.9 278.185 932.569 324.601C913.41 366.671 922.1 410.321 951.332 428.295L979.182 445.479C978.392 444.886 977.602 444.491 976.812 443.899L976.614 443.701C976.219 442.714 975.231 441.923 974.441 441.331Z" fill="url(#paint33_linear_191_1029)"/>
<defs>
<radialGradient id="paint0_radial_191_1029" cx="0" cy="0" r="1" gradientUnits="userSpaceOnUse" gradientTransform="translate(1225.15 464.603) scale(58.9237 59.5071)">
<stop stop-color="#D4FEFD"/>
<stop offset="0.3844" stop-color="#ACEBFA"/>
<stop offset="0.9173" stop-color="#6FCEF6"/>
</radialGradient>
<radialGradient id="paint1_radial_191_1029" cx="0" cy="0" r="1" gradientUnits="userSpaceOnUse" gradientTransform="translate(1162.6 461.176) scale(44.569 45.0103)">
<stop offset="0.0105241" stop-color="#D4FEFD"/>
<stop offset="0.9185" stop-color="#D4FEFD" stop-opacity="0.082321"/>
<stop offset="1" stop-color="#D4FEFD" stop-opacity="0"/>
</radialGradient>
<radialGradient id="paint2_radial_191_1029" cx="0" cy="0" r="1" gradientUnits="userSpaceOnUse" gradientTransform="translate(1158.67 529.385) rotate(15.992) scale(74.3939 70.8066)">
<stop offset="0.0105241" stop-color="#292055"/>
<stop offset="0.3506" stop-color="#2B2257" stop-opacity="0.6563"/>
<stop offset="0.5004" stop-color="#30285E" stop-opacity="0.5049"/>
<stop offset="0.6129" stop-color="#39336B" stop-opacity="0.3912"/>
<stop offset="0.7068" stop-color="#46437D" stop-opacity="0.2963"/>
<stop offset="0.789" stop-color="#575794" stop-opacity="0.2132"/>
<stop offset="0.8631" stop-color="#6C70B1" stop-opacity="0.1384"/>
<stop offset="0.9311" stop-color="#848ED3" stop-opacity="0.0696397"/>
<stop offset="0.9925" stop-color="#A0AFFA" stop-opacity="0.01"/>
<stop offset="1" stop-color="#A4B4FF" stop-opacity="0"/>
</radialGradient>
<radialGradient id="paint3_radial_191_1029" cx="0" cy="0" r="1" gradientUnits="userSpaceOnUse" gradientTransform="translate(1226.04 533.163) rotate(15.992) scale(57.8561 78.9186)">
<stop offset="0.0105241" stop-color="#6B79F6"/>
<stop offset="0.2326" stop-color="#6D7CF6" stop-opacity="0.7756"/>
<stop offset="0.4011" stop-color="#7586F7" stop-opacity="0.6052"/>
<stop offset="0.5521" stop-color="#8296F8" stop-opacity="0.4526"/>
<stop offset="0.6928" stop-color="#94ADF9" stop-opacity="0.3105"/>
<stop offset="0.8263" stop-color="#ABCBFA" stop-opacity="0.1756"/>
<stop offset="0.9528" stop-color="#C8EFFC" stop-opacity="0.0477449"/>
<stop offset="1" stop-color="#D4FEFD" stop-opacity="0"/>
</radialGradient>
<radialGradient id="paint4_radial_191_1029" cx="0" cy="0" r="1" gradientUnits="userSpaceOnUse" gradientTransform="translate(1198.47 556.893) rotate(15.992) scale(69.8273 66.4602)">
<stop offset="0.0105241" stop-color="#3C2E79"/>
<stop offset="0.3031" stop-color="#58529D" stop-opacity="0.7043"/>
<stop offset="0.9507" stop-color="#9EADF8" stop-opacity="0.0498266"/>
<stop offset="1" stop-color="#A4B4FF" stop-opacity="0"/>
</radialGradient>
<radialGradient id="paint5_radial_191_1029" cx="0" cy="0" r="1" gradientUnits="userSpaceOnUse" gradientTransform="translate(1180.3 542.032) rotate(15.992) scale(65.684 62.5167)">
<stop offset="0.0105241" stop-color="#6B79F6"/>
<stop offset="0.2791" stop-color="#7684F8" stop-opacity="0.7286"/>
<stop offset="0.752" stop-color="#92A2FC" stop-opacity="0.2506"/>
<stop offset="1" stop-color="#A4B4FF" stop-opacity="0"/>
</radialGradient>
<radialGradient id="paint6_radial_191_1029" cx="0" cy="0" r="1" gradientUnits="userSpaceOnUse" gradientTransform="translate(1216.43 513.289) rotate(15.992) scale(35.014 32.3352)">
<stop offset="0.0105241" stop-color="white"/>
<stop offset="0.4289" stop-color="#DBE1FF" stop-opacity="0.5772"/>
<stop offset="1" stop-color="#A4B4FF" stop-opacity="0"/>
</radialGradient>
<radialGradient id="paint7_radial_191_1029" cx="0" cy="0" r="1" gradientUnits="userSpaceOnUse" gradientTransform="translate(1192.01 476.774) rotate(15.992) scale(23.0367 21.2743)">
<stop offset="0.0105241" stop-color="white"/>
<stop offset="0.2739" stop-color="#F3FFFE" stop-opacity="0.7338"/>
<stop offset="1" stop-color="#D4FEFD" stop-opacity="0"/>
</radialGradient>
<radialGradient id="paint8_radial_191_1029" cx="0" cy="0" r="1" gradientUnits="userSpaceOnUse" gradientTransform="translate(852.15 413.603) scale(58.9237 59.5071)">
<stop stop-color="#D4FEFD"/>
<stop offset="0.3844" stop-color="#ACEBFA"/>
<stop offset="0.9173" stop-color="#6FCEF6"/>
</radialGradient>
<radialGradient id="paint9_radial_191_1029" cx="0" cy="0" r="1" gradientUnits="userSpaceOnUse" gradientTransform="translate(789.595 410.176) scale(44.569 45.0103)">
<stop offset="0.0105241" stop-color="#D4FEFD"/>
<stop offset="0.9185" stop-color="#D4FEFD" stop-opacity="0.082321"/>
<stop offset="1" stop-color="#D4FEFD" stop-opacity="0"/>
</radialGradient>
<radialGradient id="paint10_radial_191_1029" cx="0" cy="0" r="1" gradientUnits="userSpaceOnUse" gradientTransform="translate(785.675 478.385) rotate(15.992) scale(74.3939 70.8066)">
<stop offset="0.0105241" stop-color="#292055"/>
<stop offset="0.3506" stop-color="#2B2257" stop-opacity="0.6563"/>
<stop offset="0.5004" stop-color="#30285E" stop-opacity="0.5049"/>
<stop offset="0.6129" stop-color="#39336B" stop-opacity="0.3912"/>
<stop offset="0.7068" stop-color="#46437D" stop-opacity="0.2963"/>
<stop offset="0.789" stop-color="#575794" stop-opacity="0.2132"/>
<stop offset="0.8631" stop-color="#6C70B1" stop-opacity="0.1384"/>
<stop offset="0.9311" stop-color="#848ED3" stop-opacity="0.0696397"/>
<stop offset="0.9925" stop-color="#A0AFFA" stop-opacity="0.01"/>
<stop offset="1" stop-color="#A4B4FF" stop-opacity="0"/>
</radialGradient>
<radialGradient id="paint11_radial_191_1029" cx="0" cy="0" r="1" gradientUnits="userSpaceOnUse" gradientTransform="translate(853.044 482.163) rotate(15.992) scale(57.8561 78.9186)">
<stop offset="0.0105241" stop-color="#6B79F6"/>
<stop offset="0.2326" stop-color="#6D7CF6" stop-opacity="0.7756"/>
<stop offset="0.4011" stop-color="#7586F7" stop-opacity="0.6052"/>
<stop offset="0.5521" stop-color="#8296F8" stop-opacity="0.4526"/>
<stop offset="0.6928" stop-color="#94ADF9" stop-opacity="0.3105"/>
<stop offset="0.8263" stop-color="#ABCBFA" stop-opacity="0.1756"/>
<stop offset="0.9528" stop-color="#C8EFFC" stop-opacity="0.0477449"/>
<stop offset="1" stop-color="#D4FEFD" stop-opacity="0"/>
</radialGradient>
<radialGradient id="paint12_radial_191_1029" cx="0" cy="0" r="1" gradientUnits="userSpaceOnUse" gradientTransform="translate(825.47 505.893) rotate(15.992) scale(69.8273 66.4602)">
<stop offset="0.0105241" stop-color="#3C2E79"/>
<stop offset="0.3031" stop-color="#58529D" stop-opacity="0.7043"/>
<stop offset="0.9507" stop-color="#9EADF8" stop-opacity="0.0498266"/>
<stop offset="1" stop-color="#A4B4FF" stop-opacity="0"/>
</radialGradient>
<radialGradient id="paint13_radial_191_1029" cx="0" cy="0" r="1" gradientUnits="userSpaceOnUse" gradientTransform="translate(807.305 491.032) rotate(15.992) scale(65.684 62.5167)">
<stop offset="0.0105241" stop-color="#6B79F6"/>
<stop offset="0.2791" stop-color="#7684F8" stop-opacity="0.7286"/>
<stop offset="0.752" stop-color="#92A2FC" stop-opacity="0.2506"/>
<stop offset="1" stop-color="#A4B4FF" stop-opacity="0"/>
</radialGradient>
<radialGradient id="paint14_radial_191_1029" cx="0" cy="0" r="1" gradientUnits="userSpaceOnUse" gradientTransform="translate(843.427 462.289) rotate(15.992) scale(35.014 32.3352)">
<stop offset="0.0105241" stop-color="white"/>
<stop offset="0.4289" stop-color="#DBE1FF" stop-opacity="0.5772"/>
<stop offset="1" stop-color="#A4B4FF" stop-opacity="0"/>
</radialGradient>
<radialGradient id="paint15_radial_191_1029" cx="0" cy="0" r="1" gradientUnits="userSpaceOnUse" gradientTransform="translate(819.011 425.774) rotate(15.992) scale(23.0367 21.2743)">
<stop offset="0.0105241" stop-color="white"/>
<stop offset="0.2739" stop-color="#F3FFFE" stop-opacity="0.7338"/>
<stop offset="1" stop-color="#D4FEFD" stop-opacity="0"/>
</radialGradient>
<radialGradient id="paint16_radial_191_1029" cx="0" cy="0" r="1" gradientUnits="userSpaceOnUse" gradientTransform="translate(1166.94 452.906) scale(19.8357 20.0321)">
<stop stop-color="#D4FEFD"/>
<stop offset="0.3844" stop-color="#ACEBFA"/>
<stop offset="0.9173" stop-color="#6FCEF6"/>
</radialGradient>
<radialGradient id="paint17_radial_191_1029" cx="0" cy="0" r="1" gradientUnits="userSpaceOnUse" gradientTransform="translate(1145.88 451.752) scale(15.0034 15.152)">
<stop offset="0.0105241" stop-color="#D4FEFD"/>
<stop offset="0.9185" stop-color="#D4FEFD" stop-opacity="0.082321"/>
<stop offset="1" stop-color="#D4FEFD" stop-opacity="0"/>
</radialGradient>
<radialGradient id="paint18_radial_191_1029" cx="0" cy="0" r="1" gradientUnits="userSpaceOnUse" gradientTransform="translate(1144.56 474.714) rotate(15.992) scale(25.0435 23.8359)">
<stop offset="0.0105241" stop-color="#292055"/>
<stop offset="0.3506" stop-color="#2B2257" stop-opacity="0.6563"/>
<stop offset="0.5004" stop-color="#30285E" stop-opacity="0.5049"/>
<stop offset="0.6129" stop-color="#39336B" stop-opacity="0.3912"/>
<stop offset="0.7068" stop-color="#46437D" stop-opacity="0.2963"/>
<stop offset="0.789" stop-color="#575794" stop-opacity="0.2132"/>
<stop offset="0.8631" stop-color="#6C70B1" stop-opacity="0.1384"/>
<stop offset="0.9311" stop-color="#848ED3" stop-opacity="0.0696397"/>
<stop offset="0.9925" stop-color="#A0AFFA" stop-opacity="0.01"/>
<stop offset="1" stop-color="#A4B4FF" stop-opacity="0"/>
</radialGradient>
<radialGradient id="paint19_radial_191_1029" cx="0" cy="0" r="1" gradientUnits="userSpaceOnUse" gradientTransform="translate(1167.24 475.986) rotate(15.992) scale(19.4763 26.5666)">
<stop offset="0.0105241" stop-color="#6B79F6"/>
<stop offset="0.2326" stop-color="#6D7CF6" stop-opacity="0.7756"/>
<stop offset="0.4011" stop-color="#7586F7" stop-opacity="0.6052"/>
<stop offset="0.5521" stop-color="#8296F8" stop-opacity="0.4526"/>
<stop offset="0.6928" stop-color="#94ADF9" stop-opacity="0.3105"/>
<stop offset="0.8263" stop-color="#ABCBFA" stop-opacity="0.1756"/>
<stop offset="0.9528" stop-color="#C8EFFC" stop-opacity="0.0477449"/>
<stop offset="1" stop-color="#D4FEFD" stop-opacity="0"/>
</radialGradient>
<radialGradient id="paint20_radial_191_1029" cx="0" cy="0" r="1" gradientUnits="userSpaceOnUse" gradientTransform="translate(1157.96 483.974) rotate(15.992) scale(23.5062 22.3727)">
<stop offset="0.0105241" stop-color="#3C2E79"/>
<stop offset="0.3031" stop-color="#58529D" stop-opacity="0.7043"/>
<stop offset="0.9507" stop-color="#9EADF8" stop-opacity="0.0498266"/>
<stop offset="1" stop-color="#A4B4FF" stop-opacity="0"/>
</radialGradient>
<radialGradient id="paint21_radial_191_1029" cx="0" cy="0" r="1" gradientUnits="userSpaceOnUse" gradientTransform="translate(1151.85 478.971) rotate(15.992) scale(22.1114 21.0452)">
<stop offset="0.0105241" stop-color="#6B79F6"/>
<stop offset="0.2791" stop-color="#7684F8" stop-opacity="0.7286"/>
<stop offset="0.752" stop-color="#92A2FC" stop-opacity="0.2506"/>
<stop offset="1" stop-color="#A4B4FF" stop-opacity="0"/>
</radialGradient>
<radialGradient id="paint22_radial_191_1029" cx="0" cy="0" r="1" gradientUnits="userSpaceOnUse" gradientTransform="translate(1164.01 469.295) rotate(15.992) scale(11.7869 10.8851)">
<stop offset="0.0105241" stop-color="white"/>
<stop offset="0.4289" stop-color="#DBE1FF" stop-opacity="0.5772"/>
<stop offset="1" stop-color="#A4B4FF" stop-opacity="0"/>
</radialGradient>
<radialGradient id="paint23_radial_191_1029" cx="0" cy="0" r="1" gradientUnits="userSpaceOnUse" gradientTransform="translate(1155.79 457.003) rotate(15.992) scale(7.75494 7.16165)">
<stop offset="0.0105241" stop-color="white"/>
<stop offset="0.2739" stop-color="#F3FFFE" stop-opacity="0.7338"/>
<stop offset="1" stop-color="#D4FEFD" stop-opacity="0"/>
</radialGradient>
<linearGradient id="paint24_linear_191_1029" x1="993.196" y1="488.02" x2="908.462" y2="729.909" gradientUnits="userSpaceOnUse">
<stop stop-color="#FFACFE"/>
<stop offset="0.4794" stop-color="#E794FE"/>
<stop offset="1" stop-color="#826CFD"/>
</linearGradient>
<linearGradient id="paint25_linear_191_1029" x1="759.968" y1="641.8" x2="1145.33" y2="641.8" gradientUnits="userSpaceOnUse">
<stop stop-color="#6FCEF6"/>
<stop offset="0.5703" stop-color="#826CFD"/>
<stop offset="1" stop-color="#8C8EFF"/>
</linearGradient>
<radialGradient id="paint26_radial_191_1029" cx="0" cy="0" r="1" gradientUnits="userSpaceOnUse" gradientTransform="translate(807.031 683.484) rotate(153.236) scale(287.644 2.66951)">
<stop stop-color="#826CFD"/>
<stop offset="0.1638" stop-color="#917EFD" stop-opacity="0.8362"/>
<stop offset="0.492" stop-color="#B9ACFE" stop-opacity="0.508"/>
<stop offset="0.9506" stop-color="#F8F7FF" stop-opacity="0.0494183"/>
<stop offset="1" stop-color="white" stop-opacity="0"/>
</radialGradient>
<linearGradient id="paint27_linear_191_1029" x1="955.635" y1="472.523" x2="898.634" y2="635.242" gradientUnits="userSpaceOnUse">
<stop stop-color="#FFACFE"/>
<stop offset="0.4794" stop-color="#E794FE"/>
<stop offset="1" stop-color="#826CFD"/>
</linearGradient>
<linearGradient id="paint28_linear_191_1029" x1="798.742" y1="575.971" x2="1057.97" y2="575.971" gradientUnits="userSpaceOnUse">
<stop stop-color="#6FCEF6"/>
<stop offset="0.5703" stop-color="#826CFD"/>
<stop offset="1" stop-color="#8C8EFF"/>
</linearGradient>
<radialGradient id="paint29_radial_191_1029" cx="0" cy="0" r="1" gradientUnits="userSpaceOnUse" gradientTransform="translate(830.401 604.012) rotate(153.236) scale(193.499 1.79578)">
<stop stop-color="#826CFD"/>
<stop offset="0.1638" stop-color="#917EFD" stop-opacity="0.8362"/>
<stop offset="0.492" stop-color="#B9ACFE" stop-opacity="0.508"/>
<stop offset="0.9506" stop-color="#F8F7FF" stop-opacity="0.0494183"/>
<stop offset="1" stop-color="white" stop-opacity="0"/>
</radialGradient>
<radialGradient id="paint30_radial_191_1029" cx="0" cy="0" r="1" gradientUnits="userSpaceOnUse" gradientTransform="translate(958.465 334.19) rotate(-145.077) scale(249.33 4.77986)">
<stop stop-color="#826CFD"/>
<stop offset="0.1638" stop-color="#917EFD" stop-opacity="0.8362"/>
<stop offset="0.492" stop-color="#B9ACFE" stop-opacity="0.508"/>
<stop offset="0.9506" stop-color="#F8F7FF" stop-opacity="0.0494183"/>
<stop offset="1" stop-color="white" stop-opacity="0"/>
</radialGradient>
<linearGradient id="paint31_linear_191_1029" x1="1080.17" y1="327.66" x2="1002.2" y2="428.562" gradientUnits="userSpaceOnUse">
<stop stop-color="#6FCEF6"/>
<stop offset="0.5703" stop-color="#826CFD"/>
<stop offset="1" stop-color="#8C8EFF"/>
</linearGradient>
<linearGradient id="paint32_linear_191_1029" x1="966.391" y1="433.354" x2="1094.64" y2="293.047" gradientUnits="userSpaceOnUse">
<stop stop-color="#6B79F6"/>
<stop offset="0.4855" stop-color="#6FCEF6"/>
<stop offset="1" stop-color="#D4FEFD"/>
</linearGradient>
<linearGradient id="paint33_linear_191_1029" x1="1027.61" y1="242.276" x2="940.424" y2="433.066" gradientUnits="userSpaceOnUse">
<stop stop-color="#FFACFE"/>
<stop offset="0.2978" stop-color="#E794FE"/>
<stop offset="0.6882" stop-color="#826CFD"/>
<stop offset="1" stop-color="#A4B4FF"/>
</linearGradient>
<clipPath id="clip0_191_1029">
<rect width="169" height="18" fill="white" transform="matrix(-1 8.74228e-08 8.74228e-08 1 1304 864)"/>
</clipPath>
<clipPath id="clip1_191_1029">
<rect width="473.4" height="111.196" fill="white" transform="translate(958 212.744) rotate(-45)"/>
</clipPath>
</defs>
</svg>
