<svg width="1440" height="657" viewBox="0 0 1440 657" fill="none" xmlns="http://www.w3.org/2000/svg">
<g clip-path="url(#clip0_0_5584)">
<rect width="1440" height="3610" transform="translate(0 -1584)" fill="white"/>
<rect y="2" width="1440" height="655" fill="#181818"/>
<g clip-path="url(#clip1_0_5584)">
<path d="M404.9 645.3C404.5 645.3 404.1 645.5 403.8 645.7C403.5 646 403.4 646.4 403.4 646.8C403.4 647.2 403.6 647.6 403.8 647.9C404.1 648.2 404.5 648.3 404.9 648.3C405.3 648.3 405.7 648.1 406 647.9C406.3 647.6 406.4 647.2 406.4 646.8C406.4 646.4 406.2 646 406 645.7C405.7 645.4 405.3 645.3 404.9 645.3Z" fill="white"/>
<path d="M41.4004 645.3C40.6004 645.3 39.9004 646 39.9004 646.8C39.9004 647.6 40.6004 648.3 41.4004 648.3C42.2004 648.3 42.9004 647.6 42.9004 646.8C42.9004 645.9 42.2004 645.3 41.4004 645.3Z" fill="white"/>
<path d="M340.7 645.3C339.9 645.3 339.2 646 339.2 646.8C339.2 647.6 339.9 648.3 340.7 648.3C341.5 648.3 342.2 647.6 342.2 646.8C342.2 645.9 341.6 645.3 340.7 645.3Z" fill="white"/>
<path d="M191.1 645.3C190.3 645.3 189.6 646 189.6 646.8C189.6 647.6 190.3 648.3 191.1 648.3C191.9 648.3 192.6 647.6 192.6 646.8C192.6 645.9 191.9 645.3 191.1 645.3Z" fill="white"/>
<path d="M255.2 645.3C254.4 645.3 253.7 646 253.7 646.8C253.7 647.6 254.4 648.3 255.2 648.3C256 648.3 256.7 647.6 256.7 646.8C256.7 645.9 256 645.3 255.2 645.3Z" fill="white"/>
<path d="M362.1 645.3C361.3 645.3 360.6 646 360.6 646.8C360.6 647.6 361.3 648.3 362.1 648.3C362.9 648.3 363.6 647.6 363.6 646.8C363.6 645.9 362.9 645.3 362.1 645.3Z" fill="white"/>
<path d="M84.2002 645.3C83.4002 645.3 82.7002 646 82.7002 646.8C82.7002 647.6 83.4002 648.3 84.2002 648.3C85.0002 648.3 85.7002 647.6 85.7002 646.8C85.7002 645.9 85.0002 645.3 84.2002 645.3Z" fill="white"/>
<path d="M-1.40039 645.3C-2.20039 645.3 -2.90039 646 -2.90039 646.8C-2.90039 647.6 -2.20039 648.3 -1.40039 648.3C-0.600391 648.3 0.0996094 647.6 0.0996094 646.8C0.0996094 645.9 -0.500391 645.3 -1.40039 645.3Z" fill="white"/>
<path d="M148.3 645.3C147.5 645.3 146.8 646 146.8 646.8C146.8 647.6 147.5 648.3 148.3 648.3C149.1 648.3 149.8 647.6 149.8 646.8C149.8 645.9 149.1 645.3 148.3 645.3Z" fill="white"/>
<path d="M169.7 645.3C168.9 645.3 168.2 646 168.2 646.8C168.2 647.6 168.9 648.3 169.7 648.3C170.5 648.3 171.2 647.6 171.2 646.8C171.2 645.9 170.5 645.3 169.7 645.3Z" fill="white"/>
<path d="M276.6 645.3C275.8 645.3 275.1 646 275.1 646.8C275.1 647.6 275.8 648.3 276.6 648.3C277.4 648.3 278.1 647.6 278.1 646.8C278.1 645.9 277.4 645.3 276.6 645.3Z" fill="white"/>
<path d="M319.4 645.3C318.6 645.3 317.9 646 317.9 646.8C317.9 647.6 318.6 648.3 319.4 648.3C320.2 648.3 320.9 647.6 320.9 646.8C320.9 645.9 320.2 645.3 319.4 645.3Z" fill="white"/>
<path d="M20 645.3C19.2 645.3 18.5 646 18.5 646.8C18.5 647.6 19.2 648.3 20 648.3C20.8 648.3 21.5 647.6 21.5 646.8C21.5 645.9 20.8 645.3 20 645.3Z" fill="white"/>
<path d="M105.5 645.3C104.7 645.3 104 646 104 646.8C104 647.6 104.7 648.3 105.5 648.3C106.3 648.3 107 647.6 107 646.8C107 645.9 106.4 645.3 105.5 645.3Z" fill="white"/>
<path d="M212.5 645.3C211.7 645.3 211 646 211 646.8C211 647.6 211.7 648.3 212.5 648.3C213.3 648.3 214 647.6 214 646.8C213.9 645.9 213.3 645.3 212.5 645.3Z" fill="white"/>
<path d="M383.5 645.3C382.7 645.3 382 646 382 646.8C382 647.6 382.7 648.3 383.5 648.3C384.3 648.3 385 647.6 385 646.8C385 645.9 384.3 645.3 383.5 645.3Z" fill="white"/>
<path d="M62.7998 645.3C61.9998 645.3 61.2998 646 61.2998 646.8C61.2998 647.6 61.9998 648.3 62.7998 648.3C63.5998 648.3 64.2998 647.6 64.2998 646.8C64.2998 645.9 63.5998 645.3 62.7998 645.3Z" fill="white"/>
<path d="M233.8 645.3C233 645.3 232.3 646 232.3 646.8C232.3 647.6 233 648.3 233.8 648.3C234.6 648.3 235.3 647.6 235.3 646.8C235.3 645.9 234.7 645.3 233.8 645.3Z" fill="white"/>
<path d="M126.9 645.3C126.1 645.3 125.4 646 125.4 646.8C125.4 647.6 126.1 648.3 126.9 648.3C127.7 648.3 128.4 647.6 128.4 646.8C128.4 645.9 127.8 645.3 126.9 645.3Z" fill="white"/>
<path d="M298 645.3C297.2 645.3 296.5 646 296.5 646.8C296.5 647.6 297.2 648.3 298 648.3C298.8 648.3 299.5 647.6 299.5 646.8C299.5 645.9 298.8 645.3 298 645.3Z" fill="white"/>
<path d="M404.9 626C404.5 626 404.1 626.2 403.8 626.4C403.5 626.7 403.4 627.1 403.4 627.5C403.4 627.9 403.6 628.3 403.8 628.6C404.1 628.9 404.5 629 404.9 629C405.3 629 405.7 628.8 406 628.6C406.3 628.3 406.4 627.9 406.4 627.5C406.4 627.1 406.2 626.7 406 626.4C405.7 626.2 405.3 626 404.9 626Z" fill="white"/>
<path d="M20 626C19.2 626 18.5 626.7 18.5 627.5C18.5 628.3 19.2 629 20 629C20.8 629 21.5 628.3 21.5 627.5C21.5 626.7 20.8 626 20 626Z" fill="white"/>
<path d="M212.5 626C211.7 626 211 626.7 211 627.5C211 628.3 211.7 629 212.5 629C213.3 629 214 628.3 214 627.5C213.9 626.7 213.3 626 212.5 626Z" fill="white"/>
<path d="M255.2 626C254.4 626 253.7 626.7 253.7 627.5C253.7 628.3 254.4 629 255.2 629C256 629 256.7 628.3 256.7 627.5C256.7 626.7 256 626 255.2 626Z" fill="white"/>
<path d="M-1.40039 626C-2.20039 626 -2.90039 626.7 -2.90039 627.5C-2.90039 628.3 -2.20039 629 -1.40039 629C-0.600391 629 0.0996094 628.3 0.0996094 627.5C0.0996094 626.7 -0.500391 626 -1.40039 626Z" fill="white"/>
<path d="M276.6 626C275.8 626 275.1 626.7 275.1 627.5C275.1 628.3 275.8 629 276.6 629C277.4 629 278.1 628.3 278.1 627.5C278.1 626.7 277.4 626 276.6 626Z" fill="white"/>
<path d="M191.1 626C190.3 626 189.6 626.7 189.6 627.5C189.6 628.3 190.3 629 191.1 629C191.9 629 192.6 628.3 192.6 627.5C192.6 626.7 191.9 626 191.1 626Z" fill="white"/>
<path d="M62.7998 626C61.9998 626 61.2998 626.7 61.2998 627.5C61.2998 628.3 61.9998 629 62.7998 629C63.5998 629 64.2998 628.3 64.2998 627.5C64.2998 626.7 63.5998 626 62.7998 626Z" fill="white"/>
<path d="M233.8 626C233 626 232.3 626.7 232.3 627.5C232.3 628.3 233 629 233.8 629C234.6 629 235.3 628.3 235.3 627.5C235.3 626.7 234.7 626 233.8 626Z" fill="white"/>
<path d="M41.4004 626C40.6004 626 39.9004 626.7 39.9004 627.5C39.9004 628.3 40.6004 629 41.4004 629C42.2004 629 42.9004 628.3 42.9004 627.5C42.9004 626.7 42.2004 626 41.4004 626Z" fill="white"/>
<path d="M362.1 626C361.3 626 360.6 626.7 360.6 627.5C360.6 628.3 361.3 629 362.1 629C362.9 629 363.6 628.3 363.6 627.5C363.6 626.7 362.9 626 362.1 626Z" fill="white"/>
<path d="M126.9 626C126.1 626 125.4 626.7 125.4 627.5C125.4 628.3 126.1 629 126.9 629C127.7 629 128.4 628.3 128.4 627.5C128.4 626.7 127.8 626 126.9 626Z" fill="white"/>
<path d="M84.2002 626C83.4002 626 82.7002 626.7 82.7002 627.5C82.7002 628.3 83.4002 629 84.2002 629C85.0002 629 85.7002 628.3 85.7002 627.5C85.7002 626.7 85.0002 626 84.2002 626Z" fill="white"/>
<path d="M340.7 626C339.9 626 339.2 626.7 339.2 627.5C339.2 628.3 339.9 629 340.7 629C341.5 629 342.2 628.3 342.2 627.5C342.2 626.7 341.6 626 340.7 626Z" fill="white"/>
<path d="M383.5 626C382.7 626 382 626.7 382 627.5C382 628.3 382.7 629 383.5 629C384.3 629 385 628.3 385 627.5C385 626.7 384.3 626 383.5 626Z" fill="white"/>
<path d="M298 626C297.2 626 296.5 626.7 296.5 627.5C296.5 628.3 297.2 629 298 629C298.8 629 299.5 628.3 299.5 627.5C299.5 626.7 298.8 626 298 626Z" fill="white"/>
<path d="M105.5 626C104.7 626 104 626.7 104 627.5C104 628.3 104.7 629 105.5 629C106.3 629 107 628.3 107 627.5C107 626.7 106.4 626 105.5 626Z" fill="white"/>
<path d="M148.3 626C147.5 626 146.8 626.7 146.8 627.5C146.8 628.3 147.5 629 148.3 629C149.1 629 149.8 628.3 149.8 627.5C149.8 626.7 149.1 626 148.3 626Z" fill="white"/>
<path d="M319.4 626C318.6 626 317.9 626.7 317.9 627.5C317.9 628.3 318.6 629 319.4 629C320.2 629 320.9 628.3 320.9 627.5C320.9 626.7 320.2 626 319.4 626Z" fill="white"/>
<path d="M169.7 626C168.9 626 168.2 626.7 168.2 627.5C168.2 628.3 168.9 629 169.7 629C170.5 629 171.2 628.3 171.2 627.5C171.2 626.7 170.5 626 169.7 626Z" fill="white"/>
<path d="M404.9 606.8C404.5 606.8 404.1 607 403.8 607.2C403.5 607.5 403.4 607.9 403.4 608.3C403.4 608.7 403.6 609.1 403.8 609.4C404.1 609.7 404.5 609.8 404.9 609.8C405.3 609.8 405.7 609.6 406 609.4C406.3 609.1 406.4 608.7 406.4 608.3C406.4 607.9 406.2 607.5 406 607.2C405.7 606.9 405.3 606.8 404.9 606.8Z" fill="white"/>
<path d="M169.7 606.8C168.9 606.8 168.2 607.5 168.2 608.3C168.2 609.1 168.9 609.8 169.7 609.8C170.5 609.8 171.2 609.1 171.2 608.3C171.2 607.4 170.5 606.8 169.7 606.8Z" fill="white"/>
<path d="M20 606.8C19.2 606.8 18.5 607.5 18.5 608.3C18.5 609.1 19.2 609.8 20 609.8C20.8 609.8 21.5 609.1 21.5 608.3C21.5 607.4 20.8 606.8 20 606.8Z" fill="white"/>
<path d="M41.4004 606.8C40.6004 606.8 39.9004 607.5 39.9004 608.3C39.9004 609.1 40.6004 609.8 41.4004 609.8C42.2004 609.8 42.9004 609.1 42.9004 608.3C42.9004 607.4 42.2004 606.8 41.4004 606.8Z" fill="white"/>
<path d="M191.1 606.8C190.3 606.8 189.6 607.5 189.6 608.3C189.6 609.1 190.3 609.8 191.1 609.8C191.9 609.8 192.6 609.1 192.6 608.3C192.6 607.4 191.9 606.8 191.1 606.8Z" fill="white"/>
<path d="M126.9 606.8C126.1 606.8 125.4 607.5 125.4 608.3C125.4 609.1 126.1 609.8 126.9 609.8C127.7 609.8 128.4 609.1 128.4 608.3C128.4 607.4 127.8 606.8 126.9 606.8Z" fill="white"/>
<path d="M105.5 606.8C104.7 606.8 104 607.5 104 608.3C104 609.1 104.7 609.8 105.5 609.8C106.3 609.8 107 609.1 107 608.3C107 607.4 106.4 606.8 105.5 606.8Z" fill="white"/>
<path d="M148.3 606.8C147.5 606.8 146.8 607.5 146.8 608.3C146.8 609.1 147.5 609.8 148.3 609.8C149.1 609.8 149.8 609.1 149.8 608.3C149.8 607.4 149.1 606.8 148.3 606.8Z" fill="white"/>
<path d="M212.5 606.8C211.7 606.8 211 607.5 211 608.3C211 609.1 211.7 609.8 212.5 609.8C213.3 609.8 214 609.1 214 608.3C213.9 607.4 213.3 606.8 212.5 606.8Z" fill="white"/>
<path d="M255.2 606.8C254.4 606.8 253.7 607.5 253.7 608.3C253.7 609.1 254.4 609.8 255.2 609.8C256 609.8 256.7 609.1 256.7 608.3C256.7 607.4 256 606.8 255.2 606.8Z" fill="white"/>
<path d="M319.4 606.8C318.6 606.8 317.9 607.5 317.9 608.3C317.9 609.1 318.6 609.8 319.4 609.8C320.2 609.8 320.9 609.1 320.9 608.3C320.9 607.4 320.2 606.8 319.4 606.8Z" fill="white"/>
<path d="M298 606.8C297.2 606.8 296.5 607.5 296.5 608.3C296.5 609.1 297.2 609.8 298 609.8C298.8 609.8 299.5 609.1 299.5 608.3C299.5 607.4 298.8 606.8 298 606.8Z" fill="white"/>
<path d="M62.7998 606.8C61.9998 606.8 61.2998 607.5 61.2998 608.3C61.2998 609.1 61.9998 609.8 62.7998 609.8C63.5998 609.8 64.2998 609.1 64.2998 608.3C64.2998 607.4 63.5998 606.8 62.7998 606.8Z" fill="white"/>
<path d="M276.6 606.8C275.8 606.8 275.1 607.5 275.1 608.3C275.1 609.1 275.8 609.8 276.6 609.8C277.4 609.8 278.1 609.1 278.1 608.3C278.1 607.4 277.4 606.8 276.6 606.8Z" fill="white"/>
<path d="M340.7 606.8C339.9 606.8 339.2 607.5 339.2 608.3C339.2 609.1 339.9 609.8 340.7 609.8C341.5 609.8 342.2 609.1 342.2 608.3C342.2 607.4 341.6 606.8 340.7 606.8Z" fill="white"/>
<path d="M362.1 606.8C361.3 606.8 360.6 607.5 360.6 608.3C360.6 609.1 361.3 609.8 362.1 609.8C362.9 609.8 363.6 609.1 363.6 608.3C363.6 607.4 362.9 606.8 362.1 606.8Z" fill="white"/>
<path d="M383.5 606.8C382.7 606.8 382 607.5 382 608.3C382 609.1 382.7 609.8 383.5 609.8C384.3 609.8 385 609.1 385 608.3C385 607.4 384.3 606.8 383.5 606.8Z" fill="white"/>
<path d="M84.2002 606.8C83.4002 606.8 82.7002 607.5 82.7002 608.3C82.7002 609.1 83.4002 609.8 84.2002 609.8C85.0002 609.8 85.7002 609.1 85.7002 608.3C85.7002 607.4 85.0002 606.8 84.2002 606.8Z" fill="white"/>
<path d="M-1.40039 606.8C-2.20039 606.8 -2.90039 607.5 -2.90039 608.3C-2.90039 609.1 -2.20039 609.8 -1.40039 609.8C-0.600391 609.8 0.0996094 609.1 0.0996094 608.3C0.0996094 607.4 -0.500391 606.8 -1.40039 606.8Z" fill="white"/>
<path d="M233.8 606.8C233 606.8 232.3 607.5 232.3 608.3C232.3 609.1 233 609.8 233.8 609.8C234.6 609.8 235.3 609.1 235.3 608.3C235.3 607.4 234.7 606.8 233.8 606.8Z" fill="white"/>
<path d="M404.9 587.5C404.5 587.5 404.1 587.7 403.8 587.9C403.5 588.2 403.4 588.6 403.4 589C403.4 589.4 403.6 589.8 403.8 590.1C404.1 590.4 404.5 590.5 404.9 590.5C405.3 590.5 405.7 590.3 406 590.1C406.3 589.8 406.4 589.4 406.4 589C406.4 588.6 406.2 588.2 406 587.9C405.7 587.7 405.3 587.5 404.9 587.5Z" fill="white"/>
<path d="M362.1 587.5C361.3 587.5 360.6 588.2 360.6 589C360.6 589.8 361.3 590.5 362.1 590.5C362.9 590.5 363.6 589.8 363.6 589C363.6 588.2 362.9 587.5 362.1 587.5Z" fill="white"/>
<path d="M340.7 587.5C339.9 587.5 339.2 588.2 339.2 589C339.2 589.8 339.9 590.5 340.7 590.5C341.5 590.5 342.2 589.8 342.2 589C342.2 588.2 341.6 587.5 340.7 587.5Z" fill="white"/>
<path d="M41.4004 587.5C40.6004 587.5 39.9004 588.2 39.9004 589C39.9004 589.8 40.6004 590.5 41.4004 590.5C42.2004 590.5 42.9004 589.8 42.9004 589C42.9004 588.2 42.2004 587.5 41.4004 587.5Z" fill="white"/>
<path d="M84.2002 587.5C83.4002 587.5 82.7002 588.2 82.7002 589C82.7002 589.8 83.4002 590.5 84.2002 590.5C85.0002 590.5 85.7002 589.8 85.7002 589C85.7002 588.2 85.0002 587.5 84.2002 587.5Z" fill="white"/>
<path d="M126.9 587.5C126.1 587.5 125.4 588.2 125.4 589C125.4 589.8 126.1 590.5 126.9 590.5C127.7 590.5 128.4 589.8 128.4 589C128.4 588.2 127.8 587.5 126.9 587.5Z" fill="white"/>
<path d="M383.5 587.5C382.7 587.5 382 588.2 382 589C382 589.8 382.7 590.5 383.5 590.5C384.3 590.5 385 589.8 385 589C385 588.2 384.3 587.5 383.5 587.5Z" fill="white"/>
<path d="M212.5 587.5C211.7 587.5 211 588.2 211 589C211 589.8 211.7 590.5 212.5 590.5C213.3 590.5 214 589.8 214 589C213.9 588.2 213.3 587.5 212.5 587.5Z" fill="white"/>
<path d="M105.5 587.5C104.7 587.5 104 588.2 104 589C104 589.8 104.7 590.5 105.5 590.5C106.3 590.5 107 589.8 107 589C107 588.2 106.4 587.5 105.5 587.5Z" fill="white"/>
<path d="M-1.40039 587.5C-2.20039 587.5 -2.90039 588.2 -2.90039 589C-2.90039 589.8 -2.20039 590.5 -1.40039 590.5C-0.600391 590.5 0.0996094 589.8 0.0996094 589C0.0996094 588.2 -0.500391 587.5 -1.40039 587.5Z" fill="white"/>
<path d="M62.7998 587.5C61.9998 587.5 61.2998 588.2 61.2998 589C61.2998 589.8 61.9998 590.5 62.7998 590.5C63.5998 590.5 64.2998 589.8 64.2998 589C64.2998 588.2 63.5998 587.5 62.7998 587.5Z" fill="white"/>
<path d="M255.2 587.5C254.4 587.5 253.7 588.2 253.7 589C253.7 589.8 254.4 590.5 255.2 590.5C256 590.5 256.7 589.8 256.7 589C256.7 588.2 256 587.5 255.2 587.5Z" fill="white"/>
<path d="M20 587.5C19.2 587.5 18.5 588.2 18.5 589C18.5 589.8 19.2 590.5 20 590.5C20.8 590.5 21.5 589.8 21.5 589C21.5 588.2 20.8 587.5 20 587.5Z" fill="white"/>
<path d="M298 587.5C297.2 587.5 296.5 588.2 296.5 589C296.5 589.8 297.2 590.5 298 590.5C298.8 590.5 299.5 589.8 299.5 589C299.5 588.2 298.8 587.5 298 587.5Z" fill="white"/>
<path d="M169.7 587.5C168.9 587.5 168.2 588.2 168.2 589C168.2 589.8 168.9 590.5 169.7 590.5C170.5 590.5 171.2 589.8 171.2 589C171.2 588.2 170.5 587.5 169.7 587.5Z" fill="white"/>
<path d="M276.6 587.5C275.8 587.5 275.1 588.2 275.1 589C275.1 589.8 275.8 590.5 276.6 590.5C277.4 590.5 278.1 589.8 278.1 589C278.1 588.2 277.4 587.5 276.6 587.5Z" fill="white"/>
<path d="M233.8 587.5C233 587.5 232.3 588.2 232.3 589C232.3 589.8 233 590.5 233.8 590.5C234.6 590.5 235.3 589.8 235.3 589C235.3 588.2 234.7 587.5 233.8 587.5Z" fill="white"/>
<path d="M319.4 587.5C318.6 587.5 317.9 588.2 317.9 589C317.9 589.8 318.6 590.5 319.4 590.5C320.2 590.5 320.9 589.8 320.9 589C320.9 588.2 320.2 587.5 319.4 587.5Z" fill="white"/>
<path d="M191.1 587.5C190.3 587.5 189.6 588.2 189.6 589C189.6 589.8 190.3 590.5 191.1 590.5C191.9 590.5 192.6 589.8 192.6 589C192.6 588.2 191.9 587.5 191.1 587.5Z" fill="white"/>
<path d="M148.3 587.5C147.5 587.5 146.8 588.2 146.8 589C146.8 589.8 147.5 590.5 148.3 590.5C149.1 590.5 149.8 589.8 149.8 589C149.8 588.2 149.1 587.5 148.3 587.5Z" fill="white"/>
<path d="M404.9 568.3C404.5 568.3 404.1 568.5 403.8 568.7C403.5 569 403.4 569.4 403.4 569.8C403.4 570.2 403.6 570.6 403.8 570.9C404.1 571.2 404.5 571.3 404.9 571.3C405.3 571.3 405.7 571.1 406 570.9C406.3 570.6 406.4 570.2 406.4 569.8C406.4 569.4 406.2 569 406 568.7C405.7 568.4 405.3 568.3 404.9 568.3Z" fill="white"/>
<path d="M-1.40039 568.3C-2.20039 568.3 -2.90039 569 -2.90039 569.8C-2.90039 570.6 -2.20039 571.3 -1.40039 571.3C-0.600391 571.3 0.0996094 570.6 0.0996094 569.8C0.0996094 568.9 -0.500391 568.3 -1.40039 568.3Z" fill="white"/>
<path d="M20 568.3C19.2 568.3 18.5 569 18.5 569.8C18.5 570.6 19.2 571.3 20 571.3C20.8 571.3 21.5 570.6 21.5 569.8C21.5 568.9 20.8 568.3 20 568.3Z" fill="white"/>
<path d="M41.4004 568.3C40.6004 568.3 39.9004 569 39.9004 569.8C39.9004 570.6 40.6004 571.3 41.4004 571.3C42.2004 571.3 42.9004 570.6 42.9004 569.8C42.9004 568.9 42.2004 568.3 41.4004 568.3Z" fill="white"/>
<path d="M84.2002 568.3C83.4002 568.3 82.7002 569 82.7002 569.8C82.7002 570.6 83.4002 571.3 84.2002 571.3C85.0002 571.3 85.7002 570.6 85.7002 569.8C85.7002 568.9 85.0002 568.3 84.2002 568.3Z" fill="white"/>
<path d="M319.4 568.3C318.6 568.3 317.9 569 317.9 569.8C317.9 570.6 318.6 571.3 319.4 571.3C320.2 571.3 320.9 570.6 320.9 569.8C320.9 568.9 320.2 568.3 319.4 568.3Z" fill="white"/>
<path d="M191.1 568.3C190.3 568.3 189.6 569 189.6 569.8C189.6 570.6 190.3 571.3 191.1 571.3C191.9 571.3 192.6 570.6 192.6 569.8C192.6 568.9 191.9 568.3 191.1 568.3Z" fill="white"/>
<path d="M169.7 568.3C168.9 568.3 168.2 569 168.2 569.8C168.2 570.6 168.9 571.3 169.7 571.3C170.5 571.3 171.2 570.6 171.2 569.8C171.2 568.9 170.5 568.3 169.7 568.3Z" fill="white"/>
<path d="M340.7 568.3C339.9 568.3 339.2 569 339.2 569.8C339.2 570.6 339.9 571.3 340.7 571.3C341.5 571.3 342.2 570.6 342.2 569.8C342.2 568.9 341.6 568.3 340.7 568.3Z" fill="white"/>
<path d="M212.5 568.3C211.7 568.3 211 569 211 569.8C211 570.6 211.7 571.3 212.5 571.3C213.3 571.3 214 570.6 214 569.8C213.9 568.9 213.3 568.3 212.5 568.3Z" fill="white"/>
<path d="M255.2 568.3C254.4 568.3 253.7 569 253.7 569.8C253.7 570.6 254.4 571.3 255.2 571.3C256 571.3 256.7 570.6 256.7 569.8C256.7 568.9 256 568.3 255.2 568.3Z" fill="white"/>
<path d="M298 568.3C297.2 568.3 296.5 569 296.5 569.8C296.5 570.6 297.2 571.3 298 571.3C298.8 571.3 299.5 570.6 299.5 569.8C299.5 568.9 298.8 568.3 298 568.3Z" fill="white"/>
<path d="M233.8 568.3C233 568.3 232.3 569 232.3 569.8C232.3 570.6 233 571.3 233.8 571.3C234.6 571.3 235.3 570.6 235.3 569.8C235.3 568.9 234.7 568.3 233.8 568.3Z" fill="white"/>
<path d="M62.7998 568.3C61.9998 568.3 61.2998 569 61.2998 569.8C61.2998 570.6 61.9998 571.3 62.7998 571.3C63.5998 571.3 64.2998 570.6 64.2998 569.8C64.2998 568.9 63.5998 568.3 62.7998 568.3Z" fill="white"/>
<path d="M276.6 568.3C275.8 568.3 275.1 569 275.1 569.8C275.1 570.6 275.8 571.3 276.6 571.3C277.4 571.3 278.1 570.6 278.1 569.8C278.1 568.9 277.4 568.3 276.6 568.3Z" fill="white"/>
<path d="M126.9 568.3C126.1 568.3 125.4 569 125.4 569.8C125.4 570.6 126.1 571.3 126.9 571.3C127.7 571.3 128.4 570.6 128.4 569.8C128.4 568.9 127.8 568.3 126.9 568.3Z" fill="white"/>
<path d="M362.1 568.3C361.3 568.3 360.6 569 360.6 569.8C360.6 570.6 361.3 571.3 362.1 571.3C362.9 571.3 363.6 570.6 363.6 569.8C363.6 568.9 362.9 568.3 362.1 568.3Z" fill="white"/>
<path d="M383.5 568.3C382.7 568.3 382 569 382 569.8C382 570.6 382.7 571.3 383.5 571.3C384.3 571.3 385 570.6 385 569.8C385 568.9 384.3 568.3 383.5 568.3Z" fill="white"/>
<path d="M105.5 568.3C104.7 568.3 104 569 104 569.8C104 570.6 104.7 571.3 105.5 571.3C106.3 571.3 107 570.6 107 569.8C107 568.9 106.4 568.3 105.5 568.3Z" fill="white"/>
<path d="M148.3 568.3C147.5 568.3 146.8 569 146.8 569.8C146.8 570.6 147.5 571.3 148.3 571.3C149.1 571.3 149.8 570.6 149.8 569.8C149.8 568.9 149.1 568.3 148.3 568.3Z" fill="white"/>
<path d="M404.9 552C405.3 552 405.7 551.8 406 551.6C406.3 551.3 406.4 550.9 406.4 550.5C406.4 550.1 406.2 549.7 406 549.4C405.7 549.1 405.3 549 404.9 549C404.5 549 404.1 549.2 403.8 549.4C403.5 549.7 403.4 550.1 403.4 550.5C403.4 550.9 403.6 551.3 403.8 551.6C404.1 551.8 404.5 552 404.9 552Z" fill="white"/>
<path d="M276.6 549C275.8 549 275.1 549.7 275.1 550.5C275.1 551.3 275.8 552 276.6 552C277.4 552 278.1 551.3 278.1 550.5C278.1 549.7 277.4 549 276.6 549Z" fill="white"/>
<path d="M383.5 549C382.7 549 382 549.7 382 550.5C382 551.3 382.7 552 383.5 552C384.3 552 385 551.3 385 550.5C385 549.7 384.3 549 383.5 549Z" fill="white"/>
<path d="M298 549C297.2 549 296.5 549.7 296.5 550.5C296.5 551.3 297.2 552 298 552C298.8 552 299.5 551.3 299.5 550.5C299.5 549.7 298.8 549 298 549Z" fill="white"/>
<path d="M340.7 549C339.9 549 339.2 549.7 339.2 550.5C339.2 551.3 339.9 552 340.7 552C341.5 552 342.2 551.3 342.2 550.5C342.2 549.7 341.6 549 340.7 549Z" fill="white"/>
<path d="M319.4 549C318.6 549 317.9 549.7 317.9 550.5C317.9 551.3 318.6 552 319.4 552C320.2 552 320.9 551.3 320.9 550.5C320.9 549.7 320.2 549 319.4 549Z" fill="white"/>
<path d="M362.1 549C361.3 549 360.6 549.7 360.6 550.5C360.6 551.3 361.3 552 362.1 552C362.9 552 363.6 551.3 363.6 550.5C363.6 549.7 362.9 549 362.1 549Z" fill="white"/>
<path d="M148.3 549C147.5 549 146.8 549.7 146.8 550.5C146.8 551.3 147.5 552 148.3 552C149.1 552 149.8 551.3 149.8 550.5C149.8 549.7 149.1 549 148.3 549Z" fill="white"/>
<path d="M105.5 549C104.7 549 104 549.7 104 550.5C104 551.3 104.7 552 105.5 552C106.3 552 107 551.3 107 550.5C107 549.7 106.4 549 105.5 549Z" fill="white"/>
<path d="M20 549C19.2 549 18.5 549.7 18.5 550.5C18.5 551.3 19.2 552 20 552C20.8 552 21.5 551.3 21.5 550.5C21.5 549.7 20.8 549 20 549Z" fill="white"/>
<path d="M126.9 549C126.1 549 125.4 549.7 125.4 550.5C125.4 551.3 126.1 552 126.9 552C127.7 552 128.4 551.3 128.4 550.5C128.4 549.7 127.8 549 126.9 549Z" fill="white"/>
<path d="M62.7998 549C61.9998 549 61.2998 549.7 61.2998 550.5C61.2998 551.3 61.9998 552 62.7998 552C63.5998 552 64.2998 551.3 64.2998 550.5C64.2998 549.7 63.5998 549 62.7998 549Z" fill="white"/>
<path d="M84.2002 549C83.4002 549 82.7002 549.7 82.7002 550.5C82.7002 551.3 83.4002 552 84.2002 552C85.0002 552 85.7002 551.3 85.7002 550.5C85.7002 549.7 85.0002 549 84.2002 549Z" fill="white"/>
<path d="M41.4004 549C40.6004 549 39.9004 549.7 39.9004 550.5C39.9004 551.3 40.6004 552 41.4004 552C42.2004 552 42.9004 551.3 42.9004 550.5C42.9004 549.7 42.2004 549 41.4004 549Z" fill="white"/>
<path d="M169.7 549C168.9 549 168.2 549.7 168.2 550.5C168.2 551.3 168.9 552 169.7 552C170.5 552 171.2 551.3 171.2 550.5C171.2 549.7 170.5 549 169.7 549Z" fill="white"/>
<path d="M233.8 549C233 549 232.3 549.7 232.3 550.5C232.3 551.3 233 552 233.8 552C234.6 552 235.3 551.3 235.3 550.5C235.3 549.7 234.7 549 233.8 549Z" fill="white"/>
<path d="M212.5 549C211.7 549 211 549.7 211 550.5C211 551.3 211.7 552 212.5 552C213.3 552 214 551.3 214 550.5C214 549.7 213.3 549 212.5 549Z" fill="white"/>
<path d="M255.2 549C254.4 549 253.7 549.7 253.7 550.5C253.7 551.3 254.4 552 255.2 552C256 552 256.7 551.3 256.7 550.5C256.7 549.7 256 549 255.2 549Z" fill="white"/>
<path d="M191.1 549C190.3 549 189.6 549.7 189.6 550.5C189.6 551.3 190.3 552 191.1 552C191.9 552 192.6 551.3 192.6 550.5C192.6 549.7 191.9 549 191.1 549Z" fill="white"/>
<path d="M-1.40039 549C-2.20039 549 -2.90039 549.7 -2.90039 550.5C-2.90039 551.3 -2.20039 552 -1.40039 552C-0.600391 552 0.0996094 551.3 0.0996094 550.5C0.0996094 549.7 -0.500391 549 -1.40039 549Z" fill="white"/>
</g>
<g clip-path="url(#clip2_0_5584)">
<path d="M1128.4 98.3C1127.6 98.3 1126.9 99 1126.9 99.8C1126.9 100.6 1127.6 101.3 1128.4 101.3C1129.2 101.3 1129.9 100.6 1129.9 99.8C1129.9 98.9 1129.2 98.3 1128.4 98.3Z" fill="white"/>
<path d="M1427.7 98.3C1426.9 98.3 1426.2 99 1426.2 99.8C1426.2 100.6 1426.9 101.3 1427.7 101.3C1428.5 101.3 1429.2 100.6 1429.2 99.8C1429.2 98.9 1428.6 98.3 1427.7 98.3Z" fill="white"/>
<path d="M1278.1 98.3C1277.3 98.3 1276.6 99 1276.6 99.8C1276.6 100.6 1277.3 101.3 1278.1 101.3C1278.9 101.3 1279.6 100.6 1279.6 99.8C1279.6 98.9 1278.9 98.3 1278.1 98.3Z" fill="white"/>
<path d="M1342.2 98.3C1341.4 98.3 1340.7 99 1340.7 99.8C1340.7 100.6 1341.4 101.3 1342.2 101.3C1343 101.3 1343.7 100.6 1343.7 99.8C1343.7 98.9 1343 98.3 1342.2 98.3Z" fill="white"/>
<path d="M1042.9 98.3C1042.1 98.3 1041.4 99 1041.4 99.8C1041.4 100.6 1042.1 101.3 1042.9 101.3C1043.7 101.3 1044.4 100.6 1044.4 99.8C1044.4 98.9 1043.7 98.3 1042.9 98.3Z" fill="white"/>
<path d="M1064.3 98.3C1063.5 98.3 1062.8 99 1062.8 99.8C1062.8 100.6 1063.5 101.3 1064.3 101.3C1065.1 101.3 1065.8 100.6 1065.8 99.8C1065.8 98.9 1065.1 98.3 1064.3 98.3Z" fill="white"/>
<path d="M1171.2 98.3C1170.4 98.3 1169.7 99 1169.7 99.8C1169.7 100.6 1170.4 101.3 1171.2 101.3C1172 101.3 1172.7 100.6 1172.7 99.8C1172.7 98.9 1172 98.3 1171.2 98.3Z" fill="white"/>
<path d="M1085.6 98.3C1084.8 98.3 1084.1 99 1084.1 99.8C1084.1 100.6 1084.8 101.3 1085.6 101.3C1086.4 101.3 1087.1 100.6 1087.1 99.8C1087.1 98.9 1086.5 98.3 1085.6 98.3Z" fill="white"/>
<path d="M1235.3 98.3C1234.5 98.3 1233.8 99 1233.8 99.8C1233.8 100.6 1234.5 101.3 1235.3 101.3C1236.1 101.3 1236.8 100.6 1236.8 99.8C1236.8 98.9 1236.1 98.3 1235.3 98.3Z" fill="white"/>
<path d="M1256.7 98.3C1255.9 98.3 1255.2 99 1255.2 99.8C1255.2 100.6 1255.9 101.3 1256.7 101.3C1257.5 101.3 1258.2 100.6 1258.2 99.8C1258.2 98.9 1257.5 98.3 1256.7 98.3Z" fill="white"/>
<path d="M1363.6 98.3C1362.8 98.3 1362.1 99 1362.1 99.8C1362.1 100.6 1362.8 101.3 1363.6 101.3C1364.4 101.3 1365.1 100.6 1365.1 99.8C1365.1 98.9 1364.4 98.3 1363.6 98.3Z" fill="white"/>
<path d="M1406.4 98.3C1405.6 98.3 1404.9 99 1404.9 99.8C1404.9 100.6 1405.6 101.3 1406.4 101.3C1407.2 101.3 1407.9 100.6 1407.9 99.8C1407.9 98.9 1407.2 98.3 1406.4 98.3Z" fill="white"/>
<path d="M1107 98.3C1106.2 98.3 1105.5 99 1105.5 99.8C1105.5 100.6 1106.2 101.3 1107 101.3C1107.8 101.3 1108.5 100.6 1108.5 99.8C1108.5 98.9 1107.8 98.3 1107 98.3Z" fill="white"/>
<path d="M1192.5 98.3C1191.7 98.3 1191 99 1191 99.8C1191 100.6 1191.7 101.3 1192.5 101.3C1193.3 101.3 1194 100.6 1194 99.8C1194 98.9 1193.4 98.3 1192.5 98.3Z" fill="white"/>
<path d="M1299.5 98.3C1298.7 98.3 1298 99 1298 99.8C1298 100.6 1298.7 101.3 1299.5 101.3C1300.3 101.3 1301 100.6 1301 99.8C1300.9 98.9 1300.3 98.3 1299.5 98.3Z" fill="white"/>
<path d="M1149.8 98.3C1149 98.3 1148.3 99 1148.3 99.8C1148.3 100.6 1149 101.3 1149.8 101.3C1150.6 101.3 1151.3 100.6 1151.3 99.8C1151.3 98.9 1150.6 98.3 1149.8 98.3Z" fill="white"/>
<path d="M1320.8 98.3C1320 98.3 1319.3 99 1319.3 99.8C1319.3 100.6 1320 101.3 1320.8 101.3C1321.6 101.3 1322.3 100.6 1322.3 99.8C1322.3 98.9 1321.7 98.3 1320.8 98.3Z" fill="white"/>
<path d="M1213.9 98.3C1213.1 98.3 1212.4 99 1212.4 99.8C1212.4 100.6 1213.1 101.3 1213.9 101.3C1214.7 101.3 1215.4 100.6 1215.4 99.8C1215.4 98.9 1214.8 98.3 1213.9 98.3Z" fill="white"/>
<path d="M1385 98.3C1384.2 98.3 1383.5 99 1383.5 99.8C1383.5 100.6 1384.2 101.3 1385 101.3C1385.8 101.3 1386.5 100.6 1386.5 99.8C1386.5 98.9 1385.8 98.3 1385 98.3Z" fill="white"/>
<path d="M1021.5 98.3C1021.1 98.3 1020.7 98.5 1020.4 98.7C1020.2 99 1020 99.4 1020 99.7C1020 100.1 1020.2 100.5 1020.4 100.8C1020.7 101.1 1021.1 101.2 1021.5 101.2C1021.9 101.2 1022.3 101 1022.6 100.8C1022.8 100.5 1023 100.1 1023 99.7C1023 99.3 1022.8 98.9 1022.6 98.6C1022.3 98.4 1021.9 98.3 1021.5 98.3Z" fill="white"/>
<path d="M1107 79C1106.2 79 1105.5 79.7 1105.5 80.5C1105.5 81.3 1106.2 82 1107 82C1107.8 82 1108.5 81.3 1108.5 80.5C1108.5 79.7 1107.8 79 1107 79Z" fill="white"/>
<path d="M1299.5 79C1298.7 79 1298 79.7 1298 80.5C1298 81.3 1298.7 82 1299.5 82C1300.3 82 1301 81.3 1301 80.5C1300.9 79.7 1300.3 79 1299.5 79Z" fill="white"/>
<path d="M1064.3 79C1063.5 79 1062.8 79.7 1062.8 80.5C1062.8 81.3 1063.5 82 1064.3 82C1065.1 82 1065.8 81.3 1065.8 80.5C1065.8 79.7 1065.1 79 1064.3 79Z" fill="white"/>
<path d="M1342.2 79C1341.4 79 1340.7 79.7 1340.7 80.5C1340.7 81.3 1341.4 82 1342.2 82C1343 82 1343.7 81.3 1343.7 80.5C1343.7 79.7 1343 79 1342.2 79Z" fill="white"/>
<path d="M1085.6 79C1084.8 79 1084.1 79.7 1084.1 80.5C1084.1 81.3 1084.8 82 1085.6 82C1086.4 82 1087.1 81.3 1087.1 80.5C1087.1 79.7 1086.5 79 1085.6 79Z" fill="white"/>
<path d="M1363.6 79C1362.8 79 1362.1 79.7 1362.1 80.5C1362.1 81.3 1362.8 82 1363.6 82C1364.4 82 1365.1 81.3 1365.1 80.5C1365.1 79.7 1364.4 79 1363.6 79Z" fill="white"/>
<path d="M1278.1 79C1277.3 79 1276.6 79.7 1276.6 80.5C1276.6 81.3 1277.3 82 1278.1 82C1278.9 82 1279.6 81.3 1279.6 80.5C1279.6 79.7 1278.9 79 1278.1 79Z" fill="white"/>
<path d="M1149.8 79C1149 79 1148.3 79.7 1148.3 80.5C1148.3 81.3 1149 82 1149.8 82C1150.6 82 1151.3 81.3 1151.3 80.5C1151.3 79.7 1150.6 79 1149.8 79Z" fill="white"/>
<path d="M1320.8 79C1320 79 1319.3 79.7 1319.3 80.5C1319.3 81.3 1320 82 1320.8 82C1321.6 82 1322.3 81.3 1322.3 80.5C1322.3 79.7 1321.7 79 1320.8 79Z" fill="white"/>
<path d="M1128.4 79C1127.6 79 1126.9 79.7 1126.9 80.5C1126.9 81.3 1127.6 82 1128.4 82C1129.2 82 1129.9 81.3 1129.9 80.5C1129.9 79.7 1129.2 79 1128.4 79Z" fill="white"/>
<path d="M1213.9 79C1213.1 79 1212.4 79.7 1212.4 80.5C1212.4 81.3 1213.1 82 1213.9 82C1214.7 82 1215.4 81.3 1215.4 80.5C1215.4 79.7 1214.8 79 1213.9 79Z" fill="white"/>
<path d="M1042.9 79C1042.1 79 1041.4 79.7 1041.4 80.5C1041.4 81.3 1042.1 82 1042.9 82C1043.7 82 1044.4 81.3 1044.4 80.5C1044.4 79.7 1043.7 79 1042.9 79Z" fill="white"/>
<path d="M1171.2 79C1170.4 79 1169.7 79.7 1169.7 80.5C1169.7 81.3 1170.4 82 1171.2 82C1172 82 1172.7 81.3 1172.7 80.5C1172.7 79.7 1172 79 1171.2 79Z" fill="white"/>
<path d="M1427.7 79C1426.9 79 1426.2 79.7 1426.2 80.5C1426.2 81.3 1426.9 82 1427.7 82C1428.5 82 1429.2 81.3 1429.2 80.5C1429.2 79.7 1428.6 79 1427.7 79Z" fill="white"/>
<path d="M1385 79C1384.2 79 1383.5 79.7 1383.5 80.5C1383.5 81.3 1384.2 82 1385 82C1385.8 82 1386.5 81.3 1386.5 80.5C1386.5 79.7 1385.8 79 1385 79Z" fill="white"/>
<path d="M1192.5 79C1191.7 79 1191 79.7 1191 80.5C1191 81.3 1191.7 82 1192.5 82C1193.3 82 1194 81.3 1194 80.5C1194 79.7 1193.4 79 1192.5 79Z" fill="white"/>
<path d="M1235.3 79C1234.5 79 1233.8 79.7 1233.8 80.5C1233.8 81.3 1234.5 82 1235.3 82C1236.1 82 1236.8 81.3 1236.8 80.5C1236.8 79.7 1236.1 79 1235.3 79Z" fill="white"/>
<path d="M1406.4 79C1405.6 79 1404.9 79.7 1404.9 80.5C1404.9 81.3 1405.6 82 1406.4 82C1407.2 82 1407.9 81.3 1407.9 80.5C1407.9 79.7 1407.2 79 1406.4 79Z" fill="white"/>
<path d="M1256.7 79C1255.9 79 1255.2 79.7 1255.2 80.5C1255.2 81.3 1255.9 82 1256.7 82C1257.5 82 1258.2 81.3 1258.2 80.5C1258.2 79.7 1257.5 79 1256.7 79Z" fill="white"/>
<path d="M1021.5 79C1021.1 79 1020.7 79.2 1020.4 79.4C1020.2 79.7 1020 80.1 1020 80.5C1020 80.9 1020.2 81.3 1020.4 81.6C1020.7 81.8 1021.1 82 1021.5 82C1021.9 82 1022.3 81.8 1022.6 81.6C1022.8 81.3 1023 80.9 1023 80.5C1023 80.1 1022.8 79.7 1022.6 79.4C1022.3 79.2 1021.9 79 1021.5 79Z" fill="white"/>
<path d="M1256.7 59.8C1255.9 59.8 1255.2 60.5 1255.2 61.3C1255.2 62.1 1255.9 62.8 1256.7 62.8C1257.5 62.8 1258.2 62.1 1258.2 61.3C1258.2 60.4 1257.5 59.8 1256.7 59.8Z" fill="white"/>
<path d="M1107 59.8C1106.2 59.8 1105.5 60.5 1105.5 61.3C1105.5 62.1 1106.2 62.8 1107 62.8C1107.8 62.8 1108.5 62.1 1108.5 61.3C1108.5 60.4 1107.8 59.8 1107 59.8Z" fill="white"/>
<path d="M1128.4 59.8C1127.6 59.8 1126.9 60.5 1126.9 61.3C1126.9 62.1 1127.6 62.8 1128.4 62.8C1129.2 62.8 1129.9 62.1 1129.9 61.3C1129.9 60.4 1129.2 59.8 1128.4 59.8Z" fill="white"/>
<path d="M1278.1 59.8C1277.3 59.8 1276.6 60.5 1276.6 61.3C1276.6 62.1 1277.3 62.8 1278.1 62.8C1278.9 62.8 1279.6 62.1 1279.6 61.3C1279.6 60.4 1278.9 59.8 1278.1 59.8Z" fill="white"/>
<path d="M1213.9 59.8C1213.1 59.8 1212.4 60.5 1212.4 61.3C1212.4 62.1 1213.1 62.8 1213.9 62.8C1214.7 62.8 1215.4 62.1 1215.4 61.3C1215.4 60.4 1214.8 59.8 1213.9 59.8Z" fill="white"/>
<path d="M1192.5 59.8C1191.7 59.8 1191 60.5 1191 61.3C1191 62.1 1191.7 62.8 1192.5 62.8C1193.3 62.8 1194 62.1 1194 61.3C1194 60.4 1193.4 59.8 1192.5 59.8Z" fill="white"/>
<path d="M1235.3 59.8C1234.5 59.8 1233.8 60.5 1233.8 61.3C1233.8 62.1 1234.5 62.8 1235.3 62.8C1236.1 62.8 1236.8 62.1 1236.8 61.3C1236.8 60.4 1236.1 59.8 1235.3 59.8Z" fill="white"/>
<path d="M1299.5 59.8C1298.7 59.8 1298 60.5 1298 61.3C1298 62.1 1298.7 62.8 1299.5 62.8C1300.3 62.8 1301 62.1 1301 61.3C1300.9 60.4 1300.3 59.8 1299.5 59.8Z" fill="white"/>
<path d="M1342.2 59.8C1341.4 59.8 1340.7 60.5 1340.7 61.3C1340.7 62.1 1341.4 62.8 1342.2 62.8C1343 62.8 1343.7 62.1 1343.7 61.3C1343.7 60.4 1343 59.8 1342.2 59.8Z" fill="white"/>
<path d="M1406.4 59.8C1405.6 59.8 1404.9 60.5 1404.9 61.3C1404.9 62.1 1405.6 62.8 1406.4 62.8C1407.2 62.8 1407.9 62.1 1407.9 61.3C1407.9 60.4 1407.2 59.8 1406.4 59.8Z" fill="white"/>
<path d="M1385 59.8C1384.2 59.8 1383.5 60.5 1383.5 61.3C1383.5 62.1 1384.2 62.8 1385 62.8C1385.8 62.8 1386.5 62.1 1386.5 61.3C1386.5 60.4 1385.8 59.8 1385 59.8Z" fill="white"/>
<path d="M1042.9 59.8C1042.1 59.8 1041.4 60.5 1041.4 61.3C1041.4 62.1 1042.1 62.8 1042.9 62.8C1043.7 62.8 1044.4 62.1 1044.4 61.3C1044.4 60.4 1043.7 59.8 1042.9 59.8Z" fill="white"/>
<path d="M1064.3 59.8C1063.5 59.8 1062.8 60.5 1062.8 61.3C1062.8 62.1 1063.5 62.8 1064.3 62.8C1065.1 62.8 1065.8 62.1 1065.8 61.3C1065.8 60.4 1065.1 59.8 1064.3 59.8Z" fill="white"/>
<path d="M1149.8 59.8C1149 59.8 1148.3 60.5 1148.3 61.3C1148.3 62.1 1149 62.8 1149.8 62.8C1150.6 62.8 1151.3 62.1 1151.3 61.3C1151.3 60.4 1150.6 59.8 1149.8 59.8Z" fill="white"/>
<path d="M1363.6 59.8C1362.8 59.8 1362.1 60.5 1362.1 61.3C1362.1 62.1 1362.8 62.8 1363.6 62.8C1364.4 62.8 1365.1 62.1 1365.1 61.3C1365.1 60.4 1364.4 59.8 1363.6 59.8Z" fill="white"/>
<path d="M1427.7 59.8C1426.9 59.8 1426.2 60.5 1426.2 61.3C1426.2 62.1 1426.9 62.8 1427.7 62.8C1428.5 62.8 1429.2 62.1 1429.2 61.3C1429.2 60.4 1428.6 59.8 1427.7 59.8Z" fill="white"/>
<path d="M1171.2 59.8C1170.4 59.8 1169.7 60.5 1169.7 61.3C1169.7 62.1 1170.4 62.8 1171.2 62.8C1172 62.8 1172.7 62.1 1172.7 61.3C1172.7 60.4 1172 59.8 1171.2 59.8Z" fill="white"/>
<path d="M1085.6 59.8C1084.8 59.8 1084.1 60.5 1084.1 61.3C1084.1 62.1 1084.8 62.8 1085.6 62.8C1086.4 62.8 1087.1 62.1 1087.1 61.3C1087.1 60.4 1086.5 59.8 1085.6 59.8Z" fill="white"/>
<path d="M1320.8 59.8C1320 59.8 1319.3 60.5 1319.3 61.3C1319.3 62.1 1320 62.8 1320.8 62.8C1321.6 62.8 1322.3 62.1 1322.3 61.3C1322.3 60.4 1321.7 59.8 1320.8 59.8Z" fill="white"/>
<path d="M1021.5 59.8C1021.1 59.8 1020.7 60 1020.4 60.2C1020.2 60.5 1020 60.9 1020 61.2C1020 61.6 1020.2 62 1020.4 62.3C1020.7 62.6 1021.1 62.7 1021.5 62.7C1021.9 62.7 1022.3 62.5 1022.6 62.3C1022.8 62 1023 61.6 1023 61.2C1023 60.8 1022.8 60.4 1022.6 60.1C1022.3 59.9 1021.9 59.8 1021.5 59.8Z" fill="white"/>
<path d="M1427.7 40.5C1426.9 40.5 1426.2 41.2 1426.2 42C1426.2 42.8 1426.9 43.5 1427.7 43.5C1428.5 43.5 1429.2 42.8 1429.2 42C1429.2 41.2 1428.6 40.5 1427.7 40.5Z" fill="white"/>
<path d="M1128.4 40.5C1127.6 40.5 1126.9 41.2 1126.9 42C1126.9 42.8 1127.6 43.5 1128.4 43.5C1129.2 43.5 1129.9 42.8 1129.9 42C1129.9 41.2 1129.2 40.5 1128.4 40.5Z" fill="white"/>
<path d="M1171.2 40.5C1170.4 40.5 1169.7 41.2 1169.7 42C1169.7 42.8 1170.4 43.5 1171.2 43.5C1172 43.5 1172.7 42.8 1172.7 42C1172.7 41.2 1172 40.5 1171.2 40.5Z" fill="white"/>
<path d="M1213.9 40.5C1213.1 40.5 1212.4 41.2 1212.4 42C1212.4 42.8 1213.1 43.5 1213.9 43.5C1214.7 43.5 1215.4 42.8 1215.4 42C1215.4 41.2 1214.8 40.5 1213.9 40.5Z" fill="white"/>
<path d="M1064.3 40.5C1063.5 40.5 1062.8 41.2 1062.8 42C1062.8 42.8 1063.5 43.5 1064.3 43.5C1065.1 43.5 1065.8 42.8 1065.8 42C1065.8 41.2 1065.1 40.5 1064.3 40.5Z" fill="white"/>
<path d="M1299.5 40.5C1298.7 40.5 1298 41.2 1298 42C1298 42.8 1298.7 43.5 1299.5 43.5C1300.3 43.5 1301 42.8 1301 42C1300.9 41.2 1300.3 40.5 1299.5 40.5Z" fill="white"/>
<path d="M1192.5 40.5C1191.7 40.5 1191 41.2 1191 42C1191 42.8 1191.7 43.5 1192.5 43.5C1193.3 43.5 1194 42.8 1194 42C1194 41.2 1193.4 40.5 1192.5 40.5Z" fill="white"/>
<path d="M1085.6 40.5C1084.8 40.5 1084.1 41.2 1084.1 42C1084.1 42.8 1084.8 43.5 1085.6 43.5C1086.4 43.5 1087.1 42.8 1087.1 42C1087.1 41.2 1086.5 40.5 1085.6 40.5Z" fill="white"/>
<path d="M1149.8 40.5C1149 40.5 1148.3 41.2 1148.3 42C1148.3 42.8 1149 43.5 1149.8 43.5C1150.6 43.5 1151.3 42.8 1151.3 42C1151.3 41.2 1150.6 40.5 1149.8 40.5Z" fill="white"/>
<path d="M1342.2 40.5C1341.4 40.5 1340.7 41.2 1340.7 42C1340.7 42.8 1341.4 43.5 1342.2 43.5C1343 43.5 1343.7 42.8 1343.7 42C1343.7 41.2 1343 40.5 1342.2 40.5Z" fill="white"/>
<path d="M1107 40.5C1106.2 40.5 1105.5 41.2 1105.5 42C1105.5 42.8 1106.2 43.5 1107 43.5C1107.8 43.5 1108.5 42.8 1108.5 42C1108.5 41.2 1107.8 40.5 1107 40.5Z" fill="white"/>
<path d="M1385 40.5C1384.2 40.5 1383.5 41.2 1383.5 42C1383.5 42.8 1384.2 43.5 1385 43.5C1385.8 43.5 1386.5 42.8 1386.5 42C1386.5 41.2 1385.8 40.5 1385 40.5Z" fill="white"/>
<path d="M1256.7 40.5C1255.9 40.5 1255.2 41.2 1255.2 42C1255.2 42.8 1255.9 43.5 1256.7 43.5C1257.5 43.5 1258.2 42.8 1258.2 42C1258.2 41.2 1257.5 40.5 1256.7 40.5Z" fill="white"/>
<path d="M1363.6 40.5C1362.8 40.5 1362.1 41.2 1362.1 42C1362.1 42.8 1362.8 43.5 1363.6 43.5C1364.4 43.5 1365.1 42.8 1365.1 42C1365.1 41.2 1364.4 40.5 1363.6 40.5Z" fill="white"/>
<path d="M1042.9 40.5C1042.1 40.5 1041.4 41.2 1041.4 42C1041.4 42.8 1042.1 43.5 1042.9 43.5C1043.7 43.5 1044.4 42.8 1044.4 42C1044.4 41.2 1043.7 40.5 1042.9 40.5Z" fill="white"/>
<path d="M1320.8 40.5C1320 40.5 1319.3 41.2 1319.3 42C1319.3 42.8 1320 43.5 1320.8 43.5C1321.6 43.5 1322.3 42.8 1322.3 42C1322.3 41.2 1321.7 40.5 1320.8 40.5Z" fill="white"/>
<path d="M1406.4 40.5C1405.6 40.5 1404.9 41.2 1404.9 42C1404.9 42.8 1405.6 43.5 1406.4 43.5C1407.2 43.5 1407.9 42.8 1407.9 42C1407.9 41.2 1407.2 40.5 1406.4 40.5Z" fill="white"/>
<path d="M1278.1 40.5C1277.3 40.5 1276.6 41.2 1276.6 42C1276.6 42.8 1277.3 43.5 1278.1 43.5C1278.9 43.5 1279.6 42.8 1279.6 42C1279.6 41.2 1278.9 40.5 1278.1 40.5Z" fill="white"/>
<path d="M1235.3 40.5C1234.5 40.5 1233.8 41.2 1233.8 42C1233.8 42.8 1234.5 43.5 1235.3 43.5C1236.1 43.5 1236.8 42.8 1236.8 42C1236.8 41.2 1236.1 40.5 1235.3 40.5Z" fill="white"/>
<path d="M1021.5 40.5C1021.1 40.5 1020.7 40.7 1020.4 40.9C1020.2 41.2 1020 41.6 1020 42C1020 42.4 1020.2 42.8 1020.4 43.1C1020.7 43.4 1021.1 43.5 1021.5 43.5C1021.9 43.5 1022.3 43.3 1022.6 43.1C1022.8 42.8 1023 42.4 1023 42C1023 41.6 1022.8 41.2 1022.6 40.9C1022.3 40.7 1021.9 40.5 1021.5 40.5Z" fill="white"/>
<path d="M1042.9 21.3C1042.1 21.3 1041.4 22 1041.4 22.8C1041.4 23.6 1042.1 24.3 1042.9 24.3C1043.7 24.3 1044.4 23.6 1044.4 22.8C1044.4 21.9 1043.7 21.3 1042.9 21.3Z" fill="white"/>
<path d="M1064.3 21.3C1063.5 21.3 1062.8 22 1062.8 22.8C1062.8 23.6 1063.5 24.3 1064.3 24.3C1065.1 24.3 1065.8 23.6 1065.8 22.8C1065.8 21.9 1065.1 21.3 1064.3 21.3Z" fill="white"/>
<path d="M1085.6 21.3C1084.8 21.3 1084.1 22 1084.1 22.8C1084.1 23.6 1084.8 24.3 1085.6 24.3C1086.4 24.3 1087.1 23.6 1087.1 22.8C1087.1 21.9 1086.5 21.3 1085.6 21.3Z" fill="white"/>
<path d="M1107 21.3C1106.2 21.3 1105.5 22 1105.5 22.8C1105.5 23.6 1106.2 24.3 1107 24.3C1107.8 24.3 1108.5 23.6 1108.5 22.8C1108.5 21.9 1107.8 21.3 1107 21.3Z" fill="white"/>
<path d="M1128.4 21.3C1127.6 21.3 1126.9 22 1126.9 22.8C1126.9 23.6 1127.6 24.3 1128.4 24.3C1129.2 24.3 1129.9 23.6 1129.9 22.8C1129.9 21.9 1129.2 21.3 1128.4 21.3Z" fill="white"/>
<path d="M1171.2 21.3C1170.4 21.3 1169.7 22 1169.7 22.8C1169.7 23.6 1170.4 24.3 1171.2 24.3C1172 24.3 1172.7 23.6 1172.7 22.8C1172.7 21.9 1172 21.3 1171.2 21.3Z" fill="white"/>
<path d="M1406.4 21.3C1405.6 21.3 1404.9 22 1404.9 22.8C1404.9 23.6 1405.6 24.3 1406.4 24.3C1407.2 24.3 1407.9 23.6 1407.9 22.8C1407.9 21.9 1407.2 21.3 1406.4 21.3Z" fill="white"/>
<path d="M1278.1 21.3C1277.3 21.3 1276.6 22 1276.6 22.8C1276.6 23.6 1277.3 24.3 1278.1 24.3C1278.9 24.3 1279.6 23.6 1279.6 22.8C1279.6 21.9 1278.9 21.3 1278.1 21.3Z" fill="white"/>
<path d="M1256.7 21.3C1255.9 21.3 1255.2 22 1255.2 22.8C1255.2 23.6 1255.9 24.3 1256.7 24.3C1257.5 24.3 1258.2 23.6 1258.2 22.8C1258.2 21.9 1257.5 21.3 1256.7 21.3Z" fill="white"/>
<path d="M1427.7 21.3C1426.9 21.3 1426.2 22 1426.2 22.8C1426.2 23.6 1426.9 24.3 1427.7 24.3C1428.5 24.3 1429.2 23.6 1429.2 22.8C1429.2 21.9 1428.6 21.3 1427.7 21.3Z" fill="white"/>
<path d="M1299.5 21.3C1298.7 21.3 1298 22 1298 22.8C1298 23.6 1298.7 24.3 1299.5 24.3C1300.3 24.3 1301 23.6 1301 22.8C1300.9 21.9 1300.3 21.3 1299.5 21.3Z" fill="white"/>
<path d="M1342.2 21.3C1341.4 21.3 1340.7 22 1340.7 22.8C1340.7 23.6 1341.4 24.3 1342.2 24.3C1343 24.3 1343.7 23.6 1343.7 22.8C1343.7 21.9 1343 21.3 1342.2 21.3Z" fill="white"/>
<path d="M1385 21.3C1384.2 21.3 1383.5 22 1383.5 22.8C1383.5 23.6 1384.2 24.3 1385 24.3C1385.8 24.3 1386.5 23.6 1386.5 22.8C1386.5 21.9 1385.8 21.3 1385 21.3Z" fill="white"/>
<path d="M1320.8 21.3C1320 21.3 1319.3 22 1319.3 22.8C1319.3 23.6 1320 24.3 1320.8 24.3C1321.6 24.3 1322.3 23.6 1322.3 22.8C1322.3 21.9 1321.7 21.3 1320.8 21.3Z" fill="white"/>
<path d="M1149.8 21.3C1149 21.3 1148.3 22 1148.3 22.8C1148.3 23.6 1149 24.3 1149.8 24.3C1150.6 24.3 1151.3 23.6 1151.3 22.8C1151.3 21.9 1150.6 21.3 1149.8 21.3Z" fill="white"/>
<path d="M1363.6 21.3C1362.8 21.3 1362.1 22 1362.1 22.8C1362.1 23.6 1362.8 24.3 1363.6 24.3C1364.4 24.3 1365.1 23.6 1365.1 22.8C1365.1 21.9 1364.4 21.3 1363.6 21.3Z" fill="white"/>
<path d="M1213.9 21.3C1213.1 21.3 1212.4 22 1212.4 22.8C1212.4 23.6 1213.1 24.3 1213.9 24.3C1214.7 24.3 1215.4 23.6 1215.4 22.8C1215.4 21.9 1214.8 21.3 1213.9 21.3Z" fill="white"/>
<path d="M1192.5 21.3C1191.7 21.3 1191 22 1191 22.8C1191 23.6 1191.7 24.3 1192.5 24.3C1193.3 24.3 1194 23.6 1194 22.8C1194 21.9 1193.4 21.3 1192.5 21.3Z" fill="white"/>
<path d="M1235.3 21.3C1234.5 21.3 1233.8 22 1233.8 22.8C1233.8 23.6 1234.5 24.3 1235.3 24.3C1236.1 24.3 1236.8 23.6 1236.8 22.8C1236.8 21.9 1236.1 21.3 1235.3 21.3Z" fill="white"/>
<path d="M1021.5 21.3C1021.1 21.3 1020.7 21.5 1020.4 21.7C1020.2 22 1020 22.4 1020 22.7C1020 23.1 1020.2 23.5 1020.4 23.8C1020.7 24.1 1021.1 24.2 1021.5 24.2C1021.9 24.2 1022.3 24 1022.6 23.8C1022.8 23.5 1023 23.1 1023 22.7C1023 22.3 1022.8 21.9 1022.6 21.6C1022.3 21.4 1021.9 21.3 1021.5 21.3Z" fill="white"/>
<path d="M1363.6 2C1362.8 2 1362.1 2.7 1362.1 3.5C1362.1 4.3 1362.8 5 1363.6 5C1364.4 5 1365.1 4.3 1365.1 3.5C1365.1 2.7 1364.4 2 1363.6 2Z" fill="white"/>
<path d="M1385 2C1384.2 2 1383.5 2.7 1383.5 3.5C1383.5 4.3 1384.2 5 1385 5C1385.8 5 1386.5 4.3 1386.5 3.5C1386.5 2.7 1385.8 2 1385 2Z" fill="white"/>
<path d="M1427.7 2C1426.9 2 1426.2 2.7 1426.2 3.5C1426.2 4.3 1426.9 5 1427.7 5C1428.5 5 1429.2 4.3 1429.2 3.5C1429.2 2.7 1428.6 2 1427.7 2Z" fill="white"/>
<path d="M1406.4 2C1405.6 2 1404.9 2.7 1404.9 3.5C1404.9 4.3 1405.6 5 1406.4 5C1407.2 5 1407.9 4.3 1407.9 3.5C1407.9 2.7 1407.2 2 1406.4 2Z" fill="white"/>
<path d="M1042.9 2C1042.1 2 1041.4 2.7 1041.4 3.5C1041.4 4.3 1042.1 5 1042.9 5C1043.7 5 1044.4 4.3 1044.4 3.5C1044.4 2.7 1043.7 2 1042.9 2Z" fill="white"/>
<path d="M1235.3 2C1234.5 2 1233.8 2.7 1233.8 3.5C1233.8 4.3 1234.5 5 1235.3 5C1236.1 5 1236.8 4.3 1236.8 3.5C1236.8 2.7 1236.1 2 1235.3 2Z" fill="white"/>
<path d="M1192.5 2C1191.7 2 1191 2.7 1191 3.5C1191 4.3 1191.7 5 1192.5 5C1193.3 5 1194 4.3 1194 3.5C1194 2.7 1193.4 2 1192.5 2Z" fill="white"/>
<path d="M1107 2C1106.2 2 1105.5 2.7 1105.5 3.5C1105.5 4.3 1106.2 5 1107 5C1107.8 5 1108.5 4.3 1108.5 3.5C1108.5 2.7 1107.8 2 1107 2Z" fill="white"/>
<path d="M1213.9 2C1213.1 2 1212.4 2.7 1212.4 3.5C1212.4 4.3 1213.1 5 1213.9 5C1214.7 5 1215.4 4.3 1215.4 3.5C1215.4 2.7 1214.8 2 1213.9 2Z" fill="white"/>
<path d="M1149.8 2C1149 2 1148.3 2.7 1148.3 3.5C1148.3 4.3 1149 5 1149.8 5C1150.6 5 1151.3 4.3 1151.3 3.5C1151.3 2.7 1150.6 2 1149.8 2Z" fill="white"/>
<path d="M1171.2 2C1170.4 2 1169.7 2.7 1169.7 3.5C1169.7 4.3 1170.4 5 1171.2 5C1172 5 1172.7 4.3 1172.7 3.5C1172.7 2.7 1172 2 1171.2 2Z" fill="white"/>
<path d="M1128.4 2C1127.6 2 1126.9 2.7 1126.9 3.5C1126.9 4.3 1127.6 5 1128.4 5C1129.2 5 1129.9 4.3 1129.9 3.5C1129.9 2.7 1129.2 2 1128.4 2Z" fill="white"/>
<path d="M1256.7 2C1255.9 2 1255.2 2.7 1255.2 3.5C1255.2 4.3 1255.9 5 1256.7 5C1257.5 5 1258.2 4.3 1258.2 3.5C1258.2 2.7 1257.5 2 1256.7 2Z" fill="white"/>
<path d="M1320.8 2C1320 2 1319.3 2.7 1319.3 3.5C1319.3 4.3 1320 5 1320.8 5C1321.6 5 1322.3 4.3 1322.3 3.5C1322.3 2.7 1321.7 2 1320.8 2Z" fill="white"/>
<path d="M1299.5 2C1298.7 2 1298 2.7 1298 3.5C1298 4.3 1298.7 5 1299.5 5C1300.3 5 1301 4.3 1301 3.5C1301 2.7 1300.3 2 1299.5 2Z" fill="white"/>
<path d="M1064.3 2C1063.5 2 1062.8 2.7 1062.8 3.5C1062.8 4.3 1063.4 5 1064.3 5C1065.1 5 1065.8 4.3 1065.8 3.5C1065.8 2.7 1065.1 2 1064.3 2Z" fill="white"/>
<path d="M1342.2 2C1341.4 2 1340.7 2.7 1340.7 3.5C1340.7 4.3 1341.4 5 1342.2 5C1343 5 1343.7 4.3 1343.7 3.5C1343.7 2.7 1343 2 1342.2 2Z" fill="white"/>
<path d="M1278.1 2C1277.3 2 1276.6 2.7 1276.6 3.5C1276.6 4.3 1277.3 5 1278.1 5C1278.9 5 1279.6 4.3 1279.6 3.5C1279.6 2.7 1278.9 2 1278.1 2Z" fill="white"/>
<path d="M1085.6 2C1084.8 2 1084.1 2.7 1084.1 3.5C1084.1 4.3 1084.8 5 1085.6 5C1086.4 5 1087.1 4.3 1087.1 3.5C1087.1 2.7 1086.5 2 1085.6 2Z" fill="white"/>
<path d="M1021.5 2C1021.1 2 1020.7 2.2 1020.4 2.4C1020.2 2.7 1020 3.1 1020 3.5C1020 3.9 1020.2 4.3 1020.4 4.6C1020.7 4.8 1021.1 5 1021.5 5C1021.9 5 1022.3 4.8 1022.6 4.6C1022.8 4.3 1023 3.9 1023 3.5C1023 3.1 1022.8 2.7 1022.6 2.4C1022.3 2.2 1021.9 2 1021.5 2Z" fill="white"/>
</g>
</g>
<defs>
<clipPath id="clip0_0_5584">
<rect width="1440" height="3610" fill="white" transform="translate(0 -1584)"/>
</clipPath>
<clipPath id="clip1_0_5584">
<rect width="473.4" height="99.2" fill="white" transform="translate(-67 549)"/>
</clipPath>
<clipPath id="clip2_0_5584">
<rect width="473.4" height="99.2" fill="white" transform="translate(1020 2)"/>
</clipPath>
</defs>
</svg>
