<svg width="96" height="96" viewBox="0 0 96 96" fill="none" xmlns="http://www.w3.org/2000/svg">
<path d="M14 47.5C14 54.3235 16.0234 60.9937 19.8143 66.6672C23.6052 72.3407 28.9934 76.7626 35.2974 79.3738C41.6015 81.9851 48.5383 82.6683 55.2306 81.3371C61.923 80.0059 68.0703 76.7201 72.8952 71.8952C77.7201 67.0703 81.0059 60.923 82.3371 54.2306C83.6683 47.5383 82.9851 40.6015 80.3738 34.2974C77.7626 27.9934 73.3407 22.6052 67.6672 18.8143C61.9937 15.0234 55.3235 13 48.5 13L48.5 16.45C54.6411 16.45 60.6443 18.2711 65.7505 21.6829C70.8566 25.0947 74.8364 29.944 77.1865 35.6177C79.5366 41.2913 80.1515 47.5344 78.9534 53.5576C77.7553 59.5807 74.7981 65.1132 70.4557 69.4557C66.1132 73.7981 60.5807 76.7553 54.5576 77.9534C48.5344 79.1515 42.2913 78.5366 36.6177 76.1865C30.944 73.8364 26.0947 69.8566 22.6829 64.7505C19.2711 59.6443 17.45 53.6411 17.45 47.5L14 47.5Z" fill="url(#paint0_linear_0_1978)"/>
<path d="M48.5 13C43.9694 13 39.4832 13.8924 35.2974 15.6262C31.1117 17.3599 27.3084 19.9012 24.1048 23.1048C20.9012 26.3084 18.3599 30.1117 16.6262 34.2974C14.8924 38.4832 14 42.9694 14 47.5L17.45 47.5C17.45 43.4225 18.2531 39.3848 19.8135 35.6177C21.3739 31.8505 23.6611 28.4276 26.5443 25.5443C29.4276 22.6611 32.8505 20.374 36.6177 18.8135C40.3848 17.2531 44.4225 16.45 48.5 16.45L48.5 13Z" fill="#F0F0F0"/>
<path d="M54.0694 54.912V57H41.9974V55.368L48.8374 48.768C49.6694 47.968 50.2294 47.28 50.5174 46.704C50.8054 46.112 50.9494 45.52 50.9494 44.928C50.9494 44.048 50.6374 43.368 50.0134 42.888C49.4054 42.392 48.5254 42.144 47.3734 42.144C45.5174 42.144 44.0854 42.752 43.0774 43.968L41.4454 42.552C42.1014 41.752 42.9574 41.128 44.0134 40.68C45.0854 40.232 46.2774 40.008 47.5894 40.008C49.3494 40.008 50.7494 40.432 51.7894 41.28C52.8294 42.112 53.3494 43.248 53.3494 44.688C53.3494 45.584 53.1574 46.432 52.7734 47.232C52.3894 48.032 51.6614 48.944 50.5894 49.968L45.4534 54.912H54.0694Z" fill="#FD2CE1"/>
<defs>
<linearGradient id="paint0_linear_0_1978" x1="48.5" y1="13" x2="48.5" y2="82" gradientUnits="userSpaceOnUse">
<stop stop-color="#FE20E1"/>
<stop offset="0.462908" stop-color="#DA75DF"/>
<stop offset="1" stop-color="#3CB9DB"/>
</linearGradient>
</defs>
</svg>
