<svg width="96" height="96" viewBox="0 0 96 96" fill="none" xmlns="http://www.w3.org/2000/svg">
<path d="M20.088 27.9294C15.6732 34.3386 13.5552 42.0522 14.0779 49.8172C14.6006 57.5821 17.7334 64.9422 22.9673 70.7019C28.2011 76.4616 35.2287 80.2825 42.9083 81.5438C50.5879 82.8052 58.4684 81.433 65.2697 77.6501C72.071 73.8672 77.3934 67.8958 80.3724 60.706C83.3514 53.5162 83.812 45.5304 81.6793 38.0458C79.5466 30.5612 74.946 24.0175 68.6247 19.4778C62.3035 14.938 54.633 12.6689 46.8592 13.039L47.0233 16.4851C54.0197 16.152 60.9231 18.1942 66.6123 22.28C72.3014 26.3658 76.442 32.2551 78.3614 38.9912C80.2808 45.7273 79.8663 52.9146 77.1852 59.3854C74.5041 65.8562 69.7139 71.2304 63.5927 74.6351C57.4716 78.0397 50.3791 79.2747 43.4675 78.1395C36.5558 77.0042 30.231 73.5654 25.5205 68.3817C20.81 63.198 17.9905 56.5739 17.5201 49.5854C17.0497 42.597 18.9559 35.6548 22.9292 29.8865L20.088 27.9294Z" fill="url(#paint0_linear_0_1983)"/>
<path d="M48.5 13C42.8022 13 37.1932 14.4112 32.1738 17.1075C27.1544 19.8038 22.8809 23.7013 19.7351 28.4519L22.6116 30.3567C25.4428 26.0812 29.2889 22.5734 33.8064 20.1467C38.3239 17.7201 43.372 16.45 48.5 16.45L48.5 13Z" fill="#F0F0F0"/>
<path d="M48.7168 47.256C50.3648 47.416 51.6208 47.928 52.4848 48.792C53.3488 49.64 53.7808 50.728 53.7808 52.056C53.7808 53.016 53.5408 53.888 53.0608 54.672C52.5808 55.44 51.8608 56.056 50.9008 56.52C49.9568 56.968 48.7968 57.192 47.4208 57.192C46.2208 57.192 45.0688 57.016 43.9648 56.664C42.8608 56.296 41.9568 55.792 41.2528 55.152L42.3568 53.256C42.9328 53.8 43.6688 54.24 44.5648 54.576C45.4608 54.896 46.4128 55.056 47.4208 55.056C48.6688 55.056 49.6368 54.792 50.3248 54.264C51.0288 53.736 51.3808 53.008 51.3808 52.08C51.3808 51.152 51.0368 50.432 50.3488 49.92C49.6608 49.408 48.6208 49.152 47.2288 49.152H45.8848V47.472L50.1088 42.288H42.0208V40.2H53.1088V41.832L48.7168 47.256Z" fill="#FD2CE1"/>
<defs>
<linearGradient id="paint0_linear_0_1983" x1="48.5" y1="13" x2="48.5" y2="82" gradientUnits="userSpaceOnUse">
<stop stop-color="#FE20E1"/>
<stop offset="0.462908" stop-color="#DA75DF"/>
<stop offset="1" stop-color="#3CB9DB"/>
</linearGradient>
</defs>
</svg>
