<svg width="96" height="96" viewBox="0 0 96 96" fill="none" xmlns="http://www.w3.org/2000/svg">
<path d="M65.2258 77.6744C73.2286 73.2385 79.1414 65.8051 81.6635 57.0096C84.1856 48.2141 83.1104 38.7769 78.6744 30.7742C74.2385 22.7714 66.8051 16.8586 58.0096 14.3365C49.2141 11.8144 39.7769 12.8896 31.7742 17.3256L33.4467 20.343C40.6492 16.3506 49.1427 15.383 57.0586 17.6528C64.9746 19.9227 71.6646 25.2443 75.657 32.4467C79.6494 39.6492 80.617 48.1427 78.3472 56.0586C76.0773 63.9746 70.7557 70.6646 63.5533 74.657L65.2258 77.6744Z" fill="url(#paint0_linear_0_1973)"/>
<path d="M48.5 13C43.1828 13 37.9376 14.229 33.1738 16.5911C28.4101 18.9532 24.2568 22.3844 21.0383 26.6169C17.8198 30.8493 15.6231 35.7684 14.6198 40.9901C13.6164 46.2118 13.8336 51.5947 15.2544 56.7185C16.6752 61.8424 19.2611 66.5685 22.8102 70.5279C26.3593 74.4872 30.7755 77.5727 35.7141 79.5432C40.6526 81.5138 45.9798 82.3162 51.2797 81.8878C56.5796 81.4594 61.7088 79.8118 66.2667 77.0735L64.49 74.1162C60.3879 76.5806 55.7717 78.0635 51.0017 78.4491C46.2318 78.8346 41.4373 78.1125 36.9926 76.3389C32.5479 74.5654 28.5733 71.7885 25.3792 68.2251C22.185 64.6617 19.8577 60.4082 18.579 55.7967C17.3003 51.1852 17.1048 46.3406 18.0078 41.6411C18.9108 36.9416 20.8878 32.5144 23.7845 28.7052C26.6812 24.896 30.4191 21.8079 34.7065 19.682C38.9938 17.5561 43.7145 16.45 48.5 16.45L48.5 13Z" fill="#F0F0F0"/>
<path d="M50.4186 40.2V57H48.0426V42.288H44.2506V40.2H50.4186Z" fill="#FD2CE1"/>
<defs>
<linearGradient id="paint0_linear_0_1973" x1="48.5" y1="13" x2="48.5" y2="82" gradientUnits="userSpaceOnUse">
<stop stop-color="#FE20E1"/>
<stop offset="0.462908" stop-color="#DA75DF"/>
<stop offset="1" stop-color="#3CB9DB"/>
</linearGradient>
</defs>
</svg>
